<svg width="50" height="50" viewBox="0 0 50 50" fill="none" xmlns="http://www.w3.org/2000/svg">
<path d="M10.417 6.25H37.5003C39.1579 6.25 40.7476 6.90848 41.9197 8.08058C43.0918 9.25269 43.7503 10.8424 43.7503 12.5V31.25C43.7503 32.9076 43.0918 34.4973 41.9197 35.6694C40.7476 36.8415 39.1579 37.5 37.5003 37.5H27.9378L20.2295 45.2292C19.8545 45.6042 19.3337 45.8333 18.7503 45.8333C18.1978 45.8333 17.6679 45.6138 17.2772 45.2231C16.8865 44.8324 16.667 44.3025 16.667 43.75V37.5H10.417C8.75939 37.5 7.16968 36.8415 5.99757 35.6694C4.82547 34.4973 4.16699 32.9076 4.16699 31.25V12.5C4.16699 10.8424 4.82547 9.25269 5.99757 8.08058C7.16968 6.90848 8.75939 6.25 10.417 6.25ZM37.5003 8.33333H10.417C9.31192 8.33333 8.25212 8.77232 7.47071 9.55372C6.68931 10.3351 6.25033 11.3949 6.25033 12.5V31.25C6.25033 32.3551 6.68931 33.4149 7.47071 34.1963C8.25212 34.9777 9.31192 35.4167 10.417 35.4167H18.7503V43.75L27.0837 35.4167H37.5003C38.6054 35.4167 39.6652 34.9777 40.4466 34.1963C41.228 33.4149 41.667 32.3551 41.667 31.25V12.5C41.667 11.3949 41.228 10.3351 40.4466 9.55372C39.6652 8.77232 38.6054 8.33333 37.5003 8.33333ZM10.417 14.5833H37.5003V16.6667H10.417V14.5833ZM10.417 20.8333H35.417V22.9167H10.417V20.8333ZM10.417 27.0833H27.0837V29.1667H10.417V27.0833Z" fill="#D9D9D9"/>
</svg>
