<svg width="40" height="40" viewBox="0 0 40 40" fill="none" xmlns="http://www.w3.org/2000/svg">
<path d="M10 10H23.3333C24.95 10 26.3833 10.7667 27.3 11.9667L34.2333 20.8333L27.3 29.7C26.3833 30.9 24.95 31.6667 23.3333 31.6667H10C8.67392 31.6667 7.40215 31.1399 6.46447 30.2022C5.52678 29.2645 5 27.9927 5 26.6667V15C5 13.6739 5.52678 12.4021 6.46447 11.4645C7.40215 10.5268 8.67392 10 10 10ZM25.9667 28.7167L32.1167 20.8333L25.9667 12.95C25.35 12.1667 24.4 11.6667 23.3333 11.6667H10C9.11595 11.6667 8.2681 12.0179 7.64298 12.643C7.01786 13.2681 6.66667 14.1159 6.66667 15V26.6667C6.66667 27.5507 7.01786 28.3986 7.64298 29.0237C8.2681 29.6488 9.11595 30 10 30H23.3333C24.4 30 25.35 29.5 25.9667 28.7167Z" fill="#D9D9D9"/>
</svg>
