<svg width="50" height="50" viewBox="0 0 50 50" fill="none" xmlns="http://www.w3.org/2000/svg">
<path d="M20.2412 18.0542C21.5023 17.4087 22.9606 17.2629 24.3245 17.6458C27.7933 18.2583 30.4495 21.525 30.4495 25.2V31.1208C30.4495 33.3666 28.61 35.2041 26.3662 35.2041H22.2829L17.9954 43.7791C17.7697 44.2498 17.445 44.6662 17.0435 44.9998C16.642 45.3334 16.1732 45.5763 15.6692 45.712C15.1652 45.8477 14.6378 45.873 14.1231 45.786C13.6084 45.6991 13.1185 45.502 12.687 45.2083C11.0537 44.1875 10.6454 42.1458 11.462 40.5125L14.1162 35.2041" stroke="#D9D9D9" stroke-width="1.5" stroke-miterlimit="10" stroke-linecap="round" stroke-linejoin="round"/>
<path d="M6.97037 35.2041L4.3162 40.5125C3.49954 42.1458 3.90787 44.1875 5.5412 45.2083C5.97271 45.502 6.46255 45.6991 6.97725 45.786C7.49194 45.873 8.01933 45.8477 8.52337 45.712C9.0274 45.5763 9.49618 45.3333 9.89766 44.9998C10.2991 44.6662 10.6238 44.2498 10.8495 43.7791L11.2037 43.2208M43.885 45.8375H27.5516M33.6766 17.2541H37.76C41.2308 17.2541 43.885 19.9083 43.885 23.3791V29.5041M43.885 29.5041H41.8433C39.5975 29.5041 37.76 31.3416 37.76 33.5875V45.8375H47.9683V33.5875C47.9683 31.3416 46.1308 29.5041 43.885 29.5041ZM17.1787 28.875H5.5412C5.22739 28.8705 4.92242 28.7704 4.66704 28.588C4.41166 28.4056 4.21803 28.1495 4.11204 27.8541L2.07037 20.5041C1.8662 19.4833 2.4787 18.6666 3.49954 18.6666H13.2995C13.912 18.6666 14.5245 19.075 14.7287 19.6875L17.1787 28.875ZM17.1787 28.875H23.3037M22.2829 14.3708C22.9532 14.3708 23.6169 14.2388 24.2362 13.9823C24.8554 13.7258 25.4181 13.3498 25.8921 12.8758C26.366 12.4019 26.742 11.8392 26.9985 11.2199C27.255 10.6007 27.387 9.93693 27.387 9.26664C27.387 8.59635 27.255 7.93263 26.9985 7.31336C26.742 6.6941 26.366 6.13142 25.8921 5.65745C25.4181 5.18349 24.8554 4.80752 24.2362 4.55101C23.6169 4.2945 22.9532 4.16248 22.2829 4.16248C20.9292 4.16248 19.6309 4.70023 18.6737 5.65745C17.7165 6.61467 17.1787 7.91293 17.1787 9.26664C17.1787 10.6204 17.7165 11.9186 18.6737 12.8758C19.6309 13.833 20.9292 14.3708 22.2829 14.3708Z" stroke="#D9D9D9" stroke-width="1.5" stroke-miterlimit="10" stroke-linecap="round" stroke-linejoin="round"/>
</svg>
