<svg width="50" height="50" viewBox="0 0 50 50" fill="none" xmlns="http://www.w3.org/2000/svg">
<path d="M16.6667 6.25H35.4167C37.0743 6.25 38.664 6.90848 39.8361 8.08058C41.0082 9.25269 41.6667 10.8424 41.6667 12.5V39.5833C41.6667 41.2409 41.0082 42.8306 39.8361 44.0028C38.664 45.1749 37.0743 45.8333 35.4167 45.8333H16.6667C15.0091 45.8333 13.4194 45.1749 12.2473 44.0028C11.0751 42.8306 10.4167 41.2409 10.4167 39.5833V12.5C10.4167 10.8424 11.0751 9.25269 12.2473 8.08058C13.4194 6.90848 15.0091 6.25 16.6667 6.25ZM16.6667 8.33333C15.5616 8.33333 14.5018 8.77232 13.7204 9.55372C12.939 10.3351 12.5 11.3949 12.5 12.5V39.5833C12.5 40.6884 12.939 41.7482 13.7204 42.5296C14.5018 43.311 15.5616 43.75 16.6667 43.75H35.4167C36.5217 43.75 37.5815 43.311 38.3629 42.5296C39.1443 41.7482 39.5833 40.6884 39.5833 39.5833V12.5C39.5833 11.3949 39.1443 10.3351 38.3629 9.55372C37.5815 8.77232 36.5217 8.33333 35.4167 8.33333H29.1667V22.2917L22.9167 17.9167L16.6667 22.2917V8.33333ZM27.0833 8.33333H18.75V18.2917L22.9167 15.375L27.0833 18.2917V8.33333ZM16.6667 50C13.904 50 11.2545 48.9025 9.30097 46.949C7.34747 44.9955 6.25 42.346 6.25 39.5833V14.5833H8.33333V39.5833C8.33333 41.7935 9.21131 43.9131 10.7741 45.4759C12.3369 47.0387 14.4565 47.9167 16.6667 47.9167H33.3333V50H16.6667Z" fill="#D9D9D9"/>
</svg>
