<svg width="30" height="30" viewBox="0 0 30 30" fill="none" xmlns="http://www.w3.org/2000/svg">
<path d="M2.5 12.5H6.25C6.58152 12.5 6.89946 12.6317 7.13388 12.8661C7.3683 13.1005 7.5 13.4185 7.5 13.75V25C7.5 25.3315 7.3683 25.6495 7.13388 25.8839C6.89946 26.1183 6.58152 26.25 6.25 26.25H2.5C2.16848 26.25 1.85054 26.1183 1.61612 25.8839C1.3817 25.6495 1.25 25.3315 1.25 25V13.75C1.25 13.4185 1.3817 13.1005 1.61612 12.8661C1.85054 12.6317 2.16848 12.5 2.5 12.5ZM2.5 13.75V25H6.25V13.75H2.5ZM22.15 23.7875L25.9 17.5375C26.125 17.1625 26.25 16.7125 26.25 16.25V15C26.25 14.337 25.9866 13.7011 25.5178 13.2322C25.0489 12.7634 24.413 12.5 23.75 12.5H16.7375L18.5625 5.70001V5.67501C18.6217 5.46428 18.6227 5.24146 18.5655 5.03019C18.5083 4.81892 18.3949 4.62707 18.2375 4.47501L10.7375 11.9875C10.275 12.4375 10 13.0625 10 13.75V22.5C10 23.1631 10.2634 23.7989 10.7322 24.2678C11.2011 24.7366 11.837 25 12.5 25H20C20.9125 25 21.7125 24.5125 22.15 23.7875ZM27.5 16.25C27.5 16.9875 27.2875 17.6875 26.9125 18.2625L23.275 24.3125C22.6375 25.475 21.4125 26.25 20 26.25H12.5C11.5054 26.25 10.5516 25.8549 9.84835 25.1517C9.14509 24.4484 8.75 23.4946 8.75 22.5V13.75C8.75 12.7125 9.175 11.775 9.85 11.1L18.2375 2.70001L19.125 3.58751C19.7875 4.25001 20 5.20001 19.7625 6.05001L18.3625 11.25H23.75C24.7446 11.25 25.6984 11.6451 26.4017 12.3484C27.1049 13.0516 27.5 14.0055 27.5 15V16.25Z" fill="#D9D9D9"/>
</svg>
