<svg width="50" height="50" viewBox="0 0 50 50" fill="none" xmlns="http://www.w3.org/2000/svg">
<path d="M23.9587 14.5833C25.34 14.5833 26.6648 15.1321 27.6415 16.1088C28.6183 17.0856 29.167 18.4103 29.167 19.7917C29.167 20.4756 29.0323 21.1529 28.7705 21.7848C28.5088 22.4167 28.1251 22.9909 27.6415 23.4745C27.1579 23.9582 26.5837 24.3418 25.9518 24.6035C25.3199 24.8653 24.6426 25 23.9587 25C22.5773 25 21.2526 24.4513 20.2758 23.4745C19.2991 22.4978 18.7503 21.173 18.7503 19.7917C18.7503 18.4103 19.2991 17.0856 20.2758 16.1088C21.2526 15.1321 22.5773 14.5833 23.9587 14.5833ZM23.9587 16.6667C23.1299 16.6667 22.335 16.9959 21.7489 17.582C21.1629 18.168 20.8337 18.9629 20.8337 19.7917C20.8337 20.6205 21.1629 21.4153 21.7489 22.0014C22.335 22.5874 23.1299 22.9167 23.9587 22.9167C24.7875 22.9167 25.5823 22.5874 26.1684 22.0014C26.7544 21.4153 27.0837 20.6205 27.0837 19.7917C27.0837 18.9629 26.7544 18.168 26.1684 17.582C25.5823 16.9959 24.7875 16.6667 23.9587 16.6667ZM14.167 25.75L23.9587 41.8542L33.7503 25.75C34.8128 23.9583 35.417 21.9792 35.417 19.7917C35.417 16.7527 34.2098 13.8383 32.0609 11.6894C29.9121 9.54055 26.9976 8.33333 23.9587 8.33333C20.9197 8.33333 18.0052 9.54055 15.8564 11.6894C13.7075 13.8383 12.5003 16.7527 12.5003 19.7917C12.5003 21.9792 13.1045 23.9583 14.167 25.75ZM35.5212 26.8333L23.9587 45.8333L12.3962 26.8333C11.1462 24.7708 10.417 22.375 10.417 19.7917C10.417 16.2002 11.8437 12.7558 14.3833 10.2163C16.9228 7.67671 20.3672 6.25 23.9587 6.25C27.5501 6.25 30.9945 7.67671 33.5341 10.2163C36.0736 12.7558 37.5003 16.2002 37.5003 19.7917C37.5003 22.375 36.7712 24.7708 35.5212 26.8333Z" fill="#D9D9D9"/>
</svg>
