<svg width="40" height="40" viewBox="0 0 40 40" fill="none" xmlns="http://www.w3.org/2000/svg">
<path d="M32.4997 36.6667C33.1627 36.6667 33.7986 36.4033 34.2674 35.9344C34.7363 35.4656 34.9997 34.8297 34.9997 34.1667V28.3333C34.9997 27.6703 34.7363 27.0344 34.2674 26.5656C33.7986 26.0967 33.1627 25.8333 32.4997 25.8333C30.5497 25.8333 28.633 25.5333 26.7997 24.9167C26.3614 24.7783 25.8935 24.7626 25.4469 24.8714C25.0003 24.9801 24.592 25.209 24.2663 25.5333L21.8663 27.9333C17.7201 25.6707 14.3123 22.2629 12.0497 18.1167L14.433 15.7333C15.1163 15.0833 15.3663 14.1167 15.0663 13.1833C14.4663 11.3667 14.1663 9.45 14.1663 7.5C14.1663 6.83696 13.9029 6.20107 13.4341 5.73223C12.9653 5.26339 12.3294 5 11.6663 5H5.83301C5.16997 5 4.53408 5.26339 4.06524 5.73223C3.5964 6.20107 3.33301 6.83696 3.33301 7.5C3.33301 23.5833 16.4163 36.6667 32.4997 36.6667ZM5.83301 6.66667H11.6663C11.8874 6.66667 12.0993 6.75446 12.2556 6.91074C12.4119 7.06702 12.4997 7.27899 12.4997 7.5C12.4997 9.63333 12.833 11.7167 13.483 13.7C13.5663 13.9333 13.5497 14.2667 13.283 14.5333L9.99967 17.8C12.7497 23.1833 16.783 27.2167 22.183 30L25.433 26.7167C25.6663 26.4833 25.983 26.4167 26.283 26.5C28.283 27.1667 30.3663 27.5 32.4997 27.5C32.7207 27.5 32.9326 27.5878 33.0889 27.7441C33.2452 27.9004 33.333 28.1123 33.333 28.3333V34.1667C33.333 34.3877 33.2452 34.5996 33.0889 34.7559C32.9326 34.9122 32.7207 35 32.4997 35C17.333 35 4.99967 22.6667 4.99967 7.5C4.99967 7.27899 5.08747 7.06702 5.24375 6.91074C5.40003 6.75446 5.61199 6.66667 5.83301 6.66667Z" fill="#D9D9D9"/>
</svg>
