<svg width="28" height="28" viewBox="0 0 28 28" fill="none" xmlns="http://www.w3.org/2000/svg">
<path d="M14.8996 5.25098C15.8843 5.2526 16.3833 5.25781 16.8145 5.27065L16.9844 5.2762C17.1805 5.28318 17.3741 5.29193 17.6074 5.30286C18.5385 5.34588 19.1737 5.49318 19.7315 5.70974C20.3082 5.93213 20.7953 6.23255 21.2817 6.7189C21.7673 7.20525 22.0678 7.6938 22.2909 8.26911C22.5067 8.82619 22.654 9.46203 22.6978 10.3932C22.7082 10.6265 22.7166 10.8201 22.7235 11.0163L22.729 11.1861C22.7418 11.6172 22.7476 12.1163 22.7495 13.1011L22.7502 13.7535C22.7503 13.8333 22.7503 13.9155 22.7503 14.0004L22.7502 14.2472L22.7496 14.8997C22.748 15.8844 22.7428 16.3834 22.73 16.8146L22.7244 16.9845C22.7174 17.1807 22.7087 17.3742 22.6978 17.6076C22.6547 18.5387 22.5067 19.1738 22.2909 19.7316C22.0685 20.3083 21.7673 20.7955 21.2817 21.2818C20.7953 21.7674 20.306 22.0679 19.7315 22.291C19.1737 22.5068 18.5385 22.6541 17.6074 22.6979C17.3741 22.7083 17.1805 22.7167 16.9844 22.7236L16.8145 22.7291C16.3833 22.7419 15.8843 22.7478 14.8996 22.7496L14.2471 22.7503C14.1674 22.7504 14.0851 22.7504 14.0003 22.7504L13.7534 22.7503L13.1009 22.7498C12.1162 22.7481 11.6171 22.7429 11.186 22.7301L11.0161 22.7245C10.8199 22.7176 10.6264 22.7088 10.3931 22.6979C9.46191 22.6548 8.82753 22.5068 8.26899 22.291C7.69294 22.0686 7.20513 21.7674 6.71878 21.2818C6.23243 20.7955 5.93274 20.3062 5.70962 19.7316C5.49305 19.1738 5.34649 18.5387 5.30274 17.6076C5.29235 17.3742 5.28387 17.1807 5.277 16.9845L5.2715 16.8146C5.25869 16.3834 5.25286 15.8844 5.25097 14.8997L5.25085 13.1011C5.25248 12.1163 5.25769 11.6172 5.27052 11.1861L5.27608 11.0163C5.28305 10.8201 5.2918 10.6265 5.30274 10.3932C5.34576 9.4613 5.49305 8.82693 5.70962 8.26911C5.93201 7.69307 6.23243 7.20525 6.71878 6.7189C7.20513 6.23255 7.69368 5.93286 8.26899 5.70974C8.8268 5.49318 9.46118 5.34661 10.3931 5.30286C10.6264 5.29247 10.8199 5.28399 11.0161 5.27712L11.186 5.27162C11.6171 5.25882 12.1162 5.25298 13.1009 5.25109L14.8996 5.25098ZM14.0003 9.62536C11.5827 9.62536 9.62524 11.585 9.62524 14.0004C9.62524 16.4179 11.5848 18.3754 14.0003 18.3754C16.4178 18.3754 18.3753 16.4157 18.3753 14.0004C18.3753 11.5828 16.4156 9.62536 14.0003 9.62536ZM14.0003 11.3754C15.45 11.3754 16.6253 12.5502 16.6253 14.0004C16.6253 15.4502 15.4504 16.6254 14.0003 16.6254C12.5505 16.6254 11.3752 15.4505 11.3752 14.0004C11.3752 12.5506 12.55 11.3754 14.0003 11.3754ZM18.594 8.31286C17.9909 8.31286 17.5003 8.80278 17.5003 9.40587C17.5003 10.009 17.9902 10.4996 18.594 10.4996C19.1971 10.4996 19.6878 10.0097 19.6878 9.40587C19.6878 8.80278 19.1963 8.3121 18.594 8.31286Z" fill="#FA660F"/>
<circle cx="14" cy="14" r="13.7742" stroke="url(#paint0_linear_2882_1089)" stroke-width="0.451613"/>
<defs>
<linearGradient id="paint0_linear_2882_1089" x1="58.3333" y1="14" x2="1.41106e-06" y2="-4.08333" gradientUnits="userSpaceOnUse">
<stop stop-color="#00010A"/>
<stop offset="1" stop-color="#FA660F"/>
</linearGradient>
</defs>
</svg>
