<svg width="28" height="28" viewBox="0 0 28 28" fill="none" xmlns="http://www.w3.org/2000/svg">
<path d="M10.148 8.55618C10.1477 9.18951 9.7589 9.75942 9.16493 9.99718C8.57096 10.235 7.89043 10.0931 7.44423 9.6385C6.99803 9.18391 6.87528 8.50736 7.13384 7.92788C7.39241 7.3484 7.98067 6.9817 8.62123 7.0007C9.47202 7.02594 10.1484 7.71501 10.148 8.55618ZM10.1952 11.2627H7.04726V21H10.1952V11.2627ZM15.169 11.2627H12.0367V21H15.1375V15.8902C15.1375 13.0437 18.8914 12.7793 18.8914 15.8902V21H22V14.8325C22 10.0339 16.4439 10.2128 15.1375 12.5693L15.169 11.2627Z" fill="#FA660F"/>
<circle cx="14" cy="14" r="13.7742" stroke="url(#paint0_linear_2882_1078)" stroke-width="0.451613"/>
<defs>
<linearGradient id="paint0_linear_2882_1078" x1="58.3333" y1="14" x2="1.41106e-06" y2="-4.08333" gradientUnits="userSpaceOnUse">
<stop stop-color="#00010A"/>
<stop offset="1" stop-color="#FA660F"/>
</linearGradient>
</defs>
</svg>
