<svg width="19" height="19" viewBox="0 0 19 19" fill="none" xmlns="http://www.w3.org/2000/svg">
<path d="M12.5 4.5C13.0304 4.5 13.5391 4.71071 13.9142 5.08579C14.2893 5.46086 14.5 5.96957 14.5 6.5M12.5 0.5C14.0913 0.5 15.6174 1.13214 16.7426 2.25736C17.8679 3.38258 18.5 4.9087 18.5 6.5M2.5 1.5H6.5L8.5 6.5L6 8C7.07096 10.1715 8.82847 11.929 11 13L12.5 10.5L17.5 12.5V16.5C17.5 17.0304 17.2893 17.5391 16.9142 17.9142C16.5391 18.2893 16.0304 18.5 15.5 18.5C11.5993 18.263 7.92015 16.6065 5.15683 13.8432C2.3935 11.0798 0.73705 7.40074 0.5 3.5C0.5 2.96957 0.710714 2.46086 1.08579 2.08579C1.46086 1.71071 1.96957 1.5 2.5 1.5Z" stroke="white" stroke-linecap="round" stroke-linejoin="round"/>
</svg>
