<svg width="30" height="30" viewBox="0 0 30 30" fill="none" xmlns="http://www.w3.org/2000/svg">
<path d="M11.875 5C14.0299 5 16.0965 5.85602 17.6202 7.37976C19.144 8.90349 20 10.9701 20 13.125C20 15.15 19.2625 17 18.0375 18.4125L25.1 25.475L24.2125 26.3625L17.15 19.3C15.6816 20.5601 13.81 21.252 11.875 21.25C9.72012 21.25 7.65349 20.394 6.12976 18.8702C4.60602 17.3465 3.75 15.2799 3.75 13.125C3.75 10.9701 4.60602 8.90349 6.12976 7.37976C7.65349 5.85602 9.72012 5 11.875 5ZM11.875 6.25C10.0516 6.25 8.30295 6.97433 7.01364 8.26364C5.72433 9.55295 5 11.3016 5 13.125C5 14.9484 5.72433 16.697 7.01364 17.9864C8.30295 19.2757 10.0516 20 11.875 20C12.7778 20 13.6718 19.8222 14.5059 19.4767C15.3401 19.1312 16.098 18.6248 16.7364 17.9864C17.3748 17.348 17.8812 16.5901 18.2267 15.7559C18.5722 14.9218 18.75 14.0278 18.75 13.125C18.75 12.2222 18.5722 11.3282 18.2267 10.4941C17.8812 9.65994 17.3748 8.90204 16.7364 8.26364C16.098 7.62524 15.3401 7.11883 14.5059 6.77333C13.6718 6.42783 12.7778 6.25 11.875 6.25Z" fill="#D9D9D9"/>
</svg>
