<svg width="106" height="18" viewBox="0 0 106 18" fill="none" xmlns="http://www.w3.org/2000/svg">
<path d="M31 1.5L33.3175 6.195L38.5 6.9525L34.75 10.605L35.635 15.765L31 13.3275L26.365 15.765L27.25 10.605L23.5 6.9525L28.6825 6.195L31 1.5Z" fill="#FFA033" stroke="#FFA033" stroke-width="1.2" stroke-linecap="round" stroke-linejoin="round"/>
<path d="M9 1.5L11.3175 6.195L16.5 6.9525L12.75 10.605L13.635 15.765L9 13.3275L4.365 15.765L5.25 10.605L1.5 6.9525L6.6825 6.195L9 1.5Z" fill="#FFA033" stroke="#FFA033" stroke-width="1.2" stroke-linecap="round" stroke-linejoin="round"/>
<path d="M53 1.5L55.3175 6.195L60.5 6.9525L56.75 10.605L57.635 15.765L53 13.3275L48.365 15.765L49.25 10.605L45.5 6.9525L50.6825 6.195L53 1.5Z" fill="#FFA033" stroke="#FFA033" stroke-width="1.2" stroke-linecap="round" stroke-linejoin="round"/>
<path d="M75 1.5L77.3175 6.195L82.5 6.9525L78.75 10.605L79.635 15.765L75 13.3275L70.365 15.765L71.25 10.605L67.5 6.9525L72.6825 6.195L75 1.5Z" fill="#FFA033" stroke="#FFA033" stroke-width="1.2" stroke-linecap="round" stroke-linejoin="round"/>
<path d="M97 1.5L99.3175 6.195L104.5 6.9525L100.75 10.605L101.635 15.765L97 13.3275L92.365 15.765L93.25 10.605L89.5 6.9525L94.6825 6.195L97 1.5Z" stroke="#FFA033" stroke-width="1.2" stroke-linecap="round" stroke-linejoin="round"/>
</svg>
