<svg width="54" height="15" viewBox="0 0 54 15" fill="none" xmlns="http://www.w3.org/2000/svg">
<path d="M7.584 3.3295V3.5535H9.44V4.8655H7.488C7.37067 5.58017 7.14667 6.15083 6.816 6.5775C6.496 6.9935 6.03733 7.2975 5.44 7.4895C4.84267 7.67083 4.06933 7.7615 3.12 7.7615V8.7695C3.12 9.35617 3.24267 9.82017 3.488 10.1615C3.744 10.5028 4.17067 10.6735 4.768 10.6735C5.856 10.6735 6.4 10.0602 6.4 8.8335H8.08C8.06933 9.91083 7.776 10.7268 7.2 11.2815C6.63467 11.8255 5.81333 12.0975 4.736 12.0975C3.65867 12.0975 2.832 11.7988 2.256 11.2015C1.69067 10.6042 1.408 9.76683 1.408 8.6895V6.4975C2.592 6.4975 3.46133 6.4655 4.016 6.4015C4.57067 6.32683 4.98133 6.1775 5.248 5.9535C5.52533 5.7295 5.70667 5.36683 5.792 4.8655H0.736V3.5535H5.872V3.3295V2.1295H0.736V0.801499H9.44V2.1295H7.584V3.3295ZM11.9211 9.4575C12.9451 8.57217 13.7505 7.84683 14.3371 7.2815C14.9345 6.7055 15.4305 6.10817 15.8251 5.4895C16.2198 4.87083 16.4171 4.25217 16.4171 3.6335C16.4171 2.9935 16.2625 2.49217 15.9531 2.1295C15.6545 1.76683 15.1798 1.5855 14.5291 1.5855C13.8998 1.5855 13.4091 1.78817 13.0571 2.1935C12.7158 2.58817 12.5345 3.1215 12.5131 3.7935H10.7531C10.7851 2.5775 11.1478 1.6495 11.8411 1.0095C12.5451 0.358833 13.4358 0.0334997 14.5131 0.0334997C15.6758 0.0334997 16.5825 0.3535 17.2331 0.9935C17.8945 1.6335 18.2251 2.48683 18.2251 3.5535C18.2251 4.3215 18.0278 5.06283 17.6331 5.7775C17.2491 6.4815 16.7851 7.11617 16.2411 7.6815C15.7078 8.23617 15.0251 8.8815 14.1931 9.6175L13.4731 10.2575H18.5451V11.7775H10.7691V10.4495L11.9211 9.4575ZM22.3875 9.7455L20.4515 14.1615H19.2675L20.4035 9.7455H22.3875ZM26.0133 8.7695C26.1199 9.30283 26.3493 9.70817 26.7013 9.9855C27.0533 10.2628 27.5279 10.4015 28.1253 10.4015C28.8826 10.4015 29.4373 10.1028 29.7893 9.5055C30.1413 8.90817 30.3173 7.8895 30.3173 6.4495C30.0613 6.81217 29.6986 7.09483 29.2293 7.2975C28.7706 7.4895 28.2693 7.5855 27.7253 7.5855C27.0319 7.5855 26.4026 7.44683 25.8373 7.1695C25.2719 6.8815 24.8239 6.46017 24.4933 5.9055C24.1733 5.34017 24.0133 4.6575 24.0133 3.8575C24.0133 2.68417 24.3546 1.75083 25.0373 1.0575C25.7306 0.353499 26.6799 0.00149918 27.8853 0.00149918C29.3359 0.00149918 30.3653 0.486833 30.9733 1.4575C31.5919 2.4175 31.9013 3.89483 31.9013 5.8895C31.9013 7.2655 31.7839 8.39083 31.5493 9.2655C31.3253 10.1402 30.9306 10.8015 30.3653 11.2495C29.7999 11.6975 29.0159 11.9215 28.0133 11.9215C26.8719 11.9215 25.9919 11.6228 25.3733 11.0255C24.7546 10.4282 24.4079 9.67617 24.3333 8.7695H26.0133ZM28.0453 6.0495C28.6853 6.0495 29.1866 5.85217 29.5493 5.4575C29.9226 5.05217 30.1093 4.51883 30.1093 3.8575C30.1093 3.1215 29.9119 2.55083 29.5173 2.1455C29.1333 1.7295 28.6053 1.5215 27.9333 1.5215C27.2613 1.5215 26.7279 1.73483 26.3333 2.1615C25.9493 2.5775 25.7573 3.12683 25.7573 3.8095C25.7573 4.46017 25.9439 4.99883 26.3173 5.4255C26.7013 5.8415 27.2773 6.0495 28.0453 6.0495ZM36.1695 8.7695C36.2762 9.30283 36.5055 9.70817 36.8575 9.9855C37.2095 10.2628 37.6842 10.4015 38.2815 10.4015C39.0388 10.4015 39.5935 10.1028 39.9455 9.5055C40.2975 8.90817 40.4735 7.8895 40.4735 6.4495C40.2175 6.81217 39.8548 7.09483 39.3855 7.2975C38.9268 7.4895 38.4255 7.5855 37.8815 7.5855C37.1882 7.5855 36.5588 7.44683 35.9935 7.1695C35.4282 6.8815 34.9802 6.46017 34.6495 5.9055C34.3295 5.34017 34.1695 4.6575 34.1695 3.8575C34.1695 2.68417 34.5108 1.75083 35.1935 1.0575C35.8868 0.353499 36.8362 0.00149918 38.0415 0.00149918C39.4922 0.00149918 40.5215 0.486833 41.1295 1.4575C41.7482 2.4175 42.0575 3.89483 42.0575 5.8895C42.0575 7.2655 41.9402 8.39083 41.7055 9.2655C41.4815 10.1402 41.0868 10.8015 40.5215 11.2495C39.9562 11.6975 39.1722 11.9215 38.1695 11.9215C37.0282 11.9215 36.1482 11.6228 35.5295 11.0255C34.9108 10.4282 34.5642 9.67617 34.4895 8.7695H36.1695ZM38.2015 6.0495C38.8415 6.0495 39.3428 5.85217 39.7055 5.4575C40.0788 5.05217 40.2655 4.51883 40.2655 3.8575C40.2655 3.1215 40.0682 2.55083 39.6735 2.1455C39.2895 1.7295 38.7615 1.5215 38.0895 1.5215C37.4175 1.5215 36.8842 1.73483 36.4895 2.1615C36.1055 2.5775 35.9135 3.12683 35.9135 3.8095C35.9135 4.46017 36.1002 4.99883 36.4735 5.4255C36.8575 5.8415 37.4335 6.0495 38.2015 6.0495ZM46.3258 8.7695C46.4324 9.30283 46.6618 9.70817 47.0138 9.9855C47.3658 10.2628 47.8404 10.4015 48.4378 10.4015C49.1951 10.4015 49.7498 10.1028 50.1018 9.5055C50.4538 8.90817 50.6298 7.8895 50.6298 6.4495C50.3738 6.81217 50.0111 7.09483 49.5418 7.2975C49.0831 7.4895 48.5818 7.5855 48.0378 7.5855C47.3444 7.5855 46.7151 7.44683 46.1498 7.1695C45.5844 6.8815 45.1364 6.46017 44.8058 5.9055C44.4858 5.34017 44.3258 4.6575 44.3258 3.8575C44.3258 2.68417 44.6671 1.75083 45.3498 1.0575C46.0431 0.353499 46.9924 0.00149918 48.1978 0.00149918C49.6484 0.00149918 50.6778 0.486833 51.2858 1.4575C51.9044 2.4175 52.2138 3.89483 52.2138 5.8895C52.2138 7.2655 52.0964 8.39083 51.8618 9.2655C51.6378 10.1402 51.2431 10.8015 50.6778 11.2495C50.1124 11.6975 49.3284 11.9215 48.3258 11.9215C47.1844 11.9215 46.3044 11.6228 45.6858 11.0255C45.0671 10.4282 44.7204 9.67617 44.6458 8.7695H46.3258ZM48.3578 6.0495C48.9978 6.0495 49.4991 5.85217 49.8618 5.4575C50.2351 5.05217 50.4218 4.51883 50.4218 3.8575C50.4218 3.1215 50.2244 2.55083 49.8298 2.1455C49.4458 1.7295 48.9178 1.5215 48.2458 1.5215C47.5738 1.5215 47.0404 1.73483 46.6458 2.1615C46.2618 2.5775 46.0698 3.12683 46.0698 3.8095C46.0698 4.46017 46.2564 4.99883 46.6298 5.4255C47.0138 5.8415 47.5898 6.0495 48.3578 6.0495Z" fill="#787878"/>
<path d="M0 6.6575H53.2537V7.4575H0V6.6575Z" fill="#787878"/>
</svg>
