<svg width="154" height="28" viewBox="0 0 154 28" fill="none" xmlns="http://www.w3.org/2000/svg">
<path d="M13.7484 2.29492L17.289 9.46784L25.2067 10.6251L19.4775 16.2053L20.8296 24.0887L13.7484 20.3647L6.66712 24.0887L8.01921 16.2053L2.29004 10.6251L10.2077 9.46784L13.7484 2.29492Z" fill="#FFA033" stroke="#FFA033" stroke-width="1.25" stroke-linecap="round" stroke-linejoin="round"/>
<path d="M45.2484 2.29492L48.789 9.46784L56.7067 10.6251L50.9775 16.2053L52.3296 24.0887L45.2484 20.3647L38.1671 24.0887L39.5192 16.2053L33.79 10.6251L41.7077 9.46784L45.2484 2.29492Z" fill="#FFA033" stroke="#FFA033" stroke-width="1.25" stroke-linecap="round" stroke-linejoin="round"/>
<path d="M76.7484 2.29492L80.289 9.46784L88.2067 10.6251L82.4775 16.2053L83.8296 24.0887L76.7484 20.3647L69.6671 24.0887L71.0192 16.2053L65.29 10.6251L73.2077 9.46784L76.7484 2.29492Z" fill="#FFA033" stroke="#FFA033" stroke-width="1.25" stroke-linecap="round" stroke-linejoin="round"/>
<path d="M108.248 2.29492L111.789 9.46784L119.707 10.6251L113.978 16.2053L115.33 24.0887L108.248 20.3647L101.167 24.0887L102.519 16.2053L96.79 10.6251L104.708 9.46784L108.248 2.29492Z" fill="#FFA033" stroke="#FFA033" stroke-width="1.25" stroke-linecap="round" stroke-linejoin="round"/>
<path d="M139.748 2.29492L143.289 9.46784L151.207 10.6251L145.478 16.2053L146.83 24.0887L139.748 20.3647L132.667 24.0887L134.019 16.2053L128.29 10.6251L136.208 9.46784L139.748 2.29492Z" stroke="#FFA033" stroke-width="1.25" stroke-linecap="round" stroke-linejoin="round"/>
</svg>
