<svg width="55" height="15" viewBox="0 0 55 15" fill="none" xmlns="http://www.w3.org/2000/svg">
<path d="M7.584 3.328V3.552H9.44V4.864H7.488C7.37067 5.57867 7.14667 6.14934 6.816 6.576C6.496 6.992 6.03733 7.296 5.44 7.488C4.84267 7.66934 4.06933 7.76 3.12 7.76V8.768C3.12 9.35467 3.24267 9.81867 3.488 10.16C3.744 10.5013 4.17067 10.672 4.768 10.672C5.856 10.672 6.4 10.0587 6.4 8.832H8.08C8.06933 9.90934 7.776 10.7253 7.2 11.28C6.63467 11.824 5.81333 12.096 4.736 12.096C3.65867 12.096 2.832 11.7973 2.256 11.2C1.69067 10.6027 1.408 9.76534 1.408 8.688V6.496C2.592 6.496 3.46133 6.464 4.016 6.4C4.57067 6.32534 4.98133 6.176 5.248 5.952C5.52533 5.728 5.70667 5.36534 5.792 4.864H0.736V3.552H5.872V3.328V2.128H0.736V0.800004H9.44V2.128H7.584V3.328ZM10.6891 9.504V8.128L16.0651 0.416004H18.2731V7.92H19.7611V9.504H18.2731V11.936H16.4811V9.504H10.6891ZM16.5611 2.272L12.7851 7.92H16.5611V2.272ZM23.5125 9.744L21.5765 14.16H20.3925L21.5285 9.744H23.5125ZM27.1383 8.768C27.2449 9.30134 27.4743 9.70667 27.8263 9.984C28.1783 10.2613 28.6529 10.4 29.2503 10.4C30.0076 10.4 30.5623 10.1013 30.9143 9.504C31.2663 8.90667 31.4423 7.888 31.4423 6.448C31.1863 6.81067 30.8236 7.09334 30.3543 7.296C29.8956 7.488 29.3943 7.584 28.8503 7.584C28.1569 7.584 27.5276 7.44534 26.9623 7.168C26.3969 6.88 25.9489 6.45867 25.6183 5.904C25.2983 5.33867 25.1383 4.656 25.1383 3.856C25.1383 2.68267 25.4796 1.74934 26.1623 1.056C26.8556 0.352004 27.8049 3.8147e-06 29.0103 3.8147e-06C30.4609 3.8147e-06 31.4903 0.485337 32.0983 1.456C32.7169 2.416 33.0263 3.89334 33.0263 5.888C33.0263 7.264 32.9089 8.38934 32.6743 9.264C32.4503 10.1387 32.0556 10.8 31.4903 11.248C30.9249 11.696 30.1409 11.92 29.1383 11.92C27.9969 11.92 27.1169 11.6213 26.4983 11.024C25.8796 10.4267 25.5329 9.67467 25.4583 8.768H27.1383ZM29.1703 6.048C29.8103 6.048 30.3116 5.85067 30.6743 5.456C31.0476 5.05067 31.2343 4.51734 31.2343 3.856C31.2343 3.12 31.0369 2.54934 30.6423 2.144C30.2583 1.728 29.7303 1.52 29.0583 1.52C28.3863 1.52 27.8529 1.73334 27.4583 2.16C27.0743 2.576 26.8823 3.12534 26.8823 3.808C26.8823 4.45867 27.0689 4.99734 27.4423 5.424C27.8263 5.84 28.4023 6.048 29.1703 6.048ZM37.2945 8.768C37.4012 9.30134 37.6305 9.70667 37.9825 9.984C38.3345 10.2613 38.8092 10.4 39.4065 10.4C40.1638 10.4 40.7185 10.1013 41.0705 9.504C41.4225 8.90667 41.5985 7.888 41.5985 6.448C41.3425 6.81067 40.9798 7.09334 40.5105 7.296C40.0518 7.488 39.5505 7.584 39.0065 7.584C38.3132 7.584 37.6838 7.44534 37.1185 7.168C36.5532 6.88 36.1052 6.45867 35.7745 5.904C35.4545 5.33867 35.2945 4.656 35.2945 3.856C35.2945 2.68267 35.6358 1.74934 36.3185 1.056C37.0118 0.352004 37.9612 3.8147e-06 39.1665 3.8147e-06C40.6172 3.8147e-06 41.6465 0.485337 42.2545 1.456C42.8732 2.416 43.1825 3.89334 43.1825 5.888C43.1825 7.264 43.0652 8.38934 42.8305 9.264C42.6065 10.1387 42.2118 10.8 41.6465 11.248C41.0812 11.696 40.2972 11.92 39.2945 11.92C38.1532 11.92 37.2732 11.6213 36.6545 11.024C36.0358 10.4267 35.6892 9.67467 35.6145 8.768H37.2945ZM39.3265 6.048C39.9665 6.048 40.4678 5.85067 40.8305 5.456C41.2038 5.05067 41.3905 4.51734 41.3905 3.856C41.3905 3.12 41.1932 2.54934 40.7985 2.144C40.4145 1.728 39.8865 1.52 39.2145 1.52C38.5425 1.52 38.0092 1.73334 37.6145 2.16C37.2305 2.576 37.0385 3.12534 37.0385 3.808C37.0385 4.45867 37.2252 4.99734 37.5985 5.424C37.9825 5.84 38.5585 6.048 39.3265 6.048ZM47.4508 8.768C47.5574 9.30134 47.7868 9.70667 48.1388 9.984C48.4908 10.2613 48.9654 10.4 49.5628 10.4C50.3201 10.4 50.8748 10.1013 51.2268 9.504C51.5788 8.90667 51.7548 7.888 51.7548 6.448C51.4988 6.81067 51.1361 7.09334 50.6668 7.296C50.2081 7.488 49.7068 7.584 49.1628 7.584C48.4694 7.584 47.8401 7.44534 47.2748 7.168C46.7094 6.88 46.2614 6.45867 45.9308 5.904C45.6108 5.33867 45.4508 4.656 45.4508 3.856C45.4508 2.68267 45.7921 1.74934 46.4748 1.056C47.1681 0.352004 48.1174 3.8147e-06 49.3228 3.8147e-06C50.7734 3.8147e-06 51.8028 0.485337 52.4108 1.456C53.0294 2.416 53.3388 3.89334 53.3388 5.888C53.3388 7.264 53.2214 8.38934 52.9868 9.264C52.7628 10.1387 52.3681 10.8 51.8028 11.248C51.2374 11.696 50.4534 11.92 49.4508 11.92C48.3094 11.92 47.4294 11.6213 46.8108 11.024C46.1921 10.4267 45.8454 9.67467 45.7708 8.768H47.4508ZM49.4828 6.048C50.1228 6.048 50.6241 5.85067 50.9868 5.456C51.3601 5.05067 51.5468 4.51734 51.5468 3.856C51.5468 3.12 51.3494 2.54934 50.9548 2.144C50.5708 1.728 50.0428 1.52 49.3708 1.52C48.6988 1.52 48.1654 1.73334 47.7708 2.16C47.3868 2.576 47.1948 3.12534 47.1948 3.808C47.1948 4.45867 47.3814 4.99734 47.7548 5.424C48.1388 5.84 48.7148 6.048 49.4828 6.048Z" fill="#787878"/>
<path d="M0 6.656H54.3787V7.45601H0V6.656Z" fill="#787878"/>
</svg>
