<svg width="28" height="28" viewBox="0 0 28 28" fill="none" xmlns="http://www.w3.org/2000/svg">
<rect width="28" height="28" rx="8" fill="#3537B4"/>
<path fill-rule="evenodd" clip-rule="evenodd" d="M13.9526 3.11133L16.4038 5.75106L19.4206 4.61975L20.1748 8.10796L23.3802 8.57934L22.3432 11.9733L24.8886 13.9531L22.2489 16.4043L23.3802 19.4211L19.892 20.1753L19.4206 23.3807L16.0267 22.3437L13.9526 24.8891L11.5957 22.2494L8.57885 23.3807L7.82465 19.8925L4.61926 19.4211L5.65629 16.0272L3.11084 13.9531L5.75057 11.5962L4.61926 8.57934L8.10747 7.82513L8.57885 4.61975L11.9728 5.65678L13.9526 3.11133Z" fill="#FFCC00"/>
<path d="M13.9529 21.8726C18.3265 21.8726 21.8721 18.327 21.8721 13.9534C21.8721 9.57972 18.3265 6.03418 13.9529 6.03418C9.57923 6.03418 6.03369 9.57972 6.03369 13.9534C6.03369 18.327 9.57923 21.8726 13.9529 21.8726Z" fill="#FFFF66"/>
<path d="M13.9532 20.7398C17.7021 20.7398 20.7411 17.7008 20.7411 13.9519C20.7411 10.2031 17.7021 7.16406 13.9532 7.16406C10.2044 7.16406 7.16534 10.2031 7.16534 13.9519C7.16534 17.7008 10.2044 20.7398 13.9532 20.7398Z" fill="#FFCC00"/>
</svg>
