<svg width="20" height="20" viewBox="0 0 20 20" fill="none" xmlns="http://www.w3.org/2000/svg">
<g clip-path="url(#clip0_8020_12427)">
<path d="M11.6875 18H5.75C3.68225 18 2 16.3177 2 14.25V5.75C2 3.68225 3.68225 2 5.75 2H14.25C16.3177 2 18 3.68225 18 5.75V11.7344C18 12.0796 17.7202 12.3594 17.375 12.3594C17.0298 12.3594 16.75 12.0796 16.75 11.7344V5.75C16.75 4.3715 15.6285 3.25 14.25 3.25H5.75C4.3715 3.25 3.25 4.3715 3.25 5.75V14.25C3.25 15.6285 4.3715 16.75 5.75 16.75H11.6875C12.0327 16.75 12.3125 17.0298 12.3125 17.375C12.3125 17.7202 12.0327 18 11.6875 18ZM14.875 5.9375C14.875 5.59231 14.5952 5.3125 14.25 5.3125H8.53125C8.18606 5.3125 7.90625 5.59231 7.90625 5.9375C7.90625 6.28269 8.18606 6.5625 8.53125 6.5625H14.25C14.5952 6.5625 14.875 6.28269 14.875 5.9375ZM14.875 8.4375C14.875 8.09231 14.5952 7.8125 14.25 7.8125H5.75C5.40481 7.8125 5.125 8.09231 5.125 8.4375C5.125 8.78269 5.40481 9.0625 5.75 9.0625H14.25C14.5952 9.0625 14.875 8.78269 14.875 8.4375ZM8.625 10.9375C8.625 10.5923 8.34519 10.3125 8 10.3125H5.75C5.40481 10.3125 5.125 10.5923 5.125 10.9375C5.125 11.2827 5.40481 11.5625 5.75 11.5625H8C8.34519 11.5625 8.625 11.2827 8.625 10.9375ZM5.125 5.875C5.125 6.30647 5.47478 6.65625 5.90625 6.65625C6.33772 6.65625 6.6875 6.30647 6.6875 5.875C6.6875 5.44353 6.33772 5.09375 5.90625 5.09375C5.47478 5.09375 5.125 5.44353 5.125 5.875ZM17.3318 17.3318C18.2213 16.4424 18.2213 14.9951 17.3318 14.1057L15.1409 11.9148C14.5077 11.2815 13.7088 10.8541 12.8308 10.6786L11.06 10.3246C10.8552 10.2836 10.6433 10.3478 10.4956 10.4956C10.3478 10.6433 10.2837 10.8551 10.3246 11.06L10.6786 12.8308C10.8541 13.7089 11.2816 14.5077 11.9148 15.141L14.1057 17.3318C14.5365 17.7627 15.1094 18 15.7188 18C16.3281 18 16.901 17.7627 17.3318 17.3318ZM12.5857 11.9043C13.221 12.0313 13.7989 12.3405 14.257 12.7986L16.4479 14.9895C16.85 15.3916 16.85 16.0458 16.4479 16.4479C16.2532 16.6427 15.9942 16.75 15.7188 16.75C15.4433 16.75 15.1843 16.6427 14.9896 16.4479L12.7987 14.2571C12.3406 13.7989 12.0313 13.221 11.9043 12.5858L11.7341 11.7341L12.5857 11.9043Z" fill="#2F43F2"/>
</g>
<defs>
<clipPath id="clip0_8020_12427">
<rect width="16" height="16" fill="white" transform="translate(2 2)"/>
</clipPath>
</defs>
</svg>
