<svg width="20" height="20" viewBox="0 0 20 20" fill="none" xmlns="http://www.w3.org/2000/svg">
<g clip-path="url(#clip0_8020_12415)">
<path d="M8.45898 8.99609C8.45898 9.255 8.24902 9.46484 7.99023 9.46484C7.73132 9.46484 7.52148 9.255 7.52148 8.99609C7.52148 8.73718 7.73132 8.52734 7.99023 8.52734C8.24902 8.52734 8.45898 8.73718 8.45898 8.99609Z" fill="#2F43F2"/>
<path d="M15.2718 5.51464H13.9834V4.72814C13.9834 3.22143 12.7644 2 11.2552 2H4.72814C3.22143 2 2 3.21887 2 4.72814V13.5146C2 13.9065 2.45947 14.1324 2.7688 13.8747L5.65099 11.4729H6.01672V12.7615C6.01672 14.2682 7.23559 15.4896 8.74486 15.4896H14.3491L17.2312 17.8913C17.3171 17.963 17.4237 18 17.5313 18C17.789 18 18 17.7909 18 17.5312V8.24266C18 6.73595 16.7811 5.51464 15.2718 5.51464ZM5.48119 10.5354C5.37158 10.5354 5.26537 10.5738 5.18115 10.644L2.9375 12.5138V4.72814C2.9375 3.73913 3.73755 2.9375 4.72814 2.9375H11.2552C12.2441 2.9375 13.0459 3.73755 13.0459 4.72814V8.74486C13.0459 9.73216 12.2425 10.5354 11.2552 10.5354H5.48119ZM17.0625 16.5305L14.8188 14.6607C14.7346 14.5906 14.6284 14.5521 14.5188 14.5521H8.74474C8.26647 14.5521 7.81676 14.3658 7.47863 14.0276C7.14037 13.6894 6.95409 13.2397 6.95409 12.7615V11.4729H11.2551C11.8415 11.4729 12.3854 11.2868 12.8307 10.9708H15.0207C15.2796 10.9708 15.4895 10.761 15.4895 10.5021C15.4895 10.2433 15.2796 10.0333 15.0207 10.0333H13.6593C13.8334 9.70982 13.9441 9.34728 13.9746 8.96251H15.0207C15.2796 8.96251 15.4895 8.75267 15.4895 8.49376C15.4895 8.23485 15.2796 8.02501 15.0207 8.02501H13.9833V6.45214H15.2718C15.7502 6.45214 16.1998 6.6383 16.5381 6.97655C16.8762 7.31469 17.0625 7.76439 17.0625 8.24266V16.5305Z" fill="#2F43F2"/>
<path d="M7.20508 5.73132C7.20508 5.52136 7.28686 5.32409 7.4353 5.17553C7.58374 5.0271 7.78112 4.94531 7.99157 4.94531C8.42517 4.94531 8.77807 5.29822 8.77807 5.73181C8.77807 6.16552 8.42517 6.51831 7.99157 6.51831C7.73266 6.51831 7.52282 6.72814 7.52282 6.98705V7.48913C7.52282 7.74792 7.73266 7.95788 7.99157 7.95788C8.25036 7.95788 8.46032 7.74792 8.46032 7.48913V7.39098C9.18383 7.18627 9.71545 6.52001 9.71545 5.73181C9.71545 4.78113 8.94213 4.00781 7.99109 4.00781C7.53076 4.00781 7.0979 4.18713 6.77234 4.51257C6.4469 4.83813 6.26758 5.27099 6.26758 5.7312V5.73169C6.26758 5.9906 6.47742 6.20019 6.73633 6.20019C6.99524 6.20019 7.20508 5.99023 7.20508 5.73132Z" fill="#2F43F2"/>
<path d="M15.0192 12.0391H8.99414C8.73523 12.0391 8.52539 12.249 8.52539 12.5078C8.52539 12.7667 8.73523 12.9766 8.99414 12.9766H15.0192C15.2779 12.9766 15.4879 12.7667 15.4879 12.5078C15.4879 12.249 15.2779 12.0391 15.0192 12.0391Z" fill="#2F43F2"/>
</g>
<defs>
<clipPath id="clip0_8020_12415">
<rect width="16" height="16" fill="white" transform="translate(2 2)"/>
</clipPath>
</defs>
</svg>
