<svg width="24" height="24" viewBox="0 0 24 24" fill="none" xmlns="http://www.w3.org/2000/svg">
<g clip-path="url(#clip0_8196_9170)">
<path d="M10.9904 7.89837C9.48958 8.24831 8.28142 9.43853 7.91248 10.9306C7.54239 12.4274 7.96595 13.9532 9.04558 15.0119C9.42745 15.3864 9.65548 15.9867 9.65548 16.6177V16.7184C9.65548 17.1339 9.83677 17.5077 10.1242 17.7654V18.5934C10.1242 19.3688 10.7551 19.9996 11.5305 19.9996H12.468C13.2434 19.9996 13.8742 19.3688 13.8742 18.5934V17.7654C14.1617 17.5077 14.343 17.1339 14.343 16.7184V16.6158C14.343 15.9944 14.5832 15.3827 14.9856 14.9795C15.7803 14.1831 16.218 13.1248 16.218 11.9996C16.218 9.30965 13.7252 7.26093 10.9904 7.89837ZM12.9367 18.5934C12.9367 18.8518 12.7265 19.0621 12.468 19.0621H11.5305C11.272 19.0621 11.0617 18.8518 11.0617 18.5934V18.1246H12.9367V18.5934ZM14.3219 14.3173C13.7395 14.901 13.4055 15.7387 13.4055 16.6158V16.7184C13.4055 16.9768 13.1952 17.1871 12.9367 17.1871H11.0617C10.8033 17.1871 10.593 16.9768 10.593 16.7184V16.6177C10.593 15.7271 10.2682 14.8978 9.70195 14.3425C8.86164 13.5185 8.53292 12.3271 8.82255 11.1556C9.1077 10.0023 10.0422 9.08209 11.2033 8.8114C13.3493 8.311 15.2805 9.913 15.2805 11.9996C15.2805 12.8747 14.94 13.6978 14.3219 14.3173Z" fill="#2F43F2"/>
<path d="M8.35652 7.69358L7.03067 6.36777C6.84764 6.1847 6.55083 6.1847 6.36777 6.36777C6.1847 6.55083 6.1847 6.84761 6.36777 7.03067L7.69361 8.35648C7.87664 8.53955 8.17348 8.53955 8.35652 8.35648C8.53958 8.17342 8.53958 7.87664 8.35652 7.69358Z" fill="#2F43F2"/>
<path d="M6.375 11.5312H4.46875C4.20987 11.5312 4 11.7411 4 12C4 12.2589 4.20987 12.4688 4.46875 12.4688H6.375C6.63387 12.4688 6.84375 12.2589 6.84375 12C6.84375 11.7411 6.63387 11.5312 6.375 11.5312Z" fill="#2F43F2"/>
<path d="M19.5312 11.5312H17.625C17.3661 11.5312 17.1562 11.7411 17.1562 12C17.1562 12.2589 17.3661 12.4688 17.625 12.4688H19.5312C19.7901 12.4688 20 12.2589 20 12C20 11.7411 19.7901 11.5312 19.5312 11.5312Z" fill="#2F43F2"/>
<path d="M17.6339 6.36777C17.4509 6.1847 17.154 6.1847 16.971 6.36777L15.6451 7.69358C15.462 7.87661 15.462 8.17342 15.6451 8.35648C15.8281 8.53955 16.125 8.53955 16.308 8.35648L17.6339 7.03067C17.8169 6.84764 17.8169 6.55083 17.6339 6.36777Z" fill="#2F43F2"/>
<path d="M12 4C11.7411 4 11.5312 4.20987 11.5312 4.46875V6.375C11.5312 6.63387 11.7411 6.84375 12 6.84375C12.2589 6.84375 12.4688 6.63387 12.4688 6.375V4.46875C12.4688 4.20987 12.2589 4 12 4Z" fill="#2F43F2"/>
<path d="M11.9994 9.65625C11.8067 9.65625 11.6105 9.67934 11.4164 9.72481C10.6081 9.91347 9.93142 10.5788 9.73264 11.3804C9.67033 11.6317 9.82349 11.8859 10.0747 11.9482C10.326 12.0105 10.5802 11.8573 10.6425 11.6061C10.757 11.1449 11.1628 10.7467 11.6298 10.6377C11.7543 10.6085 11.8786 10.5938 11.9994 10.5938C12.2583 10.5938 12.4682 10.3839 12.4682 10.125C12.4682 9.86612 12.2583 9.65625 11.9994 9.65625Z" fill="#2F43F2"/>
</g>
<defs>
<clipPath id="clip0_8196_9170">
<rect width="16" height="16" fill="white" transform="translate(4 4)"/>
</clipPath>
</defs>
</svg>
