<svg width="21" height="20" viewBox="0 0 21 20" fill="none" xmlns="http://www.w3.org/2000/svg">
<path d="M11.0806 17.4993H5.66398C5.22195 17.4993 4.79803 17.3238 4.48547 17.0112C4.17291 16.6986 3.99731 16.2747 3.99731 15.8327V5.83268C3.99731 5.39065 4.17291 4.96673 4.48547 4.65417C4.79803 4.34161 5.22195 4.16602 5.66398 4.16602H15.664C16.106 4.16602 16.5299 4.34161 16.8425 4.65417C17.1551 4.96673 17.3306 5.39065 17.3306 5.83268V9.99935" stroke="#13097D" stroke-width="1.25" stroke-linecap="round" stroke-linejoin="round"/>
<path d="M13.9973 2.5V5.83333" stroke="#13097D" stroke-width="1.25" stroke-linecap="round" stroke-linejoin="round"/>
<path d="M7.33081 2.5V5.83333" stroke="#13097D" stroke-width="1.25" stroke-linecap="round" stroke-linejoin="round"/>
<path d="M3.99731 9.16602H17.3306" stroke="#13097D" stroke-width="1.25" stroke-linecap="round" stroke-linejoin="round"/>
<path d="M13.9973 15.834C13.9973 16.497 14.2607 17.1329 14.7295 17.6018C15.1984 18.0706 15.8343 18.334 16.4973 18.334C17.1604 18.334 17.7962 18.0706 18.2651 17.6018C18.7339 17.1329 18.9973 16.497 18.9973 15.834C18.9973 15.1709 18.7339 14.5351 18.2651 14.0662C17.7962 13.5974 17.1604 13.334 16.4973 13.334C15.8343 13.334 15.1984 13.5974 14.7295 14.0662C14.2607 14.5351 13.9973 15.1709 13.9973 15.834Z" stroke="#13097D" stroke-width="1.25" stroke-linecap="round" stroke-linejoin="round"/>
<path d="M14.8308 17.4993L18.1641 14.166" stroke="#13097D" stroke-width="1.25" stroke-linecap="round" stroke-linejoin="round"/>
</svg>
