<svg width="22" height="21" viewBox="0 0 22 21" fill="none" xmlns="http://www.w3.org/2000/svg">
<path fill-rule="evenodd" clip-rule="evenodd" d="M6.3329 0.431641C6.51855 0.431641 6.6966 0.50539 6.82787 0.636666C6.95915 0.767941 7.0329 0.945989 7.0329 1.13164V1.84377C7.65076 1.83164 8.33116 1.83164 9.0797 1.83164H12.9185C13.668 1.83164 14.3484 1.83164 14.9662 1.84377V1.13164C14.9662 0.945989 15.04 0.767941 15.1713 0.636666C15.3025 0.50539 15.4806 0.431641 15.6662 0.431641C15.8519 0.431641 16.0299 0.50539 16.1612 0.636666C16.2925 0.767941 16.3662 0.945989 16.3662 1.13164V1.90351C16.6089 1.92217 16.8388 1.94582 17.056 1.97444C18.1498 2.12191 19.0356 2.43177 19.7346 3.12991C20.4328 3.82897 20.7426 4.71471 20.8901 5.80857C21.0329 6.87257 21.0329 8.23057 21.0329 9.94604V11.9172C21.0329 13.6327 21.0329 14.9916 20.8901 16.0547C20.7426 17.1486 20.4328 18.0343 19.7346 18.7334C19.0356 19.4315 18.1498 19.7414 17.056 19.8888C15.992 20.0316 14.634 20.0316 12.9185 20.0316H9.08156C7.3661 20.0316 6.00716 20.0316 4.9441 19.8888C3.85023 19.7414 2.9645 19.4315 2.26543 18.7334C1.5673 18.0343 1.25743 17.1486 1.10996 16.0547C0.967163 14.9907 0.967163 13.6327 0.967163 11.9172V9.94604C0.967163 8.23057 0.967163 6.87164 1.10996 5.80857C1.25743 4.71471 1.5673 3.82897 2.26543 3.12991C2.9645 2.43177 3.85023 2.12191 4.9441 1.97444C5.16187 1.94582 5.39179 1.92217 5.63383 1.90351V1.13164C5.63383 0.946151 5.70745 0.768244 5.83853 0.636996C5.9696 0.505747 6.14741 0.431888 6.3329 0.431641ZM5.1289 3.36231C4.1909 3.48831 3.64956 3.72537 3.25476 4.12017C2.85996 4.51497 2.6229 5.05631 2.4969 5.99431C2.47574 6.15297 2.4577 6.32066 2.44276 6.49737H19.5564C19.5414 6.32066 19.5234 6.15266 19.5022 5.99337C19.3762 5.05537 19.1392 4.51404 18.7444 4.11924C18.3496 3.72444 17.8082 3.48737 16.8693 3.36137C15.9108 3.23257 14.6461 3.23071 12.8662 3.23071H9.1329C7.35303 3.23071 6.0893 3.23351 5.1289 3.36231ZM2.36623 9.99831C2.36623 9.20124 2.36623 8.50777 2.37836 7.89831H19.6208C19.6329 8.50777 19.6329 9.20124 19.6329 9.99831V11.865C19.6329 13.6448 19.631 14.9095 19.5022 15.869C19.3762 16.807 19.1392 17.3483 18.7444 17.7431C18.3496 18.1379 17.8082 18.375 16.8693 18.501C15.9108 18.6298 14.6461 18.6316 12.8662 18.6316H9.1329C7.35303 18.6316 6.0893 18.6298 5.1289 18.501C4.1909 18.375 3.64956 18.1379 3.25476 17.7431C2.85996 17.3483 2.6229 16.807 2.4969 15.868C2.3681 14.9095 2.36623 13.6448 2.36623 11.865V9.99831Z" fill="#00B54B"/>
</svg>
