<svg width="27" height="18" viewBox="0 0 27 18" fill="none" xmlns="http://www.w3.org/2000/svg">
<path d="M26.6 5.37142C26.6 5.72532 26.3813 6.04241 26.0505 6.16804L24.6361 6.70906V13.0565C25.3973 13.3923 25.8885 14.1458 25.8886 14.9777V17.0438C25.8886 17.5144 25.5071 17.8958 25.0366 17.8958H22.536C22.0654 17.8958 21.684 17.5144 21.684 17.0438V14.9777C21.6828 14.1477 22.1726 13.3955 22.9321 13.0607V7.36084L21.1216 8.05096L19.4176 8.70275L14.8211 10.4621C13.8417 10.8364 12.7588 10.8364 11.7794 10.4621L7.1829 8.70274L5.4789 8.05096L0.550071 6.16804C0.110109 6.00116 -0.111268 5.50922 0.0556105 5.06926C0.142084 4.84128 0.322091 4.66127 0.550071 4.5748L11.7794 0.280715C12.7588 -0.0935718 13.8417 -0.0935718 14.8211 0.280715L26.0505 4.5748C26.3813 4.70044 26.6 5.01752 26.6 5.37142ZM14.8211 12.1661C13.8417 12.5404 12.7588 12.5404 11.7794 12.1661L7.1829 10.4067L5.4789 9.75497V13.3163C5.47768 13.6219 5.64024 13.9048 5.9049 14.0576C8.19061 15.243 10.7255 15.868 13.3003 15.8809C15.8747 15.8693 18.4095 15.2458 20.6956 14.0618C20.9603 13.909 21.1228 13.6262 21.1216 13.3206V9.75497L19.4176 10.4067L14.8211 12.1661Z" fill="#242645"/>
</svg>
