<svg width="14" height="14" viewBox="0 0 14 14" fill="none" xmlns="http://www.w3.org/2000/svg">
<path fill-rule="evenodd" clip-rule="evenodd" d="M13.3643 0.910307C13.5518 1.09783 13.6571 1.35214 13.6571 1.61731C13.6571 1.88247 13.5518 2.13678 13.3643 2.32431L5.86901 9.81964C5.76996 9.91872 5.65236 9.99731 5.52293 10.0509C5.3935 10.1045 5.25477 10.1321 5.11468 10.1321C4.97458 10.1321 4.83585 10.1045 4.70642 10.0509C4.57699 9.99731 4.4594 9.91872 4.36034 9.81964L0.636343 6.09631C0.540833 6.00406 0.464651 5.89372 0.412242 5.77171C0.359833 5.64971 0.332246 5.51849 0.331092 5.38571C0.329939 5.25293 0.35524 5.12125 0.405521 4.99835C0.455802 4.87546 0.530055 4.7638 0.623948 4.66991C0.717841 4.57602 0.829493 4.50177 0.952389 4.45149C1.07529 4.4012 1.20696 4.3759 1.33974 4.37706C1.47252 4.37821 1.60374 4.4058 1.72575 4.45821C1.84775 4.51061 1.9581 4.5868 2.05034 4.68231L5.11434 7.74631L11.9497 0.910307C12.0425 0.817381 12.1528 0.743664 12.2742 0.693369C12.3955 0.643074 12.5256 0.617188 12.657 0.617188C12.7884 0.617188 12.9185 0.643074 13.0398 0.693369C13.1612 0.743664 13.2715 0.817381 13.3643 0.910307Z" fill="#07B02E"/>
</svg>
