<svg width="17" height="18" viewBox="0 0 17 18" fill="none" xmlns="http://www.w3.org/2000/svg">
<path d="M0.664063 9C0.664062 9.98491 0.858056 10.9602 1.23497 11.8701C1.61188 12.7801 2.16432 13.6069 2.86076 14.3033C3.5572 14.9997 4.38399 15.5522 5.29394 15.9291C6.20388 16.306 7.17915 16.5 8.16406 16.5C9.14898 16.5 10.1242 16.306 11.0342 15.9291C11.9441 15.5522 12.7709 14.9997 13.4674 14.3033C14.1638 13.6069 14.7162 12.7801 15.0932 11.8701C15.4701 10.9602 15.6641 9.98491 15.6641 9C15.6641 8.01509 15.4701 7.03982 15.0932 6.12987C14.7162 5.21993 14.1638 4.39314 13.4674 3.6967C12.7709 3.00026 11.9441 2.44781 11.0342 2.0709C10.1242 1.69399 9.14898 1.5 8.16406 1.5C7.17915 1.5 6.20388 1.69399 5.29394 2.0709C4.38399 2.44781 3.5572 3.00026 2.86076 3.6967C2.16432 4.39314 1.61188 5.21993 1.23497 6.12987C0.858056 7.03982 0.664062 8.01509 0.664063 9Z" stroke="#13097D" stroke-width="1.25" stroke-linecap="round" stroke-linejoin="round"/>
<path d="M8.16406 9H11.0807" stroke="#13097D" stroke-width="1.25" stroke-linecap="round" stroke-linejoin="round"/>
<path d="M8.16406 4.83398V9.00065" stroke="#13097D" stroke-width="1.25" stroke-linecap="round" stroke-linejoin="round"/>
</svg>
