<svg width="124" height="29" viewBox="0 0 124 29" fill="none" xmlns="http://www.w3.org/2000/svg">
<rect width="124" height="29" rx="6" fill="white"/>
<rect x="12" y="6.5" width="16" height="16" fill="#0E1629"/>
<path d="M36.6752 14.1C36.6752 13.1387 36.8899 12.28 37.3192 11.524C37.7579 10.7587 38.3506 10.166 39.0972 9.746C39.8532 9.31667 40.6979 9.102 41.6312 9.102C42.7232 9.102 43.6799 9.382 44.5012 9.942C45.3226 10.502 45.8966 11.2767 46.2232 12.266H43.9692C43.7452 11.7993 43.4279 11.4493 43.0172 11.216C42.6159 10.9827 42.1492 10.866 41.6172 10.866C41.0479 10.866 40.5392 11.0013 40.0912 11.272C39.6526 11.5333 39.3072 11.9067 39.0552 12.392C38.8126 12.8773 38.6912 13.4467 38.6912 14.1C38.6912 14.744 38.8126 15.3133 39.0552 15.808C39.3072 16.2933 39.6526 16.6713 40.0912 16.942C40.5392 17.2033 41.0479 17.334 41.6172 17.334C42.1492 17.334 42.6159 17.2173 43.0172 16.984C43.4279 16.7413 43.7452 16.3867 43.9692 15.92H46.2232C45.8966 16.9187 45.3226 17.698 44.5012 18.258C43.6892 18.8087 42.7326 19.084 41.6312 19.084C40.6979 19.084 39.8532 18.874 39.0972 18.454C38.3506 18.0247 37.7579 17.432 37.3192 16.676C36.8899 15.92 36.6752 15.0613 36.6752 14.1ZM53.4133 19.098C52.4987 19.098 51.6587 18.8833 50.8933 18.454C50.128 18.0247 49.5213 17.432 49.0733 16.676C48.6253 15.9107 48.4013 15.0473 48.4013 14.086C48.4013 13.134 48.6253 12.28 49.0733 11.524C49.5213 10.7587 50.128 10.1613 50.8933 9.732C51.6587 9.30267 52.4987 9.088 53.4133 9.088C54.3373 9.088 55.1773 9.30267 55.9333 9.732C56.6987 10.1613 57.3007 10.7587 57.7393 11.524C58.1873 12.28 58.4113 13.134 58.4113 14.086C58.4113 15.0473 58.1873 15.9107 57.7393 16.676C57.3007 17.432 56.6987 18.0247 55.9333 18.454C55.168 18.8833 54.328 19.098 53.4133 19.098ZM53.4133 17.348C54.0013 17.348 54.5193 17.2173 54.9673 16.956C55.4153 16.6853 55.7653 16.3027 56.0173 15.808C56.2693 15.3133 56.3953 14.7393 56.3953 14.086C56.3953 13.4327 56.2693 12.8633 56.0173 12.378C55.7653 11.8833 55.4153 11.5053 54.9673 11.244C54.5193 10.9827 54.0013 10.852 53.4133 10.852C52.8253 10.852 52.3027 10.9827 51.8453 11.244C51.3973 11.5053 51.0473 11.8833 50.7953 12.378C50.5433 12.8633 50.4173 13.4327 50.4173 14.086C50.4173 14.7393 50.5433 15.3133 50.7953 15.808C51.0473 16.3027 51.3973 16.6853 51.8453 16.956C52.3027 17.2173 52.8253 17.348 53.4133 17.348ZM62.8095 17.446H66.0295V19H60.8495V9.228H62.8095V17.446ZM70.2153 17.446H73.4353V19H68.2553V9.228H70.2153V17.446ZM77.6211 10.81V13.26H80.9111V14.814H77.6211V17.404H81.3311V19H75.6611V9.214H81.3311V10.81H77.6211ZM90.8963 12.168C90.6723 11.7573 90.3643 11.4447 89.9723 11.23C89.5803 11.0153 89.1229 10.908 88.6003 10.908C88.0216 10.908 87.5083 11.0387 87.0603 11.3C86.6123 11.5613 86.2623 11.9347 86.0103 12.42C85.7583 12.9053 85.6323 13.4653 85.6323 14.1C85.6323 14.7533 85.7583 15.3227 86.0103 15.808C86.2716 16.2933 86.6309 16.6667 87.0883 16.928C87.5456 17.1893 88.0776 17.32 88.6843 17.32C89.4309 17.32 90.0423 17.124 90.5183 16.732C90.9943 16.3307 91.3069 15.7753 91.4563 15.066H88.0963V13.568H93.3883V15.276C93.2576 15.9573 92.9776 16.5873 92.5483 17.166C92.1189 17.7447 91.5636 18.2113 90.8823 18.566C90.2103 18.9113 89.4543 19.084 88.6143 19.084C87.6716 19.084 86.8176 18.874 86.0523 18.454C85.2963 18.0247 84.6989 17.432 84.2603 16.676C83.8309 15.92 83.6163 15.0613 83.6163 14.1C83.6163 13.1387 83.8309 12.28 84.2603 11.524C84.6989 10.7587 85.2963 10.166 86.0523 9.746C86.8176 9.31667 87.6669 9.102 88.6003 9.102C89.7016 9.102 90.6583 9.37267 91.4703 9.914C92.2823 10.446 92.8423 11.1973 93.1503 12.168H90.8963ZM97.7783 10.81V13.26H101.068V14.814H97.7783V17.404H101.488V19H95.8183V9.214H101.488V10.81H97.7783ZM107.624 19.098C106.942 19.098 106.326 18.9813 105.776 18.748C105.234 18.5147 104.805 18.1787 104.488 17.74C104.17 17.3013 104.007 16.7833 103.998 16.186H106.098C106.126 16.5873 106.266 16.9047 106.518 17.138C106.779 17.3713 107.134 17.488 107.582 17.488C108.039 17.488 108.398 17.3807 108.66 17.166C108.921 16.942 109.052 16.6527 109.052 16.298C109.052 16.0087 108.963 15.7707 108.786 15.584C108.608 15.3973 108.384 15.2527 108.114 15.15C107.852 15.038 107.488 14.9167 107.022 14.786C106.387 14.5993 105.869 14.4173 105.468 14.24C105.076 14.0533 104.735 13.778 104.446 13.414C104.166 13.0407 104.026 12.546 104.026 11.93C104.026 11.3513 104.17 10.8473 104.46 10.418C104.749 9.98867 105.155 9.662 105.678 9.438C106.2 9.20467 106.798 9.088 107.47 9.088C108.478 9.088 109.294 9.33533 109.92 9.83C110.554 10.3153 110.904 10.9967 110.97 11.874H108.814C108.795 11.538 108.65 11.2627 108.38 11.048C108.118 10.824 107.768 10.712 107.33 10.712C106.947 10.712 106.639 10.81 106.406 11.006C106.182 11.202 106.07 11.4867 106.07 11.86C106.07 12.1213 106.154 12.3407 106.322 12.518C106.499 12.686 106.714 12.826 106.966 12.938C107.227 13.0407 107.591 13.162 108.058 13.302C108.692 13.4887 109.21 13.6753 109.612 13.862C110.013 14.0487 110.358 14.3287 110.648 14.702C110.937 15.0753 111.082 15.5653 111.082 16.172C111.082 16.6947 110.946 17.18 110.676 17.628C110.405 18.076 110.008 18.4353 109.486 18.706C108.963 18.9673 108.342 19.098 107.624 19.098Z" fill="#0E1629"/>
</svg>
