<svg width="180" height="180" viewBox="0 0 180 180" fill="none" xmlns="http://www.w3.org/2000/svg">
<mask id="mask0_430_5809" style="mask-type:luminance" maskUnits="userSpaceOnUse" x="0" y="0" width="180" height="180">
<path d="M180 0H0V180H180V0Z" fill="white"/>
</mask>
<g mask="url(#mask0_430_5809)">
<path d="M92.541 97.322L92.5488 30.3291L135.953 55.3396L135.933 122.34L92.541 97.322Z" fill="#333C6A"/>
<path d="M137.983 54.1726L135.955 55.3406L92.5513 30.33L94.5746 29.1582L137.983 54.1726Z" fill="#383A41"/>
<path d="M84.4668 100.682L84.4727 40.3311L124.375 63.3261L124.359 123.679L84.4668 100.682Z" fill="#FBC8AB"/>
<path d="M133.915 57.8207L124.374 63.3282L84.4717 40.3332L94.0122 34.8296L133.915 57.8207Z" fill="white"/>
<path d="M136.201 57.3753C136.918 56.4828 137.533 55.4067 137.978 54.1626L137.957 121.171C137.83 121.349 137.734 121.579 137.633 121.921C137.64 121.968 137.623 121.997 137.615 122.019C137.224 122.9 136.736 123.673 136.197 124.358C134.127 126.981 131.139 128.313 128.547 128.985C125.832 129.688 123.553 129.659 123.274 129.663C123.252 129.659 123.252 129.659 123.252 129.659L123.264 62.6544C123.264 62.6544 125.651 62.7266 128.569 61.9728C131.143 61.297 134.123 59.9865 136.201 57.3753Z" fill="#383A41"/>
<path d="M79.8716 37.6479V104.645L123.262 129.667L123.272 62.6624L79.8716 37.6479Z" fill="#F89257"/>
<path d="M79.8716 37.6479V104.645L123.262 129.667L123.272 62.6624L79.8716 37.6479Z" stroke="#383A41" stroke-width="0.855035" stroke-linecap="round" stroke-linejoin="round"/>
<path d="M125.393 61.5603L123.37 62.7283L79.9614 37.7138L81.9887 36.5459L125.393 61.5603Z" fill="#383A41"/>
<path d="M123.324 62.6715L122.367 61.0036C122.367 61.0036 132.964 61.9469 136.046 54.8652L138.038 54.1875C136.407 63.937 123.324 62.6676 123.324 62.6676V62.6715Z" fill="#383A41"/>
<path d="M72.6782 106.743L72.686 39.75L116.09 64.7605L116.071 131.761L72.6782 106.743Z" fill="#333C6A"/>
<path d="M118.116 63.5935L116.092 64.7615L72.688 39.7509L74.7113 38.5791L118.116 63.5935Z" fill="#383A41"/>
<path d="M64.5986 110.105L64.6045 49.752L104.507 72.747L104.491 133.103L64.5986 110.105Z" fill="#F2F2F2"/>
<path d="M114.047 67.246L104.508 72.7496L64.6079 49.7546L74.1465 44.251L114.047 67.246Z" fill="white"/>
<path d="M116.334 66.7953C117.055 65.9027 117.67 64.8266 118.115 63.5786L118.094 130.591C117.967 130.769 117.871 130.999 117.765 131.341C117.777 131.388 117.76 131.417 117.752 131.439C117.359 132.316 116.873 133.093 116.334 133.778C114.264 136.399 111.279 137.735 108.684 138.405C105.969 139.108 103.69 139.079 103.411 139.083C103.389 139.075 103.389 139.075 103.389 139.075L103.397 72.0743C103.397 72.0743 105.787 72.1466 108.705 71.3927C111.279 70.7189 114.26 69.4045 116.334 66.7953Z" fill="#383A41"/>
<path d="M60.0078 47.0645V114.057L103.398 139.084L103.408 72.0789L60.0078 47.0645Z" fill="#FA660E"/>
<path d="M60.0078 47.0645V114.057L103.398 139.084L103.408 72.0789L60.0078 47.0645Z" stroke="#383A41" stroke-width="0.855035" stroke-linecap="round" stroke-linejoin="round"/>
<path d="M105.434 70.9124L103.411 72.0803L60.0029 47.0659L62.0302 45.8979L105.434 70.9124Z" fill="#383A41"/>
<path d="M103.405 72.0626L102.448 70.3986C102.448 70.3986 113.047 71.3419 116.129 64.2602L118.115 63.5786C116.489 73.3321 103.405 72.0626 103.405 72.0626Z" fill="#383A41"/>
<path d="M53.8105 118.943L53.8184 51.9502L97.2226 76.9607L97.203 143.965L53.8105 118.943Z" fill="#333C6A"/>
<path d="M99.1878 75.763L97.1644 77.1106L53.7603 52.0727L55.7836 50.7485L99.1878 75.763Z" fill="#383A41"/>
<path d="M45.7212 122.177L45.729 61.8262L85.6295 84.8192L85.6119 145.174L45.7212 122.177Z" fill="#FBC8AB"/>
<path d="M95.2262 79.3051L85.6915 84.8087L45.791 61.8137L55.3296 56.3101L95.2262 79.3051Z" fill="white"/>
<path d="M97.4515 78.8705C98.1742 77.9779 98.7874 76.8998 99.2327 75.6577L99.2112 142.666C99.0843 142.844 98.9905 143.076 98.8851 143.42C98.8948 143.467 98.8772 143.496 98.8694 143.514C98.4788 144.395 97.9906 145.168 97.4476 145.854C95.3813 148.475 92.3932 149.809 89.8015 150.478C87.0829 151.181 84.8096 151.154 84.5303 151.158C84.5088 151.152 84.5068 151.15 84.5068 151.15L84.5186 84.1495C84.5186 84.1495 86.9032 84.2179 89.8191 83.4718C92.3971 82.798 95.3774 81.4797 97.4515 78.8705Z" fill="#383A41"/>
<path d="M41.1255 59.1387V126.136L84.5141 151.158L84.5258 84.1531L41.1255 59.1387Z" fill="#F89257"/>
<path d="M41.1255 59.1387V126.136L84.5141 151.158L84.5258 84.1531L41.1255 59.1387Z" stroke="#383A41" stroke-width="0.855035" stroke-linecap="round" stroke-linejoin="round"/>
<path d="M86.617 82.9817L84.5936 84.1496L41.1855 59.1352L43.2089 57.9673L86.617 82.9817Z" fill="#383A41"/>
<path d="M84.5229 84.1417L83.5659 82.4777C83.5659 82.4777 94.1611 83.4171 97.2469 76.3354L99.2331 75.6577C97.6063 85.4073 84.5229 84.1378 84.5229 84.1378V84.1417Z" fill="#383A41"/>
<path d="M67.4321 74.2944V109.334L71.5062 105.144L76.0938 114.544V79.2238L77.873 77.9446L69.35 73.0347L67.4321 74.2944Z" fill="#333C6A"/>
</g>
</svg>
