<svg width="64" height="64" viewBox="0 0 64 64" fill="none" xmlns="http://www.w3.org/2000/svg">
<g filter="url(#filter0_d_2642_12679)">
<rect x="4" y="4" width="56" height="56" rx="28" fill="#2F43F2"/>
<path d="M22.603 28.8425C22.6296 29.0514 22.3917 29.8298 22.0679 30.5852C22.0252 30.685 22.0498 30.801 22.1294 30.8748C22.209 30.9486 22.3265 30.9645 22.4228 30.9144C23.2112 30.5043 24.1903 30.0784 24.4225 30.0893C25.5719 30.6481 26.8877 30.9434 28.2296 30.9434C30.0783 30.9434 31.8511 30.3859 33.2215 29.3737C33.3357 29.2893 33.3598 29.1284 33.2755 29.0143C33.1911 28.9001 33.0303 28.876 32.9162 28.9603C31.6335 29.9077 29.9691 30.4295 28.2296 30.4295C26.9579 30.4295 25.7128 30.1488 24.6296 29.6184C24.3933 29.5015 23.7775 29.681 22.7958 30.1524C23.3007 28.7926 23.0672 28.5733 22.9828 28.4941C21.8934 27.4808 21.2935 26.1849 21.2935 24.845C21.2935 23.1778 22.2096 21.6105 23.8069 20.545C23.9249 20.4662 23.9568 20.3067 23.8781 20.1886C23.7993 20.0707 23.6397 20.0386 23.5217 20.1174C21.7791 21.2799 20.7796 23.003 20.7796 24.845C20.7796 26.3173 21.4272 27.7358 22.603 28.8425Z" fill="white" stroke="white" stroke-width="0.5"/>
<path d="M40.9078 25.7866C42.3982 24.3887 43.2204 22.5969 43.2204 20.7383C43.2204 16.502 39.0047 13.0571 33.8211 13.0571C28.6392 13.0571 24.4235 16.502 24.4235 20.7383C24.4235 24.9729 28.6392 28.4195 33.8211 28.4195C35.5238 28.4195 37.1889 28.0443 38.6415 27.3334C38.9088 27.2974 40.1901 27.8473 41.2333 28.3904C41.3292 28.4401 41.4475 28.4246 41.5263 28.351C41.6068 28.2756 41.6307 28.1608 41.5879 28.0615C41.1528 27.0456 40.8461 26.0195 40.9078 25.7866ZM38.4274 26.8674C37.0432 27.5458 35.4501 27.9055 33.821 27.9055C28.9235 27.9055 24.9373 24.6902 24.9373 20.7383C24.9373 16.7863 28.9235 13.571 33.8211 13.571C38.7203 13.571 42.7065 16.7864 42.7065 20.7383C42.7065 22.4599 41.9357 24.1267 40.5379 25.4286C40.2775 25.6701 40.3854 26.4067 40.853 27.6229C39.8406 27.1278 38.7751 26.6962 38.4274 26.8674Z" fill="white" stroke="white" stroke-width="0.5"/>
<path d="M39.0167 20.0944C38.9636 20.0944 38.9105 20.0962 38.8591 20.1013C38.2698 18.7446 36.9148 17.7904 35.3422 17.7904H34.078L34.0798 16.838C34.4926 16.7249 34.7975 16.3464 34.7975 15.8993C34.7975 15.3596 34.3607 14.9229 33.8228 14.9229C33.2832 14.9229 32.8464 15.3597 32.8464 15.8993C32.8464 16.3464 33.1513 16.7249 33.5659 16.838L33.5641 17.7904H32.2999C30.7273 17.7904 29.3741 18.7446 28.7848 20.1013C28.7334 20.0961 28.6803 20.0944 28.6255 20.0944C27.7827 20.0944 27.0974 20.7796 27.0974 21.6225C27.0974 22.4653 27.7827 23.1505 28.6255 23.1505C28.6803 23.1505 28.7334 23.1471 28.7848 23.1419C29.3741 24.5004 30.7273 25.4528 32.2999 25.4528H35.3422C36.9148 25.4528 38.2698 24.5003 38.8591 23.1419C38.9105 23.1471 38.9636 23.1505 39.0167 23.1505C39.8595 23.1505 40.5464 22.4653 40.5464 21.6225C40.5464 20.7796 39.8595 20.0944 39.0167 20.0944ZM32.2999 18.3043H35.3422C36.6801 18.3043 37.8329 19.1026 38.3571 20.2452C37.9854 20.425 37.6959 20.7488 37.5658 21.1462C37.3619 20.4918 36.7504 20.0139 36.0292 20.0139H31.6147C30.8935 20.0139 30.2803 20.4918 30.0781 21.1462C29.948 20.7488 29.6585 20.425 29.2867 20.2452C29.8109 19.1026 30.9621 18.3043 32.2999 18.3043ZM37.1238 21.6224C37.1238 22.2254 36.6321 22.717 36.0291 22.717H31.6147C31.01 22.717 30.5201 22.2254 30.5201 21.6224C30.5201 21.0177 31.01 20.5278 31.6147 20.5278H36.0291C36.6321 20.5278 37.1238 21.0177 37.1238 21.6224ZM28.9835 21.6224C28.9835 21.3123 29.0298 21.0143 29.1086 20.73C29.4255 20.9012 29.6413 21.237 29.6413 21.6224C29.6413 22.0061 29.4255 22.3419 29.1086 22.5132C29.0298 22.2288 28.9835 21.9308 28.9835 21.6224ZM35.3422 24.9388H32.2999C30.9621 24.9388 29.8109 24.1405 29.2867 22.998C29.6585 22.8181 29.948 22.4943 30.0781 22.0969C30.2803 22.753 30.8935 23.2309 31.6147 23.2309H36.0291C36.7503 23.2309 37.3618 22.753 37.5657 22.0969C37.6959 22.4943 37.9854 22.8181 38.3571 22.998C37.8329 24.1405 36.6801 24.9388 35.3422 24.9388ZM38.5353 22.5132C38.2184 22.3419 38.0026 22.0061 38.0026 21.6224C38.0026 21.237 38.2184 20.9012 38.5353 20.73C38.6141 21.0143 38.6604 21.3124 38.6604 21.6224C38.6603 21.9308 38.6141 22.2288 38.5353 22.5132Z" fill="white" stroke="white" stroke-width="0.5"/>
<path d="M33.2167 21.6206C33.2167 22.0266 32.8861 22.3555 32.4818 22.3555C32.0776 22.3555 31.7503 22.0266 31.7503 21.6206C31.7503 21.2163 32.0775 20.8892 32.4818 20.8892C32.8861 20.8891 33.2167 21.2163 33.2167 21.6206Z" fill="white" stroke="white" stroke-width="0.5"/>
<path d="M35.9667 21.6206C35.9667 22.0266 35.6378 22.3555 35.2335 22.3555C34.8293 22.3555 34.5003 22.0266 34.5003 21.6206C34.5003 21.2163 34.8292 20.8892 35.2335 20.8892C35.6378 20.8892 35.9667 21.2163 35.9667 21.6206Z" fill="white" stroke="white" stroke-width="0.5"/>
<path d="M17.8031 45.812C17.8031 44.996 17.9871 44.264 18.3551 43.616C18.7231 42.96 19.2231 42.448 19.8551 42.08C20.4951 41.712 21.2031 41.528 21.9791 41.528C22.8911 41.528 23.6871 41.748 24.3671 42.188C25.0471 42.628 25.5431 43.252 25.8551 44.06H24.5471C24.3151 43.556 23.9791 43.168 23.5391 42.896C23.1071 42.624 22.5871 42.488 21.9791 42.488C21.3951 42.488 20.8711 42.624 20.4071 42.896C19.9431 43.168 19.5791 43.556 19.3151 44.06C19.0511 44.556 18.9191 45.14 18.9191 45.812C18.9191 46.476 19.0511 47.06 19.3151 47.564C19.5791 48.06 19.9431 48.444 20.4071 48.716C20.8711 48.988 21.3951 49.124 21.9791 49.124C22.5871 49.124 23.1071 48.992 23.5391 48.728C23.9791 48.456 24.3151 48.068 24.5471 47.564H25.8551C25.5431 48.364 25.0471 48.984 24.3671 49.424C23.6871 49.856 22.8911 50.072 21.9791 50.072C21.2031 50.072 20.4951 49.892 19.8551 49.532C19.2231 49.164 18.7231 48.656 18.3551 48.008C17.9871 47.36 17.8031 46.628 17.8031 45.812ZM30.7446 43.304C31.2406 43.304 31.6886 43.412 32.0886 43.628C32.4886 43.836 32.8006 44.152 33.0246 44.576C33.2566 45 33.3726 45.516 33.3726 46.124V50H32.2926V46.28C32.2926 45.624 32.1286 45.124 31.8006 44.78C31.4726 44.428 31.0246 44.252 30.4566 44.252C29.8806 44.252 29.4206 44.432 29.0766 44.792C28.7406 45.152 28.5726 45.676 28.5726 46.364V50H27.4806V41.12H28.5726V44.36C28.7886 44.024 29.0846 43.764 29.4606 43.58C29.8446 43.396 30.2726 43.304 30.7446 43.304ZM34.7484 46.688C34.7484 46.016 34.8844 45.428 35.1564 44.924C35.4284 44.412 35.8004 44.016 36.2724 43.736C36.7524 43.456 37.2844 43.316 37.8684 43.316C38.4444 43.316 38.9444 43.44 39.3684 43.688C39.7924 43.936 40.1084 44.248 40.3164 44.624V43.424H41.4204V50H40.3164V48.776C40.1004 49.16 39.7764 49.48 39.3444 49.736C38.9204 49.984 38.4244 50.108 37.8564 50.108C37.2724 50.108 36.7444 49.964 36.2724 49.676C35.8004 49.388 35.4284 48.984 35.1564 48.464C34.8844 47.944 34.7484 47.352 34.7484 46.688ZM40.3164 46.7C40.3164 46.204 40.2164 45.772 40.0164 45.404C39.8164 45.036 39.5444 44.756 39.2004 44.564C38.8644 44.364 38.4924 44.264 38.0844 44.264C37.6764 44.264 37.3044 44.36 36.9684 44.552C36.6324 44.744 36.3644 45.024 36.1644 45.392C35.9644 45.76 35.8644 46.192 35.8644 46.688C35.8644 47.192 35.9644 47.632 36.1644 48.008C36.3644 48.376 36.6324 48.66 36.9684 48.86C37.3044 49.052 37.6764 49.148 38.0844 49.148C38.4924 49.148 38.8644 49.052 39.2004 48.86C39.5444 48.66 39.8164 48.376 40.0164 48.008C40.2164 47.632 40.3164 47.196 40.3164 46.7ZM44.5978 44.324V48.2C44.5978 48.52 44.6658 48.748 44.8018 48.884C44.9378 49.012 45.1738 49.076 45.5098 49.076H46.3138V50H45.3298C44.7218 50 44.2658 49.86 43.9618 49.58C43.6578 49.3 43.5058 48.84 43.5058 48.2V44.324H42.6538V43.424H43.5058V41.768H44.5978V43.424H46.3138V44.324H44.5978Z" fill="white"/>
</g>
<defs>
<filter id="filter0_d_2642_12679" x="0" y="0" width="64" height="64" filterUnits="userSpaceOnUse" color-interpolation-filters="sRGB">
<feFlood flood-opacity="0" result="BackgroundImageFix"/>
<feColorMatrix in="SourceAlpha" type="matrix" values="0 0 0 0 0 0 0 0 0 0 0 0 0 0 0 0 0 0 127 0" result="hardAlpha"/>
<feOffset/>
<feGaussianBlur stdDeviation="2"/>
<feComposite in2="hardAlpha" operator="out"/>
<feColorMatrix type="matrix" values="0 0 0 0 0.054902 0 0 0 0 0.0862745 0 0 0 0 0.160784 0 0 0 0.2 0"/>
<feBlend mode="normal" in2="BackgroundImageFix" result="effect1_dropShadow_2642_12679"/>
<feBlend mode="normal" in="SourceGraphic" in2="effect1_dropShadow_2642_12679" result="shape"/>
</filter>
</defs>
</svg>
