<svg width="328" height="64" viewBox="0 0 328 64" fill="none" xmlns="http://www.w3.org/2000/svg">
<g filter="url(#filter0_d_2642_12652)">
<path d="M4 16C4 9.37258 9.37258 4 16 4H312C318.627 4 324 9.37258 324 16V48C324 54.6274 318.627 60 312 60H16C9.37259 60 4 54.6274 4 48V16Z" fill="white" shape-rendering="crispEdges"/>
<g clip-path="url(#clip0_2642_12652)">
<path d="M47.5892 13.911L55.0892 21.411C55.6142 21.936 55.2425 22.8335 54.5 22.8335H53.6667V27.8335C53.6667 28.4965 53.4033 29.1324 52.9344 29.6012C52.4656 30.0701 51.8297 30.3335 51.1667 30.3335H50.3333V24.5001C50.3334 23.8625 50.0897 23.2489 49.6523 22.7849C49.2148 22.321 48.6166 22.0417 47.98 22.0043L47.8333 22.0001H46.1667C45.5036 22.0001 44.8677 22.2635 44.3989 22.7324C43.9301 23.2012 43.6667 23.8371 43.6667 24.5001V30.3335H42.8333C42.1703 30.3335 41.5344 30.0701 41.0656 29.6012C40.5967 29.1324 40.3333 28.4965 40.3333 27.8335V22.8335H39.5C38.7583 22.8335 38.3858 21.936 38.9108 21.411L46.4108 13.911C46.5671 13.7548 46.779 13.667 47 13.667C47.221 13.667 47.4329 13.7548 47.5892 13.911ZM47.8333 23.6668C48.0543 23.6668 48.2663 23.7546 48.4226 23.9109C48.5789 24.0672 48.6667 24.2791 48.6667 24.5001V30.3335H45.3333V24.5001C45.3334 24.296 45.4083 24.099 45.5439 23.9465C45.6796 23.794 45.8665 23.6965 46.0692 23.6726L46.1667 23.6668H47.8333Z" fill="#2F43F2"/>
</g>
<path d="M36.276 39.624V48H34.596V44.436H31.008V48H29.328V39.624H31.008V43.068H34.596V39.624H36.276ZM40.8816 48.108C40.2416 48.108 39.6656 47.968 39.1536 47.688C38.6416 47.4 38.2376 46.996 37.9416 46.476C37.6536 45.956 37.5096 45.356 37.5096 44.676C37.5096 43.996 37.6576 43.396 37.9536 42.876C38.2576 42.356 38.6696 41.956 39.1896 41.676C39.7096 41.388 40.2896 41.244 40.9296 41.244C41.5696 41.244 42.1496 41.388 42.6696 41.676C43.1896 41.956 43.5976 42.356 43.8936 42.876C44.1976 43.396 44.3496 43.996 44.3496 44.676C44.3496 45.356 44.1936 45.956 43.8816 46.476C43.5776 46.996 43.1616 47.4 42.6336 47.688C42.1136 47.968 41.5296 48.108 40.8816 48.108ZM40.8816 46.644C41.1856 46.644 41.4696 46.572 41.7336 46.428C42.0056 46.276 42.2216 46.052 42.3816 45.756C42.5416 45.46 42.6216 45.1 42.6216 44.676C42.6216 44.044 42.4536 43.56 42.1176 43.224C41.7896 42.88 41.3856 42.708 40.9056 42.708C40.4256 42.708 40.0216 42.88 39.6936 43.224C39.3736 43.56 39.2136 44.044 39.2136 44.676C39.2136 45.308 39.3696 45.796 39.6816 46.14C40.0016 46.476 40.4016 46.644 40.8816 46.644ZM53.8379 41.256C54.6539 41.256 55.3099 41.508 55.8059 42.012C56.3099 42.508 56.5619 43.204 56.5619 44.1V48H54.8819V44.328C54.8819 43.808 54.7499 43.412 54.4859 43.14C54.2219 42.86 53.8619 42.72 53.4059 42.72C52.9499 42.72 52.5859 42.86 52.3139 43.14C52.0499 43.412 51.9179 43.808 51.9179 44.328V48H50.2379V44.328C50.2379 43.808 50.1059 43.412 49.8419 43.14C49.5779 42.86 49.2179 42.72 48.7619 42.72C48.2979 42.72 47.9299 42.86 47.6579 43.14C47.3939 43.412 47.2619 43.808 47.2619 44.328V48H45.5819V41.352H47.2619V42.156C47.4779 41.876 47.7539 41.656 48.0899 41.496C48.4339 41.336 48.8099 41.256 49.2179 41.256C49.7379 41.256 50.2019 41.368 50.6099 41.592C51.0179 41.808 51.3339 42.12 51.5579 42.528C51.7739 42.144 52.0859 41.836 52.4939 41.604C52.9099 41.372 53.3579 41.256 53.8379 41.256ZM64.3361 44.532C64.3361 44.772 64.3201 44.988 64.2881 45.18H59.4281C59.4681 45.66 59.6361 46.036 59.9321 46.308C60.2281 46.58 60.5921 46.716 61.0241 46.716C61.6481 46.716 62.0921 46.448 62.3561 45.912H64.1681C63.9761 46.552 63.6081 47.08 63.0641 47.496C62.5201 47.904 61.8521 48.108 61.0601 48.108C60.4201 48.108 59.8441 47.968 59.3321 47.688C58.8281 47.4 58.4321 46.996 58.1441 46.476C57.8641 45.956 57.7241 45.356 57.7241 44.676C57.7241 43.988 57.8641 43.384 58.1441 42.864C58.4241 42.344 58.8161 41.944 59.3201 41.664C59.8241 41.384 60.4041 41.244 61.0601 41.244C61.6921 41.244 62.2561 41.38 62.7521 41.652C63.2561 41.924 63.6441 42.312 63.9161 42.816C64.1961 43.312 64.3361 43.884 64.3361 44.532ZM62.5961 44.052C62.5881 43.62 62.4321 43.276 62.1281 43.02C61.8241 42.756 61.4521 42.624 61.0121 42.624C60.5961 42.624 60.2441 42.752 59.9561 43.008C59.6761 43.256 59.5041 43.604 59.4401 44.052H62.5961Z" fill="#2F43F2"/>
<g clip-path="url(#clip1_2642_12652)">
<path d="M130.833 15.3335V28.6668H120.833C120.391 28.6668 119.967 28.4912 119.655 28.1787C119.342 27.8661 119.167 27.4422 119.167 27.0002V17.0002C119.167 16.5581 119.342 16.1342 119.655 15.8217C119.967 15.5091 120.391 15.3335 120.833 15.3335H130.833Z" stroke="#0E1629" stroke-width="1.5" stroke-linecap="round" stroke-linejoin="round"/>
<path d="M130.833 25.3335H120.833C120.391 25.3335 119.967 25.5091 119.655 25.8217C119.342 26.1342 119.167 26.5581 119.167 27.0002" stroke="#0E1629" stroke-width="1.5" stroke-linecap="round" stroke-linejoin="round"/>
<path d="M122.5 18.6665H127.5" stroke="#0E1629" stroke-width="1.5" stroke-linecap="round" stroke-linejoin="round"/>
</g>
<path d="M100.516 43.812C100.516 42.996 100.7 42.264 101.068 41.616C101.436 40.96 101.936 40.448 102.568 40.08C103.208 39.712 103.916 39.528 104.692 39.528C105.604 39.528 106.4 39.748 107.08 40.188C107.76 40.628 108.256 41.252 108.568 42.06H107.26C107.028 41.556 106.692 41.168 106.252 40.896C105.82 40.624 105.3 40.488 104.692 40.488C104.108 40.488 103.584 40.624 103.12 40.896C102.656 41.168 102.292 41.556 102.028 42.06C101.764 42.556 101.632 43.14 101.632 43.812C101.632 44.476 101.764 45.06 102.028 45.564C102.292 46.06 102.656 46.444 103.12 46.716C103.584 46.988 104.108 47.124 104.692 47.124C105.3 47.124 105.82 46.992 106.252 46.728C106.692 46.456 107.028 46.068 107.26 45.564H108.568C108.256 46.364 107.76 46.984 107.08 47.424C106.4 47.856 105.604 48.072 104.692 48.072C103.916 48.072 103.208 47.892 102.568 47.532C101.936 47.164 101.436 46.656 101.068 46.008C100.7 45.36 100.516 44.628 100.516 43.812ZM113.062 48.108C112.446 48.108 111.886 47.968 111.382 47.688C110.886 47.408 110.494 47.012 110.206 46.5C109.926 45.98 109.786 45.38 109.786 44.7C109.786 44.028 109.93 43.436 110.218 42.924C110.514 42.404 110.914 42.008 111.418 41.736C111.922 41.456 112.486 41.316 113.11 41.316C113.734 41.316 114.298 41.456 114.802 41.736C115.306 42.008 115.702 42.4 115.99 42.912C116.286 43.424 116.434 44.02 116.434 44.7C116.434 45.38 116.282 45.98 115.978 46.5C115.682 47.012 115.278 47.408 114.766 47.688C114.254 47.968 113.686 48.108 113.062 48.108ZM113.062 47.148C113.454 47.148 113.822 47.056 114.166 46.872C114.51 46.688 114.786 46.412 114.994 46.044C115.21 45.676 115.318 45.228 115.318 44.7C115.318 44.172 115.214 43.724 115.006 43.356C114.798 42.988 114.526 42.716 114.19 42.54C113.854 42.356 113.49 42.264 113.098 42.264C112.698 42.264 112.33 42.356 111.994 42.54C111.666 42.716 111.402 42.988 111.202 43.356C111.002 43.724 110.902 44.172 110.902 44.7C110.902 45.236 110.998 45.688 111.19 46.056C111.39 46.424 111.654 46.7 111.982 46.884C112.31 47.06 112.67 47.148 113.062 47.148ZM123.701 41.424V48H122.609V47.028C122.401 47.364 122.109 47.628 121.733 47.82C121.365 48.004 120.957 48.096 120.509 48.096C119.997 48.096 119.537 47.992 119.129 47.784C118.721 47.568 118.397 47.248 118.157 46.824C117.925 46.4 117.809 45.884 117.809 45.276V41.424H118.889V45.132C118.889 45.78 119.053 46.28 119.381 46.632C119.709 46.976 120.157 47.148 120.725 47.148C121.309 47.148 121.769 46.968 122.105 46.608C122.441 46.248 122.609 45.724 122.609 45.036V41.424H123.701ZM126.637 42.492C126.829 42.116 127.101 41.824 127.453 41.616C127.813 41.408 128.249 41.304 128.761 41.304V42.432H128.473C127.249 42.432 126.637 43.096 126.637 44.424V48H125.545V41.424H126.637V42.492ZM132.35 48.108C131.846 48.108 131.394 48.024 130.994 47.856C130.594 47.68 130.278 47.44 130.046 47.136C129.814 46.824 129.686 46.468 129.662 46.068H130.79C130.822 46.396 130.974 46.664 131.246 46.872C131.526 47.08 131.89 47.184 132.338 47.184C132.754 47.184 133.082 47.092 133.322 46.908C133.562 46.724 133.682 46.492 133.682 46.212C133.682 45.924 133.554 45.712 133.298 45.576C133.042 45.432 132.646 45.292 132.11 45.156C131.622 45.028 131.222 44.9 130.91 44.772C130.606 44.636 130.342 44.44 130.118 44.184C129.902 43.92 129.794 43.576 129.794 43.152C129.794 42.816 129.894 42.508 130.094 42.228C130.294 41.948 130.578 41.728 130.946 41.568C131.314 41.4 131.734 41.316 132.206 41.316C132.934 41.316 133.522 41.5 133.97 41.868C134.418 42.236 134.658 42.74 134.69 43.38H133.598C133.574 43.036 133.434 42.76 133.178 42.552C132.93 42.344 132.594 42.24 132.17 42.24C131.778 42.24 131.466 42.324 131.234 42.492C131.002 42.66 130.886 42.88 130.886 43.152C130.886 43.368 130.954 43.548 131.09 43.692C131.234 43.828 131.41 43.94 131.618 44.028C131.834 44.108 132.13 44.2 132.506 44.304C132.978 44.432 133.362 44.56 133.658 44.688C133.954 44.808 134.206 44.992 134.414 45.24C134.63 45.488 134.742 45.812 134.75 46.212C134.75 46.572 134.65 46.896 134.45 47.184C134.25 47.472 133.966 47.7 133.598 47.868C133.238 48.028 132.822 48.108 132.35 48.108ZM142.291 44.46C142.291 44.668 142.279 44.888 142.255 45.12H136.999C137.039 45.768 137.259 46.276 137.659 46.644C138.067 47.004 138.559 47.184 139.135 47.184C139.607 47.184 139.999 47.076 140.311 46.86C140.631 46.636 140.855 46.34 140.983 45.972H142.159C141.983 46.604 141.631 47.12 141.103 47.52C140.575 47.912 139.919 48.108 139.135 48.108C138.511 48.108 137.951 47.968 137.455 47.688C136.967 47.408 136.583 47.012 136.303 46.5C136.023 45.98 135.883 45.38 135.883 44.7C135.883 44.02 136.019 43.424 136.291 42.912C136.563 42.4 136.943 42.008 137.431 41.736C137.927 41.456 138.495 41.316 139.135 41.316C139.759 41.316 140.311 41.452 140.791 41.724C141.271 41.996 141.639 42.372 141.895 42.852C142.159 43.324 142.291 43.86 142.291 44.46ZM141.163 44.232C141.163 43.816 141.071 43.46 140.887 43.164C140.703 42.86 140.451 42.632 140.131 42.48C139.819 42.32 139.471 42.24 139.087 42.24C138.535 42.24 138.063 42.416 137.671 42.768C137.287 43.12 137.067 43.608 137.011 44.232H141.163ZM146.061 48.108C145.557 48.108 145.105 48.024 144.705 47.856C144.305 47.68 143.989 47.44 143.757 47.136C143.525 46.824 143.397 46.468 143.373 46.068H144.501C144.533 46.396 144.685 46.664 144.957 46.872C145.237 47.08 145.601 47.184 146.049 47.184C146.465 47.184 146.793 47.092 147.033 46.908C147.273 46.724 147.393 46.492 147.393 46.212C147.393 45.924 147.265 45.712 147.009 45.576C146.753 45.432 146.357 45.292 145.821 45.156C145.333 45.028 144.933 44.9 144.621 44.772C144.317 44.636 144.053 44.44 143.829 44.184C143.613 43.92 143.505 43.576 143.505 43.152C143.505 42.816 143.605 42.508 143.805 42.228C144.005 41.948 144.289 41.728 144.657 41.568C145.025 41.4 145.445 41.316 145.917 41.316C146.645 41.316 147.233 41.5 147.681 41.868C148.129 42.236 148.369 42.74 148.401 43.38H147.309C147.285 43.036 147.145 42.76 146.889 42.552C146.641 42.344 146.305 42.24 145.881 42.24C145.489 42.24 145.177 42.324 144.945 42.492C144.713 42.66 144.597 42.88 144.597 43.152C144.597 43.368 144.665 43.548 144.801 43.692C144.945 43.828 145.121 43.94 145.329 44.028C145.545 44.108 145.841 44.2 146.217 44.304C146.689 44.432 147.073 44.56 147.369 44.688C147.665 44.808 147.917 44.992 148.125 45.24C148.341 45.488 148.453 45.812 148.461 46.212C148.461 46.572 148.361 46.896 148.161 47.184C147.961 47.472 147.677 47.7 147.309 47.868C146.949 48.028 146.533 48.108 146.061 48.108Z" fill="#6B7280"/>
<g clip-path="url(#clip2_2642_12652)">
<path d="M198.833 16.7225C198.833 16.1331 199.067 15.5678 199.484 15.151C199.901 14.7342 200.466 14.5 201.056 14.5H208.277C208.569 14.5 208.858 14.5575 209.128 14.6692C209.398 14.7809 209.643 14.9446 209.849 15.151C210.055 15.3573 210.219 15.6023 210.331 15.872C210.443 16.1416 210.5 16.4306 210.5 16.7225V23.9442C210.5 24.236 210.443 24.525 210.331 24.7947C210.219 25.0643 210.055 25.3093 209.849 25.5157C209.643 25.7221 209.398 25.8858 209.128 25.9975C208.858 26.1092 208.569 26.1667 208.277 26.1667H201.056C200.466 26.1667 199.901 25.9325 199.484 25.5157C199.067 25.0989 198.833 24.5336 198.833 23.9442V16.7225Z" stroke="#0E1629" stroke-width="1.5" stroke-linecap="round" stroke-linejoin="round"/>
<path d="M196.343 18.0498C196.088 18.1955 195.875 18.4061 195.727 18.6602C195.579 18.9144 195.501 19.2031 195.5 19.4973V27.8306C195.5 28.7473 196.25 29.4973 197.167 29.4973H205.5C206.125 29.4973 206.465 29.1765 206.75 28.664" stroke="#0E1629" stroke-width="1.5" stroke-linecap="round" stroke-linejoin="round"/>
<path d="M202.167 18.833H206.334" stroke="#0E1629" stroke-width="1.5" stroke-linecap="round" stroke-linejoin="round"/>
<path d="M202.167 21.333H207.167" stroke="#0E1629" stroke-width="1.5" stroke-linecap="round" stroke-linejoin="round"/>
</g>
<path d="M196.572 39.636V40.524H194.292V48H193.2V40.524H190.908V39.636H196.572ZM203.916 44.46C203.916 44.668 203.904 44.888 203.88 45.12H198.624C198.664 45.768 198.884 46.276 199.284 46.644C199.692 47.004 200.184 47.184 200.76 47.184C201.232 47.184 201.624 47.076 201.936 46.86C202.256 46.636 202.48 46.34 202.608 45.972H203.784C203.608 46.604 203.256 47.12 202.728 47.52C202.2 47.912 201.544 48.108 200.76 48.108C200.136 48.108 199.576 47.968 199.08 47.688C198.592 47.408 198.208 47.012 197.928 46.5C197.648 45.98 197.508 45.38 197.508 44.7C197.508 44.02 197.644 43.424 197.916 42.912C198.188 42.4 198.568 42.008 199.056 41.736C199.552 41.456 200.12 41.316 200.76 41.316C201.384 41.316 201.936 41.452 202.416 41.724C202.896 41.996 203.264 42.372 203.52 42.852C203.784 43.324 203.916 43.86 203.916 44.46ZM202.788 44.232C202.788 43.816 202.696 43.46 202.512 43.164C202.328 42.86 202.076 42.632 201.756 42.48C201.444 42.32 201.096 42.24 200.712 42.24C200.16 42.24 199.688 42.416 199.296 42.768C198.912 43.12 198.692 43.608 198.636 44.232H202.788ZM207.686 48.108C207.182 48.108 206.73 48.024 206.33 47.856C205.93 47.68 205.614 47.44 205.382 47.136C205.15 46.824 205.022 46.468 204.998 46.068H206.126C206.158 46.396 206.31 46.664 206.582 46.872C206.862 47.08 207.226 47.184 207.674 47.184C208.09 47.184 208.418 47.092 208.658 46.908C208.898 46.724 209.018 46.492 209.018 46.212C209.018 45.924 208.89 45.712 208.634 45.576C208.378 45.432 207.982 45.292 207.446 45.156C206.958 45.028 206.558 44.9 206.246 44.772C205.942 44.636 205.678 44.44 205.454 44.184C205.238 43.92 205.13 43.576 205.13 43.152C205.13 42.816 205.23 42.508 205.43 42.228C205.63 41.948 205.914 41.728 206.282 41.568C206.65 41.4 207.07 41.316 207.542 41.316C208.27 41.316 208.858 41.5 209.306 41.868C209.754 42.236 209.994 42.74 210.026 43.38H208.934C208.91 43.036 208.77 42.76 208.514 42.552C208.266 42.344 207.93 42.24 207.506 42.24C207.114 42.24 206.802 42.324 206.57 42.492C206.338 42.66 206.222 42.88 206.222 43.152C206.222 43.368 206.29 43.548 206.426 43.692C206.57 43.828 206.746 43.94 206.954 44.028C207.17 44.108 207.466 44.2 207.842 44.304C208.314 44.432 208.698 44.56 208.994 44.688C209.29 44.808 209.542 44.992 209.75 45.24C209.966 45.488 210.078 45.812 210.086 46.212C210.086 46.572 209.986 46.896 209.786 47.184C209.586 47.472 209.302 47.7 208.934 47.868C208.574 48.028 208.158 48.108 207.686 48.108ZM212.959 42.324V46.2C212.959 46.52 213.027 46.748 213.163 46.884C213.299 47.012 213.535 47.076 213.871 47.076H214.675V48H213.691C213.083 48 212.627 47.86 212.323 47.58C212.019 47.3 211.867 46.84 211.867 46.2V42.324H211.015V41.424H211.867V39.768H212.959V41.424H214.675V42.324H212.959Z" fill="#6B7280"/>
<g clip-path="url(#clip3_2642_12652)">
<path d="M283.5 20.3332L287.294 18.4365C287.421 18.3731 287.562 18.3431 287.704 18.3495C287.846 18.3559 287.984 18.3984 288.105 18.473C288.225 18.5477 288.325 18.6519 288.394 18.7759C288.464 18.8999 288.5 19.0395 288.5 19.1815V24.8182C288.5 24.9602 288.464 25.0998 288.394 25.2238C288.325 25.3478 288.225 25.4521 288.105 25.5267C287.984 25.6013 287.846 25.6438 287.704 25.6502C287.562 25.6566 287.421 25.6267 287.294 25.5632L283.5 23.6665V20.3332Z" stroke="#0E1629" stroke-width="1.5" stroke-linecap="round" stroke-linejoin="round"/>
<path d="M273.5 18.6667C273.5 18.2246 273.676 17.8007 273.988 17.4882C274.301 17.1756 274.725 17 275.167 17H281.833C282.275 17 282.699 17.1756 283.012 17.4882C283.324 17.8007 283.5 18.2246 283.5 18.6667V25.3333C283.5 25.7754 283.324 26.1993 283.012 26.5118C282.699 26.8244 282.275 27 281.833 27H275.167C274.725 27 274.301 26.8244 273.988 26.5118C273.676 26.1993 273.5 25.7754 273.5 25.3333V18.6667Z" stroke="#0E1629" stroke-width="1.5" stroke-linecap="round" stroke-linejoin="round"/>
</g>
<path d="M261.576 48.084C261.024 48.084 260.528 47.988 260.088 47.796C259.656 47.596 259.316 47.324 259.068 46.98C258.82 46.628 258.692 46.224 258.684 45.768H259.848C259.888 46.16 260.048 46.492 260.328 46.764C260.616 47.028 261.032 47.16 261.576 47.16C262.096 47.16 262.504 47.032 262.8 46.776C263.104 46.512 263.256 46.176 263.256 45.768C263.256 45.448 263.168 45.188 262.992 44.988C262.816 44.788 262.596 44.636 262.332 44.532C262.068 44.428 261.712 44.316 261.264 44.196C260.712 44.052 260.268 43.908 259.932 43.764C259.604 43.62 259.32 43.396 259.08 43.092C258.848 42.78 258.732 42.364 258.732 41.844C258.732 41.388 258.848 40.984 259.08 40.632C259.312 40.28 259.636 40.008 260.052 39.816C260.476 39.624 260.96 39.528 261.504 39.528C262.288 39.528 262.928 39.724 263.424 40.116C263.928 40.508 264.212 41.028 264.276 41.676H263.076C263.036 41.356 262.868 41.076 262.572 40.836C262.276 40.588 261.884 40.464 261.396 40.464C260.94 40.464 260.568 40.584 260.28 40.824C259.992 41.056 259.848 41.384 259.848 41.808C259.848 42.112 259.932 42.36 260.1 42.552C260.276 42.744 260.488 42.892 260.736 42.996C260.992 43.092 261.348 43.204 261.804 43.332C262.356 43.484 262.8 43.636 263.136 43.788C263.472 43.932 263.76 44.16 264 44.472C264.24 44.776 264.36 45.192 264.36 45.72C264.36 46.128 264.252 46.512 264.036 46.872C263.82 47.232 263.5 47.524 263.076 47.748C262.652 47.972 262.152 48.084 261.576 48.084ZM271.967 44.46C271.967 44.668 271.955 44.888 271.931 45.12H266.675C266.715 45.768 266.935 46.276 267.335 46.644C267.743 47.004 268.235 47.184 268.811 47.184C269.283 47.184 269.675 47.076 269.987 46.86C270.307 46.636 270.531 46.34 270.659 45.972H271.835C271.659 46.604 271.307 47.12 270.779 47.52C270.251 47.912 269.595 48.108 268.811 48.108C268.187 48.108 267.627 47.968 267.131 47.688C266.643 47.408 266.259 47.012 265.979 46.5C265.699 45.98 265.559 45.38 265.559 44.7C265.559 44.02 265.695 43.424 265.967 42.912C266.239 42.4 266.619 42.008 267.107 41.736C267.603 41.456 268.171 41.316 268.811 41.316C269.435 41.316 269.987 41.452 270.467 41.724C270.947 41.996 271.315 42.372 271.571 42.852C271.835 43.324 271.967 43.86 271.967 44.46ZM270.839 44.232C270.839 43.816 270.747 43.46 270.563 43.164C270.379 42.86 270.127 42.632 269.807 42.48C269.495 42.32 269.147 42.24 268.763 42.24C268.211 42.24 267.739 42.416 267.347 42.768C266.963 43.12 266.743 43.608 266.687 44.232H270.839ZM275.736 48.108C275.232 48.108 274.78 48.024 274.38 47.856C273.98 47.68 273.664 47.44 273.432 47.136C273.2 46.824 273.072 46.468 273.048 46.068H274.176C274.208 46.396 274.36 46.664 274.632 46.872C274.912 47.08 275.276 47.184 275.724 47.184C276.14 47.184 276.468 47.092 276.708 46.908C276.948 46.724 277.068 46.492 277.068 46.212C277.068 45.924 276.94 45.712 276.684 45.576C276.428 45.432 276.032 45.292 275.496 45.156C275.008 45.028 274.608 44.9 274.296 44.772C273.992 44.636 273.728 44.44 273.504 44.184C273.288 43.92 273.18 43.576 273.18 43.152C273.18 42.816 273.28 42.508 273.48 42.228C273.68 41.948 273.964 41.728 274.332 41.568C274.7 41.4 275.12 41.316 275.592 41.316C276.32 41.316 276.908 41.5 277.356 41.868C277.804 42.236 278.044 42.74 278.076 43.38H276.984C276.96 43.036 276.82 42.76 276.564 42.552C276.316 42.344 275.98 42.24 275.556 42.24C275.164 42.24 274.852 42.324 274.62 42.492C274.388 42.66 274.272 42.88 274.272 43.152C274.272 43.368 274.34 43.548 274.476 43.692C274.62 43.828 274.796 43.94 275.004 44.028C275.22 44.108 275.516 44.2 275.892 44.304C276.364 44.432 276.748 44.56 277.044 44.688C277.34 44.808 277.592 44.992 277.8 45.24C278.016 45.488 278.128 45.812 278.136 46.212C278.136 46.572 278.036 46.896 277.836 47.184C277.636 47.472 277.352 47.7 276.984 47.868C276.624 48.028 276.208 48.108 275.736 48.108ZM282.006 48.108C281.502 48.108 281.05 48.024 280.65 47.856C280.25 47.68 279.934 47.44 279.702 47.136C279.47 46.824 279.342 46.468 279.318 46.068H280.446C280.478 46.396 280.63 46.664 280.902 46.872C281.182 47.08 281.546 47.184 281.994 47.184C282.41 47.184 282.738 47.092 282.978 46.908C283.218 46.724 283.338 46.492 283.338 46.212C283.338 45.924 283.21 45.712 282.954 45.576C282.698 45.432 282.302 45.292 281.766 45.156C281.278 45.028 280.878 44.9 280.566 44.772C280.262 44.636 279.998 44.44 279.774 44.184C279.558 43.92 279.45 43.576 279.45 43.152C279.45 42.816 279.55 42.508 279.75 42.228C279.95 41.948 280.234 41.728 280.602 41.568C280.97 41.4 281.39 41.316 281.862 41.316C282.59 41.316 283.178 41.5 283.626 41.868C284.074 42.236 284.314 42.74 284.346 43.38H283.254C283.23 43.036 283.09 42.76 282.834 42.552C282.586 42.344 282.25 42.24 281.826 42.24C281.434 42.24 281.122 42.324 280.89 42.492C280.658 42.66 280.542 42.88 280.542 43.152C280.542 43.368 280.61 43.548 280.746 43.692C280.89 43.828 281.066 43.94 281.274 44.028C281.49 44.108 281.786 44.2 282.162 44.304C282.634 44.432 283.018 44.56 283.314 44.688C283.61 44.808 283.862 44.992 284.07 45.24C284.286 45.488 284.398 45.812 284.406 46.212C284.406 46.572 284.306 46.896 284.106 47.184C283.906 47.472 283.622 47.7 283.254 47.868C282.894 48.028 282.478 48.108 282.006 48.108ZM286.511 40.356C286.303 40.356 286.127 40.284 285.983 40.14C285.839 39.996 285.767 39.82 285.767 39.612C285.767 39.404 285.839 39.228 285.983 39.084C286.127 38.94 286.303 38.868 286.511 38.868C286.711 38.868 286.879 38.94 287.015 39.084C287.159 39.228 287.231 39.404 287.231 39.612C287.231 39.82 287.159 39.996 287.015 40.14C286.879 40.284 286.711 40.356 286.511 40.356ZM287.039 41.424V48H285.947V41.424H287.039ZM291.769 48.108C291.153 48.108 290.593 47.968 290.089 47.688C289.593 47.408 289.201 47.012 288.913 46.5C288.633 45.98 288.493 45.38 288.493 44.7C288.493 44.028 288.637 43.436 288.925 42.924C289.221 42.404 289.621 42.008 290.125 41.736C290.629 41.456 291.193 41.316 291.817 41.316C292.441 41.316 293.005 41.456 293.509 41.736C294.013 42.008 294.409 42.4 294.697 42.912C294.993 43.424 295.141 44.02 295.141 44.7C295.141 45.38 294.989 45.98 294.685 46.5C294.389 47.012 293.985 47.408 293.473 47.688C292.961 47.968 292.393 48.108 291.769 48.108ZM291.769 47.148C292.161 47.148 292.529 47.056 292.873 46.872C293.217 46.688 293.493 46.412 293.701 46.044C293.917 45.676 294.025 45.228 294.025 44.7C294.025 44.172 293.921 43.724 293.713 43.356C293.505 42.988 293.233 42.716 292.897 42.54C292.561 42.356 292.197 42.264 291.805 42.264C291.405 42.264 291.037 42.356 290.701 42.54C290.373 42.716 290.109 42.988 289.909 43.356C289.709 43.724 289.609 44.172 289.609 44.7C289.609 45.236 289.705 45.688 289.897 46.056C290.097 46.424 290.361 46.7 290.689 46.884C291.017 47.06 291.377 47.148 291.769 47.148ZM299.78 41.304C300.58 41.304 301.228 41.548 301.724 42.036C302.22 42.516 302.468 43.212 302.468 44.124V48H301.388V44.28C301.388 43.624 301.224 43.124 300.896 42.78C300.568 42.428 300.12 42.252 299.552 42.252C298.976 42.252 298.516 42.432 298.172 42.792C297.836 43.152 297.668 43.676 297.668 44.364V48H296.576V41.424H297.668V42.36C297.884 42.024 298.176 41.764 298.544 41.58C298.92 41.396 299.332 41.304 299.78 41.304Z" fill="#6B7280"/>
</g>
<defs>
<filter id="filter0_d_2642_12652" x="0" y="0" width="328" height="64" filterUnits="userSpaceOnUse" color-interpolation-filters="sRGB">
<feFlood flood-opacity="0" result="BackgroundImageFix"/>
<feColorMatrix in="SourceAlpha" type="matrix" values="0 0 0 0 0 0 0 0 0 0 0 0 0 0 0 0 0 0 127 0" result="hardAlpha"/>
<feOffset/>
<feGaussianBlur stdDeviation="2"/>
<feComposite in2="hardAlpha" operator="out"/>
<feColorMatrix type="matrix" values="0 0 0 0 0.054902 0 0 0 0 0.0862745 0 0 0 0 0.160784 0 0 0 0.2 0"/>
<feBlend mode="normal" in2="BackgroundImageFix" result="effect1_dropShadow_2642_12652"/>
<feBlend mode="normal" in="SourceGraphic" in2="effect1_dropShadow_2642_12652" result="shape"/>
</filter>
<clipPath id="clip0_2642_12652">
<rect width="20" height="20" fill="white" transform="translate(37 12)"/>
</clipPath>
<clipPath id="clip1_2642_12652">
<rect width="20" height="20" fill="white" transform="translate(115 12)"/>
</clipPath>
<clipPath id="clip2_2642_12652">
<rect width="20" height="20" fill="white" transform="translate(193 12)"/>
</clipPath>
<clipPath id="clip3_2642_12652">
<rect width="20" height="20" fill="white" transform="translate(271 12)"/>
</clipPath>
</defs>
</svg>
