<svg width="24" height="24" viewBox="0 0 24 24" fill="none" xmlns="http://www.w3.org/2000/svg">
<path d="M3.99902 21V19H19.999V21H3.99902ZM7.99902 17C6.89902 17 5.95736 16.6083 5.17402 15.825C4.39069 15.0417 3.99902 14.1 3.99902 13V3H19.999C20.549 3 21.0199 3.19583 21.4115 3.5875C21.8032 3.97917 21.999 4.45 21.999 5V8C21.999 8.55 21.8032 9.02083 21.4115 9.4125C21.0199 9.80417 20.549 10 19.999 10H17.999V13C17.999 14.1 17.6074 15.0417 16.824 15.825C16.0407 16.6083 15.099 17 13.999 17H7.99902ZM7.99902 15H13.999C14.549 15 15.0199 14.8042 15.4115 14.4125C15.8032 14.0208 15.999 13.55 15.999 13V5H5.99902V13C5.99902 13.55 6.19486 14.0208 6.58652 14.4125C6.97819 14.8042 7.44902 15 7.99902 15ZM17.999 8H19.999V5H17.999V8ZM7.99902 15H5.99902H15.999H7.99902Z" fill="#13097D"/>
</svg>
