<svg width="130" height="29" viewBox="0 0 130 29" fill="none" xmlns="http://www.w3.org/2000/svg">
<rect width="130" height="29" rx="6" fill="white"/>
<rect x="12" y="6.5" width="16" height="16" fill="#0E1629"/>
<path d="M40.3907 9.228C41.4174 9.228 42.318 9.42867 43.0927 9.83C43.8767 10.2313 44.4787 10.8053 44.8987 11.552C45.328 12.2893 45.5427 13.148 45.5427 14.128C45.5427 15.108 45.328 15.9667 44.8987 16.704C44.4787 17.432 43.8767 17.9967 43.0927 18.398C42.318 18.7993 41.4174 19 40.3907 19H36.9747V9.228H40.3907ZM40.3207 17.334C41.3474 17.334 42.1407 17.054 42.7007 16.494C43.2607 15.934 43.5407 15.1453 43.5407 14.128C43.5407 13.1107 43.2607 12.3173 42.7007 11.748C42.1407 11.1693 41.3474 10.88 40.3207 10.88H38.9347V17.334H40.3207ZM49.9499 10.81V13.26H53.2399V14.814H49.9499V17.404H53.6599V19H47.9899V9.214H53.6599V10.81H49.9499ZM62.413 17.138H58.521L57.877 19H55.819L59.333 9.214H61.615L65.129 19H63.057L62.413 17.138ZM61.881 15.57L60.467 11.482L59.053 15.57H61.881ZM70.8385 9.228C71.8652 9.228 72.7659 9.42867 73.5405 9.83C74.3245 10.2313 74.9265 10.8053 75.3465 11.552C75.7759 12.2893 75.9905 13.148 75.9905 14.128C75.9905 15.108 75.7759 15.9667 75.3465 16.704C74.9265 17.432 74.3245 17.9967 73.5405 18.398C72.7659 18.7993 71.8652 19 70.8385 19H67.4225V9.228H70.8385ZM70.7685 17.334C71.7952 17.334 72.5885 17.054 73.1485 16.494C73.7085 15.934 73.9885 15.1453 73.9885 14.128C73.9885 13.1107 73.7085 12.3173 73.1485 11.748C72.5885 11.1693 71.7952 10.88 70.7685 10.88H69.3825V17.334H70.7685ZM80.3977 17.446H83.6177V19H78.4377V9.228H80.3977V17.446ZM87.8035 9.228V19H85.8435V9.228H87.8035ZM99.0779 19H97.1179L92.6799 12.294V19H90.7199V9.214H92.6799L97.1179 15.934V9.214H99.0779V19ZM103.955 10.81V13.26H107.245V14.814H103.955V17.404H107.665V19H101.995V9.214H107.665V10.81H103.955ZM113.8 19.098C113.119 19.098 112.503 18.9813 111.952 18.748C111.411 18.5147 110.981 18.1787 110.664 17.74C110.347 17.3013 110.183 16.7833 110.174 16.186H112.274C112.302 16.5873 112.442 16.9047 112.694 17.138C112.955 17.3713 113.31 17.488 113.758 17.488C114.215 17.488 114.575 17.3807 114.836 17.166C115.097 16.942 115.228 16.6527 115.228 16.298C115.228 16.0087 115.139 15.7707 114.962 15.584C114.785 15.3973 114.561 15.2527 114.29 15.15C114.029 15.038 113.665 14.9167 113.198 14.786C112.563 14.5993 112.045 14.4173 111.644 14.24C111.252 14.0533 110.911 13.778 110.622 13.414C110.342 13.0407 110.202 12.546 110.202 11.93C110.202 11.3513 110.347 10.8473 110.636 10.418C110.925 9.98867 111.331 9.662 111.854 9.438C112.377 9.20467 112.974 9.088 113.646 9.088C114.654 9.088 115.471 9.33533 116.096 9.83C116.731 10.3153 117.081 10.9967 117.146 11.874H114.99C114.971 11.538 114.827 11.2627 114.556 11.048C114.295 10.824 113.945 10.712 113.506 10.712C113.123 10.712 112.815 10.81 112.582 11.006C112.358 11.202 112.246 11.4867 112.246 11.86C112.246 12.1213 112.33 12.3407 112.498 12.518C112.675 12.686 112.89 12.826 113.142 12.938C113.403 13.0407 113.767 13.162 114.234 13.302C114.869 13.4887 115.387 13.6753 115.788 13.862C116.189 14.0487 116.535 14.3287 116.824 14.702C117.113 15.0753 117.258 15.5653 117.258 16.172C117.258 16.6947 117.123 17.18 116.852 17.628C116.581 18.076 116.185 18.4353 115.662 18.706C115.139 18.9673 114.519 19.098 113.8 19.098Z" fill="#0E1629"/>
</svg>
