<svg width="20" height="20" viewBox="0 0 20 20" fill="none" xmlns="http://www.w3.org/2000/svg">
<path d="M3.33464 17.4974C2.8763 17.4974 2.48394 17.3342 2.15755 17.0078C1.83116 16.6814 1.66797 16.2891 1.66797 15.8307V6.66406C1.66797 6.20573 1.83116 5.81337 2.15755 5.48698C2.48394 5.16059 2.8763 4.9974 3.33464 4.9974H6.66797V3.33073C6.66797 2.8724 6.83116 2.48003 7.15755 2.15365C7.48394 1.82726 7.8763 1.66406 8.33464 1.66406H11.668C12.1263 1.66406 12.5187 1.82726 12.8451 2.15365C13.1714 2.48003 13.3346 2.8724 13.3346 3.33073V4.9974H16.668C17.1263 4.9974 17.5187 5.16059 17.8451 5.48698C18.1714 5.81337 18.3346 6.20573 18.3346 6.66406V15.8307C18.3346 16.2891 18.1714 16.6814 17.8451 17.0078C17.5187 17.3342 17.1263 17.4974 16.668 17.4974H3.33464ZM3.33464 15.8307H16.668V6.66406H3.33464V15.8307ZM8.33464 4.9974H11.668V3.33073H8.33464V4.9974Z" fill="#4471FF"/>
</svg>
