<svg width="20" height="20" viewBox="0 0 20 20" fill="none" xmlns="http://www.w3.org/2000/svg">
<path d="M10 12.5C11.3807 12.5 12.5 11.3807 12.5 10C12.5 8.61929 11.3807 7.5 10 7.5C8.61929 7.5 7.5 8.61929 7.5 10C7.5 11.3807 8.61929 12.5 10 12.5Z" stroke="#2F43F2" stroke-width="1.25"/>
<path d="M16.8231 9.11167C17.1464 9.505 17.3081 9.70083 17.3081 10C17.3081 10.2992 17.1464 10.495 16.8231 10.8883C15.6397 12.325 13.0297 15 9.99974 15C6.96974 15 4.35974 12.325 3.17641 10.8883C2.85307 10.495 2.69141 10.2992 2.69141 10C2.69141 9.70083 2.85307 9.505 3.17641 9.11167C4.35974 7.675 6.96974 5 9.99974 5C13.0297 5 15.6397 7.675 16.8231 9.11167Z" stroke="#2F43F2" stroke-width="1.25"/>
</svg>
