<svg width="16" height="16" viewBox="0 0 16 16" fill="none" xmlns="http://www.w3.org/2000/svg">
<g clip-path="url(#clip0_8020_13032)">
<path d="M15.6596 12.2782C15.3536 12.4349 14.9769 12.3151 14.819 12.0075H14.8189C13.8606 10.14 11.3163 7.46263 7.99997 7.46263C5.02585 7.46263 2.38281 9.6655 1.181 12.0075C1.02291 12.314 0.646408 12.435 0.339689 12.2774C0.033002 12.1198 -0.088373 11.7441 0.0687207 11.4372C1.44953 8.74088 4.48606 6.21263 7.99997 6.21263C12.0075 6.21263 14.8777 9.37988 15.9312 11.4372C16.0885 11.7444 15.9669 12.121 15.6596 12.2782ZM0.242846 5.56575L1.63485 6.8215C1.89266 7.05409 2.28772 7.03081 2.51756 6.77606C2.74875 6.51975 2.72844 6.12456 2.47213 5.89334L1.08013 4.63759C0.823908 4.40644 0.428721 4.42669 0.197408 4.68303C-0.0337793 4.93934 -0.0134668 5.33453 0.242846 5.56575ZM14.3651 6.8215L15.757 5.56575C16.0133 5.33453 16.0337 4.93934 15.8025 4.68303C15.5713 4.42675 15.1761 4.40637 14.9198 4.63759L13.5278 5.89334C13.2715 6.12453 13.2512 6.51975 13.4823 6.77606C13.7124 7.03109 14.1076 7.05381 14.3651 6.8215ZM7.99994 4.32981C8.34513 4.32981 8.62494 4.04997 8.62494 3.70481V1.82812C8.62494 1.48297 8.34513 1.20312 7.99994 1.20312C7.65475 1.20312 7.37494 1.48297 7.37494 1.82812V3.70481C7.37497 4.05 7.65478 4.32981 7.99994 4.32981ZM11.0703 11.7219C11.0703 13.4174 9.69291 14.7969 7.99997 14.7969C6.30703 14.7969 4.92969 13.4174 4.92969 11.7219C4.92969 10.0264 6.30703 8.64694 7.99997 8.64694C9.69291 8.64694 11.0703 10.0264 11.0703 11.7219ZM9.82028 11.7219C9.82028 10.7156 9.00372 9.89694 8 9.89694C6.99628 9.89694 6.17969 10.7156 6.17969 11.7219C6.17969 12.7282 6.99625 13.5469 7.99997 13.5469C9.00369 13.5469 9.82028 12.7282 9.82028 11.7219Z" fill="#2F43F2"/>
</g>
<defs>
<clipPath id="clip0_8020_13032">
<rect width="16" height="16" fill="white"/>
</clipPath>
</defs>
</svg>
