<svg width="88" height="29" viewBox="0 0 88 29" fill="none" xmlns="http://www.w3.org/2000/svg">
<rect width="88" height="29" rx="6" fill="white"/>
<rect x="12" y="6.5" width="16" height="16" fill="#0E1629"/>
<path d="M43.032 9.228V10.81H38.958V13.316H42.08V14.87H38.958V19H36.998V9.228H43.032ZM51.3938 17.138H47.5018L46.8578 19H44.7998L48.3138 9.214H50.5958L54.1098 19H52.0378L51.3938 17.138ZM50.8618 15.57L49.4478 11.482L48.0338 15.57H50.8618ZM63.6833 20.722L62.1993 18.944C61.7886 19.0467 61.3686 19.098 60.9393 19.098C60.0246 19.098 59.1846 18.8833 58.4193 18.454C57.6539 18.0247 57.0473 17.432 56.5993 16.676C56.1513 15.9107 55.9273 15.0473 55.9273 14.086C55.9273 13.134 56.1513 12.28 56.5993 11.524C57.0473 10.7587 57.6539 10.1613 58.4193 9.732C59.1846 9.30267 60.0246 9.088 60.9393 9.088C61.8633 9.088 62.7033 9.30267 63.4593 9.732C64.2246 10.1613 64.8266 10.7587 65.2653 11.524C65.7133 12.28 65.9373 13.134 65.9373 14.086C65.9373 14.954 65.7506 15.7473 65.3773 16.466C65.0133 17.1753 64.5139 17.754 63.8793 18.202L66.1193 20.722H63.6833ZM57.9433 14.086C57.9433 14.7393 58.0693 15.3133 58.3213 15.808C58.5733 16.3027 58.9233 16.6853 59.3713 16.956C59.8286 17.2173 60.3513 17.348 60.9393 17.348C61.5273 17.348 62.0453 17.2173 62.4933 16.956C62.9413 16.6853 63.2913 16.3027 63.5433 15.808C63.7953 15.3133 63.9213 14.7393 63.9213 14.086C63.9213 13.4327 63.7953 12.8633 63.5433 12.378C63.2913 11.8833 62.9413 11.5053 62.4933 11.244C62.0453 10.9827 61.5273 10.852 60.9393 10.852C60.3513 10.852 59.8286 10.9827 59.3713 11.244C58.9233 11.5053 58.5733 11.8833 58.3213 12.378C58.0693 12.8633 57.9433 13.4327 57.9433 14.086ZM71.7768 19.098C71.0955 19.098 70.4795 18.9813 69.9288 18.748C69.3875 18.5147 68.9581 18.1787 68.6408 17.74C68.3235 17.3013 68.1601 16.7833 68.1508 16.186H70.2508C70.2788 16.5873 70.4188 16.9047 70.6708 17.138C70.9321 17.3713 71.2868 17.488 71.7348 17.488C72.1921 17.488 72.5515 17.3807 72.8128 17.166C73.0741 16.942 73.2048 16.6527 73.2048 16.298C73.2048 16.0087 73.1161 15.7707 72.9388 15.584C72.7615 15.3973 72.5375 15.2527 72.2668 15.15C72.0055 15.038 71.6415 14.9167 71.1748 14.786C70.5401 14.5993 70.0221 14.4173 69.6208 14.24C69.2288 14.0533 68.8881 13.778 68.5988 13.414C68.3188 13.0407 68.1788 12.546 68.1788 11.93C68.1788 11.3513 68.3235 10.8473 68.6128 10.418C68.9021 9.98867 69.3081 9.662 69.8308 9.438C70.3535 9.20467 70.9508 9.088 71.6228 9.088C72.6308 9.088 73.4475 9.33533 74.0728 9.83C74.7075 10.3153 75.0575 10.9967 75.1228 11.874H72.9668C72.9481 11.538 72.8035 11.2627 72.5328 11.048C72.2715 10.824 71.9215 10.712 71.4828 10.712C71.1001 10.712 70.7921 10.81 70.5588 11.006C70.3348 11.202 70.2228 11.4867 70.2228 11.86C70.2228 12.1213 70.3068 12.3407 70.4748 12.518C70.6521 12.686 70.8668 12.826 71.1188 12.938C71.3801 13.0407 71.7441 13.162 72.2108 13.302C72.8455 13.4887 73.3635 13.6753 73.7648 13.862C74.1661 14.0487 74.5115 14.3287 74.8008 14.702C75.0901 15.0753 75.2348 15.5653 75.2348 16.172C75.2348 16.6947 75.0995 17.18 74.8288 17.628C74.5581 18.076 74.1615 18.4353 73.6388 18.706C73.1161 18.9673 72.4955 19.098 71.7768 19.098Z" fill="#0E1629"/>
</svg>
