<svg width="28" height="28" viewBox="0 0 28 28" fill="none" xmlns="http://www.w3.org/2000/svg">
<g clip-path="url(#clip0_6956_18085)">
<path d="M10.4997 3.5C10.7561 3.49998 11.0054 3.58444 11.209 3.74033L11.3257 3.84183L14.4827 7H22.1663C23.0591 6.99995 23.9181 7.34105 24.5676 7.9535C25.2172 8.56595 25.6081 9.40346 25.6605 10.2947L25.6663 10.5V19.8333C25.6664 20.7261 25.3253 21.5851 24.7128 22.2346C24.1004 22.8842 23.2629 23.2751 22.3717 23.3275L22.1663 23.3333H5.83301C4.94026 23.3334 4.08124 22.9923 3.4317 22.3798C2.78217 21.7674 2.39122 20.9299 2.33884 20.0387L2.33301 19.8333V7C2.33296 6.10725 2.67405 5.24823 3.28651 4.5987C3.89896 3.94916 4.73647 3.55821 5.62767 3.50583L5.83301 3.5H10.4997Z" fill="#718EBF"/>
</g>
<defs>
<clipPath id="clip0_6956_18085">
<rect width="28" height="28" fill="white"/>
</clipPath>
</defs>
</svg>
