<svg width="28" height="28" viewBox="0 0 28 28" fill="none" xmlns="http://www.w3.org/2000/svg">
<path d="M27.3002 10.4261C27.3002 10.78 27.0815 11.0971 26.7507 11.2227L25.3363 11.7638V18.1112C26.0975 18.447 26.5887 19.2005 26.5888 20.0324V22.0985C26.5888 22.5691 26.2073 22.9505 25.7368 22.9505H23.2361C22.7656 22.9505 22.3841 22.5691 22.3841 22.0985V20.0324C22.383 19.2024 22.8728 18.4501 23.6323 18.1154V12.4155L21.8218 13.1057L20.1178 13.7574L15.5213 15.5168C14.5419 15.8911 13.459 15.8911 12.4796 15.5168L7.88309 13.7574L6.17909 13.1057L1.25027 11.2227C0.810305 11.0559 0.588927 10.5639 0.755806 10.1239C0.842279 9.89597 1.02229 9.71596 1.25027 9.62949L12.4796 5.3354C13.459 4.96112 14.5419 4.96112 15.5213 5.3354L26.7507 9.62949C27.0815 9.75512 27.3002 10.0722 27.3002 10.4261ZM15.5213 17.2208C14.5419 17.5951 13.459 17.5951 12.4796 17.2208L7.88309 15.4614L6.17909 14.8097V18.371C6.17788 18.6766 6.34043 18.9595 6.60509 19.1123C8.89081 20.2977 11.4256 20.9227 14.0005 20.9355C16.5749 20.924 19.1097 20.3005 21.3958 19.1165C21.6605 18.9637 21.823 18.6809 21.8218 18.3753V14.8097L20.1178 15.4614L15.5213 17.2208Z" fill="#0E1629"/>
</svg>
