<svg width="22" height="22" viewBox="0 0 22 22" fill="none" xmlns="http://www.w3.org/2000/svg">
<path d="M2.24982 11C2.24982 7.70038 2.24982 6.05012 3.27532 5.0255C4.30082 4.00087 5.95019 4 9.24982 4H12.7498C16.0494 4 17.6997 4 18.7243 5.0255C19.7489 6.051 19.7498 7.70038 19.7498 11C19.7498 14.2996 19.7498 15.9499 18.7243 16.9745C17.6988 17.9991 16.0494 18 12.7498 18H9.24982C5.95019 18 4.29994 18 3.27532 16.9745C2.25069 15.949 2.24982 14.2996 2.24982 11Z" fill="#3AAF3C"/>
<path d="M9.24982 14.5H5.74982H9.24982ZM12.7498 14.5H11.4373H12.7498ZM2.83344 9.25H19.1668H2.83344Z" fill="white"/>
<path d="M9.24982 14.5H5.74982M12.7498 14.5H11.4373M2.83344 9.25H19.1668" stroke="white" stroke-linecap="round"/>
</svg>
