<svg width="20" height="20" viewBox="0 0 20 20" fill="none" xmlns="http://www.w3.org/2000/svg">
<g clip-path="url(#clip0_6956_18067)">
<path d="M14.1668 2.78064C15.4336 3.51205 16.4856 4.56404 17.217 5.83087C17.9484 7.09771 18.3335 8.53476 18.3334 9.99757C18.3334 11.4604 17.9484 12.8974 17.217 14.1643C16.4855 15.4311 15.4335 16.4831 14.1667 17.2145C12.8998 17.9458 11.4628 18.3309 9.99998 18.3309C8.53717 18.3308 7.10013 17.9458 5.83331 17.2143C4.56649 16.4829 3.51452 15.4309 2.78314 14.164C2.05177 12.8972 1.66675 11.4601 1.66678 9.99731L1.67095 9.72731C1.71762 8.28813 2.13641 6.88561 2.88648 5.65647C3.63656 4.42733 4.69233 3.41352 5.95086 2.71387C7.20939 2.01423 8.62774 1.65264 10.0676 1.66434C11.5075 1.67604 12.9198 2.06064 14.1668 2.78064ZM9.66595 10.7606L9.70928 10.7781L9.77595 10.7998L9.84262 10.8156L9.90262 10.8248L10.0001 10.8306L10.0634 10.8281L10.1759 10.8115L10.2443 10.7948L10.3301 10.7623L10.3909 10.7331L10.4559 10.6948L10.5059 10.6598L10.5726 10.6023L10.6418 10.529L10.6934 10.4598L10.7376 10.3848L10.7634 10.3315L10.7901 10.264L10.8151 10.1731L10.8276 10.0948L10.8334 9.99731V5.83064C10.8334 5.60963 10.7457 5.39766 10.5894 5.24138C10.4331 5.0851 10.2211 4.99731 10.0001 4.99731C9.7791 4.99731 9.56714 5.0851 9.41086 5.24138C9.25458 5.39766 9.16678 5.60963 9.16678 5.83064V8.43981L7.96262 7.63731C7.79269 7.52389 7.58702 7.47685 7.38469 7.50512C7.18235 7.53338 6.99745 7.63499 6.86512 7.79064L6.80678 7.86814C6.74603 7.95919 6.70381 8.06131 6.68254 8.16867C6.66126 8.27604 6.66134 8.38654 6.68278 8.49387C6.70421 8.6012 6.74658 8.70326 6.80747 8.79422C6.86835 8.88517 6.94655 8.96325 7.03762 9.02397L9.56928 10.7106L9.66595 10.7606Z" fill="#058C91"/>
</g>
<defs>
<clipPath id="clip0_6956_18067">
<rect width="20" height="20" fill="white"/>
</clipPath>
</defs>
</svg>
