<svg width="62" height="62" viewBox="0 0 62 62" fill="none" xmlns="http://www.w3.org/2000/svg">
<path d="M31.0311 0.200195C33.4293 0.200341 35.7453 1.07392 37.5462 2.65761L38.021 3.1047L40.1732 5.25686C40.7638 5.84366 41.5351 6.21409 42.3623 6.30828L42.7786 6.33295H45.8619C48.3817 6.3328 50.806 7.2967 52.6378 9.02698C54.4695 10.7573 55.5699 13.1228 55.7132 15.6384L55.7286 16.1996V19.2829C55.7286 20.1154 56.0123 20.9264 56.5241 21.5739L56.8016 21.8822L58.9507 24.0344C60.732 25.8056 61.7706 28.1895 61.8548 30.7001C61.9391 33.2107 61.0625 35.6589 59.4039 37.5455L58.9568 38.0204L56.8047 40.1725C56.2179 40.7632 55.8474 41.5345 55.7533 42.3617L55.7286 42.7779V45.8613C55.7287 48.381 54.7648 50.8054 53.0346 52.6371C51.3043 54.4689 48.9388 55.5692 46.4231 55.7125L45.8619 55.728H42.7786C41.9473 55.7282 41.1403 56.0084 40.4877 56.5234L40.1793 56.8009L38.0272 58.95C36.256 60.7313 33.872 61.77 31.3614 61.8542C28.8508 61.9384 26.4026 61.0619 24.516 59.4033L24.0412 58.9562L21.889 56.804C21.2984 56.2172 20.5271 55.8468 19.6998 55.7526L19.2836 55.728H16.2003C13.6805 55.7281 11.2562 54.7642 9.42442 53.0339C7.59267 51.3036 6.49231 48.9381 6.349 46.4225L6.33359 45.8613V42.7779C6.33331 41.9466 6.05309 41.1396 5.53809 40.487L5.26059 40.1787L3.1115 38.0265C1.3302 36.2553 0.291556 33.8714 0.207335 31.3608C0.123113 28.8502 0.999661 26.402 2.65825 24.5154L3.10534 24.0405L5.2575 21.8884C5.8443 21.2977 6.21473 20.5264 6.30892 19.6992L6.33359 19.2829V16.1996L6.349 15.6384C6.48668 13.2194 7.50965 10.9356 9.22294 9.2223C10.9362 7.50901 13.22 6.48604 15.6391 6.34836L16.2003 6.33295H19.2836C20.1149 6.33267 20.9219 6.05245 21.5745 5.53745L21.8828 5.25995L24.035 3.11086C24.9518 2.1886 26.0418 1.45667 27.2425 0.957152C28.4431 0.457633 29.7307 0.200384 31.0311 0.200195ZM42.4302 22.653C41.852 22.075 41.0678 21.7503 40.2503 21.7503C39.4327 21.7503 38.6485 22.075 38.0703 22.653L27.9169 32.8034L23.9302 28.8197L23.6403 28.5638C23.0206 28.0846 22.2417 27.8593 21.4619 27.9335C20.682 28.0078 19.9597 28.3762 19.4416 28.9638C18.9235 29.5513 18.6485 30.3141 18.6724 31.0971C18.6963 31.8801 19.0173 32.6247 19.5703 33.1795L25.737 39.3462L26.0268 39.6021C26.6201 40.0623 27.3609 40.2902 28.1102 40.2431C28.8595 40.196 29.5659 39.8771 30.0968 39.3462L42.4302 27.0129L42.6861 26.723C43.1463 26.1298 43.3742 25.389 43.3271 24.6397C43.28 23.8904 42.961 23.184 42.4302 22.653Z" fill="#00B54B"/>
</svg>
