<svg width="109" height="88" viewBox="0 0 109 88" fill="none" xmlns="http://www.w3.org/2000/svg">
<path d="M96.1289 9.03125H37.4129C37.0792 9.03125 36.8086 9.2903 36.8086 9.60984V86.611C36.8086 86.9306 37.0791 87.1897 37.4129 87.1897H96.1289C96.4626 87.1897 96.7331 86.9307 96.7331 86.611V9.60993C96.7331 9.29038 96.4626 9.03125 96.1289 9.03125Z" fill="#7D88BC"/>
<path d="M94.9836 10.8672H38.5547V84.9623H94.9836V10.8672Z" fill="#E3E4EE"/>
<path d="M81.5918 7.23531H71.114C71.4762 6.58046 71.6835 5.83538 71.6835 5.04426C71.6835 2.45244 69.4806 0.34375 66.773 0.34375C64.0653 0.34375 61.8626 2.45244 61.8626 5.04426C61.8626 5.83538 62.0699 6.58046 62.432 7.23531H51.9541C51.3818 7.23531 50.918 7.67948 50.918 8.2273V11.0597H82.628V8.2273C82.6281 7.6794 82.1641 7.23531 81.5918 7.23531ZM66.7731 3.21198C67.8286 3.21198 68.6873 4.03387 68.6873 5.04426C68.6873 6.05466 67.8286 6.87687 66.7731 6.87687C65.7176 6.87687 64.8588 6.05474 64.8588 5.04426C64.8588 4.03379 65.7175 3.21198 66.7731 3.21198Z" fill="#33B8C0"/>
<path opacity="0.81" d="M92.4376 83.0305H42.3555L42.9408 12.4563L90.6041 11.0625L92.4376 83.0305Z" fill="#DBDADA"/>
<path d="M90.6053 11.0625H41.5V81.5732H90.6053V11.0625Z" fill="white"/>
<path d="M57.8242 15.4141H59.0071V19.4543H61.0788V20.4014H57.8242V15.4141Z" fill="#7D88BC"/>
<path d="M66.2476 17.8591C66.2476 19.4943 65.2115 20.4858 63.6888 20.4858C62.1428 20.4858 61.2383 19.3686 61.2383 17.9479C61.2383 16.4532 62.2355 15.3359 63.7739 15.3359C65.374 15.3359 66.2476 16.4828 66.2476 17.8591ZM62.4829 17.9257C62.4829 18.9025 62.9621 19.5905 63.7505 19.5905C64.5467 19.5905 65.003 18.8653 65.003 17.8959C65.003 17.0007 64.5545 16.2311 63.7429 16.2311C62.9467 16.2311 62.4829 16.9563 62.4829 17.9257Z" fill="#7D88BC"/>
<path d="M68.1079 19.1214L67.7369 20.4014H66.5156L68.1079 15.4141H69.6541L71.2697 20.4014H70.0019L69.5999 19.1214H68.1079ZM69.4299 18.2778L69.1052 17.2197C69.0125 16.9237 68.9195 16.5538 68.8424 16.2578H68.8268C68.7495 16.5538 68.6721 16.9311 68.5872 17.2197L68.2779 18.2778H69.4299Z" fill="#7D88BC"/>
<path d="M71.9688 20.4014V15.4141H73.3449L74.4271 17.2418C74.7362 17.7672 75.0455 18.3887 75.2774 18.951H75.3006C75.2233 18.2927 75.2001 17.6191 75.2001 16.8719V15.4141H76.2823V20.4014H75.0454L73.9323 18.4775C73.6232 17.9447 73.2829 17.3009 73.0279 16.7164L73.0046 16.7238C73.0355 17.3825 73.0511 18.0854 73.0511 18.8994V20.4014H71.9688Z" fill="#7D88BC"/>
<path d="M85.7096 38.0391H69.4297C69.4297 39.5409 69.4297 41.0438 69.4297 42.5456H85.7096C87.0094 42.5456 88.0633 41.5378 88.0633 40.2924C88.0633 39.047 87.0094 38.0391 85.7096 38.0391Z" fill="#E3E4EE"/>
<path d="M47.2977 38.0391C45.5305 38.0391 44.0977 39.0469 44.0977 40.2923C44.0977 41.5377 45.5305 42.5455 47.2977 42.5455H79.0313C79.0313 41.0437 79.0313 39.5409 79.0313 38.0391H47.2977Z" fill="#F05A25"/>
<path d="M79.0308 44.1831C81.2785 44.1831 83.1006 42.4387 83.1006 40.2868C83.1006 38.135 81.2785 36.3906 79.0308 36.3906C76.7831 36.3906 74.9609 38.135 74.9609 40.2868C74.9609 42.4387 76.7831 44.1831 79.0308 44.1831Z" fill="#7D88BC"/>
<path d="M79.0316 42.2401C80.1622 42.2401 81.0787 41.3626 81.0787 40.2802C81.0787 39.1978 80.1622 38.3203 79.0316 38.3203C77.9009 38.3203 76.9844 39.1978 76.9844 40.2802C76.9844 41.3626 77.9009 42.2401 79.0316 42.2401Z" fill="white"/>
<path d="M46.3732 27.586C45.0734 27.586 44.0195 28.5938 44.0195 29.8393C44.0195 31.0847 45.0734 32.0925 46.3732 32.0925H69.7135C69.7135 30.5907 69.7135 29.0877 69.7135 27.5859H46.3732V27.586Z" fill="#F05A25"/>
<path d="M85.9908 27.5859H69.7109C69.7109 29.0877 69.7109 30.5907 69.7109 32.0925H85.9908C87.2907 32.0925 88.3445 31.0847 88.3445 29.8393C88.3445 28.5938 87.2907 27.5859 85.9908 27.5859Z" fill="#E3E4EE"/>
<path d="M69.8276 33.5581C72.0753 33.5581 73.8975 31.8137 73.8975 29.6618C73.8975 27.51 72.0753 25.7656 69.8276 25.7656C67.5799 25.7656 65.7578 27.51 65.7578 29.6618C65.7578 31.8137 67.5799 33.5581 69.8276 33.5581Z" fill="#7D88BC"/>
<path d="M69.8323 31.6151C70.9629 31.6151 71.8795 30.7376 71.8795 29.6552C71.8795 28.5728 70.9629 27.6953 69.8323 27.6953C68.7017 27.6953 67.7852 28.5728 67.7852 29.6552C67.7852 30.7376 68.7017 31.6151 69.8323 31.6151Z" fill="white"/>
<path d="M45.1474 48.2969C44.3713 48.2969 43.7422 49.3047 43.7422 50.5501C43.7422 51.7955 44.3714 52.8033 45.1474 52.8033H59.0827C59.0827 51.3015 59.0827 49.7986 59.0827 48.2969H45.1474Z" fill="#F05A25"/>
<path d="M85.7083 48.2969H59.3672C59.3672 49.7987 59.3672 51.3016 59.3672 52.8033H85.7083C87.0081 52.8033 88.062 51.7955 88.062 50.5501C88.062 49.3047 87.0081 48.2969 85.7083 48.2969Z" fill="#E3E4EE"/>
<path d="M59.0816 54.2612C61.3293 54.2612 63.1514 52.5168 63.1514 50.365C63.1514 48.2131 61.3293 46.4688 59.0816 46.4688C56.8338 46.4688 55.0117 48.2131 55.0117 50.365C55.0117 52.5168 56.8338 54.2612 59.0816 54.2612Z" fill="#7D88BC"/>
<path d="M59.0823 52.326C60.213 52.326 61.1295 51.4485 61.1295 50.3661C61.1295 49.2837 60.213 48.4062 59.0823 48.4062C57.9517 48.4062 57.0352 49.2837 57.0352 50.3661C57.0352 51.4485 57.9517 52.326 59.0823 52.326Z" fill="white"/>
<path d="M56.7885 52.3823C56.0716 50.6411 55.6204 49.6736 55.2533 49.2243C54.8864 48.7751 53.839 45.5193 53.1636 44.2081C52.5383 42.9942 53.2055 41.8552 54.7016 42.7502C56.0989 43.586 56.5633 46.8781 56.7402 46.4388C57.2859 45.0831 57.5004 44.5938 57.5004 44.5938L63.5727 47.0775L64.3902 48.3152L63.1586 51.1709L56.7885 52.3823Z" fill="#EFB38E"/>
<path d="M67.0036 44.4206C67.0113 44.5727 66.9828 44.729 66.9121 44.877L64.3378 50.3163C64.1026 50.815 63.489 51.036 62.9674 50.8102C62.4471 50.5838 62.215 49.9964 62.4529 49.4983L65.0271 44.059C65.2623 43.5603 65.8759 43.3393 66.3975 43.5651C66.7632 43.7238 66.9854 44.061 67.0036 44.4206Z" fill="#EFB38E"/>
<path d="M62.0622 39.304C62.0519 39.3736 62.036 39.4431 62.0135 39.5124L60.1424 45.2512C59.9147 45.9481 59.1407 46.3365 58.4134 46.1194C57.6847 45.9014 56.2555 47.2778 57.5065 44.4641L59.3776 38.7253C59.6053 38.0283 60.3792 37.6399 61.1066 37.8571C61.7623 38.0534 62.156 38.6736 62.0622 39.304Z" fill="#EFB38E"/>
<path d="M57.1512 53.6057C57.1512 53.6057 56.2072 50.5895 56.6344 49.722C57.8465 47.2605 58.733 46.4035 58.733 46.4035C58.733 46.4035 65.341 45.9168 65.2324 47.2977C65.1302 48.5973 62.8748 55.1825 62.8748 55.1825L57.1512 53.6057Z" fill="#EFB38E"/>
<path d="M58.853 45.8152C58.8645 45.8188 58.8749 45.8262 58.8821 45.8365C58.8997 45.8613 58.893 45.8949 58.8672 45.9118L58.1745 46.3606C58.1483 46.3778 58.1129 46.3707 58.0958 46.346C58.0781 46.3213 58.0849 46.2876 58.1107 46.2707L58.8033 45.8219C58.8186 45.812 58.837 45.8102 58.853 45.8152Z" fill="#313440"/>
<path d="M58.6176 46.5173C58.6292 46.5209 58.642 46.5209 58.6542 46.5168C58.6838 46.5069 58.6993 46.476 58.689 46.4478L58.4111 45.6925C58.4007 45.6638 58.3679 45.6494 58.3387 45.6594C58.3092 45.6693 58.2936 45.7002 58.304 45.7285L58.5818 46.4837C58.588 46.5003 58.6017 46.5122 58.6176 46.5173Z" fill="#313440"/>
<path d="M61.7255 38.8107C61.7231 38.8274 61.7126 38.8429 61.6951 38.8509C61.6673 38.8634 61.6349 38.8525 61.6211 38.8265C61.3522 38.3003 60.6593 38.4365 60.5068 38.4731L60.139 39.6821C60.3941 40.0089 61.2919 40.0962 61.3014 40.0968C61.3323 40.0997 61.3543 40.1255 61.3513 40.1544L61.3509 40.157C61.3467 40.1851 61.3206 40.205 61.2911 40.2023C61.2508 40.1988 60.294 40.1048 60.0326 39.7204C60.0249 39.7077 60.0206 39.6908 60.0255 39.6765L60.4094 38.4149C60.4146 38.3981 60.4289 38.3844 60.4473 38.3797C60.4559 38.377 61.3833 38.1196 61.7207 38.7802C61.7259 38.7899 61.727 38.8005 61.7255 38.8107Z" fill="#313440"/>
<path d="M61.8551 46.9147C61.8699 46.883 61.8835 46.8509 61.8964 46.8179L63.5147 42.617C63.7981 41.8816 63.4486 41.0877 62.7344 40.8442C62.0203 40.6012 61.2175 41.0049 60.9277 41.7351L59.3094 45.936C59.026 46.6715 59.3755 47.4653 60.0897 47.7088C60.772 47.9412 61.5406 47.5878 61.8551 46.9147Z" fill="#EFB38E"/>
<path d="M63.8003 47.7584C63.8151 47.7268 63.8287 47.6946 63.8416 47.6617L65.46 43.4608C65.7434 42.7253 65.3939 41.9315 64.6797 41.6879C63.9656 41.445 63.1628 41.8486 62.873 42.5789L61.2547 46.7798C60.9713 47.5152 61.3208 48.3091 62.035 48.5526C62.7172 48.785 63.4858 48.4315 63.8003 47.7584Z" fill="#EFB38E"/>
<path d="M60.2758 44.4824C60.2978 44.4824 60.3186 44.4702 60.3279 44.4496C60.3663 44.3676 61.5495 41.1402 61.5998 41.0026C61.6103 40.9741 61.5946 40.9435 61.5648 40.9334C61.5354 40.922 61.5027 40.9377 61.4918 40.9669C61.067 42.1261 60.2549 44.3362 60.2236 44.4053C60.2109 44.4331 60.2239 44.4652 60.2527 44.4773C60.2606 44.481 60.2684 44.4824 60.2758 44.4824Z" fill="#313440"/>
<path d="M62.7096 44.2703C62.733 44.2703 62.755 44.256 62.7636 44.2339L63.6639 41.7999C63.6743 41.7714 63.6587 41.7401 63.6289 41.73C63.6003 41.7193 63.5668 41.7343 63.5559 41.7628L62.6556 44.1967C62.6452 44.2253 62.6608 44.2566 62.6906 44.2666C62.6969 44.2688 62.7033 44.2703 62.7096 44.2703Z" fill="#313440"/>
<path d="M64.6236 45.4052C64.6456 45.4052 64.6664 45.3931 64.6758 45.3725L65.4707 43.6707C65.4838 43.6437 65.4707 43.6109 65.442 43.5988C65.4126 43.5859 65.3787 43.5988 65.3664 43.6266L64.5715 45.3283C64.5584 45.3554 64.5715 45.3881 64.6001 45.4003C64.608 45.4038 64.6158 45.4052 64.6236 45.4052Z" fill="#313440"/>
<path d="M60.8334 46.5574C60.845 46.5611 60.8553 46.5684 60.8626 46.5787C60.8802 46.6035 60.8735 46.6371 60.8476 46.654L60.155 47.1028C60.1288 47.12 60.0934 47.1129 60.0762 47.0882C60.0586 47.0634 60.0653 47.0298 60.0912 47.0129L60.7838 46.5641C60.799 46.5541 60.8174 46.5524 60.8334 46.5574Z" fill="#313440"/>
<path d="M60.5981 47.2751C60.6097 47.2788 60.6225 47.2788 60.6347 47.2746C60.6642 47.2647 60.6798 47.2338 60.6695 47.2056L60.3916 46.4504C60.3812 46.4216 60.3483 46.4072 60.3192 46.4173C60.2896 46.4271 60.2741 46.458 60.2844 46.4863L60.5623 47.2415C60.5684 47.2581 60.582 47.27 60.5981 47.2751Z" fill="#313440"/>
<path d="M62.7045 47.2136C62.7161 47.2173 62.7264 47.2246 62.7337 47.2349C62.7513 47.2597 62.7446 47.2933 62.7187 47.3102L62.0261 47.759C61.9999 47.7762 61.9645 47.7691 61.9473 47.7444C61.9297 47.7197 61.9364 47.686 61.9623 47.6691L62.6549 47.2203C62.6702 47.2104 62.6885 47.2086 62.7045 47.2136Z" fill="#313440"/>
<path d="M62.4653 47.9157C62.4769 47.9194 62.4897 47.9194 62.5019 47.9152C62.5314 47.9053 62.547 47.8745 62.5366 47.8462L62.2588 47.091C62.2484 47.0622 62.2155 47.0478 62.1864 47.0579C62.1568 47.0678 62.1413 47.0986 62.1516 47.1269L62.4295 47.8821C62.4356 47.8987 62.4493 47.9106 62.4653 47.9157Z" fill="#313440"/>
<path d="M30.49 47.9888C31.0833 48.2018 31.6767 49.1248 31.9734 49.2668C32.2701 49.4088 37.3135 49.8349 41.1701 53.5981C45.0268 57.3612 48.661 61.2664 48.661 61.2664C48.661 61.2664 49.4768 57.8582 51.2568 57.1482C53.0368 56.4382 53.2593 55.4442 53.4819 53.882C53.7044 52.3199 53.2593 50.6868 54.6686 50.6158C56.0777 50.5448 64.4586 52.5329 64.8295 53.3139C65.2003 54.0949 63.272 55.4441 63.4204 56.4381C63.5687 57.4322 64.3846 76.1061 54.372 76.6741C44.3594 77.2422 41.9118 74.26 41.541 73.905C41.1702 73.55 38.9451 71.8458 38.9451 71.8458L39.2418 87.1826H0.452237C0.452237 87.1826 -0.0669684 78.8752 0.00726358 77.9522C0.0814116 77.0291 2.00976 74.899 1.11973 73.6209C0.229706 72.3429 -0.289414 72.0589 0.229707 70.0708C0.748911 68.0827 4.49435 57.0771 9.72309 52.3909C12.9686 49.4822 19.6615 48.1307 21.0707 47.4206C22.4798 46.7106 22.2574 46.1426 23.444 46.5686C24.6306 46.9946 30.49 47.9888 30.49 47.9888Z" fill="#FBAF35"/>
<path d="M0.24801 83.7307C0.112058 81.3289 -0.0345589 78.4643 0.00725961 77.9443C0.0814076 77.0212 2.00976 74.8911 1.11973 73.6131C0.811553 73.1705 0.549641 72.8474 0.358099 72.5312C11.7169 74.3566 37.9947 72.6339 38.9592 72.5697L39.1746 83.7057C23.2551 85.6246 4.68337 84.1371 0.24801 83.7307Z" fill="#33B8C0"/>
<path d="M47.0346 59.6695C47.9663 60.6468 48.5448 61.2681 48.5448 61.2681C48.5448 61.2681 48.7617 60.3691 49.212 59.3984C50.4869 59.8174 59.6759 63.0682 61.5774 70.2327C60.2647 73.6751 58.0296 76.4619 54.2557 76.6759C46.6624 77.1067 43.422 75.4963 42.1367 74.5378C43.2014 72.042 46.4307 64.2085 47.0346 59.6695Z" fill="#33B8C0"/>
<path d="M30.8578 44.2319L30.487 47.995C30.487 47.995 24.8873 48.7761 22.9219 47.143L24.1086 43.0958L26.5561 42.8828L30.8578 44.2319Z" fill="#EFB38E"/>
<path d="M30.6557 46.2905L30.8411 44.5155L26.9844 43.7344C26.9844 43.7344 27.689 44.6929 30.6557 46.2905Z" fill="#313440"/>
<path d="M32.5387 31.3297C33.0885 32.2918 33.0946 33.9611 33.7496 36.0275C34.4046 38.0939 37.2355 42.6664 32.5629 44.3704C28.4391 45.8744 23.3927 42.5054 23.3927 42.5054L20.5446 36.1016C19.2216 33.1269 20.8762 30.3329 24.0273 29.1698C24.0999 29.143 24.1739 29.117 24.2491 29.092C30.46 27.027 32.5387 31.3297 32.5387 31.3297Z" fill="#EFB38E"/>
<path d="M33.529 35.3203C33.529 35.3203 35.6427 36.7759 35.754 37.2729C35.8653 37.7699 34.7527 38.8349 34.7527 38.8349L33.0469 37.8409L33.529 35.3203Z" fill="#EFB38E"/>
<path d="M32.0904 36.2505C32.0034 35.9407 32.0394 35.6621 32.1706 35.6284C32.302 35.5946 32.4789 35.8183 32.5659 36.1281C32.6529 36.4378 32.617 36.7164 32.4856 36.7501C32.3545 36.784 32.1774 36.5602 32.0904 36.2505Z" fill="#313440"/>
<path d="M32.4494 34.7233C32.1671 34.9257 31.6915 35.0318 31.4791 35.1696C31.2918 35.2911 30.9686 35.621 30.7549 35.3704C30.6552 35.1796 30.7226 34.9464 30.8521 34.7853C30.9554 34.6566 31.0947 34.5593 31.2324 34.4647C31.544 34.2505 32.0298 33.8996 32.4414 34.0401C32.5415 34.0742 32.6299 34.1503 32.6563 34.2488C32.7119 34.4561 32.6132 34.6058 32.4494 34.7233Z" fill="#313440"/>
<path d="M32.3281 37.0471C32.749 36.9388 32.9042 36.7371 32.9106 36.7285C32.9276 36.7058 32.9222 36.6743 32.8985 36.658C32.875 36.6417 32.8422 36.6468 32.825 36.6693C32.8227 36.6723 32.6809 36.8516 32.3008 36.9495C32.2726 36.9567 32.2559 36.9845 32.2636 37.0114C32.2711 37.0384 32.3 37.0544 32.3281 37.0471Z" fill="#313440"/>
<path d="M27.9696 36.9506C28.5258 37.5363 28.9152 37.8559 29.5271 37.6961C30.139 37.5364 28.6351 33.9494 29.0264 32.9567C30.1389 30.1342 34.144 31.4123 34.144 30.4005C34.144 29.3888 32.6421 29.4419 31.5853 29.1757C30.5284 28.9094 32.6421 29.1224 32.0859 28.3769C31.5297 27.6314 30.0834 28.6432 27.8028 28.2172C25.5222 27.7912 18.402 29.442 18.8471 32.4774C18.8471 32.4774 17.7902 31.0928 17.4564 31.5721C17.1226 32.0514 18.7914 32.8501 18.7914 32.8501C18.7914 32.8501 16.6776 33.1164 17.2339 33.7554C17.7901 34.3944 18.7357 33.7554 18.7357 33.7554C18.7357 33.7554 15.9545 37.3233 18.7913 40.0925C21.6283 42.8616 23.297 43.2877 23.3526 43.8734C23.4082 44.4591 22.9077 45.258 23.4639 45.4177C24.0202 45.5774 24.6321 44.6721 24.9658 44.8319C25.2995 44.9916 24.8545 45.4709 25.8558 45.3644C26.8571 45.258 27.2464 40.838 27.2464 40.838L25.7445 37.4831L27.9696 36.9506Z" fill="#313440"/>
<path d="M34.4239 62.1949C34.4768 62.1949 34.5234 62.1587 34.5333 62.1071C35.5109 56.9078 42.0675 54.8609 42.1337 54.841C42.1922 54.8231 42.2246 54.7632 42.2061 54.7075C42.1876 54.6517 42.1262 54.6197 42.0664 54.638C41.999 54.6584 35.3159 56.7427 34.3143 62.0697C34.3034 62.1275 34.3436 62.1828 34.404 62.1932C34.4107 62.1945 34.4171 62.1949 34.4239 62.1949Z" fill="#313440"/>
<path d="M62.8998 57.1814C62.9319 57.1814 62.9637 57.1686 62.9853 57.1436C63.0238 57.0991 63.0194 57.0345 62.9741 56.9963C62.9254 56.9555 62.4247 56.5973 59.8971 56.5973C57.388 56.5973 53.6874 55.2859 53.6502 55.2726C53.5937 55.2514 53.5285 55.2801 53.5071 55.3355C53.4856 55.3903 53.5149 55.4516 53.5725 55.4723C53.6098 55.4856 57.3476 56.8103 59.8971 56.8103C62.3346 56.8103 62.8254 57.1551 62.83 57.1589C62.8506 57.1739 62.8754 57.1814 62.8998 57.1814Z" fill="#313440"/>
<path d="M54.7287 55.8063C54.7848 55.8063 54.833 55.7659 54.839 55.7115C55.0163 54.1422 55.3909 51.7013 55.6971 51.4084C55.7406 51.3667 55.7406 51.2993 55.6971 51.2578C55.6536 51.2162 55.5832 51.2162 55.5398 51.2578C55.0802 51.6975 54.6638 55.2813 54.6178 55.6882C54.6113 55.7468 54.6555 55.7992 54.7165 55.8059C54.7206 55.8063 54.7246 55.8063 54.7287 55.8063Z" fill="#313440"/>
<path d="M56.3964 56.2323C56.4579 56.2323 56.5077 56.1845 56.5077 56.1258C56.5077 55.2417 57.2213 51.9738 57.2284 51.9409C57.241 51.883 57.2026 51.8265 57.1423 51.8144C57.0839 51.8036 57.023 51.8394 57.0107 51.8968C56.9811 52.0324 56.2852 55.2196 56.2852 56.1258C56.2852 56.1845 56.3349 56.2323 56.3964 56.2323Z" fill="#313440"/>
<path d="M58.178 56.712C58.2312 56.712 58.2783 56.6754 58.2875 56.6234L59.0106 52.5229C59.0208 52.4647 58.9799 52.4098 58.9193 52.4002C58.8602 52.3894 58.8013 52.4289 58.7911 52.4872L58.068 56.5876C58.0577 56.6459 58.0986 56.7008 58.1593 56.7103C58.1656 56.7116 58.1717 56.712 58.178 56.712Z" fill="#313440"/>
<path d="M59.8967 56.8138C59.9486 56.8138 59.995 56.7789 60.0055 56.7281L60.6174 53.7992C60.6296 53.7418 60.5905 53.6856 60.5301 53.674C60.4734 53.6624 60.4117 53.6994 60.3993 53.7577L59.7874 56.6865C59.7752 56.744 59.8143 56.8002 59.8747 56.8118C59.8819 56.813 59.8893 56.8138 59.8967 56.8138Z" fill="#313440"/>
<path d="M52.5041 66.8642C52.5145 66.8642 52.5252 66.8629 52.5356 66.86C52.5945 66.843 52.6282 66.7838 52.6108 66.7273C51.917 64.4794 50.351 62.8507 48.9695 61.4137L48.7479 61.1828C48.706 61.1395 48.6353 61.137 48.5907 61.1761C48.5453 61.216 48.5425 61.2835 48.584 61.3267L48.8059 61.5576C50.1709 62.9779 51.7184 64.5872 52.3974 66.788C52.4118 66.8342 52.4561 66.8642 52.5041 66.8642Z" fill="#313440"/>
<path d="M53.278 64.6316C53.3093 64.6316 53.3406 64.6191 53.3626 64.5941C53.4025 64.5496 53.3969 64.4822 53.3501 64.4439C53.2558 64.367 51.0278 62.5547 50.1074 62.5547C50.0459 62.5547 49.9961 62.6025 49.9961 62.6612C49.9961 62.7199 50.0459 62.7677 50.1074 62.7677C50.8037 62.7677 52.5801 64.0948 53.2059 64.6062C53.2267 64.6232 53.2523 64.6316 53.278 64.6316Z" fill="#313440"/>
<path d="M38.946 71.9515C38.9751 71.9515 39.0044 71.9407 39.0262 71.9187C39.0687 71.8762 39.0675 71.8088 39.0231 71.7681C36.2692 69.2365 34.6471 66.3738 34.6311 66.3451C34.6022 66.2931 34.5342 66.2744 34.4805 66.3014C34.4265 66.3292 34.4061 66.3942 34.4351 66.4457C34.4514 66.4748 36.0887 69.3659 38.8689 71.922C38.8905 71.9416 38.9182 71.9515 38.946 71.9515Z" fill="#313440"/>
<path d="M19.4589 69.2203C19.4689 69.2203 19.4789 69.219 19.4891 69.2161C19.5482 69.2003 19.5826 69.1416 19.566 69.085C18.5824 65.7368 19.339 60.1839 19.3468 60.1282C19.3548 60.0699 19.312 60.0163 19.2511 60.0084C19.1924 60.0026 19.1344 60.0408 19.126 60.0999C19.1184 60.1561 18.356 65.7526 19.3518 69.1425C19.3657 69.1895 19.4102 69.2203 19.4589 69.2203Z" fill="#313440"/>
<path d="M26.893 50.1326C29.0963 50.1326 30.9707 49.5693 31.0058 49.5584C31.0643 49.5401 31.0964 49.4803 31.0776 49.4245C31.0587 49.3683 30.9958 49.3384 30.9377 49.3554C30.8729 49.3758 24.4119 51.3154 21.4902 47.8984C21.4511 47.8531 21.3811 47.846 21.3338 47.8835C21.2861 47.9205 21.2793 47.9879 21.3181 48.0333C22.7346 49.6908 24.9427 50.1326 26.893 50.1326Z" fill="#313440"/>
<path d="M8.0571 58.8885C8.06214 58.8885 8.06685 58.8881 8.07189 58.8877C8.13293 58.8798 8.17576 58.8265 8.1677 58.7679L7.66705 55.1467C7.65899 55.0889 7.6034 55.0498 7.5421 55.0552C7.48105 55.0631 7.43823 55.1163 7.44629 55.175L7.94693 58.7962C7.95457 58.8494 8.0021 58.8885 8.0571 58.8885Z" fill="#313440"/>
<path d="M5.16906 78.287C5.25295 78.287 5.31635 78.2563 5.35893 78.1946C5.76611 77.6072 2.45615 73.3337 0.899799 72.019C0.85353 71.9799 0.783329 71.984 0.742686 72.0285C0.702043 72.0727 0.706409 72.1396 0.752427 72.1787C2.48244 73.6399 5.41435 77.6912 5.17376 78.0764C5.17292 78.0743 5.12683 78.0831 4.99062 78.0203C3.53613 77.35 2.37865 75.5752 2.36714 75.5573C2.33456 75.5074 2.26629 75.492 2.21397 75.5228C2.16157 75.5539 2.14553 75.6193 2.17769 75.6696C2.22615 75.7445 3.38036 77.5144 4.89422 78.2125C5.00196 78.262 5.09366 78.287 5.16906 78.287Z" fill="#313440"/>
<path d="M48.3866 74.4986C48.4224 74.4986 48.4576 74.482 48.4791 74.4512C48.5132 74.4021 48.4994 74.336 48.4483 74.3035C46.3224 72.9468 44.2175 69.8915 44.1964 69.8607C44.1632 69.8112 44.0941 69.7979 44.0423 69.8299C43.991 69.862 43.9768 69.9281 44.0104 69.9772C44.0318 70.0084 46.1616 73.1 48.3249 74.4808C48.3438 74.4927 48.3653 74.4986 48.3866 74.4986Z" fill="#313440"/>
<path d="M6.49798 87.3837C6.55945 87.3837 6.60925 87.3359 6.60925 87.2773V76.0942C6.60925 71.1558 8.25932 62.9899 8.27603 62.9079C8.28778 62.85 8.24823 62.7944 8.18802 62.7831C8.12823 62.7723 8.0692 62.8097 8.05744 62.8672C8.0409 62.9491 6.38672 71.1355 6.38672 76.0943V87.2773C6.38672 87.3358 6.43652 87.3837 6.49798 87.3837Z" fill="#313440"/>
<path d="M34.9139 41.205C34.9678 40.2254 34.0676 40.5652 33.4142 40.281C32.7608 39.9967 32.0754 39.5704 31.4987 40.2383C30.578 41.3045 31.4096 41.8589 32.5975 42.0579C33.7854 42.2569 34.8693 42.0153 34.9139 41.205Z" fill="white"/>
<path d="M20.2724 32.5255C20.2583 32.5255 20.2442 32.5205 20.2331 32.5106C20.2101 32.4898 20.2089 32.4551 20.2306 32.433C20.2388 32.4248 21.0385 31.6065 20.942 31.1806C20.9217 31.0908 20.8606 31.0273 20.7556 30.9861C20.6342 30.9388 20.5256 30.9429 20.4233 30.9987C20.0262 31.2158 19.885 32.1141 19.8836 32.1231C19.879 32.1531 19.8495 32.1737 19.8186 32.1695C19.7873 32.1651 19.7656 32.1373 19.7701 32.1073C19.7761 32.0683 19.9209 31.1471 20.3663 30.9035C20.4992 30.8309 20.6448 30.8243 20.7989 30.8846C20.9397 30.9397 21.0255 31.0313 21.0541 31.1574C21.1634 31.6395 20.3489 32.4731 20.3141 32.5083C20.3028 32.5197 20.2876 32.5255 20.2724 32.5255Z" fill="#412017"/>
<path d="M20.0599 35.0433C19.9666 35.0433 19.881 35.0151 19.8045 34.9589C19.4342 34.6868 19.411 33.8331 19.4102 33.797C19.4095 33.7667 19.4346 33.7416 19.4663 33.741C19.4667 33.741 19.4671 33.741 19.4675 33.741C19.4986 33.741 19.5242 33.7647 19.5249 33.7946C19.525 33.803 19.5476 34.6319 19.8745 34.872C19.9546 34.9307 20.0453 34.9472 20.1519 34.9224C20.2521 34.8989 20.3171 34.8492 20.3504 34.7702C20.4983 34.4204 20.0032 33.6621 19.9982 33.6544C19.9814 33.6288 19.9894 33.595 20.0161 33.5788C20.0429 33.5626 20.0783 33.5703 20.0951 33.5959C20.117 33.6289 20.6264 34.4096 20.4567 34.8114C20.4093 34.9237 20.3158 34.997 20.1791 35.029C20.138 35.0386 20.0983 35.0433 20.0599 35.0433Z" fill="#412017"/>
<path d="M29.158 37.7544C29.158 37.7544 27.3841 35.9646 25.861 36.4625C24.3378 36.9604 24.0824 40.0847 25.7008 40.7175C27.3193 41.3501 29.2939 40.159 29.2939 40.159L29.158 37.7544Z" fill="#EFB38E"/>
<path d="M26.1794 40.0319C26.1695 40.0322 26.1595 40.0304 26.1501 40.0263C26.1394 40.0217 25.0891 39.5526 25.4199 38.399C25.556 37.9242 25.7568 37.6333 26.0517 37.4838C26.4217 37.2962 26.919 37.3327 27.7682 37.6094C27.803 37.6207 27.8216 37.6569 27.8097 37.6903C27.7978 37.7237 27.7598 37.7413 27.7252 37.7301C26.9255 37.4694 26.4437 37.4295 26.114 37.5965C25.8539 37.7284 25.6741 37.9943 25.5483 38.4329C25.2481 39.4799 26.1657 39.8933 26.2049 39.9103C26.2383 39.9249 26.2532 39.9626 26.238 39.9946C26.2271 40.0174 26.204 40.0312 26.1794 40.0319Z" fill="#313440"/>
<path d="M7.44845 12.2474C3.7764 12.2474 0.789062 9.50058 0.789062 6.12334C0.789062 2.74682 3.7764 0 7.44845 0C11.1205 0 14.1083 2.74682 14.1083 6.12334C14.1083 9.5005 11.1205 12.2474 7.44845 12.2474ZM7.44845 2.82588C5.47105 2.82588 3.86281 4.30528 3.86281 6.12326C3.86281 7.94204 5.47105 9.42143 7.44845 9.42143C9.42584 9.42143 11.0345 7.94204 11.0345 6.12326C11.0345 4.30528 9.42584 2.82588 7.44845 2.82588Z" fill="#33B8C0"/>
<path d="M7.44592 12.2423C11.118 12.2423 14.1057 9.49545 14.1057 6.11821C14.1057 2.82767 11.2661 0.142799 7.72295 0.0078125V2.84655C9.56901 2.97921 11.032 4.38741 11.032 6.11821C11.032 7.937 9.42331 9.41639 7.44592 9.41639C6.67765 9.41639 5.96917 9.1886 5.38498 8.80879L3.26172 10.8762C4.40627 11.7289 5.86152 12.2423 7.44592 12.2423Z" fill="#F05A25"/>
<path d="M7.72266 0.0078125V2.84655C9.45157 2.97077 10.8281 4.21828 10.9978 5.7973L13.689 4.00696C12.7805 1.74802 10.4656 0.112347 7.72266 0.0078125Z" fill="#FBAF35"/>
<path d="M13.1462 15.6976H1.04181C1.00158 15.6976 0.96875 15.6661 0.96875 15.6276V14.6247C0.96875 14.5862 1.00167 14.5547 1.04189 14.5547H13.1462C13.1865 14.5547 13.2194 14.5862 13.2194 14.6247V15.6276C13.2193 15.6661 13.1864 15.6976 13.1462 15.6976Z" fill="#7D88BC"/>
<path d="M13.1462 18.557H1.04181C1.00158 18.557 0.96875 18.5255 0.96875 18.487V17.484C0.96875 17.4456 1.00167 17.4141 1.04189 17.4141H13.1462C13.1865 17.4141 13.2194 17.4456 13.2194 17.484V18.487C13.2193 18.5255 13.1864 18.557 13.1462 18.557Z" fill="#7D88BC"/>
<path d="M7.44845 33.5833C3.7764 33.5833 0.789062 30.8365 0.789062 27.4593C0.789062 24.0828 3.7764 21.3359 7.44845 21.3359C11.1205 21.3359 14.1083 24.0828 14.1083 27.4593C14.1083 30.8364 11.1205 33.5833 7.44845 33.5833ZM7.44845 24.1618C5.47105 24.1618 3.86281 25.6412 3.86281 27.4593C3.86281 29.2781 5.47105 30.7575 7.44845 30.7575C9.42584 30.7575 11.0345 29.2781 11.0345 27.4593C11.0345 25.6411 9.42584 24.1618 7.44845 24.1618Z" fill="#FBAF35"/>
<path d="M7.44592 33.5782C11.118 33.5782 14.1057 30.8314 14.1057 27.4541C14.1057 24.1636 11.2661 21.4787 7.72295 21.3438V24.1825C9.56901 24.3151 11.032 25.7233 11.032 27.4541C11.032 29.2729 9.42331 30.7523 7.44592 30.7523C6.67765 30.7523 5.96917 30.5245 5.38498 30.1447L3.26172 32.2121C4.40627 33.0649 5.86152 33.5782 7.44592 33.5782Z" fill="#33B8C0"/>
<path d="M7.72266 21.3438V24.1825C9.45157 24.3067 10.8281 25.5542 10.9978 27.1332L13.689 25.3429C12.7805 23.084 10.4656 21.4482 7.72266 21.3438Z" fill="#F05A25"/>
<path d="M13.1462 37.0257H1.04181C1.00158 37.0257 0.96875 36.9942 0.96875 36.9557V35.9528C0.96875 35.9143 1.00167 35.8828 1.04189 35.8828H13.1462C13.1865 35.8828 13.2194 35.9143 13.2194 35.9528V36.9557C13.2193 36.9942 13.1864 37.0257 13.1462 37.0257Z" fill="#7D88BC"/>
<path d="M13.1462 39.8851H1.04181C1.00158 39.8851 0.96875 39.8536 0.96875 39.8151V38.8122C0.96875 38.7737 1.00167 38.7422 1.04181 38.7422H13.1462C13.1864 38.7422 13.2193 38.7737 13.2193 38.8122V39.8151C13.2193 39.8535 13.1864 39.8851 13.1462 39.8851Z" fill="#7D88BC"/>
<path opacity="0.52" d="M105.37 31.6447L108.063 30.8821L105.405 29.9564C104.609 29.7395 104.008 29.1112 103.853 28.3326L103.084 24.4688L102.094 28.2158C101.885 29.0058 101.217 29.6085 100.381 29.7611L97.8438 30.543L100.258 31.4105C101.106 31.6159 101.745 32.2845 101.884 33.1113L102.509 36.847L103.611 33.1409C103.844 32.3571 104.53 31.7736 105.37 31.6447Z" fill="#E3E4EE"/>
<path opacity="0.52" d="M31.457 19.4586L33.9336 18.7573L31.4889 17.9061C30.7565 17.7066 30.2043 17.1287 30.0617 16.4127L29.3541 12.8594L28.4436 16.3054C28.2516 17.032 27.6373 17.5862 26.8683 17.7265L24.5352 18.4457L26.7557 19.2434C27.5354 19.4323 28.1232 20.0472 28.2504 20.8076L28.8255 24.2432L29.8386 20.8348C30.0528 20.1139 30.6841 19.5772 31.457 19.4586Z" fill="#E3E4EE"/>
<path opacity="0.52" d="M5.60311 48.8932L7.54499 48.3433L5.62814 47.6758C5.05394 47.5194 4.62097 47.0663 4.50911 46.5049L3.95431 43.7188L3.24037 46.4207C3.08981 46.9903 2.60814 47.4249 2.00513 47.5349L0.175781 48.0987L1.91688 48.7243C2.52828 48.8724 2.98904 49.3546 3.08888 49.9508L3.53982 52.6446L4.3342 49.9722C4.50215 49.4069 4.99708 48.9861 5.60311 48.8932Z" fill="#E3E4EE"/>
</svg>
