<svg width="152" height="29" viewBox="0 0 152 29" fill="none" xmlns="http://www.w3.org/2000/svg">
<rect width="152" height="29" rx="6" fill="white"/>
<rect x="12" y="6.5" width="16" height="16" fill="#0E1629"/>
<path d="M42.9699 17.138H39.0779L38.4339 19H36.3759L39.8899 9.214H42.1719L45.6859 19H43.6139L42.9699 17.138ZM42.4379 15.57L41.0239 11.482L39.6099 15.57H42.4379ZM51.3954 9.228C52.422 9.228 53.3227 9.42867 54.0974 9.83C54.8814 10.2313 55.4834 10.8053 55.9034 11.552C56.3327 12.2893 56.5474 13.148 56.5474 14.128C56.5474 15.108 56.3327 15.9667 55.9034 16.704C55.4834 17.432 54.8814 17.9967 54.0974 18.398C53.3227 18.7993 52.422 19 51.3954 19H47.9794V9.228H51.3954ZM51.3254 17.334C52.352 17.334 53.1454 17.054 53.7054 16.494C54.2654 15.934 54.5454 15.1453 54.5454 14.128C54.5454 13.1107 54.2654 12.3173 53.7054 11.748C53.1454 11.1693 52.352 10.88 51.3254 10.88H49.9394V17.334H51.3254ZM67.7725 9.228L64.1885 19H61.8085L58.2245 9.228H60.3245L63.0125 16.998L65.6865 9.228H67.7725ZM75.9196 17.138H72.0276L71.3836 19H69.3256L72.8396 9.214H75.1216L78.6356 19H76.5636L75.9196 17.138ZM75.3876 15.57L73.9736 11.482L72.5596 15.57H75.3876ZM89.2871 19H87.3271L82.8891 12.294V19H80.9291V9.214H82.8891L87.3271 15.934V9.214H89.2871V19ZM98.854 9.228V10.81H96.25V19H94.29V10.81H91.686V9.228H98.854ZM107.256 17.138H103.364L102.72 19H100.662L104.176 9.214H106.458L109.972 19H107.9L107.256 17.138ZM106.724 15.57L105.31 11.482L103.896 15.57H106.724ZM119.07 12.168C118.846 11.7573 118.538 11.4447 118.146 11.23C117.754 11.0153 117.296 10.908 116.774 10.908C116.195 10.908 115.682 11.0387 115.234 11.3C114.786 11.5613 114.436 11.9347 114.184 12.42C113.932 12.9053 113.806 13.4653 113.806 14.1C113.806 14.7533 113.932 15.3227 114.184 15.808C114.445 16.2933 114.804 16.6667 115.262 16.928C115.719 17.1893 116.251 17.32 116.858 17.32C117.604 17.32 118.216 17.124 118.692 16.732C119.168 16.3307 119.48 15.7753 119.63 15.066H116.27V13.568H121.562V15.276C121.431 15.9573 121.151 16.5873 120.722 17.166C120.292 17.7447 119.737 18.2113 119.056 18.566C118.384 18.9113 117.628 19.084 116.788 19.084C115.845 19.084 114.991 18.874 114.226 18.454C113.47 18.0247 112.872 17.432 112.434 16.676C112.004 15.92 111.79 15.0613 111.79 14.1C111.79 13.1387 112.004 12.28 112.434 11.524C112.872 10.7587 113.47 10.166 114.226 9.746C114.991 9.31667 115.84 9.102 116.774 9.102C117.875 9.102 118.832 9.37267 119.644 9.914C120.456 10.446 121.016 11.1973 121.324 12.168H119.07ZM125.952 10.81V13.26H129.242V14.814H125.952V17.404H129.662V19H123.992V9.214H129.662V10.81H125.952ZM135.797 19.098C135.116 19.098 134.5 18.9813 133.949 18.748C133.408 18.5147 132.978 18.1787 132.661 17.74C132.344 17.3013 132.18 16.7833 132.171 16.186H134.271C134.299 16.5873 134.439 16.9047 134.691 17.138C134.952 17.3713 135.307 17.488 135.755 17.488C136.212 17.488 136.572 17.3807 136.833 17.166C137.094 16.942 137.225 16.6527 137.225 16.298C137.225 16.0087 137.136 15.7707 136.959 15.584C136.782 15.3973 136.558 15.2527 136.287 15.15C136.026 15.038 135.662 14.9167 135.195 14.786C134.56 14.5993 134.042 14.4173 133.641 14.24C133.249 14.0533 132.908 13.778 132.619 13.414C132.339 13.0407 132.199 12.546 132.199 11.93C132.199 11.3513 132.344 10.8473 132.633 10.418C132.922 9.98867 133.328 9.662 133.851 9.438C134.374 9.20467 134.971 9.088 135.643 9.088C136.651 9.088 137.468 9.33533 138.093 9.83C138.728 10.3153 139.078 10.9967 139.143 11.874H136.987C136.968 11.538 136.824 11.2627 136.553 11.048C136.292 10.824 135.942 10.712 135.503 10.712C135.12 10.712 134.812 10.81 134.579 11.006C134.355 11.202 134.243 11.4867 134.243 11.86C134.243 12.1213 134.327 12.3407 134.495 12.518C134.672 12.686 134.887 12.826 135.139 12.938C135.4 13.0407 135.764 13.162 136.231 13.302C136.866 13.4887 137.384 13.6753 137.785 13.862C138.186 14.0487 138.532 14.3287 138.821 14.702C139.11 15.0753 139.255 15.5653 139.255 16.172C139.255 16.6947 139.12 17.18 138.849 17.628C138.578 18.076 138.182 18.4353 137.659 18.706C137.136 18.9673 136.516 19.098 135.797 19.098Z" fill="#0E1629"/>
</svg>
