<svg width="20" height="20" viewBox="0 0 20 20" fill="none" xmlns="http://www.w3.org/2000/svg">
<g clip-path="url(#clip0_8684_13381)">
<path d="M7.5 9.16406C7.5 9.8271 7.76339 10.463 8.23223 10.9318C8.70107 11.4007 9.33696 11.6641 10 11.6641C10.663 11.6641 11.2989 11.4007 11.7678 10.9318C12.2366 10.463 12.5 9.8271 12.5 9.16406C12.5 8.50102 12.2366 7.86514 11.7678 7.3963C11.2989 6.92745 10.663 6.66406 10 6.66406C9.33696 6.66406 8.70107 6.92745 8.23223 7.3963C7.76339 7.86514 7.5 8.50102 7.5 9.16406Z" stroke="#4471FF" stroke-width="1.5" stroke-linecap="round" stroke-linejoin="round"/>
<path d="M14.7129 13.8806L11.177 17.4164C10.8645 17.7286 10.4409 17.904 9.99912 17.904C9.55738 17.904 9.13371 17.7286 8.8212 17.4164L5.28453 13.8806C4.35222 12.9482 3.71731 11.7603 3.46011 10.4671C3.2029 9.17395 3.33494 7.83352 3.83954 6.61537C4.34413 5.39721 5.19861 4.35604 6.29494 3.62351C7.39126 2.89098 8.68017 2.5 9.9987 2.5C11.3172 2.5 12.6061 2.89098 13.7025 3.62351C14.7988 4.35604 15.6533 5.39721 16.1579 6.61537C16.6625 7.83352 16.7945 9.17395 16.5373 10.4671C16.2801 11.7603 15.6452 12.9482 14.7129 13.8806Z" stroke="#4471FF" stroke-width="1.5" stroke-linecap="round" stroke-linejoin="round"/>
</g>
<defs>
<clipPath id="clip0_8684_13381">
<rect width="20" height="20" fill="white"/>
</clipPath>
</defs>
</svg>
