<svg width="19" height="24" viewBox="0 0 19 24" fill="none" xmlns="http://www.w3.org/2000/svg">
<path d="M9.33333 11.6667C9.975 11.6667 10.5243 11.4382 10.9812 10.9812C11.4382 10.5243 11.6667 9.975 11.6667 9.33333C11.6667 8.69167 11.4382 8.14236 10.9812 7.68542C10.5243 7.22847 9.975 7 9.33333 7C8.69167 7 8.14236 7.22847 7.68542 7.68542C7.22847 8.14236 7 8.69167 7 9.33333C7 9.975 7.22847 10.5243 7.68542 10.9812C8.14236 11.4382 8.69167 11.6667 9.33333 11.6667ZM9.33333 23.3333C6.20278 20.6694 3.86458 18.1951 2.31875 15.9104C0.772917 13.6257 0 11.5111 0 9.56667C0 6.65 0.938194 4.32639 2.81458 2.59583C4.69097 0.865278 6.86389 0 9.33333 0C11.8028 0 13.9757 0.865278 15.8521 2.59583C17.7285 4.32639 18.6667 6.65 18.6667 9.56667C18.6667 11.5111 17.8937 13.6257 16.3479 15.9104C14.8021 18.1951 12.4639 20.6694 9.33333 23.3333Z" fill="#242645"/>
</svg>
