<svg width="43" height="49" viewBox="0 0 43 49" fill="none" xmlns="http://www.w3.org/2000/svg">
<path d="M36.065 0V31.654C36.065 31.654 26.1545 37.0989 22.461 49V28.3122C24.1048 27.783 25.2986 26.2856 25.2986 24.5C25.2986 22.7144 24.1048 21.215 22.461 20.6878V18.765C22.461 13.1183 24.7807 7.62048 29.152 3.77692C31.0177 2.13248 33.3094 0.72324 36.065 0ZM17.0718 24.5C17.0718 22.6302 18.3776 21.072 20.1394 20.6172V18.765C20.1394 13.1183 17.8197 7.62048 13.4484 3.77692C11.5826 2.13248 9.29099 0.72324 6.5354 0V31.654C6.5354 31.654 16.4459 37.0989 20.1394 49V28.3828C18.3776 27.928 17.0718 26.3698 17.0718 24.5ZM4.39172 32.5144C4.44971 22.7713 4.34373 13.0222 3.70382 3.29476C3.05392 13.1575 2.95393 23.0437 3.01592 32.9221L3.01992 33.3533L3.42786 33.5395C9.73692 36.3835 14.2482 42.0146 17.7617 47.7378C15.0241 41.5461 10.6668 35.6132 4.39172 32.5144ZM1.36017 34.2824C1.40216 32.0911 1.40017 29.8998 1.41216 27.7085C1.38617 20.6917 1.25219 13.673 0.704269 6.6738C-0.0036254 16.0054 -0.0776144 25.3702 0.0523662 34.7214L0.0623647 35.1898L0.4963 35.327C6.47741 37.2322 11.5407 41.4207 14.7602 46.7225C12.2405 41.0542 7.27329 36.454 1.36017 34.2824ZM38.9426 33.5395L39.3505 33.3533L39.3545 32.9221C39.4165 23.0418 39.3165 13.1575 38.6666 3.29476C38.0267 13.0222 37.9207 22.7713 37.9787 32.5144C31.7036 35.6112 27.3463 41.5461 24.6107 47.7358C28.1222 42.0146 32.6335 36.3835 38.9426 33.5395ZM41.6662 6.67184C41.1182 13.671 40.9843 20.6917 40.9583 27.7066C40.9683 29.8978 40.9683 32.0891 41.0103 34.2804C35.0971 36.454 30.1299 41.0522 27.6103 46.7186C30.8318 41.4168 35.893 37.2282 41.8741 35.3231L42.3081 35.1859L42.3181 34.7175C42.45 25.3683 42.3741 16.0034 41.6662 6.67184Z" fill="#FA660F"/>
</svg>
