<svg width="79" height="81" viewBox="0 0 79 81" fill="none" xmlns="http://www.w3.org/2000/svg">
<path d="M67.1652 0V51.8867C67.1652 51.8867 48.7085 60.8119 41.8301 80.32V46.4089C44.8913 45.5414 47.1146 43.0869 47.1146 40.16C47.1146 37.2331 44.8913 34.7753 41.8301 33.9111V30.7593C41.8301 21.5033 46.1501 12.4914 54.291 6.19107C57.7656 3.49553 62.0334 1.18552 67.1652 0ZM31.7937 40.16C31.7937 37.095 34.2255 34.5408 37.5064 33.7954V30.7593C37.5064 21.5033 33.1865 12.4914 25.0456 6.19107C21.571 3.49553 17.3032 1.18552 12.1714 0V51.8867C12.1714 51.8867 30.628 60.8119 37.5064 80.32V46.5246C34.2255 45.7792 31.7937 43.225 31.7937 40.16ZM8.17913 53.2971C8.28712 37.3263 8.08975 21.3458 6.89803 5.40072C5.6877 21.5675 5.5015 37.7729 5.61694 53.9654L5.62439 54.6722L6.38411 54.9774C18.1337 59.6392 26.5352 68.8696 33.0785 78.251C27.9802 68.1017 19.8654 58.3766 8.17913 53.2971ZM2.53339 56.1951C2.61159 52.6032 2.60787 49.0113 2.63021 45.4194C2.5818 33.9175 2.33228 22.4125 1.31188 10.9396C-0.00645331 26.2357 -0.144245 41.5865 0.0978216 56.9147L0.116442 57.6826L0.924573 57.9075C12.0634 61.0303 21.4928 67.8961 27.4886 76.5867C22.7962 67.2953 13.5456 59.7549 2.53339 56.1951ZM72.5242 54.9774L73.2839 54.6722L73.2914 53.9654C73.4068 37.7697 73.2206 21.5675 72.0103 5.40072C70.8185 21.3458 70.6212 37.3263 70.7292 53.2971C59.0429 58.3734 50.9281 68.1017 45.8335 78.2477C52.3731 68.8696 60.7746 59.6392 72.5242 54.9774ZM77.5964 10.9364C76.576 22.4093 76.3265 33.9175 76.2781 45.4161C76.2967 49.0081 76.2967 52.6 76.3749 56.1919C65.3627 59.7549 56.1121 67.2921 51.4197 76.5803C57.4192 67.8897 66.8449 61.0239 77.9837 57.9011L78.7918 57.6762L78.8105 56.9083C79.0563 41.5833 78.9147 26.2325 77.5964 10.9364Z" fill="#FA660F"/>
</svg>
