<svg width="20" height="20" viewBox="0 0 20 20" fill="none" xmlns="http://www.w3.org/2000/svg">
<g clip-path="url(#clip0_3781_6841)">
<path d="M7.5 9.16699C7.5 9.83003 7.76339 10.4659 8.23223 10.9348C8.70107 11.4036 9.33696 11.667 10 11.667C10.663 11.667 11.2989 11.4036 11.7678 10.9348C12.2366 10.4659 12.5 9.83003 12.5 9.16699C12.5 8.50395 12.2366 7.86807 11.7678 7.39922C11.2989 6.93038 10.663 6.66699 10 6.66699C9.33696 6.66699 8.70107 6.93038 8.23223 7.39922C7.76339 7.86807 7.5 8.50395 7.5 9.16699Z" stroke="#718EBF" stroke-width="1.33333" stroke-linecap="round" stroke-linejoin="round"/>
<path d="M14.7141 13.8806L11.1783 17.4164C10.8658 17.7286 10.4421 17.904 10.0004 17.904C9.55866 17.904 9.13499 17.7286 8.82248 17.4164L5.28582 13.8806C4.3535 12.9482 3.7186 11.7603 3.46139 10.4671C3.20418 9.17394 3.33622 7.83352 3.84082 6.61536C4.34541 5.39721 5.1999 4.35604 6.29622 3.62351C7.39254 2.89098 8.68146 2.5 9.99998 2.5C11.3185 2.5 12.6074 2.89098 13.7037 3.62351C14.8001 4.35604 15.6546 5.39721 16.1591 6.61536C16.6637 7.83352 16.7958 9.17394 16.5386 10.4671C16.2814 11.7603 15.6465 12.9482 14.7141 13.8806Z" stroke="#718EBF" stroke-width="1.33333" stroke-linecap="round" stroke-linejoin="round"/>
</g>
<defs>
<clipPath id="clip0_3781_6841">
<rect width="20" height="20" fill="white"/>
</clipPath>
</defs>
</svg>
