<svg width="22" height="22" viewBox="0 0 22 22" fill="none" xmlns="http://www.w3.org/2000/svg">
<g clip-path="url(#clip0_4024_3296)">
<path d="M11.0004 8.45215C7.83402 8.45215 5.25824 11.0279 5.25824 14.1943C5.25824 15.2037 5.52429 16.1962 6.0271 17.0661H15.9738C16.4766 16.1962 16.7426 15.2037 16.7426 14.1943C16.7426 11.0279 14.1668 8.45215 11.0004 8.45215ZM11.0004 7.17611C11.3531 7.17611 11.6384 6.89074 11.6384 6.53809V5.26204C11.6384 4.90939 11.3531 4.62402 11.0004 4.62402C10.6478 4.62402 10.3624 4.90939 10.3624 5.26204V6.53809C10.3624 6.89074 10.6478 7.17611 11.0004 7.17611ZM3.34418 13.5563H2.06814C1.71548 13.5563 1.43011 13.8417 1.43011 14.1943C1.43011 14.547 1.71548 14.8324 2.06814 14.8324H3.34418C3.69683 14.8324 3.9822 14.547 3.9822 14.1943C3.9822 13.8417 3.69683 13.5563 3.34418 13.5563ZM19.9327 13.5563H18.6567C18.304 13.5563 18.0187 13.8417 18.0187 14.1943C18.0187 14.547 18.304 14.8324 18.6567 14.8324H19.9327C20.2854 14.8324 20.5707 14.547 20.5707 14.1943C20.5707 13.8417 20.2854 13.5563 19.9327 13.5563ZM19.2885 9.40918C19.1115 9.10327 18.7196 8.99795 18.4168 9.17554L17.3121 9.81356C17.0068 9.98991 16.9021 10.3799 17.0785 10.6852C17.2549 10.9908 17.6459 11.0946 17.9501 10.9189L19.0548 10.2808C19.3601 10.1045 19.4648 9.71449 19.2885 9.40918ZM14.5095 8.11629C14.8132 8.29171 15.2044 8.18877 15.3812 7.88265L16.0192 6.77794C16.1956 6.47263 16.0909 6.08258 15.7856 5.90628C15.4809 5.72869 15.0902 5.83401 14.9139 6.13992L14.2759 7.24463C14.0995 7.54994 14.2042 7.93999 14.5095 8.11629ZM6.61965 7.88265C6.79613 8.18822 7.18706 8.29205 7.49131 8.11629C7.79663 7.93995 7.9013 7.54994 7.72496 7.24463L7.08694 6.13992C6.90935 5.83401 6.51931 5.72869 6.21527 5.90628C5.90996 6.08262 5.80528 6.47263 5.98163 6.77794L6.61965 7.88265ZM4.68874 9.81356L3.58403 9.17554C3.27872 8.99795 2.88931 9.10327 2.71237 9.40918C2.53602 9.71449 2.6407 10.1045 2.94601 10.2808L4.05072 10.9189C4.35438 11.0943 4.74561 10.9913 4.92239 10.6852C5.09873 10.3799 4.99406 9.98986 4.68874 9.81356Z" fill="url(#paint0_linear_4024_3296)"/>
<path d="M21.2522 16.1084H0.750509C0.397853 16.1084 0.112488 16.3938 0.112488 16.7464C0.112488 17.0991 0.397853 17.3844 0.750509 17.3844H21.2522C21.6049 17.3844 21.8903 17.0991 21.8903 16.7464C21.8903 16.3938 21.6049 16.1084 21.2522 16.1084Z" fill="url(#paint1_linear_4024_3296)"/>
</g>
<defs>
<linearGradient id="paint0_linear_4024_3296" x1="11.0004" y1="17.0661" x2="11.0004" y2="4.62402" gradientUnits="userSpaceOnUse">
<stop stop-color="#FD5900"/>
<stop offset="1" stop-color="#FFDE00"/>
</linearGradient>
<linearGradient id="paint1_linear_4024_3296" x1="11.0014" y1="17.3844" x2="11.0014" y2="16.1084" gradientUnits="userSpaceOnUse">
<stop stop-color="#FFE59A"/>
<stop offset="1" stop-color="#FFFFD5"/>
</linearGradient>
<clipPath id="clip0_4024_3296">
<rect width="21.7778" height="21.7778" fill="white" transform="translate(0.111511 0.110352)"/>
</clipPath>
</defs>
</svg>
