<svg width="24" height="24" viewBox="0 0 24 24" fill="none" xmlns="http://www.w3.org/2000/svg">
<path d="M8 21C7.92625 21 7.8523 20.9839 7.78345 20.9507C7.6101 20.8675 7.5 20.6922 7.5 20.5V17.5C5.57005 17.5 4 15.9299 4 14V8.5C4 6.57005 5.57005 5 7.5 5H16.5C18.4299 5 20 6.57005 20 8.5V14C20 15.9299 18.4299 17.5 16.5 17.5H12.7259C12.6128 17.5 12.5017 17.5388 12.4136 17.6096L8.3123 20.8904C8.22195 20.9626 8.1113 21 8 21ZM7.5 6C6.1216 6 5 7.1216 5 8.5V14C5 15.3784 6.1216 16.5 7.5 16.5C8.0515 16.5 8.5 16.9485 8.5 17.5V19.4597L11.7888 16.8288C12.0537 16.6167 12.3864 16.5 12.7258 16.5H16.5C17.8784 16.5 19 15.3784 19 14V8.5C19 7.1216 17.8784 6 16.5 6H7.5Z" fill="#2F43F2"/>
</svg>
