<svg width="20" height="20" viewBox="0 0 20 20" fill="none" xmlns="http://www.w3.org/2000/svg">
<g clip-path="url(#clip0_8020_12436)">
<path d="M18 18L17.9996 3.87141H16.1278L16.1278 2H2V16.1282H3.87181V18H18ZM17.0637 4.80731L17.0641 17.0641H4.80775V16.1282H13.0615C13.8807 16.1282 14.6508 15.8092 15.23 15.2299C15.8092 14.6507 16.1282 13.8806 16.1281 13.0615L16.1279 4.80728L17.0637 4.80731ZM13.459 15.155C13.5587 14.9406 13.6147 14.702 13.6147 14.4504V13.6321H14.4798C14.7149 13.6321 14.9416 13.583 15.149 13.4905C15.0666 13.896 14.8675 14.2688 14.5682 14.5682C14.2611 14.8752 13.8767 15.0766 13.459 15.155ZM15.1919 2.9355L15.192 4.80731H2.93591V2.9355H15.1919ZM2.93591 5.74325H15.192L15.1921 11.9822C15.1854 12.1768 15.1105 12.3556 14.9786 12.4893C14.8471 12.6228 14.6699 12.6962 14.4798 12.6962H12.6788V14.4504C12.6788 14.8595 12.3462 15.1923 11.9374 15.1923H2.93591V5.74325Z" fill="#2F43F2"/>
<path d="M5.24414 7.28125H6.18011V8.21716H5.24414V7.28125Z" fill="#2F43F2"/>
<path d="M7.1875 7.28125H12.591V8.21716H7.1875V7.28125Z" fill="#2F43F2"/>
<path d="M5.24414 9.15625H6.18011V10.0922H5.24414V9.15625Z" fill="#2F43F2"/>
<path d="M7.1875 9.15625H12.591V10.0922H7.1875V9.15625Z" fill="#2F43F2"/>
<path d="M5.24414 11.0234H6.18011V11.9593H5.24414V11.0234Z" fill="#2F43F2"/>
<path d="M7.1875 11.0234H12.591V11.9593H7.1875V11.0234Z" fill="#2F43F2"/>
</g>
<defs>
<clipPath id="clip0_8020_12436">
<rect width="16" height="16" fill="white" transform="translate(2 2)"/>
</clipPath>
</defs>
</svg>
