<svg width="28" height="28" viewBox="0 0 28 28" fill="none" xmlns="http://www.w3.org/2000/svg">
<rect width="28" height="28" rx="8" fill="#3537B4"/>
<g clip-path="url(#clip0_3781_6468)">
<path d="M12.1845 19.8513C15.4356 19.8513 18.0711 17.2158 18.0711 13.9647C18.0711 10.7136 15.4356 8.07812 12.1845 8.07812C8.93343 8.07812 6.29791 10.7136 6.29791 13.9647C6.29791 17.2158 8.93343 19.8513 12.1845 19.8513Z" fill="#FF8522"/>
<path d="M12.1847 8.07812C11.9847 8.07812 11.787 8.08821 11.592 8.10773C14.5647 8.40496 16.8859 10.9137 16.8859 13.9648C16.8859 17.0158 14.5647 19.5246 11.592 19.8218C11.7869 19.8413 11.9847 19.8514 12.1847 19.8514C15.4358 19.8514 18.0713 17.2158 18.0713 13.9647C18.0713 10.7136 15.4358 8.07812 12.1847 8.07812Z" fill="#F47414"/>
<path d="M12.6133 14.7815C13.213 12.8537 15.0112 11.4541 17.1363 11.4541C19.7192 11.4541 21.8189 13.5218 21.8711 16.0921C23.5665 16.27 24.888 17.7038 24.888 19.4464C24.888 21.189 23.5664 22.6416 21.8708 22.8193H21.8723H12.8858C10.6636 22.8193 8.86218 21.0179 8.86218 18.7957C8.86218 16.6652 10.5182 14.9217 12.6133 14.7815Z" fill="#FFE9A1"/>
<path d="M21.8727 16.0931C21.8205 13.5227 19.7208 11.4551 17.1379 11.4551C16.2201 11.4551 15.3637 11.7166 14.6381 12.1685C15.1684 11.9631 15.7448 11.8502 16.3476 11.8502C18.8696 11.8502 20.9309 13.8216 21.0753 16.3074C21.0813 16.4114 21.1594 16.4956 21.2624 16.512C22.8704 16.7688 24.0993 18.1621 24.0993 19.8425C24.0993 21.0104 23.5052 22.0473 22.6032 22.6582C23.9328 22.2019 24.8896 20.9299 24.8896 19.4474C24.8896 17.7048 23.5681 16.271 21.8727 16.0931Z" fill="#FFDC78"/>
<path d="M12.8724 16.4274C12.3954 14.8943 10.9654 13.7812 9.27544 13.7812C7.2214 13.7812 5.55161 15.4256 5.5101 17.4696C4.16175 17.6111 3.11084 18.7513 3.11084 20.1371C3.11084 21.523 4.16187 22.6782 5.51031 22.8195H5.50908H12.6557C14.4229 22.8195 15.8555 21.3869 15.8555 19.6197C15.8555 17.9254 14.5385 16.5388 12.8724 16.4274Z" fill="#FFE9A1"/>
<path d="M12.8724 16.4274C12.3954 14.8943 10.9654 13.7812 9.2754 13.7812C8.51301 13.7812 7.80383 14.0081 7.21094 14.3975C7.60889 14.2545 8.03786 14.1764 8.48507 14.1764C10.1261 14.1764 11.522 15.2259 12.0382 16.6904C12.0662 16.7698 12.1374 16.8256 12.2211 16.8349C13.8208 17.0118 15.0651 18.3679 15.0651 20.0149C15.0651 21.1093 14.5153 22.075 13.6772 22.652C14.9432 22.2256 15.8554 21.0296 15.8554 19.6197C15.8554 17.9254 14.5384 16.5388 12.8724 16.4274Z" fill="#FFDC78"/>
<path d="M15.3058 5.84313C15.311 5.84257 15.8039 5.83079 16.1215 6.40501C16.2198 6.58897 16.5456 6.65316 16.6989 6.40501C17.0165 5.83079 17.5094 5.84262 17.5145 5.84313C17.6969 5.85372 17.8525 5.71488 17.8631 5.53296C17.8737 5.35104 17.7349 5.19494 17.553 5.18435C17.5221 5.18256 16.9142 5.15483 16.4102 5.68685C15.9061 5.15483 15.2983 5.18256 15.2674 5.18435C15.0855 5.19494 14.9466 5.35104 14.9572 5.53296C14.9679 5.71488 15.1235 5.85372 15.3058 5.84313Z" fill="white"/>
<path d="M19.6641 9.18785C19.6693 9.1873 20.1622 9.17552 20.4797 9.74974C20.5781 9.93374 20.9039 9.99788 21.0572 9.74974C21.3747 9.17552 21.8676 9.18734 21.8728 9.18785C22.0552 9.19844 22.2108 9.05961 22.2214 8.87769C22.232 8.69577 22.0931 8.53971 21.9112 8.52908C21.8804 8.52729 21.2725 8.49956 20.7685 9.03158C20.2644 8.49956 19.6566 8.52729 19.6257 8.52908C19.4438 8.53967 19.3049 8.69577 19.3155 8.87769C19.3261 9.05965 19.4817 9.19849 19.6641 9.18785Z" fill="white"/>
<path d="M3.94147 8.82947C3.94657 8.82891 4.43951 8.81713 4.75707 9.39135C4.85545 9.57531 5.18123 9.6395 5.33452 9.39135C5.65209 8.81713 6.14498 8.82896 6.15013 8.82947C6.33251 8.84006 6.48811 8.70122 6.49874 8.5193C6.50933 8.33738 6.3705 8.18128 6.18858 8.17069C6.1577 8.16886 5.54983 8.14117 5.0458 8.67319C4.54176 8.14117 3.9339 8.1689 3.90302 8.17069C3.7211 8.18128 3.58226 8.33738 3.59285 8.5193C3.60349 8.70122 3.75908 8.84006 3.94147 8.82947Z" fill="white"/>
</g>
<defs>
<clipPath id="clip0_3781_6468">
<rect width="21.7778" height="21.7778" fill="white" transform="translate(3.11108 3.11133)"/>
</clipPath>
</defs>
</svg>
