<svg width="42" height="42" viewBox="0 0 42 42" fill="none" xmlns="http://www.w3.org/2000/svg">
<rect width="42" height="42" rx="20" fill="#FBF2E2"/>
<path d="M30.4825 14.9731H11.517C11.0409 14.9731 10.6549 15.359 10.6549 15.8352V29.6283C10.6549 30.1044 11.0409 30.4903 11.517 30.4903H30.4825C30.9587 30.4903 31.3446 30.1044 31.3446 29.6283V15.8352C31.3446 15.359 30.9587 14.9731 30.4825 14.9731Z" stroke="#FFC107" stroke-width="1.37931" stroke-linecap="round" stroke-linejoin="round"/>
<path d="M25.3101 14.9731V13.2489C25.3101 12.7916 25.1285 12.3531 24.8051 12.0298C24.4818 11.7064 24.0432 11.5248 23.586 11.5248H18.4136C17.9563 11.5248 17.5178 11.7064 17.1944 12.0298C16.8711 12.3531 16.6894 12.7916 16.6894 13.2489V14.9731" stroke="#FFC107" stroke-width="1.37931" stroke-linecap="round" stroke-linejoin="round"/>
<path d="M31.3446 20.8244C28.2005 22.6427 24.6318 23.5981 20.9998 23.5938C17.3671 23.6032 13.797 22.6475 10.6549 20.8244" stroke="#FFC107" stroke-width="1.37931" stroke-linecap="round" stroke-linejoin="round"/>
<path d="M19.7067 20.1455H22.2929" stroke="#FFC107" stroke-width="1.37931" stroke-linecap="round" stroke-linejoin="round"/>
</svg>
