<svg width="20" height="20" viewBox="0 0 20 20" fill="none" xmlns="http://www.w3.org/2000/svg">
<g clip-path="url(#clip0_6956_18057)">
<path d="M14.1671 2.78845C15.434 3.51986 16.486 4.57185 17.2174 5.83869C17.9488 7.10552 18.3338 8.54257 18.3338 10.0054C18.3338 11.4682 17.9487 12.9052 17.2173 14.1721C16.4859 15.4389 15.4339 16.4909 14.1671 17.2223C12.9002 17.9537 11.4632 18.3387 10.0003 18.3387C8.53753 18.3386 7.10049 17.9536 5.83367 17.2221C4.56685 16.4907 3.51489 15.4387 2.78351 14.1718C2.05213 12.905 1.66711 11.4679 1.66714 10.0051L1.67131 9.73512C1.71798 8.29594 2.13677 6.89342 2.88684 5.66428C3.63692 4.43514 4.69269 3.42133 5.95122 2.72169C7.20975 2.02205 8.6281 1.66045 10.068 1.67215C11.5079 1.68385 12.9201 2.06845 14.1671 2.78845ZM12.5005 5.83845H7.50048C6.42798 5.83845 6.39048 7.39179 7.38964 7.49929L7.50048 7.50512H8.33381C8.62637 7.50513 8.91376 7.58214 9.16712 7.72842C9.42048 7.8747 9.63087 8.08509 9.77714 8.33845H7.50048C7.27946 8.33845 7.0675 8.42625 6.91122 8.58253C6.75494 8.73881 6.66714 8.95077 6.66714 9.17179C6.66714 9.3928 6.75494 9.60476 6.91122 9.76104C7.0675 9.91732 7.27946 10.0051 7.50048 10.0051L9.77714 10.006C9.63076 10.2592 9.42033 10.4694 9.16698 10.6155C8.91363 10.7616 8.62628 10.8385 8.33381 10.8385H7.50048C6.75881 10.8385 6.38631 11.736 6.91131 12.261L9.41131 14.761C9.56758 14.9172 9.77951 15.0049 10.0005 15.0049C10.2214 15.0049 10.4334 14.9172 10.5896 14.761L10.6588 14.6826C10.7832 14.5223 10.8448 14.3221 10.8321 14.1196C10.8193 13.917 10.7331 13.7261 10.5896 13.5826L9.35298 12.3451L9.44714 12.3143C9.96141 12.1315 10.4231 11.8256 10.7918 11.4232C11.1605 11.0208 11.425 10.5342 11.5621 10.006L12.5005 10.0051C12.7215 10.0051 12.9335 9.91732 13.0897 9.76104C13.246 9.60476 13.3338 9.3928 13.3338 9.17179C13.3338 8.95077 13.246 8.73881 13.0897 8.58253C12.9335 8.42625 12.7215 8.33845 12.5005 8.33845H11.5621C11.4983 8.09114 11.406 7.85205 11.2871 7.62595L11.2213 7.50512H12.5005C12.7215 7.50512 12.9335 7.41732 13.0897 7.26104C13.246 7.10476 13.3338 6.8928 13.3338 6.67179L13.328 6.57429C13.3041 6.37158 13.2067 6.18468 13.0541 6.04905C12.9016 5.91342 12.7046 5.83848 12.5005 5.83845Z" fill="#EF7F21"/>
</g>
<defs>
<clipPath id="clip0_6956_18057">
<rect width="20" height="20" fill="white"/>
</clipPath>
</defs>
</svg>
