<svg width="22" height="18" viewBox="0 0 22 18" fill="none" xmlns="http://www.w3.org/2000/svg">
<path d="M1.00049 9.00391C1.00049 5.23291 1.00049 3.34691 2.17249 2.17591C3.34449 1.00491 5.22949 1.00391 9.00049 1.00391H13.0005C16.7715 1.00391 18.6575 1.00391 19.8285 2.17591C20.9995 3.34791 21.0005 5.23291 21.0005 9.00391C21.0005 12.7749 21.0005 14.6609 19.8285 15.8319C18.6565 17.0029 16.7715 17.0039 13.0005 17.0039H9.00049C5.22949 17.0039 3.34349 17.0039 2.17249 15.8319C1.00149 14.6599 1.00049 12.7749 1.00049 9.00391Z" stroke="black" stroke-width="1.0625"/>
<path d="M9.00049 13.0039H5.00049M13.0005 13.0039H11.5005M1.00049 7.00391H21.0005" stroke="black" stroke-width="1.0625" stroke-linecap="round"/>
</svg>
