<svg width="28" height="28" viewBox="0 0 28 28" fill="none" xmlns="http://www.w3.org/2000/svg">
<circle cx="14" cy="14" r="14" fill="#E8F7E8"/>
<g clip-path="url(#clip0_4750_3528)">
<path fill-rule="evenodd" clip-rule="evenodd" d="M14 4.8125C19.0743 4.8125 23.1875 8.9257 23.1875 14C23.1875 19.0743 19.0743 23.1875 14 23.1875C8.9257 23.1875 4.8125 19.0743 4.8125 14C4.8125 8.9257 8.9257 4.8125 14 4.8125Z" fill="#3AAF3C"/>
<path d="M10.4845 13.2566C11.1905 13.6632 11.6495 14.0013 12.1968 14.6042C13.6155 12.3206 15.1555 11.0552 17.158 9.25932L17.3536 9.18359H19.545C16.6068 12.447 14.3289 15.1375 12.289 19.072C11.2271 16.8017 10.2807 15.2344 8.16327 13.7809L10.4845 13.2566Z" fill="white"/>
</g>
<defs>
<clipPath id="clip0_4750_3528">
<rect width="21" height="21" fill="white" transform="translate(3.5 3.5)"/>
</clipPath>
</defs>
</svg>
