<svg width="35" height="35" viewBox="0 0 35 35" fill="none" xmlns="http://www.w3.org/2000/svg">
<circle cx="17.5" cy="17.5" r="17.5" fill="#28A745" fill-opacity="0.15"/>
<path d="M25 18C25 19.0417 24.8021 20.0174 24.4062 20.9271C24.0104 21.8368 23.4757 22.6285 22.8021 23.3021C22.1285 23.9757 21.3368 24.5104 20.4271 24.9062C19.5174 25.3021 18.5417 25.5 17.5 25.5C16.4583 25.5 15.4826 25.3021 14.5729 24.9062C13.6632 24.5104 12.8715 23.9757 12.1979 23.3021C11.5243 22.6285 10.9896 21.8368 10.5938 20.9271C10.1979 20.0174 10 19.0417 10 18H11.6667C11.6667 19.625 12.2326 21.0035 13.3646 22.1354C14.4965 23.2674 15.875 23.8333 17.5 23.8333C19.125 23.8333 20.5035 23.2674 21.6354 22.1354C22.7674 21.0035 23.3333 19.625 23.3333 18H25ZM21.6667 14.6667L20.4792 15.8333L18.3333 13.6875V20.5H16.6667V13.6875L14.5 15.8333L13.3333 14.6667L17.5 10.5L21.6667 14.6667Z" fill="#28A745"/>
</svg>
