<svg width="28" height="28" viewBox="0 0 28 28" fill="none" xmlns="http://www.w3.org/2000/svg">
<g clip-path="url(#clip0_6956_18095)">
<path d="M8.14556 2H16.1758L22.9733 9.09195V22.8779C22.9733 24.6023 21.5756 26 19.8512 26H8.14556C6.4211 26 5.02344 24.6023 5.02344 22.8779V5.12212C5.02344 3.39769 6.4211 2 8.14556 2Z" fill="#13097D"/>
<path opacity="0.302" fill-rule="evenodd" clip-rule="evenodd" d="M16.1641 2V9.0337H22.9713L16.1641 2Z" fill="white"/>
<path d="M7.92188 19.1277V15.1547H9.32927C9.61074 15.1547 9.87283 15.1967 10.1155 15.2744C10.3581 15.3553 10.5781 15.4717 10.7755 15.6271C10.9729 15.7824 11.1282 15.9894 11.2414 16.2483C11.3546 16.5071 11.4129 16.8047 11.4129 17.1412C11.4129 17.4777 11.3546 17.7753 11.2414 18.0341C11.1282 18.293 10.9729 18.5 10.7755 18.6553C10.5782 18.8106 10.3581 18.9271 10.1155 19.008C9.87283 19.0857 9.61077 19.1277 9.32927 19.1277H7.92188ZM8.91514 18.2639H9.20955C9.36808 18.2639 9.51691 18.2445 9.64955 18.2089C9.78543 18.1701 9.90837 18.1086 10.0248 18.0277C10.1413 17.9468 10.2319 17.8303 10.2966 17.6783C10.3646 17.5294 10.3969 17.3483 10.3969 17.1412C10.3969 16.9341 10.3645 16.753 10.2966 16.6009C10.2319 16.4521 10.1413 16.3356 10.0248 16.2547C9.90837 16.1706 9.78543 16.1124 9.64955 16.0735C9.51691 16.0379 9.36808 16.0185 9.20955 16.0185H8.91514V18.2639ZM13.8232 19.173C13.2247 19.173 12.7297 18.9789 12.3382 18.5939C11.9467 18.2089 11.7526 17.7236 11.7526 17.1412C11.7526 16.5589 11.9467 16.0736 12.3382 15.6886C12.7297 15.3035 13.2247 15.1094 13.8232 15.1094C14.412 15.1094 14.9006 15.3036 15.2921 15.6886C15.6803 16.0736 15.8744 16.5589 15.8744 17.1412C15.8744 17.7236 15.6803 18.2089 15.2921 18.5939C14.9006 18.9789 14.412 19.173 13.8232 19.173ZM13.0597 17.9792C13.257 18.1992 13.5094 18.3092 13.8167 18.3092C14.1241 18.3092 14.3732 18.1992 14.5706 17.9792C14.7679 17.7559 14.865 17.4777 14.865 17.1412C14.865 16.8047 14.7679 16.5265 14.5706 16.3032C14.3732 16.0832 14.1241 15.9732 13.8167 15.9732C13.5094 15.9732 13.257 16.0832 13.0597 16.3032C12.8623 16.5265 12.762 16.8047 12.762 17.1412C12.762 17.4777 12.8623 17.7559 13.0597 17.9792ZM18.2363 19.173C17.6571 19.173 17.175 18.9918 16.7933 18.636C16.4083 18.2768 16.2174 17.7786 16.2174 17.1412C16.2174 16.5071 16.4115 16.0088 16.7998 15.6497C17.1913 15.2906 17.6669 15.1094 18.2363 15.1094C18.7507 15.1094 19.1713 15.2356 19.5046 15.4912C19.8346 15.7435 20.0255 16.08 20.074 16.5006L19.071 16.7044C19.029 16.4844 18.9286 16.3065 18.7734 16.1738C18.6181 16.0411 18.4369 15.9732 18.2298 15.9732C17.9451 15.9732 17.7089 16.0735 17.518 16.2773C17.3271 16.4844 17.23 16.7691 17.23 17.1412C17.23 17.5132 17.3271 17.798 17.5148 18.0018C17.7056 18.2088 17.9418 18.3092 18.2298 18.3092C18.4368 18.3092 18.6148 18.2509 18.7604 18.1345C18.906 18.018 18.9966 17.8627 19.0354 17.6686L20.061 17.9015C19.9672 18.3027 19.7601 18.6133 19.4366 18.8365C19.1163 19.0598 18.7151 19.173 18.2363 19.173Z" fill="white"/>
</g>
<defs>
<clipPath id="clip0_6956_18095">
<rect width="28" height="28" fill="white"/>
</clipPath>
</defs>
</svg>
