<svg width="18" height="15" viewBox="0 0 18 15" fill="none" xmlns="http://www.w3.org/2000/svg">
<path d="M13.9801 13.675C13.8197 13.8905 13.6115 14.0659 13.3718 14.1874C13.1321 14.3088 12.8676 14.3731 12.5989 14.375H4.89888C4.6302 14.3731 4.36562 14.3088 4.12596 14.1874C3.88629 14.0659 3.67806 13.8905 3.51763 13.675C3.3373 13.4377 3.21417 13.1619 3.1578 12.8693C3.10143 12.5766 3.11335 12.2748 3.19263 11.9875C3.49993 10.7345 4.20991 9.6169 5.2136 8.80627C6.21729 7.99564 7.45924 7.53675 8.74887 7.5C10.0385 7.53675 11.2805 7.99564 12.2842 8.80627C13.2878 9.6169 13.9978 10.7345 14.3051 11.9875C14.3844 12.2748 14.3963 12.5766 14.34 12.8693C14.2836 13.1619 14.1604 13.4377 13.9801 13.675ZM1.98638 11.6562C2.26013 10.6435 2.74111 9.69855 3.39888 8.88125C2.58254 9.10813 1.84187 9.54952 1.25385 10.1595C0.665824 10.7695 0.25191 11.5259 0.0551259 12.35C-0.00966398 12.5977 -0.0174535 12.8569 0.0323429 13.108C0.0821394 13.3592 0.188226 13.5958 0.342626 13.8C0.47655 13.977 0.649314 14.1209 0.84761 14.2206C1.04591 14.3202 1.26444 14.3731 1.48638 14.375H2.49888C2.21467 13.9895 2.02101 13.5448 1.93228 13.0741C1.84355 12.6034 1.86204 12.1188 1.98638 11.6562ZM17.1551 13.8C17.0212 13.977 16.8484 14.1209 16.6501 14.2206C16.4518 14.3202 16.2333 14.3731 16.0114 14.375H14.9989C15.281 13.9884 15.4724 13.5433 15.5589 13.0726C15.6455 12.602 15.625 12.1179 15.4989 11.6562C15.2251 10.6435 14.7441 9.69855 14.0864 8.88125C14.9027 9.10813 15.6434 9.54952 16.2314 10.1595C16.8194 10.7695 17.2333 11.5259 17.4301 12.35C17.4967 12.5968 17.5065 12.8554 17.4589 13.1065C17.4112 13.3576 17.3074 13.5947 17.1551 13.8ZM8.74887 0C8.13081 0 7.52662 0.183278 7.01272 0.526657C6.49881 0.870037 6.09828 1.3581 5.86175 1.92911C5.62523 2.50013 5.56334 3.12847 5.68392 3.73466C5.8045 4.34085 6.10213 4.89767 6.53917 5.33471C6.97621 5.77175 7.53303 6.06938 8.13922 6.18995C8.74541 6.31053 9.37374 6.24865 9.94476 6.01212C10.5158 5.7756 11.0038 5.37506 11.3472 4.86116C11.6906 4.34725 11.8739 3.74307 11.8739 3.125C11.8739 2.2962 11.5446 1.50134 10.9586 0.915291C10.3725 0.32924 9.57768 0 8.74887 0ZM13.7489 4.375C13.378 4.375 13.0155 4.48497 12.7072 4.69099C12.3988 4.89702 12.1585 5.18986 12.0166 5.53247C11.8747 5.87508 11.8376 6.25208 11.9099 6.61579C11.9822 6.97951 12.1608 7.3136 12.423 7.57583C12.6853 7.83805 13.0194 8.01663 13.3831 8.08897C13.7468 8.16132 14.1238 8.12419 14.4664 7.98227C14.809 7.84036 15.1019 7.60004 15.3079 7.29169C15.5139 6.98335 15.6239 6.62084 15.6239 6.25C15.6239 5.75272 15.4263 5.27581 15.0747 4.92417C14.7231 4.57254 14.2462 4.375 13.7489 4.375ZM3.74888 4.375C3.37804 4.375 3.01552 4.48497 2.70718 4.69099C2.39884 4.89702 2.15852 5.18986 2.0166 5.53247C1.87469 5.87508 1.83756 6.25208 1.9099 6.61579C1.98225 6.97951 2.16083 7.3136 2.42305 7.57583C2.68527 7.83805 3.01937 8.01663 3.38308 8.08897C3.7468 8.16132 4.1238 8.12419 4.46641 7.98227C4.80902 7.84036 5.10185 7.60004 5.30788 7.29169C5.51391 6.98335 5.62388 6.62084 5.62388 6.25C5.62388 5.75272 5.42633 5.27581 5.0747 4.92417C4.72307 4.57254 4.24616 4.375 3.74888 4.375Z" fill="#226CBD"/>
</svg>
