<svg width="38" height="38" viewBox="0 0 38 38" fill="none" xmlns="http://www.w3.org/2000/svg">
<g filter="url(#filter0_d_3781_6793)">
<circle cx="19" cy="19" r="14" fill="#13097D"/>
</g>
<path d="M20.7336 12C23.4607 12.3028 25.6152 14.4544 25.921 17.1815" stroke="white" stroke-width="1.10526" stroke-linecap="round" stroke-linejoin="round"/>
<path d="M20.7336 14.6113C22.0386 14.8648 23.0584 15.8853 23.3126 17.1903" stroke="white" stroke-width="1.10526" stroke-linecap="round" stroke-linejoin="round"/>
<path fill-rule="evenodd" clip-rule="evenodd" d="M18.2862 19.3481C21.2255 22.2866 21.8923 18.8871 23.7637 20.7572C25.5679 22.561 26.6057 22.9224 24.319 25.2077C24.0326 25.4378 22.2134 28.2063 15.82 21.8145C9.42574 15.4219 12.1926 13.6007 12.4227 13.3145C14.7142 11.0228 15.0701 12.0659 16.8743 13.8696C18.745 15.7406 15.347 16.4096 18.2862 19.3481Z" stroke="white" stroke-width="1.10526" stroke-linecap="round" stroke-linejoin="round"/>
<defs>
<filter id="filter0_d_3781_6793" x="0.333333" y="0.333333" width="37.3333" height="37.3333" filterUnits="userSpaceOnUse" color-interpolation-filters="sRGB">
<feFlood flood-opacity="0" result="BackgroundImageFix"/>
<feColorMatrix in="SourceAlpha" type="matrix" values="0 0 0 0 0 0 0 0 0 0 0 0 0 0 0 0 0 0 127 0" result="hardAlpha"/>
<feOffset/>
<feGaussianBlur stdDeviation="2.33333"/>
<feComposite in2="hardAlpha" operator="out"/>
<feColorMatrix type="matrix" values="0 0 0 0 0.137255 0 0 0 0 0.137255 0 0 0 0 0.137255 0 0 0 0.15 0"/>
<feBlend mode="normal" in2="BackgroundImageFix" result="effect1_dropShadow_3781_6793"/>
<feBlend mode="normal" in="SourceGraphic" in2="effect1_dropShadow_3781_6793" result="shape"/>
</filter>
</defs>
</svg>
