<svg width="24" height="24" viewBox="0 0 24 24" fill="none" xmlns="http://www.w3.org/2000/svg">
<g clip-path="url(#clip0_4750_2926)">
<path d="M12.1397 0.701923C12.685 0.929118 12.9103 1.93086 13.1227 2.4345C13.2411 2.71505 13.36 2.99537 13.4789 3.27565C13.4973 3.31893 13.4973 3.31893 13.516 3.36307C13.7043 3.80661 13.895 4.24901 14.0876 4.69069C14.1 4.71922 14.1124 4.74774 14.1252 4.77712C14.257 5.07946 14.3891 5.38164 14.5215 5.68366C14.5648 5.78278 14.6081 5.88191 14.6514 5.98104C14.671 6.02565 14.6907 6.07027 14.711 6.11624C14.7382 6.17869 14.7382 6.17869 14.766 6.24241C14.7816 6.27818 14.7973 6.31395 14.8135 6.35081C14.8697 6.49663 14.9109 6.64505 14.9522 6.79567C14.9842 6.79795 15.0162 6.80023 15.0492 6.80258C15.8426 6.85944 16.635 6.9237 17.4271 6.99617C17.4808 7.00108 17.5346 7.00599 17.59 7.01105C17.8727 7.0369 18.1555 7.06291 18.4382 7.08904C18.6705 7.11048 18.9029 7.1316 19.1353 7.15244C19.4192 7.1779 19.703 7.20389 19.9868 7.23027C20.094 7.24015 20.2013 7.24985 20.3086 7.25936C20.4577 7.27262 20.6068 7.28656 20.7559 7.30067C20.8215 7.30626 20.8215 7.30626 20.8884 7.31197C21.1392 7.33656 21.3384 7.37919 21.5616 7.4988C21.69 7.68514 21.7349 7.83683 21.7022 8.0613C21.5157 8.4427 21.1234 8.70316 20.7999 8.96364C20.562 9.15578 20.34 9.36125 20.1176 9.57067C19.9154 9.76 19.7054 9.93579 19.4892 10.109C19.2817 10.2813 19.0862 10.4662 18.889 10.65C18.6725 10.8518 18.4487 11.0446 18.2236 11.2365C18.1673 11.2846 18.111 11.3326 18.0547 11.3806C18.0123 11.4169 18.0123 11.4169 17.9691 11.4538C17.7471 11.644 17.5298 11.8385 17.3159 12.0378C17.2153 12.1277 17.1123 12.2043 17.003 12.283C16.9294 12.3421 16.9294 12.3421 16.8741 12.4207C16.8651 12.5127 16.8651 12.5127 16.8834 12.6119C16.8889 12.6494 16.8944 12.6869 16.9001 12.7255C16.9342 12.9169 16.9739 13.1063 17.0172 13.2958C17.0318 13.3606 17.0318 13.3606 17.0466 13.4267C17.0785 13.5686 17.1107 13.7105 17.1429 13.8524C17.1654 13.9523 17.1879 14.0522 17.2104 14.1521C17.2696 14.4151 17.329 14.678 17.3886 14.9409C17.4483 15.205 17.5078 15.4692 17.5673 15.7333C17.6451 16.0783 17.7229 16.4233 17.8009 16.7682C17.8212 16.8581 17.8415 16.9479 17.8617 17.0378C17.9129 17.2651 17.9653 17.4921 18.0197 17.7187C18.0306 17.7648 18.0415 17.811 18.0528 17.8585C18.0734 17.9455 18.0944 18.0325 18.1158 18.1193C18.2657 18.7566 18.2657 18.7566 18.1046 19.0271C17.9837 19.1379 17.8851 19.2099 17.7195 19.2272C17.3819 19.199 17.1435 19.0454 16.8624 18.866C16.7585 18.8016 16.6545 18.7374 16.5505 18.6732C16.5236 18.6564 16.4967 18.6397 16.469 18.6224C16.186 18.4466 15.8986 18.2787 15.6107 18.1111C15.4658 18.0267 15.3211 17.942 15.1763 17.8573C15.1486 17.841 15.1209 17.8248 15.0924 17.8081C14.8243 17.651 14.5579 17.4914 14.2918 17.331C14.0429 17.181 13.7932 17.0321 13.5432 16.8839C13.4931 16.8541 13.4931 16.8541 13.4419 16.8238C13.2745 16.7245 13.107 16.6253 12.9395 16.5262C12.9083 16.5077 12.8771 16.4892 12.8449 16.4701C12.7842 16.4341 12.7235 16.3983 12.6627 16.3626C12.5053 16.2697 12.3536 16.1719 12.2034 16.068C12.0579 15.9659 12.0579 15.9659 11.9364 16.0148C11.7983 16.0835 11.6655 16.1574 11.5325 16.2357C11.5059 16.2513 11.4793 16.2669 11.4518 16.283C11.3646 16.3343 11.2775 16.3858 11.1905 16.4373C11.1291 16.4734 11.0678 16.5095 11.0064 16.5457C10.5775 16.7984 10.1505 17.0541 9.72419 17.311C9.31761 17.5556 8.90851 17.7957 8.49882 18.0351C8.13089 18.2501 7.7643 18.4671 7.39948 18.6873C7.26093 18.7705 7.12223 18.8535 6.98346 18.9363C6.94163 18.9614 6.94163 18.9614 6.89896 18.987C6.82791 19.0294 6.7563 19.0708 6.68463 19.1121C6.63043 19.1436 6.63043 19.1436 6.57513 19.1758C6.43805 19.2291 6.33255 19.2303 6.18658 19.2175C6.01512 19.1219 5.92083 19.0533 5.81158 18.8894C5.78613 18.5403 5.8528 18.2287 5.93207 17.8898C5.94487 17.8334 5.95767 17.7771 5.97086 17.719C5.99859 17.5971 6.02648 17.4754 6.05465 17.3537C6.09923 17.1611 6.14314 16.9684 6.18697 16.7756C6.25636 16.4709 6.32616 16.1662 6.39615 15.8616C6.52158 15.3158 6.64656 14.7698 6.77098 14.2237C6.81463 14.0322 6.85855 13.8408 6.90269 13.6494C6.93652 13.5025 6.97003 13.3555 7.0036 13.2085C7.01587 13.1557 7.02815 13.1028 7.04079 13.0484C7.05184 12.9998 7.06288 12.9512 7.07426 12.9011C7.08394 12.859 7.09361 12.8169 7.10359 12.7735C7.12481 12.6508 7.13572 12.5447 7.12408 12.4207C7.03554 12.3199 6.95249 12.2377 6.85162 12.1511C6.82385 12.1264 6.79609 12.1017 6.76748 12.0762C6.56144 11.8943 6.34845 11.7212 6.13403 11.5493C5.94458 11.3907 5.76613 11.2212 5.5863 11.0519C5.38414 10.8626 5.17416 10.6868 4.95795 10.5136C4.75046 10.3413 4.55496 10.1564 4.35773 9.97255C4.14126 9.77078 3.91748 9.57803 3.69232 9.38607C3.63604 9.33804 3.57976 9.29001 3.5235 9.24196C3.49525 9.21785 3.46701 9.19374 3.43791 9.16889C3.21484 8.97774 2.99716 8.78156 2.78101 8.5826C2.69073 8.50103 2.59924 8.42394 2.50397 8.34841C2.36797 8.22984 2.30154 8.1413 2.28882 7.95894C2.29214 7.92408 2.29547 7.88921 2.29889 7.85329C2.30137 7.81855 2.30384 7.7838 2.3064 7.748C2.35967 7.58926 2.45165 7.5138 2.57721 7.40505C2.69879 7.36594 2.69879 7.36594 2.84023 7.35115C2.92766 7.34141 2.92766 7.34141 3.01686 7.33148C3.08905 7.3247 3.16125 7.31798 3.23346 7.3113C3.32435 7.30218 3.41524 7.29301 3.50613 7.28382C3.84044 7.25061 4.17497 7.21996 4.50952 7.18935C4.63309 7.17793 4.75665 7.16651 4.88021 7.15507C5.13791 7.13124 5.39561 7.10754 5.65332 7.08393C5.95082 7.05666 6.2483 7.02921 6.54577 7.00164C6.83324 6.97501 7.12072 6.9485 7.4082 6.92205C7.53007 6.91083 7.65195 6.89958 7.77382 6.8883C7.94365 6.8726 8.11349 6.85704 8.28334 6.84152C8.33362 6.83684 8.38391 6.83217 8.43572 6.82735C8.48203 6.82315 8.52834 6.81895 8.57605 6.81462C8.63615 6.8091 8.63615 6.8091 8.69746 6.80346C8.814 6.79551 8.92919 6.79432 9.04596 6.79567C9.05415 6.76986 9.06234 6.74405 9.07078 6.71745C9.15324 6.46316 9.24822 6.21841 9.35559 5.97371C9.37211 5.93565 9.38863 5.89758 9.40565 5.85837C9.44155 5.77567 9.47754 5.69301 9.51359 5.61038C9.6129 5.38277 9.71162 5.15491 9.81042 4.92708C9.83156 4.8784 9.85269 4.82971 9.87447 4.77955C10.0422 4.39276 10.2088 4.00544 10.3748 3.61788C10.3872 3.58871 10.3997 3.55954 10.4126 3.52949C10.5243 3.26875 10.6359 3.00796 10.7474 2.74718C10.7709 2.69238 10.7943 2.63758 10.8185 2.58112C10.8528 2.50088 10.8528 2.50088 10.8878 2.41902C10.9533 2.26604 11.0191 2.11317 11.0849 1.96032C11.1579 1.79062 11.2296 1.62053 11.2997 1.44963C11.3143 1.41469 11.3289 1.37975 11.3439 1.34375C11.3811 1.25448 11.4177 1.16496 11.4542 1.07541C11.6099 0.790866 11.8217 0.671341 12.1397 0.701923Z" fill="#13097D"/>
<path d="M12.1397 0.701923C12.6196 0.90189 12.8119 1.68639 13.0064 2.1398C13.0363 2.2092 13.0665 2.27846 13.0971 2.34758C13.1419 2.44901 13.1857 2.55081 13.2294 2.65273C13.2431 2.68335 13.2568 2.71397 13.2709 2.74552C13.3539 2.94306 13.3716 3.07391 13.3116 3.28005C13.2389 3.40022 13.1646 3.51192 13.0831 3.62575C12.4353 4.56534 11.8705 5.56651 11.3561 6.58428C11.2991 6.69584 11.2404 6.80632 11.1808 6.91652C10.2478 8.64187 9.51317 10.4755 8.88825 12.3325C8.86002 12.416 8.83141 12.4995 8.80277 12.5829C8.32926 13.966 7.95528 15.3891 7.66315 16.8211C7.65533 16.859 7.64751 16.8969 7.63946 16.9359C7.56626 17.2927 7.4982 17.6466 7.45935 18.0091C7.38126 18.7104 7.38126 18.7104 7.15887 18.9055C6.87522 19.1067 6.53582 19.2453 6.18658 19.2175C6.00627 19.1257 5.92363 19.0575 5.81158 18.8894C5.78613 18.5403 5.8528 18.2287 5.93207 17.8898C5.94487 17.8334 5.95767 17.777 5.97086 17.719C5.99859 17.5971 6.02648 17.4754 6.05465 17.3537C6.09923 17.1611 6.14314 16.9684 6.18697 16.7756C6.25636 16.4709 6.32616 16.1662 6.39615 15.8616C6.52158 15.3158 6.64656 14.7698 6.77098 14.2237C6.81463 14.0322 6.85855 13.8408 6.90269 13.6494C6.93652 13.5025 6.97003 13.3555 7.0036 13.2085C7.01587 13.1557 7.02815 13.1028 7.04079 13.0484C7.05184 12.9998 7.06288 12.9512 7.07426 12.9011C7.08394 12.859 7.09361 12.8169 7.10359 12.7735C7.12481 12.6508 7.13572 12.5447 7.12408 12.4207C7.03554 12.3199 6.95249 12.2377 6.85162 12.1511C6.82385 12.1264 6.79609 12.1017 6.76748 12.0762C6.56144 11.8943 6.34845 11.7212 6.13403 11.5493C5.94458 11.3907 5.76613 11.2212 5.5863 11.0519C5.38414 10.8626 5.17416 10.6868 4.95795 10.5136C4.75046 10.3413 4.55496 10.1564 4.35773 9.97255C4.14126 9.77078 3.91748 9.57803 3.69232 9.38607C3.63604 9.33804 3.57976 9.29001 3.5235 9.24196C3.49525 9.21785 3.46701 9.19373 3.43791 9.16889C3.21484 8.97774 2.99716 8.78156 2.78101 8.5826C2.69073 8.50103 2.59924 8.42394 2.50397 8.34841C2.36797 8.22984 2.30154 8.1413 2.28882 7.95894C2.29214 7.92408 2.29547 7.88921 2.29889 7.85329C2.30137 7.81854 2.30384 7.7838 2.3064 7.748C2.35967 7.58926 2.45165 7.5138 2.57721 7.40505C2.69879 7.36594 2.69879 7.36594 2.84023 7.35115C2.92766 7.34141 2.92766 7.34141 3.01686 7.33148C3.08905 7.3247 3.16125 7.31798 3.23346 7.3113C3.32435 7.30218 3.41524 7.29301 3.50613 7.28382C3.84044 7.25061 4.17497 7.21996 4.50952 7.18935C4.63309 7.17793 4.75665 7.16651 4.88021 7.15507C5.13791 7.13124 5.39561 7.10754 5.65332 7.08393C5.95082 7.05666 6.2483 7.02921 6.54577 7.00164C6.83324 6.97501 7.12072 6.9485 7.4082 6.92205C7.53007 6.91083 7.65195 6.89958 7.77382 6.8883C7.94365 6.8726 8.11349 6.85704 8.28334 6.84152C8.33362 6.83684 8.38391 6.83217 8.43572 6.82735C8.48203 6.82315 8.52834 6.81895 8.57605 6.81462C8.63615 6.8091 8.63615 6.8091 8.69746 6.80346C8.814 6.79551 8.92919 6.79432 9.04596 6.79567C9.05415 6.76986 9.06234 6.74405 9.07078 6.71745C9.15324 6.46316 9.24822 6.21841 9.35559 5.97371C9.37211 5.93565 9.38863 5.89758 9.40565 5.85837C9.44155 5.77567 9.47754 5.69301 9.51359 5.61038C9.6129 5.38277 9.71162 5.15491 9.81042 4.92708C9.83156 4.87839 9.85269 4.82971 9.87447 4.77955C10.0422 4.39276 10.2088 4.00544 10.3748 3.61788C10.3872 3.58871 10.3997 3.55954 10.4126 3.52949C10.5243 3.26875 10.6359 3.00796 10.7474 2.74717C10.7709 2.69238 10.7943 2.63758 10.8185 2.58112C10.8528 2.50088 10.8528 2.50088 10.8878 2.41902C10.9533 2.26604 11.0191 2.11317 11.0849 1.96032C11.1579 1.79062 11.2296 1.62053 11.2997 1.44963C11.3143 1.41469 11.3289 1.37975 11.3439 1.34375C11.3811 1.25448 11.4177 1.16496 11.4542 1.07541C11.6099 0.790866 11.8217 0.671341 12.1397 0.701923Z" fill="#DDDAFF"/>
<path d="M4.54645 13.262C4.57868 13.3704 4.57868 13.3704 4.59333 13.4963C4.49031 13.6285 4.35818 13.6953 4.21192 13.7728C4.16316 13.7989 4.1144 13.8249 4.06416 13.8517C4.01159 13.8795 3.95902 13.9072 3.90485 13.9358C3.82198 13.9799 3.73911 14.024 3.65626 14.0681C3.59953 14.0984 3.54278 14.1285 3.48602 14.1587C3.30141 14.2568 3.11766 14.3564 2.93439 14.4571C2.49875 14.6963 2.06246 14.9316 1.61383 15.1458C1.57843 15.1628 1.54302 15.1798 1.50655 15.1973C1.15736 15.3606 0.851542 15.4665 0.468327 15.3713C0.267528 15.2728 0.135468 15.157 0.0321697 14.9551C-0.0439263 14.723 -0.0439263 14.4728 0.0321697 14.2407C0.148077 14.0142 0.322922 13.8725 0.563954 13.7929C0.684852 13.7631 0.80589 13.7389 0.928288 13.7161C0.976378 13.7067 1.02447 13.6974 1.07402 13.6877C1.98587 13.5184 2.90855 13.4027 3.82726 13.2774C3.92562 13.2636 4.02378 13.2484 4.1219 13.233C4.27484 13.2139 4.39655 13.2291 4.54645 13.262Z" fill="#EC5E1A"/>
<path d="M19.9308 13.2482C19.9895 13.2554 19.9895 13.2554 20.0493 13.2627C20.179 13.2788 20.3084 13.2962 20.4379 13.3138C20.4821 13.3197 20.5264 13.3256 20.5721 13.3316C20.855 13.3694 21.1376 13.4095 21.42 13.4508C21.5658 13.472 21.7116 13.4927 21.8574 13.5134C22.2932 13.5761 22.7281 13.6429 23.1594 13.7316C23.1925 13.738 23.2257 13.7443 23.2599 13.7508C23.5516 13.8146 23.7739 13.9475 23.9506 14.1868C24.0392 14.4684 24.0629 14.7759 23.9242 15.0452C23.7586 15.2588 23.6018 15.3746 23.3353 15.4232C22.8861 15.4491 22.4338 15.1687 22.0404 14.9779C21.9897 14.9534 21.9389 14.9289 21.8867 14.9036C21.422 14.677 20.9687 14.4323 20.5175 14.1802C20.3859 14.1079 20.2532 14.0382 20.12 13.969C20.0764 13.946 20.0329 13.923 19.988 13.8994C19.9052 13.8558 19.822 13.8127 19.7384 13.7704C19.4682 13.6264 19.4682 13.6264 19.3958 13.4718C19.4066 13.3607 19.4066 13.3607 19.4536 13.2817C19.6051 13.182 19.7595 13.2249 19.9308 13.2482Z" fill="#EC5E1A"/>
<path d="M19.6406 0.710162C19.8331 0.954627 19.8498 1.15488 19.853 1.46181C19.8022 1.74568 19.5862 1.95319 19.3938 2.15779C19.3696 2.18374 19.3454 2.20969 19.3205 2.23643C19.0319 2.54392 18.7341 2.84248 18.4354 3.1402C18.3391 3.23626 18.2431 3.33258 18.147 3.42891C18.0846 3.4913 18.0222 3.55368 17.9597 3.61605C17.9316 3.64423 17.9035 3.67241 17.8746 3.70144C17.674 3.90099 17.4645 4.08822 17.25 4.27266C17.2108 4.30692 17.1717 4.34118 17.1313 4.37648C17.0459 4.45125 16.9604 4.52602 16.875 4.60079C16.7977 4.56985 16.7203 4.53891 16.6406 4.50704C16.6598 4.17251 16.8027 3.90082 16.9453 3.60176C16.9722 3.54477 16.9991 3.48776 17.0259 3.43075C17.2496 2.95788 17.4805 2.48838 17.7129 2.01973C17.7295 1.98611 17.7461 1.95249 17.7631 1.91785C18.363 0.704168 18.363 0.704167 18.748 0.527423C19.0702 0.444652 19.3769 0.497704 19.6406 0.710162Z" fill="#EC5E1A"/>
<path d="M5.55765 0.724277C5.67695 0.849271 5.75354 0.99192 5.83356 1.14405C5.8529 1.17988 5.87224 1.21571 5.89217 1.25263C6.32601 2.06526 6.73139 2.89416 7.12262 3.72803C7.14672 3.77873 7.17082 3.82942 7.19566 3.88166C7.21742 3.92867 7.23918 3.97568 7.2616 4.02411C7.28069 4.06499 7.29978 4.10588 7.31945 4.14799C7.36273 4.27222 7.36778 4.36798 7.35992 4.49854C7.28258 4.52948 7.20524 4.56041 7.12555 4.59229C6.49823 4.04821 5.90465 3.47037 5.31615 2.8849C5.25343 2.82253 5.19063 2.76023 5.12775 2.698C4.16782 1.74715 4.16782 1.74715 4.15778 1.32569C4.16102 1.0548 4.18866 0.912445 4.35992 0.701664C4.74683 0.402775 5.18776 0.398081 5.55765 0.724277Z" fill="#EC5E1A"/>
<path d="M12.0797 18.7128C12.1155 18.7234 12.1513 18.7341 12.1881 18.745C12.3244 19.2832 12.4183 19.829 12.5145 20.3754C12.5424 20.5339 12.5709 20.6924 12.5993 20.8508C12.68 21.3046 12.7588 21.7584 12.8135 22.2162C12.8175 22.2482 12.8216 22.2803 12.8258 22.3133C12.8584 22.6139 12.8567 22.9004 12.7126 23.1689C12.5351 23.3819 12.3863 23.4656 12.1151 23.5188C11.8523 23.536 11.6473 23.4393 11.444 23.2802C11.1524 22.9029 11.2005 22.5731 11.2506 22.12C11.2933 21.7946 11.3484 21.471 11.403 21.1474C11.4178 21.0581 11.4327 20.9689 11.4475 20.8797C11.484 20.6612 11.521 20.4427 11.5583 20.2244C11.5773 20.113 11.5961 20.0015 11.6148 19.8901C11.645 19.7114 11.6762 19.5329 11.7077 19.3544C11.7164 19.3031 11.7251 19.2517 11.7341 19.1988C11.7425 19.1525 11.751 19.1062 11.7597 19.0585C11.7667 19.0191 11.7737 18.9796 11.7809 18.9389C11.8372 18.764 11.89 18.6907 12.0797 18.7128Z" fill="#EC5E1A"/>
</g>
<defs>
<clipPath id="clip0_4750_2926">
<rect width="24" height="24" fill="white"/>
</clipPath>
</defs>
</svg>
