<svg width="48" height="48" viewBox="0 0 48 48" fill="none" xmlns="http://www.w3.org/2000/svg">
<g clip-path="url(#clip0_4750_3018)">
<path d="M23.9414 -0.0349173C24.0656 -0.0348876 24.0656 -0.0348876 24.1923 -0.0348572C25.5034 -0.0317268 26.7559 0.0488129 28.0312 0.375239C28.1022 0.392792 28.1731 0.410346 28.2461 0.428431C28.7131 0.546752 29.1698 0.686758 29.625 0.843989C29.7254 0.878567 29.7254 0.878567 29.8279 0.913844C32.6699 1.91277 35.3937 3.65253 37.3125 6.00024C37.3764 6.07468 37.4404 6.14913 37.5062 6.22582C39.5228 8.61059 40.7934 11.4646 41.3438 14.5315C41.3648 14.641 41.3858 14.7505 41.4075 14.8633C42.1124 19.2954 40.9452 23.744 38.5312 27.469C38.3739 27.6687 38.2167 27.8631 38.0438 28.0494C37.9458 28.2267 37.9458 28.2267 38.0182 28.4636C38.2025 28.8879 38.4224 29.2864 38.6484 29.6897C39.0913 30.4898 39.5192 31.2964 39.9375 32.1096C40.3346 32.8805 40.7379 33.6469 41.1562 34.4065C41.6327 35.2715 42.0883 36.1464 42.5403 37.0244C42.9501 37.8184 43.3727 38.6045 43.8065 39.3857C43.8499 39.4642 43.8933 39.5427 43.938 39.6235C43.9758 39.6914 44.0136 39.7592 44.0525 39.8291C44.1647 40.048 44.2537 40.2714 44.3438 40.5002C43.341 40.5316 42.355 40.4344 41.3584 40.3395C41.1801 40.3228 41.0019 40.3063 40.8236 40.2897C40.4523 40.2551 40.0811 40.2202 39.7098 40.185C39.2341 40.1398 38.7583 40.0955 38.2824 40.0513C37.9153 40.0172 37.5483 39.9828 37.1812 39.9483C37.0057 39.9318 36.8302 39.9154 36.6547 39.8991C36.4101 39.8762 36.1656 39.853 35.9211 39.8297C35.8488 39.8231 35.7765 39.8164 35.7021 39.8095C35.3881 39.7792 35.0842 39.7474 34.7812 39.6565C34.7557 39.7235 34.7302 39.7904 34.7039 39.8594C34.5935 40.1259 34.4678 40.3745 34.3312 40.6284C34.2789 40.7257 34.2265 40.8231 34.1726 40.9234C34.0881 41.0794 34.0881 41.0794 34.002 41.2385C33.9139 41.4016 33.9139 41.4016 33.8241 41.568C33.4027 42.347 32.9689 43.1187 32.5301 43.888C32.0472 44.7381 31.5861 45.5994 31.1272 46.4627C30.8523 46.9796 30.5761 47.4944 30.2812 48.0002C29.9362 47.8852 29.9244 47.8138 29.766 47.4982C29.722 47.4118 29.6779 47.3255 29.6326 47.2366C29.5621 47.0954 29.5621 47.0954 29.4902 46.9514C29.3887 46.7522 29.287 46.5531 29.1852 46.3541C29.1076 46.2021 29.1076 46.2021 29.0284 46.0469C28.8014 45.6078 28.5632 45.1751 28.3242 44.7424C27.8433 43.8682 27.3832 42.984 26.9263 42.0971C26.5823 41.4311 26.2305 40.7702 25.8691 40.1135C25.4485 39.3484 25.0374 38.5787 24.6328 37.8049C24.579 37.7027 24.5252 37.6004 24.4698 37.4951C24.3961 37.3533 24.3961 37.3533 24.3208 37.2087C24.2769 37.1247 24.233 37.0406 24.1878 36.9539C24.0938 36.7502 24.0938 36.7502 24.0938 36.5627C24.0319 36.5627 23.97 36.5627 23.9062 36.5627C23.8804 36.6453 23.8545 36.7279 23.8278 36.813C23.728 37.0988 23.6133 37.3526 23.4734 37.6204C23.4248 37.7136 23.3762 37.8069 23.3262 37.903C23.274 38.0021 23.2218 38.1012 23.168 38.2034C23.1135 38.3074 23.0591 38.4115 23.003 38.5187C22.612 39.2634 22.211 40.0022 21.8055 40.739C21.4325 41.4196 21.0742 42.1072 20.7188 42.7971C20.2699 43.6682 19.8119 44.5331 19.3385 45.3911C19.1097 45.8065 18.8853 46.2234 18.6691 46.6456C18.6264 46.7286 18.5837 46.8117 18.5397 46.8972C18.4593 47.0544 18.3796 47.212 18.3008 47.37C18.2474 47.474 18.2474 47.474 18.193 47.5802C18.1624 47.6412 18.1317 47.7022 18.1001 47.7651C18 47.9065 18 47.9065 17.7188 48.0002C17.6839 47.9352 17.649 47.8702 17.6131 47.8033C16.7366 46.1684 16.7366 46.1684 15.8415 44.5437C15.5942 44.1011 15.3485 43.6576 15.104 43.2135C15.0715 43.1544 15.0389 43.0953 15.0054 43.0345C14.8744 42.7966 14.7435 42.5587 14.6127 42.3208C14.19 41.5509 14.19 41.5509 13.7557 40.7875C13.7209 40.7274 13.6861 40.6673 13.6503 40.6053C13.5832 40.4897 13.5157 40.3743 13.4479 40.2592C13.2188 39.8646 13.2188 39.8646 13.2188 39.6565C13.0949 39.674 13.0949 39.674 12.9686 39.6918C12.0397 39.8197 11.1102 39.9186 10.1766 40.0059C10.0237 40.0203 9.87076 40.0347 9.71782 40.0492C9.39995 40.0792 9.08205 40.1089 8.76414 40.1385C8.35973 40.1762 7.95539 40.2146 7.55107 40.2533C7.23621 40.2832 6.9213 40.3127 6.60638 40.342C6.45736 40.356 6.30836 40.3701 6.15937 40.3844C5.32355 40.4645 4.497 40.5216 3.65625 40.5002C4.53886 38.7104 5.45537 36.9373 6.41812 35.1892C6.78971 34.512 7.14622 33.8275 7.5 33.1409C7.90918 32.3468 8.32471 31.5571 8.75391 30.7737C8.7996 30.6899 8.8453 30.6061 8.89238 30.5197C9.09951 30.1407 9.30886 29.7634 9.52441 29.389C9.56087 29.3244 9.59732 29.2598 9.63487 29.1932C9.73042 29.0239 9.82766 28.8556 9.92505 28.6874C10.0535 28.4201 10.0535 28.4201 9.99097 28.1813C9.82216 27.902 9.63094 27.6488 9.43172 27.3906C8.291 25.8525 7.586 24.035 7.03125 22.219C7.00237 22.1252 6.97348 22.0314 6.94373 21.9348C5.71088 17.4889 6.56202 12.6033 8.79341 8.6333C9.41998 7.54741 10.1884 6.44702 11.1024 5.58203C11.2555 5.43239 11.3896 5.27494 11.5254 5.10961C13.7912 2.41703 17.5373 0.858106 20.9062 0.187739C20.9945 0.17008 21.0827 0.152421 21.1736 0.134226C22.0946 -0.0292843 23.009 -0.0369762 23.9414 -0.0349173Z" fill="#13097D"/>
<path d="M10.125 28.3125C10.5036 28.5878 10.7946 28.9045 11.0955 29.2592C11.2456 29.4383 11.2456 29.4383 11.4104 29.5895C11.5312 29.7188 11.5312 29.7188 11.5312 29.9062C11.6146 29.9429 11.6146 29.9429 11.6997 29.9802C11.9204 30.1015 12.0428 30.224 12.2109 30.4102C14.074 32.3147 16.6984 33.5641 19.2188 34.3125C19.3105 34.341 19.4022 34.3695 19.4967 34.3989C20.931 34.8217 22.343 34.926 23.8301 34.916C23.9188 34.9158 24.0075 34.9155 24.0989 34.9152C25.413 34.9095 26.6625 34.8408 27.9375 34.5C28.0833 34.4645 28.2292 34.4291 28.3751 34.3938C30.5212 33.8544 32.5393 32.9191 34.3125 31.5938C34.3912 31.5357 34.3912 31.5357 34.4714 31.4765C35.0848 31.023 35.6665 30.56 36.1875 30C36.6562 29.5312 36.6562 29.5312 36.8145 29.3763C37.1593 29.0367 37.4778 28.6896 37.7812 28.3125C38.0477 28.5476 38.1923 28.8071 38.358 29.1196C38.4432 29.2793 38.4432 29.2793 38.53 29.4422C38.591 29.5578 38.652 29.6734 38.7129 29.7891C38.7762 29.9082 38.8395 30.0274 38.9029 30.1465C39.3354 30.961 39.7617 31.7786 40.1864 32.5972C40.4982 33.1967 40.8189 33.7907 41.1445 34.3828C41.6246 35.2558 42.0843 36.1383 42.5402 37.0241C42.9501 37.8181 43.3727 38.6042 43.8065 39.3854C43.8499 39.4639 43.8933 39.5424 43.938 39.6233C43.9758 39.6911 44.0136 39.759 44.0525 39.8289C44.1647 40.0478 44.2537 40.2712 44.3438 40.5C43.341 40.5314 42.355 40.4341 41.3584 40.3392C41.1801 40.3226 41.0019 40.306 40.8236 40.2895C40.4523 40.2549 40.0811 40.2199 39.7098 40.1847C39.2341 40.1396 38.7583 40.0952 38.2824 40.0511C37.9153 40.017 37.5483 39.9825 37.1812 39.948C37.0057 39.9316 36.8302 39.9151 36.6547 39.8988C36.4101 39.876 36.1656 39.8528 35.9211 39.8295C35.8488 39.8228 35.7765 39.8161 35.7021 39.8093C35.3881 39.779 35.0842 39.7471 34.7812 39.6562C34.7557 39.7232 34.7302 39.7902 34.7039 39.8592C34.5935 40.1256 34.4678 40.3743 34.3312 40.6282C34.2789 40.7255 34.2265 40.8228 34.1726 40.9231C34.0881 41.0791 34.0881 41.0791 34.002 41.2383C33.9139 41.4014 33.9139 41.4014 33.8241 41.5677C33.4027 42.3468 32.9689 43.1184 32.5301 43.8878C32.0472 44.7379 31.5861 45.5992 31.1272 46.4624C30.8523 46.9793 30.5761 47.4941 30.2812 48C29.9362 47.885 29.9244 47.8136 29.766 47.4979C29.722 47.4116 29.6779 47.3253 29.6326 47.2364C29.5856 47.1422 29.5386 47.0481 29.4902 46.9512C29.3887 46.752 29.287 46.5529 29.1852 46.3539C29.1076 46.2018 29.1076 46.2018 29.0284 46.0467C28.8014 45.6076 28.5632 45.1749 28.3242 44.7422C27.8433 43.868 27.3832 42.9838 26.9263 42.0968C26.5823 41.4308 26.2305 40.77 25.8691 40.1133C25.4485 39.3481 25.0374 38.5784 24.6328 37.8047C24.579 37.7024 24.5252 37.6002 24.4698 37.4948C24.4206 37.4003 24.3715 37.3058 24.3208 37.2085C24.2769 37.1244 24.233 37.0403 24.1878 36.9537C24.0938 36.75 24.0938 36.75 24.0938 36.5625C24.0319 36.5625 23.97 36.5625 23.9062 36.5625C23.8804 36.6451 23.8545 36.7277 23.8278 36.8128C23.728 37.0985 23.6133 37.3524 23.4734 37.6201C23.4248 37.7134 23.3762 37.8067 23.3262 37.9028C23.274 38.0019 23.2218 38.101 23.168 38.2031C23.1135 38.3072 23.0591 38.4113 23.003 38.5185C22.612 39.2631 22.211 40.0019 21.8055 40.7388C21.4325 41.4193 21.0742 42.107 20.7188 42.7969C20.2699 43.668 19.8119 44.5328 19.3385 45.3908C19.1097 45.8063 18.8853 46.2232 18.6691 46.6454C18.6264 46.7284 18.5837 46.8114 18.5397 46.897C18.4593 47.0542 18.3796 47.2117 18.3008 47.3698C18.2474 47.4738 18.2474 47.4738 18.193 47.58C18.1624 47.641 18.1317 47.702 18.1001 47.7648C18 47.9062 18 47.9062 17.7188 48C17.6839 47.935 17.649 47.87 17.6131 47.803C16.7366 46.1682 16.7366 46.1682 15.8415 44.5435C15.5942 44.1009 15.3485 43.6574 15.104 43.2133C15.0715 43.1542 15.0389 43.0951 15.0054 43.0342C14.8744 42.7964 14.7435 42.5585 14.6127 42.3205C14.19 41.5506 14.19 41.5506 13.7557 40.7873C13.7035 40.6971 13.7035 40.6971 13.6503 40.6051C13.5832 40.4895 13.5157 40.3741 13.4479 40.2589C13.2188 39.8644 13.2188 39.8644 13.2188 39.6562C13.1362 39.6679 13.0537 39.6796 12.9686 39.6916C12.0397 39.8195 11.1102 39.9184 10.1766 40.0056C10.0237 40.0201 9.87076 40.0345 9.71782 40.049C9.39995 40.0789 9.08205 40.1087 8.76414 40.1383C8.35973 40.176 7.95539 40.2144 7.55107 40.253C7.23621 40.283 6.9213 40.3125 6.60638 40.3418C6.45736 40.3558 6.30836 40.3699 6.15937 40.3842C5.32355 40.4642 4.497 40.5213 3.65625 40.5C4.53886 38.7101 5.45537 36.9371 6.41812 35.189C6.78971 34.5117 7.14622 33.8273 7.5 33.1406C7.99597 32.1781 8.5058 31.2245 9.02747 30.2758C9.29466 29.7897 9.5557 29.3004 9.81367 28.8094C10.0214 28.4161 10.0214 28.4161 10.125 28.3125Z" fill="#13097D"/>
<path d="M23.9531 8.37891C24.3403 8.44805 24.4716 8.53789 24.75 8.8125C24.858 9.04895 24.9402 9.26214 25.0155 9.5083C25.0378 9.57667 25.0601 9.64504 25.0831 9.71548C25.1552 9.93748 25.2251 10.1601 25.2949 10.3828C25.3441 10.5356 25.3933 10.6884 25.4428 10.8411C25.5414 11.1462 25.6393 11.4515 25.7366 11.757C25.9537 12.4357 26.1848 13.1097 26.4155 13.7839C26.4435 13.8673 26.4716 13.9506 26.5005 14.0365C26.5248 14.1078 26.549 14.1791 26.574 14.2526C26.625 14.4375 26.625 14.4375 26.625 14.7187C26.7027 14.7181 26.7803 14.7175 26.8603 14.7169C27.5927 14.7112 28.3252 14.7069 29.0576 14.7042C29.4342 14.7027 29.8107 14.7007 30.1873 14.6975C30.5508 14.6945 30.9142 14.6928 31.2778 14.6921C31.4163 14.6915 31.5549 14.6905 31.6934 14.689C31.8878 14.687 32.0821 14.6867 32.2764 14.6868C32.387 14.6862 32.4975 14.6856 32.6114 14.6849C32.9405 14.7227 33.1123 14.8015 33.375 15C33.5625 15.2812 33.5625 15.2812 33.5566 15.5977C33.3868 16.2546 32.7683 16.5892 32.2383 16.9629C32.0875 17.0705 31.9367 17.1781 31.786 17.2859C31.7083 17.3414 31.6305 17.3969 31.5504 17.4541C31.158 17.736 30.7694 18.0233 30.3809 18.3105C30.2327 18.4198 30.0845 18.5291 29.9363 18.6383C29.6893 18.8206 29.4427 19.0034 29.1965 19.1869C29.104 19.2554 29.0114 19.3239 28.916 19.3945C28.8386 19.4523 28.7611 19.5101 28.6813 19.5696C28.5 19.6875 28.5 19.6875 28.3125 19.6875C28.342 19.7749 28.3715 19.8622 28.4019 19.9523C28.4424 20.073 28.4829 20.1937 28.5234 20.3145C28.5822 20.489 28.5822 20.489 28.6421 20.6671C28.75 20.9932 28.8512 21.3211 28.9512 21.6497C29.1006 22.1383 29.2576 22.624 29.4185 23.109C29.4642 23.2477 29.51 23.3865 29.5558 23.5252C29.6259 23.7378 29.6964 23.9504 29.7675 24.1627C29.8375 24.3717 29.9064 24.5812 29.9751 24.7906C29.9965 24.8536 30.0179 24.9166 30.0399 24.9815C30.1605 25.353 30.2266 25.6724 30.1875 26.0625C29.9883 26.3789 29.9883 26.3789 29.7188 26.625C28.8095 26.7342 28.0542 25.9249 27.3791 25.3971C26.9609 25.0704 26.5335 24.7592 26.0992 24.4542C25.7993 24.243 25.5048 24.0269 25.2147 23.8022C25.1518 23.7541 25.0889 23.706 25.0241 23.6565C24.9025 23.5632 24.7817 23.4688 24.662 23.3733C24.4303 23.1969 24.2559 23.067 23.9605 23.0475C23.5879 23.2151 23.2768 23.4506 22.9512 23.6953C22.7999 23.8068 22.6487 23.9182 22.4974 24.0297C22.3816 24.1156 22.3816 24.1156 22.2635 24.2033C21.8992 24.4726 21.5316 24.7372 21.1641 25.002C21.0249 25.1024 20.8857 25.2029 20.7466 25.3033C20.3626 25.5802 19.9785 25.857 19.5938 26.1328C19.512 26.1917 19.512 26.1917 19.4285 26.2517C19.0226 26.5422 18.7926 26.6952 18.2813 26.625C18.0352 26.4261 17.9332 26.3405 17.8125 26.0625C17.7637 25.301 18.0661 24.5527 18.3051 23.844C18.3449 23.7235 18.3847 23.6029 18.4245 23.4823C18.5283 23.1679 18.6332 22.8539 18.7384 22.54C18.8459 22.2184 18.9524 21.8965 19.0589 21.5746C19.2674 20.9452 19.477 20.3162 19.6875 19.6875C19.5997 19.6443 19.5997 19.6443 19.5101 19.6003C19.3222 19.5049 19.1582 19.4003 18.9866 19.2784C18.9246 19.2346 18.8626 19.1907 18.7987 19.1455C18.7323 19.0981 18.666 19.0508 18.5977 19.002C18.5278 18.9524 18.458 18.9028 18.386 18.8516C17.6669 18.34 16.951 17.8238 16.237 17.3049C16.0317 17.1566 15.8254 17.0098 15.6189 16.8633C15.4907 16.7715 15.3625 16.6797 15.2344 16.5879C15.1754 16.5466 15.1164 16.5052 15.0556 16.4626C14.6705 16.1849 14.4802 15.9877 14.3965 15.5215C14.4556 15.1752 14.6483 15.039 14.9063 14.8125C14.9527 14.7661 14.9527 14.7661 15 14.7187C15.1985 14.7099 15.3972 14.7077 15.5958 14.7081C15.6891 14.7081 15.6891 14.7081 15.7843 14.7081C15.9908 14.7081 16.1972 14.7089 16.4037 14.7096C16.5465 14.7098 16.6893 14.7099 16.8321 14.71C17.2086 14.7104 17.5851 14.7113 17.9616 14.7123C18.3456 14.7133 18.7295 14.7137 19.1135 14.7142C19.8673 14.7152 20.6212 14.7168 21.375 14.7187C21.4106 14.5449 21.4106 14.5449 21.4468 14.3674C21.5696 13.8164 21.7398 13.283 21.913 12.746C21.947 12.6403 21.981 12.5346 22.016 12.4257C22.0877 12.2036 22.1597 11.9815 22.2318 11.7594C22.3417 11.4204 22.4497 11.0808 22.5577 10.7411C22.6278 10.5246 22.6981 10.3081 22.7684 10.0917C22.8162 9.94005 22.8162 9.94005 22.865 9.78536C23.2896 8.49739 23.2896 8.49739 23.9531 8.37891Z" fill="#DDDAFF"/>
</g>
<defs>
<clipPath id="clip0_4750_3018">
<rect width="48" height="48" fill="white"/>
</clipPath>
</defs>
</svg>
