<svg width="61" height="61" viewBox="0 0 61 61" fill="none" xmlns="http://www.w3.org/2000/svg">
<g clip-path="url(#clip0_8028_1520)">
<path d="M25.4163 33.0417H15.2497C14.5756 33.0417 13.9291 33.3094 13.4524 33.7861C12.9758 34.2628 12.708 34.9092 12.708 35.5833V43.2083C12.708 43.8824 12.9758 44.5289 13.4524 45.0056C13.9291 45.4822 14.5756 45.75 15.2497 45.75H22.8747C23.5488 45.75 24.1952 45.4822 24.6719 45.0056C25.1486 44.5289 25.4163 43.8824 25.4163 43.2083V27.9583C25.4163 21.1797 22.0283 16.9453 15.2497 15.25" stroke="#ECEEFE" stroke-width="5.08333" stroke-linecap="round" stroke-linejoin="round"/>
<path d="M48.2913 33.0417H38.1247C37.4506 33.0417 36.8041 33.3094 36.3274 33.7861C35.8508 34.2628 35.583 34.9092 35.583 35.5833V43.2083C35.583 43.8824 35.8508 44.5289 36.3274 45.0056C36.8041 45.4822 37.4506 45.75 38.1247 45.75H45.7497C46.4238 45.75 47.0703 45.4822 47.5469 45.0056C48.0236 44.5289 48.2913 43.8824 48.2913 43.2083V27.9583C48.2913 21.1797 44.9033 16.9453 38.1247 15.25" stroke="#ECEEFE" stroke-width="5.08333" stroke-linecap="round" stroke-linejoin="round"/>
</g>
<defs>
<clipPath id="clip0_8028_1520">
<rect width="61" height="61" fill="white" transform="matrix(1 0 0 -1 0 61)"/>
</clipPath>
</defs>
</svg>
