<svg width="195" height="16" viewBox="0 0 195 16" fill="none" xmlns="http://www.w3.org/2000/svg">
<rect width="62" height="16" rx="4" fill="#FDEFE2"/>
<g clip-path="url(#clip0_7553_30083)">
<path d="M7.4351 6.0627L4.77676 6.44811L4.72968 6.4577C4.6584 6.47662 4.59343 6.51412 4.54138 6.56636C4.48934 6.61861 4.4521 6.68373 4.43346 6.75508C4.41481 6.82643 4.41544 6.90145 4.43527 6.97248C4.45511 7.0435 4.49344 7.10799 4.54635 7.15936L6.47218 9.03395L6.01801 11.6819L6.0126 11.7277C6.00823 11.8014 6.02354 11.875 6.05695 11.9408C6.09036 12.0067 6.14067 12.0625 6.20274 12.1025C6.2648 12.1425 6.33638 12.1653 6.41016 12.1686C6.48393 12.1718 6.55725 12.1554 6.6226 12.121L9.0001 10.871L11.3722 12.121L11.4138 12.1402C11.4826 12.1673 11.5574 12.1756 11.6304 12.1643C11.7035 12.1529 11.7722 12.1224 11.8295 12.0757C11.8868 12.0291 11.9307 11.968 11.9567 11.8988C11.9826 11.8296 11.9897 11.7547 11.9772 11.6819L11.5226 9.03395L13.4493 7.15895L13.4818 7.12353C13.5282 7.06635 13.5586 6.99788 13.57 6.92511C13.5813 6.85234 13.5732 6.77785 13.5464 6.70925C13.5196 6.64065 13.4751 6.58038 13.4174 6.53458C13.3597 6.48878 13.2909 6.45909 13.218 6.44853L10.5597 6.0627L9.37135 3.65436C9.33696 3.58458 9.28373 3.52583 9.21768 3.48474C9.15162 3.44365 9.07539 3.42188 8.9976 3.42188C8.91981 3.42188 8.84357 3.44365 8.77752 3.48474C8.71147 3.52583 8.65823 3.58458 8.62385 3.65436L7.4351 6.0627Z" fill="#FFD700"/>
</g>
<path d="M16.304 9.624V9.064L19.168 5.4H20.032L17.192 9.064L16.784 8.936H21.256V9.624H16.304ZM19.416 11V9.624L19.44 8.936V7.72H20.192V11H19.416ZM22.4198 11.048C22.2705 11.048 22.1425 10.9973 22.0358 10.896C21.9291 10.7893 21.8758 10.656 21.8758 10.496C21.8758 10.336 21.9291 10.2053 22.0358 10.104C22.1425 10.0027 22.2705 9.952 22.4198 9.952C22.5638 9.952 22.6865 10.0027 22.7878 10.104C22.8945 10.2053 22.9478 10.336 22.9478 10.496C22.9478 10.656 22.8945 10.7893 22.7878 10.896C22.6865 10.9973 22.5638 11.048 22.4198 11.048ZM24.5708 11L26.9468 5.736L27.1548 6.096H23.8268L24.2268 5.704V7.096H23.4588V5.4H27.6828V5.944L25.4188 11H24.5708ZM30.9884 11V5.4H33.1724C33.6631 5.4 34.0818 5.47733 34.4284 5.632C34.7751 5.78667 35.0418 6.01067 35.2284 6.304C35.4151 6.59733 35.5084 6.94667 35.5084 7.352C35.5084 7.75733 35.4151 8.10667 35.2284 8.4C35.0418 8.688 34.7751 8.90933 34.4284 9.064C34.0818 9.21867 33.6631 9.296 33.1724 9.296H31.4284L31.7884 8.928V11H30.9884ZM34.7324 11L33.3084 8.968H34.1644L35.6044 11H34.7324ZM31.7884 9.008L31.4284 8.616H33.1484C33.6604 8.616 34.0471 8.50667 34.3084 8.288C34.5751 8.064 34.7084 7.752 34.7084 7.352C34.7084 6.952 34.5751 6.64267 34.3084 6.424C34.0471 6.20533 33.6604 6.096 33.1484 6.096H31.4284L31.7884 5.696V9.008ZM39.2819 11V10.104L39.2419 9.936V8.408C39.2419 8.08267 39.1459 7.832 38.9539 7.656C38.7672 7.47467 38.4845 7.384 38.1059 7.384C37.8552 7.384 37.6099 7.42667 37.3699 7.512C37.1299 7.592 36.9272 7.70133 36.7619 7.84L36.4419 7.264C36.6605 7.088 36.9219 6.95467 37.2259 6.864C37.5352 6.768 37.8579 6.72 38.1939 6.72C38.7752 6.72 39.2232 6.86133 39.5379 7.144C39.8525 7.42667 40.0099 7.85867 40.0099 8.44V11H39.2819ZM37.8899 11.048C37.5752 11.048 37.2979 10.9947 37.0579 10.888C36.8232 10.7813 36.6419 10.6347 36.5139 10.448C36.3859 10.256 36.3219 10.04 36.3219 9.8C36.3219 9.57067 36.3752 9.36267 36.4819 9.176C36.5939 8.98933 36.7725 8.84 37.0179 8.728C37.2685 8.616 37.6045 8.56 38.0259 8.56H39.3699V9.112H38.0579C37.6739 9.112 37.4152 9.176 37.2819 9.304C37.1485 9.432 37.0819 9.58667 37.0819 9.768C37.0819 9.976 37.1645 10.144 37.3299 10.272C37.4952 10.3947 37.7245 10.456 38.0179 10.456C38.3059 10.456 38.5565 10.392 38.7699 10.264C38.9885 10.136 39.1459 9.94933 39.2419 9.704L39.3939 10.232C39.2925 10.4827 39.1139 10.6827 38.8579 10.832C38.6019 10.976 38.2792 11.048 37.8899 11.048ZM42.8871 11.048C42.4605 11.048 42.1298 10.9333 41.8951 10.704C41.6605 10.4747 41.5431 10.1467 41.5431 9.72V5.832H42.3111V9.688C42.3111 9.91733 42.3671 10.0933 42.4791 10.216C42.5965 10.3387 42.7618 10.4 42.9751 10.4C43.2151 10.4 43.4151 10.3333 43.5751 10.2L43.8151 10.752C43.6978 10.8533 43.5565 10.928 43.3911 10.976C43.2311 11.024 43.0631 11.048 42.8871 11.048ZM40.8231 7.392V6.76H43.5271V7.392H40.8231ZM44.7436 11V6.76H45.5116V11H44.7436ZM45.1276 5.944C44.9783 5.944 44.853 5.896 44.7516 5.8C44.6556 5.704 44.6076 5.58667 44.6076 5.448C44.6076 5.304 44.6556 5.184 44.7516 5.088C44.853 4.992 44.9783 4.944 45.1276 4.944C45.277 4.944 45.3996 4.992 45.4956 5.088C45.597 5.17867 45.6476 5.29333 45.6476 5.432C45.6476 5.576 45.5996 5.69867 45.5036 5.8C45.4076 5.896 45.2823 5.944 45.1276 5.944ZM49.242 6.72C49.5887 6.72 49.8927 6.78667 50.154 6.92C50.4207 7.05333 50.6287 7.256 50.778 7.528C50.9273 7.8 51.002 8.144 51.002 8.56V11H50.234V8.648C50.234 8.23733 50.1327 7.928 49.93 7.72C49.7327 7.512 49.4527 7.408 49.09 7.408C48.818 7.408 48.5807 7.46133 48.378 7.568C48.1753 7.67467 48.018 7.832 47.906 8.04C47.7993 8.248 47.746 8.50667 47.746 8.816V11H46.978V6.76H47.714V7.904L47.594 7.6C47.7327 7.32267 47.946 7.10667 48.234 6.952C48.522 6.79733 48.858 6.72 49.242 6.72ZM54.2793 12.6C53.89 12.6 53.5113 12.544 53.1433 12.432C52.7806 12.3253 52.4846 12.1707 52.2553 11.968L52.6233 11.376C52.8206 11.5467 53.0633 11.68 53.3513 11.776C53.6393 11.8773 53.9406 11.928 54.2553 11.928C54.7566 11.928 55.1246 11.8107 55.3593 11.576C55.594 11.3413 55.7113 10.984 55.7113 10.504V9.608L55.7913 8.768L55.7513 7.92V6.76H56.4793V10.424C56.4793 11.1707 56.2926 11.72 55.9193 12.072C55.546 12.424 54.9993 12.6 54.2793 12.6ZM54.1833 10.824C53.7726 10.824 53.4046 10.7387 53.0793 10.568C52.7593 10.392 52.5033 10.1493 52.3113 9.84C52.1246 9.53067 52.0313 9.17333 52.0313 8.768C52.0313 8.35733 52.1246 8 52.3113 7.696C52.5033 7.38667 52.7593 7.14667 53.0793 6.976C53.4046 6.80533 53.7726 6.72 54.1833 6.72C54.546 6.72 54.8766 6.79467 55.1753 6.944C55.474 7.088 55.7113 7.312 55.8873 7.616C56.0686 7.92 56.1593 8.304 56.1593 8.768C56.1593 9.22667 56.0686 9.608 55.8873 9.912C55.7113 10.216 55.474 10.4453 55.1753 10.6C54.8766 10.7493 54.546 10.824 54.1833 10.824ZM54.2713 10.152C54.554 10.152 54.8046 10.0933 55.0233 9.976C55.242 9.85867 55.4126 9.696 55.5353 9.488C55.6633 9.28 55.7273 9.04 55.7273 8.768C55.7273 8.496 55.6633 8.256 55.5353 8.048C55.4126 7.84 55.242 7.68 55.0233 7.568C54.8046 7.45067 54.554 7.392 54.2713 7.392C53.9886 7.392 53.7353 7.45067 53.5113 7.568C53.2926 7.68 53.1193 7.84 52.9913 8.048C52.8686 8.256 52.8073 8.496 52.8073 8.768C52.8073 9.04 52.8686 9.28 52.9913 9.488C53.1193 9.696 53.2926 9.85867 53.5113 9.976C53.7353 10.0933 53.9886 10.152 54.2713 10.152Z" fill="#EF7F21"/>
<rect x="66" width="129" height="16" rx="4" fill="#E1EDFA"/>
<g clip-path="url(#clip1_7553_30083)">
<path d="M72 5.5C72 5.23478 72.1054 4.98043 72.2929 4.79289C72.4804 4.60536 72.7348 4.5 73 4.5H79C79.2652 4.5 79.5196 4.60536 79.7071 4.79289C79.8946 4.98043 80 5.23478 80 5.5V11.5C80 11.7652 79.8946 12.0196 79.7071 12.2071C79.5196 12.3946 79.2652 12.5 79 12.5H73C72.7348 12.5 72.4804 12.3946 72.2929 12.2071C72.1054 12.0196 72 11.7652 72 11.5V5.5Z" stroke="#226CBD" stroke-linecap="round" stroke-linejoin="round"/>
<path d="M78 3.5V5.5" stroke="#226CBD" stroke-linecap="round" stroke-linejoin="round"/>
<path d="M74 3.5V5.5" stroke="#226CBD" stroke-linecap="round" stroke-linejoin="round"/>
<path d="M72 7.5H80" stroke="#226CBD" stroke-linecap="round" stroke-linejoin="round"/>
<path d="M74 9.5H75V10.5H74V9.5Z" stroke="#226CBD" stroke-linecap="round" stroke-linejoin="round"/>
</g>
<path d="M84.304 9.624V9.064L87.168 5.4H88.032L85.192 9.064L84.784 8.936H89.256V9.624H84.304ZM87.416 11V9.624L87.44 8.936V7.72H88.192V11H87.416ZM92.34 11V5.4H92.996L95.508 9.632H95.156L97.636 5.4H98.292L98.3 11H97.532L97.524 6.608H97.708L95.5 10.32H95.132L92.908 6.608H93.108V11H92.34ZM101.685 11.048C101.258 11.048 100.879 10.9547 100.549 10.768C100.218 10.5813 99.9566 10.3253 99.7646 10C99.5726 9.66933 99.4766 9.296 99.4766 8.88C99.4766 8.45867 99.5726 8.08533 99.7646 7.76C99.9566 7.43467 100.218 7.18133 100.549 7C100.879 6.81333 101.258 6.72 101.685 6.72C102.106 6.72 102.482 6.81333 102.813 7C103.149 7.18133 103.41 7.43467 103.597 7.76C103.789 8.08 103.885 8.45333 103.885 8.88C103.885 9.30133 103.789 9.67467 103.597 10C103.41 10.3253 103.149 10.5813 102.813 10.768C102.482 10.9547 102.106 11.048 101.685 11.048ZM101.685 10.376C101.957 10.376 102.199 10.3147 102.413 10.192C102.631 10.0693 102.802 9.896 102.925 9.672C103.047 9.44267 103.109 9.17867 103.109 8.88C103.109 8.576 103.047 8.31467 102.925 8.096C102.802 7.872 102.631 7.69867 102.413 7.576C102.199 7.45333 101.957 7.392 101.685 7.392C101.413 7.392 101.17 7.45333 100.957 7.576C100.743 7.69867 100.573 7.872 100.445 8.096C100.317 8.31467 100.253 8.576 100.253 8.88C100.253 9.17867 100.317 9.44267 100.445 9.672C100.573 9.896 100.743 10.0693 100.957 10.192C101.17 10.3147 101.413 10.376 101.685 10.376ZM107.211 6.72C107.557 6.72 107.861 6.78667 108.123 6.92C108.389 7.05333 108.597 7.256 108.747 7.528C108.896 7.8 108.971 8.144 108.971 8.56V11H108.203V8.648C108.203 8.23733 108.101 7.928 107.899 7.72C107.701 7.512 107.421 7.408 107.059 7.408C106.787 7.408 106.549 7.46133 106.347 7.568C106.144 7.67467 105.987 7.832 105.875 8.04C105.768 8.248 105.715 8.50667 105.715 8.816V11H104.947V6.76H105.683V7.904L105.563 7.6C105.701 7.32267 105.915 7.10667 106.203 6.952C106.491 6.79733 106.827 6.72 107.211 6.72ZM111.848 11.048C111.421 11.048 111.091 10.9333 110.856 10.704C110.621 10.4747 110.504 10.1467 110.504 9.72V5.832H111.272V9.688C111.272 9.91733 111.328 10.0933 111.44 10.216C111.557 10.3387 111.723 10.4 111.936 10.4C112.176 10.4 112.376 10.3333 112.536 10.2L112.776 10.752C112.659 10.8533 112.517 10.928 112.352 10.976C112.192 11.024 112.024 11.048 111.848 11.048ZM109.784 7.392V6.76H112.488V7.392H109.784ZM115.969 6.72C116.315 6.72 116.619 6.78667 116.881 6.92C117.147 7.05333 117.355 7.256 117.505 7.528C117.654 7.8 117.729 8.144 117.729 8.56V11H116.961V8.648C116.961 8.23733 116.859 7.928 116.657 7.72C116.459 7.512 116.179 7.408 115.817 7.408C115.545 7.408 115.307 7.46133 115.105 7.568C114.902 7.67467 114.745 7.832 114.633 8.04C114.526 8.248 114.473 8.50667 114.473 8.816V11H113.705V5.064H114.473V7.904L114.321 7.6C114.459 7.32267 114.673 7.10667 114.961 6.952C115.249 6.79733 115.585 6.72 115.969 6.72ZM120.366 11.048C120.014 11.048 119.678 11 119.358 10.904C119.043 10.808 118.795 10.6907 118.614 10.552L118.934 9.944C119.115 10.0667 119.339 10.1707 119.606 10.256C119.873 10.3413 120.145 10.384 120.422 10.384C120.779 10.384 121.035 10.3333 121.19 10.232C121.35 10.1307 121.43 9.98933 121.43 9.808C121.43 9.67467 121.382 9.57067 121.286 9.496C121.19 9.42133 121.062 9.36533 120.902 9.328C120.747 9.29067 120.574 9.25867 120.382 9.232C120.19 9.2 119.998 9.16267 119.806 9.12C119.614 9.072 119.438 9.008 119.278 8.928C119.118 8.84267 118.99 8.728 118.894 8.584C118.798 8.43467 118.75 8.23733 118.75 7.992C118.75 7.736 118.822 7.512 118.966 7.32C119.11 7.128 119.313 6.98133 119.574 6.88C119.841 6.77333 120.155 6.72 120.518 6.72C120.795 6.72 121.075 6.75467 121.358 6.824C121.646 6.888 121.881 6.98133 122.062 7.104L121.734 7.712C121.542 7.584 121.342 7.496 121.134 7.448C120.926 7.4 120.718 7.376 120.51 7.376C120.174 7.376 119.923 7.432 119.758 7.544C119.593 7.65067 119.51 7.78933 119.51 7.96C119.51 8.104 119.558 8.216 119.654 8.296C119.755 8.37067 119.883 8.42933 120.038 8.472C120.198 8.51467 120.374 8.552 120.566 8.584C120.758 8.61067 120.95 8.648 121.142 8.696C121.334 8.73867 121.507 8.8 121.662 8.88C121.822 8.96 121.95 9.072 122.046 9.216C122.147 9.36 122.198 9.552 122.198 9.792C122.198 10.048 122.123 10.2693 121.974 10.456C121.825 10.6427 121.614 10.7893 121.342 10.896C121.07 10.9973 120.745 11.048 120.366 11.048ZM127.922 11.064C127.495 11.064 127.101 10.9947 126.738 10.856C126.381 10.712 126.069 10.512 125.802 10.256C125.541 9.99467 125.335 9.69067 125.186 9.344C125.037 8.99733 124.962 8.616 124.962 8.2C124.962 7.784 125.037 7.40267 125.186 7.056C125.335 6.70933 125.543 6.408 125.81 6.152C126.077 5.89067 126.389 5.69067 126.746 5.552C127.109 5.408 127.503 5.336 127.93 5.336C128.362 5.336 128.759 5.41067 129.122 5.56C129.49 5.704 129.802 5.92 130.058 6.208L129.538 6.712C129.325 6.488 129.085 6.32267 128.818 6.216C128.551 6.104 128.266 6.048 127.962 6.048C127.647 6.048 127.354 6.10133 127.082 6.208C126.815 6.31467 126.583 6.464 126.386 6.656C126.189 6.848 126.034 7.07733 125.922 7.344C125.815 7.60533 125.762 7.89067 125.762 8.2C125.762 8.50933 125.815 8.79733 125.922 9.064C126.034 9.32533 126.189 9.552 126.386 9.744C126.583 9.936 126.815 10.0853 127.082 10.192C127.354 10.2987 127.647 10.352 127.962 10.352C128.266 10.352 128.551 10.2987 128.818 10.192C129.085 10.08 129.325 9.90933 129.538 9.68L130.058 10.184C129.802 10.472 129.49 10.6907 129.122 10.84C128.759 10.9893 128.359 11.064 127.922 11.064ZM132.724 11.048C132.297 11.048 131.918 10.9547 131.588 10.768C131.257 10.5813 130.996 10.3253 130.804 10C130.612 9.66933 130.516 9.296 130.516 8.88C130.516 8.45867 130.612 8.08533 130.804 7.76C130.996 7.43467 131.257 7.18133 131.588 7C131.918 6.81333 132.297 6.72 132.724 6.72C133.145 6.72 133.521 6.81333 133.852 7C134.188 7.18133 134.449 7.43467 134.636 7.76C134.828 8.08 134.924 8.45333 134.924 8.88C134.924 9.30133 134.828 9.67467 134.636 10C134.449 10.3253 134.188 10.5813 133.852 10.768C133.521 10.9547 133.145 11.048 132.724 11.048ZM132.724 10.376C132.996 10.376 133.238 10.3147 133.452 10.192C133.67 10.0693 133.841 9.896 133.964 9.672C134.086 9.44267 134.148 9.17867 134.148 8.88C134.148 8.576 134.086 8.31467 133.964 8.096C133.841 7.872 133.67 7.69867 133.452 7.576C133.238 7.45333 132.996 7.392 132.724 7.392C132.452 7.392 132.209 7.45333 131.996 7.576C131.782 7.69867 131.612 7.872 131.484 8.096C131.356 8.31467 131.292 8.576 131.292 8.88C131.292 9.17867 131.356 9.44267 131.484 9.672C131.612 9.896 131.782 10.0693 131.996 10.192C132.209 10.3147 132.452 10.376 132.724 10.376ZM137.77 11.048C137.407 11.048 137.087 10.9813 136.81 10.848C136.538 10.7147 136.324 10.512 136.17 10.24C136.02 9.96267 135.946 9.616 135.946 9.2V6.76H136.714V9.112C136.714 9.528 136.812 9.84 137.01 10.048C137.212 10.256 137.495 10.36 137.858 10.36C138.124 10.36 138.356 10.3067 138.554 10.2C138.751 10.088 138.903 9.928 139.01 9.72C139.116 9.50667 139.17 9.25067 139.17 8.952V6.76H139.938V11H139.21V9.856L139.33 10.16C139.191 10.4427 138.983 10.6613 138.706 10.816C138.428 10.9707 138.116 11.048 137.77 11.048ZM141.4 11V6.76H142.136V7.912L142.064 7.624C142.181 7.33067 142.379 7.10667 142.656 6.952C142.933 6.79733 143.275 6.72 143.68 6.72V7.464C143.648 7.45867 143.616 7.456 143.584 7.456C143.557 7.456 143.531 7.456 143.504 7.456C143.093 7.456 142.768 7.57867 142.528 7.824C142.288 8.06933 142.168 8.424 142.168 8.888V11H141.4ZM145.889 11.048C145.537 11.048 145.201 11 144.881 10.904C144.567 10.808 144.319 10.6907 144.137 10.552L144.457 9.944C144.639 10.0667 144.863 10.1707 145.129 10.256C145.396 10.3413 145.668 10.384 145.945 10.384C146.303 10.384 146.559 10.3333 146.713 10.232C146.873 10.1307 146.953 9.98933 146.953 9.808C146.953 9.67467 146.905 9.57067 146.809 9.496C146.713 9.42133 146.585 9.36533 146.425 9.328C146.271 9.29067 146.097 9.25867 145.905 9.232C145.713 9.2 145.521 9.16267 145.329 9.12C145.137 9.072 144.961 9.008 144.801 8.928C144.641 8.84267 144.513 8.728 144.417 8.584C144.321 8.43467 144.273 8.23733 144.273 7.992C144.273 7.736 144.345 7.512 144.489 7.32C144.633 7.128 144.836 6.98133 145.097 6.88C145.364 6.77333 145.679 6.72 146.041 6.72C146.319 6.72 146.599 6.75467 146.881 6.824C147.169 6.888 147.404 6.98133 147.585 7.104L147.257 7.712C147.065 7.584 146.865 7.496 146.657 7.448C146.449 7.4 146.241 7.376 146.033 7.376C145.697 7.376 145.447 7.432 145.281 7.544C145.116 7.65067 145.033 7.78933 145.033 7.96C145.033 8.104 145.081 8.216 145.177 8.296C145.279 8.37067 145.407 8.42933 145.561 8.472C145.721 8.51467 145.897 8.552 146.089 8.584C146.281 8.61067 146.473 8.648 146.665 8.696C146.857 8.73867 147.031 8.8 147.185 8.88C147.345 8.96 147.473 9.072 147.569 9.216C147.671 9.36 147.721 9.552 147.721 9.792C147.721 10.048 147.647 10.2693 147.497 10.456C147.348 10.6427 147.137 10.7893 146.865 10.896C146.593 10.9973 146.268 11.048 145.889 11.048ZM150.569 11.048C150.116 11.048 149.716 10.9547 149.369 10.768C149.028 10.5813 148.761 10.3253 148.569 10C148.382 9.67467 148.289 9.30133 148.289 8.88C148.289 8.45867 148.38 8.08533 148.561 7.76C148.748 7.43467 149.001 7.18133 149.321 7C149.646 6.81333 150.012 6.72 150.417 6.72C150.828 6.72 151.19 6.81067 151.505 6.992C151.82 7.17333 152.065 7.42933 152.241 7.76C152.422 8.08533 152.513 8.46667 152.513 8.904C152.513 8.936 152.51 8.97333 152.505 9.016C152.505 9.05867 152.502 9.09867 152.497 9.136H148.889V8.584H152.097L151.785 8.776C151.79 8.504 151.734 8.26133 151.617 8.048C151.5 7.83467 151.337 7.66933 151.129 7.552C150.926 7.42933 150.689 7.368 150.417 7.368C150.15 7.368 149.913 7.42933 149.705 7.552C149.497 7.66933 149.334 7.83733 149.217 8.056C149.1 8.26933 149.041 8.51467 149.041 8.792V8.92C149.041 9.20267 149.105 9.456 149.233 9.68C149.366 9.89867 149.55 10.0693 149.785 10.192C150.02 10.3147 150.289 10.376 150.593 10.376C150.844 10.376 151.07 10.3333 151.273 10.248C151.481 10.1627 151.662 10.0347 151.817 9.864L152.241 10.36C152.049 10.584 151.809 10.7547 151.521 10.872C151.238 10.9893 150.921 11.048 150.569 11.048ZM155.84 11V5.4H158.2C158.797 5.4 159.323 5.51733 159.776 5.752C160.235 5.98667 160.589 6.31467 160.84 6.736C161.096 7.15733 161.224 7.64533 161.224 8.2C161.224 8.75467 161.096 9.24267 160.84 9.664C160.589 10.0853 160.235 10.4133 159.776 10.648C159.323 10.8827 158.797 11 158.2 11H155.84ZM156.64 10.304H158.152C158.616 10.304 159.016 10.216 159.352 10.04C159.693 9.864 159.957 9.61867 160.144 9.304C160.331 8.984 160.424 8.616 160.424 8.2C160.424 7.77867 160.331 7.41067 160.144 7.096C159.957 6.78133 159.693 6.536 159.352 6.36C159.016 6.184 158.616 6.096 158.152 6.096H156.64V10.304ZM164.121 11.048C163.759 11.048 163.439 10.9813 163.161 10.848C162.889 10.7147 162.676 10.512 162.521 10.24C162.372 9.96267 162.297 9.616 162.297 9.2V6.76H163.065V9.112C163.065 9.528 163.164 9.84 163.361 10.048C163.564 10.256 163.847 10.36 164.209 10.36C164.476 10.36 164.708 10.3067 164.905 10.2C165.103 10.088 165.255 9.928 165.361 9.72C165.468 9.50667 165.521 9.25067 165.521 8.952V6.76H166.289V11H165.561V9.856L165.681 10.16C165.543 10.4427 165.335 10.6613 165.057 10.816C164.78 10.9707 164.468 11.048 164.121 11.048ZM167.751 11V6.76H168.487V7.912L168.415 7.624C168.533 7.33067 168.73 7.10667 169.007 6.952C169.285 6.79733 169.626 6.72 170.031 6.72V7.464C169.999 7.45867 169.967 7.456 169.935 7.456C169.909 7.456 169.882 7.456 169.855 7.456C169.445 7.456 169.119 7.57867 168.879 7.824C168.639 8.06933 168.519 8.424 168.519 8.888V11H167.751ZM173.298 11V10.104L173.258 9.936V8.408C173.258 8.08267 173.162 7.832 172.97 7.656C172.783 7.47467 172.5 7.384 172.122 7.384C171.871 7.384 171.626 7.42667 171.386 7.512C171.146 7.592 170.943 7.70133 170.778 7.84L170.458 7.264C170.676 7.088 170.938 6.95467 171.242 6.864C171.551 6.768 171.874 6.72 172.21 6.72C172.791 6.72 173.239 6.86133 173.554 7.144C173.868 7.42667 174.026 7.85867 174.026 8.44V11H173.298ZM171.906 11.048C171.591 11.048 171.314 10.9947 171.074 10.888C170.839 10.7813 170.658 10.6347 170.53 10.448C170.402 10.256 170.338 10.04 170.338 9.8C170.338 9.57067 170.391 9.36267 170.498 9.176C170.61 8.98933 170.788 8.84 171.034 8.728C171.284 8.616 171.62 8.56 172.042 8.56H173.386V9.112H172.074C171.69 9.112 171.431 9.176 171.298 9.304C171.164 9.432 171.098 9.58667 171.098 9.768C171.098 9.976 171.18 10.144 171.346 10.272C171.511 10.3947 171.74 10.456 172.034 10.456C172.322 10.456 172.572 10.392 172.786 10.264C173.004 10.136 173.162 9.94933 173.258 9.704L173.41 10.232C173.308 10.4827 173.13 10.6827 172.874 10.832C172.618 10.976 172.295 11.048 171.906 11.048ZM176.903 11.048C176.476 11.048 176.145 10.9333 175.911 10.704C175.676 10.4747 175.559 10.1467 175.559 9.72V5.832H176.327V9.688C176.327 9.91733 176.383 10.0933 176.495 10.216C176.612 10.3387 176.777 10.4 176.991 10.4C177.231 10.4 177.431 10.3333 177.591 10.2L177.831 10.752C177.713 10.8533 177.572 10.928 177.407 10.976C177.247 11.024 177.079 11.048 176.903 11.048ZM174.839 7.392V6.76H177.543V7.392H174.839ZM178.759 11V6.76H179.527V11H178.759ZM179.143 5.944C178.994 5.944 178.869 5.896 178.767 5.8C178.671 5.704 178.623 5.58667 178.623 5.448C178.623 5.304 178.671 5.184 178.767 5.088C178.869 4.992 178.994 4.944 179.143 4.944C179.293 4.944 179.415 4.992 179.511 5.088C179.613 5.17867 179.663 5.29333 179.663 5.432C179.663 5.576 179.615 5.69867 179.519 5.8C179.423 5.896 179.298 5.944 179.143 5.944ZM182.81 11.048C182.383 11.048 182.004 10.9547 181.674 10.768C181.343 10.5813 181.082 10.3253 180.89 10C180.698 9.66933 180.602 9.296 180.602 8.88C180.602 8.45867 180.698 8.08533 180.89 7.76C181.082 7.43467 181.343 7.18133 181.674 7C182.004 6.81333 182.383 6.72 182.81 6.72C183.231 6.72 183.607 6.81333 183.938 7C184.274 7.18133 184.535 7.43467 184.722 7.76C184.914 8.08 185.01 8.45333 185.01 8.88C185.01 9.30133 184.914 9.67467 184.722 10C184.535 10.3253 184.274 10.5813 183.938 10.768C183.607 10.9547 183.231 11.048 182.81 11.048ZM182.81 10.376C183.082 10.376 183.324 10.3147 183.538 10.192C183.756 10.0693 183.927 9.896 184.05 9.672C184.172 9.44267 184.234 9.17867 184.234 8.88C184.234 8.576 184.172 8.31467 184.05 8.096C183.927 7.872 183.756 7.69867 183.538 7.576C183.324 7.45333 183.082 7.392 182.81 7.392C182.538 7.392 182.295 7.45333 182.082 7.576C181.868 7.69867 181.698 7.872 181.57 8.096C181.442 8.31467 181.378 8.576 181.378 8.88C181.378 9.17867 181.442 9.44267 181.57 9.672C181.698 9.896 181.868 10.0693 182.082 10.192C182.295 10.3147 182.538 10.376 182.81 10.376ZM188.336 6.72C188.682 6.72 188.986 6.78667 189.248 6.92C189.514 7.05333 189.722 7.256 189.872 7.528C190.021 7.8 190.096 8.144 190.096 8.56V11H189.328V8.648C189.328 8.23733 189.226 7.928 189.024 7.72C188.826 7.512 188.546 7.408 188.184 7.408C187.912 7.408 187.674 7.46133 187.472 7.568C187.269 7.67467 187.112 7.832 187 8.04C186.893 8.248 186.84 8.50667 186.84 8.816V11H186.072V6.76H186.808V7.904L186.688 7.6C186.826 7.32267 187.04 7.10667 187.328 6.952C187.616 6.79733 187.952 6.72 188.336 6.72Z" fill="#226CBD"/>
<defs>
<clipPath id="clip0_7553_30083">
<rect width="10" height="10" fill="white" transform="translate(4 3)"/>
</clipPath>
<clipPath id="clip1_7553_30083">
<rect width="12" height="12" fill="white" transform="translate(70 2)"/>
</clipPath>
</defs>
</svg>
