<svg width="28" height="28" viewBox="0 0 28 28" fill="none" xmlns="http://www.w3.org/2000/svg">
<path d="M23.3335 4.66675H4.66683C3.3835 4.66675 2.34516 5.71675 2.34516 7.00008L2.3335 21.0001C2.3335 22.2834 3.3835 23.3334 4.66683 23.3334H23.3335C24.6168 23.3334 25.6668 22.2834 25.6668 21.0001V7.00008C25.6668 5.71675 24.6168 4.66675 23.3335 4.66675ZM22.8668 9.62508L14.6185 14.7817C14.2452 15.0151 13.7552 15.0151 13.3818 14.7817L5.1335 9.62508C5.01651 9.55941 4.91407 9.47069 4.83237 9.36428C4.75066 9.25787 4.6914 9.13599 4.65817 9.00601C4.62493 8.87604 4.61842 8.74067 4.63901 8.60811C4.65961 8.47554 4.70689 8.34853 4.77799 8.23477C4.84909 8.121 4.94254 8.02285 5.05268 7.94624C5.16281 7.86964 5.28735 7.81618 5.41874 7.7891C5.55014 7.76202 5.68566 7.76188 5.81711 7.78869C5.94856 7.8155 6.0732 7.8687 6.1835 7.94508L14.0002 12.8334L21.8168 7.94508C21.9271 7.8687 22.0518 7.8155 22.1832 7.78869C22.3147 7.76188 22.4502 7.76202 22.5816 7.7891C22.713 7.81618 22.8375 7.86964 22.9476 7.94624C23.0578 8.02285 23.1512 8.121 23.2223 8.23477C23.2934 8.34853 23.3407 8.47554 23.3613 8.60811C23.3819 8.74067 23.3754 8.87604 23.3422 9.00601C23.3089 9.13599 23.2497 9.25787 23.168 9.36428C23.0863 9.47069 22.9838 9.55941 22.8668 9.62508Z" fill="#6B7280"/>
</svg>
