<svg width="28" height="28" viewBox="0 0 28 28" fill="none" xmlns="http://www.w3.org/2000/svg">
<path d="M14 4C12.845 4 11.7374 4.4795 10.9207 5.33301C10.104 6.18652 9.64516 7.34413 9.64516 8.55118C9.64516 9.75823 10.104 10.9158 10.9207 11.7693C11.7374 12.6229 12.845 13.1024 14 13.1024C15.155 13.1024 16.2626 12.6229 17.0793 11.7693C17.896 10.9158 18.3548 9.75823 18.3548 8.55118C18.3548 7.34413 17.896 6.18652 17.0793 5.33301C16.2626 4.4795 15.155 4 14 4ZM9.35484 15.5297C8.19986 15.5297 7.09219 16.0091 6.2755 16.8627C5.45881 17.7162 5 18.8738 5 20.0808V21.5226C5 22.4377 5.63406 23.2169 6.49806 23.3637C11.4661 24.2121 16.5339 24.2121 21.5019 23.3637C21.9201 23.2926 22.3004 23.0683 22.5748 22.731C22.8493 22.3937 23 21.9654 23 21.5226V20.0808C23 18.8738 22.5412 17.7162 21.7245 16.8627C20.9078 16.0091 19.8001 15.5297 18.6452 15.5297H18.2503C18.0355 15.5297 17.8218 15.5661 17.6186 15.634L16.6129 15.9775C14.915 16.5567 13.085 16.5567 11.3871 15.9775L10.3814 15.634C10.1778 15.5648 9.96498 15.5295 9.75084 15.5297H9.35484Z" fill="#6B7280"/>
</svg>
