<svg width="11" height="16" viewBox="0 0 11 16" fill="none" xmlns="http://www.w3.org/2000/svg">
<path d="M10.2143 16C10.0764 16 9.94087 15.963 9.82143 15.8928L5.5 13.3552L1.17857 15.8928C1.05913 15.963 0.923639 16 0.785719 16C0.647799 16 0.512309 15.963 0.392866 15.8928C0.273423 15.8226 0.174235 15.7216 0.105273 15.6C0.036311 15.4784 3.50366e-06 15.3404 0 15.2V2.4C0.000624026 1.76368 0.249165 1.1536 0.69108 0.703646C1.133 0.253696 1.73218 0.000635372 2.35714 0H8.64286C9.26782 0.000635372 9.867 0.253696 10.3089 0.703646C10.7508 1.1536 10.9994 1.76368 11 2.4V15.2C11 15.4122 10.9172 15.6157 10.7699 15.7657C10.6225 15.9157 10.4227 16 10.2143 16Z" fill="white" fill-opacity="0.6"/>
</svg>
