<svg width="121" height="104" viewBox="0 0 121 104" fill="none" xmlns="http://www.w3.org/2000/svg">
<path d="M83.3209 68.0082C82.1216 68.1718 80.8798 67.6633 80.2181 66.629L77.2257 61.9514C76.3471 60.578 76.8237 58.7978 78.2901 57.975C79.757 57.1524 81.6575 57.5985 82.5361 58.9718L85.5285 63.6495C86.4071 65.0228 85.9305 66.803 84.4641 67.6257C84.1021 67.8289 83.7138 67.9545 83.3209 68.0082Z" fill="#232323"/>
<path d="M80.1768 62.4211L81.2679 61.7125C83.2214 60.4438 85.8316 60.8015 87.0979 62.5115L96.8057 75.6204C97.7856 76.9436 97.3545 78.8121 95.8429 79.7938L92.5229 81.9501C90.9663 82.961 88.8826 82.6336 87.9397 81.2299L78.8396 67.6828C77.6911 65.9731 78.281 63.6524 80.1768 62.4211Z" fill="white"/>
<path d="M90.5372 82.6696C90.3087 82.6696 90.0806 82.6485 89.8564 82.6056C88.9938 82.4406 88.2681 81.9764 87.8128 81.2985L78.7126 67.7516C77.5191 65.9745 78.1241 63.5823 80.0902 62.3054L81.1812 61.5967C82.1564 60.9634 83.32 60.7004 84.458 60.8563C85.5994 61.0128 86.578 61.5716 87.2136 62.43L96.9215 75.5389C97.4187 76.2102 97.5876 77.0345 97.3971 77.86C97.2075 78.6821 96.6835 79.4073 95.9221 79.9019L92.6021 82.0581C91.9858 82.4583 91.2601 82.6696 90.5372 82.6696ZM83.8146 61.0849C82.9479 61.0849 82.0897 61.3383 81.347 61.8206L80.256 62.5293C78.4181 63.7229 77.8483 65.953 78.9589 67.6065L88.059 81.1534C88.4716 81.7678 89.1306 82.1887 89.9146 82.3387C90.7709 82.5026 91.6902 82.3187 92.4361 81.8342L95.7561 79.678C96.4568 79.2229 96.9385 78.5569 97.1126 77.8025C97.2859 77.0515 97.1331 76.3028 96.6824 75.6941L86.9746 62.5852C86.3853 61.7896 85.4766 61.2713 84.4157 61.1258C84.2159 61.0985 84.0149 61.0849 83.8146 61.0849Z" fill="#232323"/>
<path d="M91.8455 81.8154C91.6171 81.8154 91.3891 81.7943 91.1648 81.7513C90.3022 81.5864 89.5764 81.1222 89.121 80.4443L80.021 66.8973C78.9419 65.291 79.335 63.0795 80.9354 61.7529C80.9955 61.7032 81.0873 61.7082 81.1408 61.7647C81.1941 61.8211 81.1884 61.9071 81.1283 61.957C79.6333 63.1961 79.2631 65.2576 80.2673 66.7522L89.3673 80.2992C89.78 80.9136 90.4389 81.3345 91.223 81.4844C92.0799 81.6485 92.9987 81.4643 93.7445 80.9799C93.8107 80.9368 93.9013 80.9524 93.9469 81.0142C93.9928 81.076 93.9763 81.1609 93.9104 81.2038C93.2942 81.604 92.5683 81.8154 91.8455 81.8154Z" fill="#232323"/>
<path d="M73.9725 53.6195L75.2418 52.0371L71.9998 49.4332C71.5226 49.0498 70.8516 49.0933 70.5011 49.5304C70.1505 49.9673 70.2533 50.6323 70.7306 51.0156L73.9725 53.6195Z" fill="white"/>
<path d="M75.5623 53.0101L76.8316 51.4277L73.5897 48.8238C73.1124 48.4405 72.4414 48.484 72.0909 48.921C71.7404 49.3579 71.8432 50.0229 72.3204 50.4062L75.5623 53.0101Z" fill="white"/>
<path d="M71.3679 54.1358L73.3467 53.0987L68.837 46.344C68.542 45.8806 67.9019 45.7288 67.4073 46.0051C66.9127 46.2815 66.7508 46.8812 67.0458 47.3447L71.3679 54.1358Z" fill="white"/>
<path d="M75.0231 60.2578L75.901 61.0584C76.6273 61.9425 77.9841 62.1024 78.9216 61.4142L80.9005 59.9615C81.7241 59.3569 81.9611 58.2838 81.4609 57.4229L80.6212 55.5822C80.1904 54.8731 79.5458 53.8715 78.9384 53.2868L76.4755 51.1484L71.3711 54.1363L75.0231 60.2578Z" fill="white"/>
<path d="M74.7505 51.7988C74.7167 51.7988 74.6827 51.7878 74.6551 51.7655L71.9089 49.5351C71.5307 49.2313 71.2517 49.175 70.9763 49.3474C70.9095 49.3891 70.8192 49.3725 70.7746 49.3098C70.7299 49.2473 70.7479 49.1627 70.8146 49.1208C71.3313 48.7975 71.7951 49.0847 72.099 49.3288L74.8458 51.5597C74.9064 51.609 74.913 51.695 74.8604 51.7519C74.8315 51.783 74.7911 51.7988 74.7505 51.7988Z" fill="#232323"/>
<path d="M76.4689 51.2774C76.4352 51.2774 76.4015 51.2666 76.374 51.2445L73.4895 48.9225C73.2806 48.7547 73.016 48.6734 72.7638 48.699C72.5377 48.7221 72.3382 48.8283 72.2019 48.9983C72.1148 49.1068 72.0587 49.2327 72.0351 49.3722C72.0228 49.4466 71.95 49.4976 71.8688 49.4856C71.7896 49.4739 71.7353 49.4041 71.7479 49.3298C71.7785 49.1483 71.855 48.9771 71.9692 48.8346C72.1545 48.6039 72.4254 48.4595 72.732 48.4281C73.0633 48.3944 73.409 48.499 73.6792 48.7158L76.5638 51.0379C76.6246 51.0869 76.6315 51.173 76.5793 51.23C76.5504 51.2613 76.5098 51.2774 76.4689 51.2774Z" fill="#232323"/>
<path d="M71.3684 54.2679C71.3188 54.2679 71.2705 54.2442 71.2432 54.2014L66.9212 47.4103C66.5858 46.8829 66.7706 46.1983 67.3334 45.884C67.606 45.7317 67.9258 45.6882 68.2333 45.7609C68.5411 45.8339 68.8 46.0147 68.9625 46.2701L73.2126 52.6476C73.2551 52.7114 73.2343 52.7955 73.1661 52.8353C73.0982 52.8752 73.0082 52.8556 72.9657 52.7918L68.7141 46.4119C68.5898 46.2166 68.3943 46.0801 68.162 46.025C67.9294 45.9699 67.6882 46.0031 67.4825 46.118C67.0574 46.3553 66.9178 46.8724 67.1713 47.2708L71.4933 54.0618C71.5344 54.1265 71.5118 54.2101 71.4428 54.2486C71.4194 54.2617 71.3937 54.2679 71.3684 54.2679Z" fill="#232323"/>
<path d="M75.0227 60.2506L74.7709 56.2149L67.7345 54.3597C67.1623 54.1623 66.5751 54.4456 66.423 54.9923C66.2708 55.5391 66.6115 56.1422 67.1837 56.3396L70.2911 57.4112L75.0227 60.2506Z" fill="white"/>
<path d="M72.8704 56.4462C72.8227 56.4462 72.7758 56.4242 72.7479 56.3838L71.2458 54.2023C71.2024 54.1391 71.2218 54.0548 71.2893 54.014C71.3569 53.9731 71.4469 53.9914 71.4905 54.0547L72.9926 56.2361C73.0361 56.2994 73.0166 56.3836 72.9491 56.4244C72.9246 56.4392 72.8974 56.4462 72.8704 56.4462Z" fill="#232323"/>
<path d="M77.681 61.9319C77.0183 61.932 76.3633 61.6623 75.9115 61.1465L74.9362 60.363L70.2263 57.5367L67.1339 56.4703C66.4944 56.2497 66.1125 55.5725 66.2827 54.9609C66.3662 54.6607 66.5675 54.4195 66.8494 54.2815C67.1349 54.1416 67.4673 54.1251 67.7854 54.2347L72.3649 55.4421C72.4422 55.4624 72.4872 55.5376 72.4654 55.61C72.4435 55.6825 72.3634 55.7249 72.2859 55.7042L67.6956 54.4936C67.445 54.4076 67.1962 54.4192 66.984 54.523C66.7759 54.6249 66.6268 54.8047 66.5643 55.0295C66.4308 55.5095 66.7313 56.0411 67.2345 56.2146L70.3418 57.2862C70.3517 57.2896 70.3612 57.294 70.3699 57.2993L75.1016 60.1388C75.1072 60.1422 75.1128 60.146 75.1179 60.1501L76.1109 60.9475C76.1174 60.9529 76.1237 60.9588 76.1292 60.9651C76.8036 61.7445 78.0068 61.888 78.8681 61.2917L80.8341 59.9311C81.6699 59.3527 81.9058 58.2824 81.3829 57.4415L79.8135 54.67C79.4569 54.0834 79.0191 53.5377 78.5139 53.0515L76.3782 51.2452C76.3186 51.1948 76.3139 51.1087 76.3677 51.0527C76.4216 50.9968 76.5136 50.9926 76.5731 51.043L78.7156 52.8554C79.2448 53.3641 79.6975 53.9285 80.0684 54.5388L81.6372 57.309C82.2319 58.2656 81.9623 59.489 81.0071 60.1501L79.0411 61.5108C78.6314 61.7944 78.1541 61.9319 77.681 61.9319Z" fill="#232323"/>
<path d="M69.3244 57.1477C69.1973 57.1478 69.07 57.1278 68.9471 57.0857C68.8717 57.0598 68.8329 56.9816 68.8604 56.911C68.8882 56.8404 68.9721 56.8041 69.0471 56.8299C69.5225 56.9927 70.087 56.7106 70.281 56.2141C70.4723 55.7246 70.2398 55.1932 69.7628 55.0297C69.6874 55.0038 69.6486 54.9256 69.6762 54.855C69.7039 54.7843 69.7878 54.7482 69.8628 54.7739C70.4906 54.989 70.8007 55.6772 70.5543 56.3078C70.3549 56.8176 69.8413 57.1477 69.3244 57.1477Z" fill="#232323"/>
<path d="M71.852 58.2765C71.6806 58.2765 71.5066 58.2471 71.3371 58.1869C71.1973 58.1396 71.0612 58.0683 70.9347 57.9754C70.8714 57.9291 70.8603 57.8434 70.9099 57.7842C70.9594 57.725 71.0509 57.7145 71.114 57.761C71.2163 57.8359 71.3253 57.8933 71.438 57.9315C71.8636 58.0827 72.3233 57.9915 72.6393 57.6944C73.0295 57.3277 73.0818 56.7559 72.7583 56.3927C72.7403 56.372 72.7222 56.3525 72.7026 56.3342C72.6458 56.2811 72.6457 56.1949 72.7023 56.1416C72.759 56.0884 72.8511 56.0881 72.9081 56.1413C72.9348 56.1663 72.9596 56.1928 72.9827 56.2194C73.4004 56.6884 73.3406 57.4213 72.8454 57.8867C72.5742 58.1418 72.2191 58.2765 71.852 58.2765Z" fill="#232323"/>
<path d="M69.7396 50.7874C69.3416 50.7874 68.9633 50.6111 68.7518 50.2866C68.7099 50.2224 68.7316 50.1386 68.8001 50.0994C68.8689 50.0604 68.9582 50.0805 69.0001 50.1447C69.2499 50.5276 69.8178 50.6307 70.2661 50.3743C70.7143 50.118 70.8761 49.5979 70.6265 49.215C70.5846 49.1507 70.6063 49.0669 70.6749 49.0277C70.7433 48.9887 70.8329 49.0088 70.8748 49.073C71.208 49.5842 71.0028 50.2722 70.4177 50.6068C70.2039 50.729 69.9685 50.7874 69.7396 50.7874Z" fill="#232323"/>
<path d="M72.019 54.297C71.7825 54.297 71.5505 54.2342 71.3535 54.1086C71.2217 54.0246 71.1139 53.9191 71.0331 53.7949C70.9912 53.7307 71.0129 53.6469 71.0815 53.6076C71.1497 53.5685 71.2394 53.5887 71.2813 53.653C71.3404 53.7438 71.4198 53.8213 71.5171 53.8833C71.8133 54.0721 72.2176 54.0717 72.547 53.8826C72.8848 53.6892 73.0725 53.3335 73.0143 52.9974C72.9979 52.8978 72.9622 52.8058 72.9079 52.7232C72.8658 52.659 72.8873 52.5751 72.9558 52.5358C73.0239 52.4965 73.1136 52.5164 73.1559 52.5805C73.2305 52.6942 73.2795 52.8202 73.3017 52.9548C73.3784 53.3979 73.1363 53.8645 72.6989 54.1149C72.4875 54.2364 72.2511 54.297 72.019 54.297Z" fill="#232323"/>
<path d="M73.9783 53.3335C73.714 53.3335 73.4492 53.2489 73.2334 53.0798C73.1751 53.0354 73.1216 52.9858 73.0758 52.9334C73.0249 52.8752 73.0342 52.7894 73.0964 52.7417C73.1584 52.694 73.25 52.7026 73.3011 52.7609C73.3344 52.799 73.3738 52.8356 73.4185 52.8696C73.7407 53.1219 74.2051 53.1246 74.525 52.8774C74.6419 52.7871 74.7295 52.6717 74.7787 52.5436C74.8556 52.3557 74.8556 52.1522 74.7798 51.9678C74.7454 51.8801 74.6969 51.8011 74.6348 51.7312C74.5835 51.6733 74.592 51.5874 74.6538 51.5394C74.7154 51.491 74.8072 51.4993 74.8587 51.557C74.9419 51.651 75.0071 51.757 75.0521 51.872C75.1528 52.1172 75.1528 52.3901 75.0514 52.6383C74.9856 52.8099 74.8673 52.9661 74.7101 53.0875C74.4981 53.2516 74.2384 53.3335 73.9783 53.3335Z" fill="#232323"/>
<path d="M75.3752 52.0418C75.2369 52.0418 75.0994 52.0133 74.9722 51.9543C74.9048 51.9228 74.8444 51.8854 74.7923 51.8431C74.7317 51.7938 74.7251 51.7077 74.7777 51.6509C74.8306 51.5941 74.9223 51.5881 74.9829 51.6372C75.0167 51.6647 75.0566 51.6893 75.1017 51.7103C75.3728 51.8361 75.7159 51.7567 75.936 51.5174C76.0797 51.3604 76.1449 51.1604 76.1144 50.9688C76.1026 50.8943 76.1574 50.8251 76.2368 50.8139C76.317 50.8031 76.3904 50.8542 76.4022 50.9286C76.445 51.1986 76.3556 51.4779 76.1565 51.6951C75.9496 51.92 75.661 52.0418 75.3752 52.0418Z" fill="#232323"/>
<path d="M74.0212 54.122C74.0212 54.1422 74.0212 54.1609 74.0196 54.1795C73.9874 54.8257 73.4188 55.338 72.7243 55.338C72.0066 55.338 71.4258 54.794 71.4258 54.122C71.4258 54.0803 71.4289 54.0371 71.4319 53.9968C71.7639 54.2083 72.2309 54.2227 72.6198 53.9997C73.0193 53.7709 73.2206 53.3579 73.1545 52.9766C73.2114 52.9953 73.2682 53.0183 73.3205 53.0442C73.7369 53.2457 74.0212 53.6529 74.0212 54.122Z" fill="#232323"/>
<path d="M75.9157 53.0997V53.117C75.905 53.7818 75.3287 54.3157 74.6188 54.3157C74.4021 54.3157 74.1993 54.2668 74.0211 54.179C73.6046 53.9776 73.3203 53.5703 73.3203 53.0997C73.3203 53.081 73.3203 53.0623 73.3219 53.0436C73.3234 53.0206 73.325 52.9976 73.3264 52.9745C73.6937 53.2623 74.2377 53.2753 74.6173 52.9818C74.7571 52.8738 74.8585 52.7371 74.9154 52.5889C74.7725 52.3932 75.043 52.4833 75.043 52.2286L74.8276 51.8203C74.9059 51.8246 74.8416 51.901 74.9154 51.9183C75.4885 52.0435 75.9157 52.5241 75.9157 53.0997Z" fill="#232323"/>
<path d="M77.283 52.0065C77.283 52.5907 76.7759 53.0656 76.152 53.0656C76.1305 53.0656 76.1105 53.0656 76.0906 53.0642C75.7264 53.0455 75.4099 52.867 75.2178 52.6037C75.0933 52.4339 75.0195 52.2296 75.0195 52.0065V51.9921C75.0211 51.9389 75.0257 51.8871 75.0364 51.8367C75.3591 51.9864 75.7787 51.9015 76.0461 51.6108C76.2228 51.4179 76.2935 51.1748 76.2581 50.9531C76.8328 51.002 77.283 51.4538 77.283 52.0065Z" fill="#232323"/>
<path d="M73.8125 57.4782C73.8125 58.1459 73.233 58.6884 72.5201 58.6884C72.0345 58.6884 71.6104 58.4365 71.3906 58.0667C71.8485 58.2293 72.3741 58.1458 72.7444 57.7976C73.1946 57.3745 73.2423 56.7284 72.872 56.3125C73.4144 56.4564 73.8125 56.9241 73.8125 57.4782Z" fill="#232323"/>
<path d="M97.4144 74.8074C96.7692 74.8074 96.2461 74.3175 96.2461 73.7133V59.9379C96.2461 59.3336 96.7692 58.8438 97.4144 58.8438H103.45C104.095 58.8438 104.618 59.3336 104.618 59.9379V68.0614C104.618 71.7871 101.393 74.8074 97.4144 74.8074Z" fill="#232323"/>
<path d="M90.8746 54.9885C90.8147 55.4405 90.7656 55.8829 90.7302 56.3149C90.4205 59.9128 90.8769 62.8089 91.347 64.6814C91.724 66.1822 93.2915 67.1216 94.908 66.8326C99.2038 66.0629 103.651 63.839 105.99 60.5044C107.88 58.9906 109.076 56.7415 109.071 54.2309C109.062 49.6856 105.119 46.0074 100.264 46.0156C97.6458 46.0201 95.2987 47.0977 93.6923 48.8015C93.5967 48.8851 93.5031 48.9701 93.4126 49.0587C92.4526 49.9915 91.7659 51.2261 91.3181 52.7932C91.1276 53.4639 90.9811 54.1947 90.8746 54.9885Z" fill="white"/>
<path d="M94.3128 67.0176C93.1431 67.0176 92.0585 66.4264 91.4947 65.437C91.4503 65.3579 91.417 65.2917 91.389 65.2278C91.3119 65.066 91.2487 64.89 91.2027 64.7084C90.752 62.9182 90.2767 60.027 90.572 56.4193C90.5722 56.4161 90.5736 56.4045 90.574 56.4012C90.5752 56.371 90.5785 56.3337 90.5819 56.2982C90.6144 55.9128 90.6573 55.5115 90.7094 55.1073C90.7141 55.063 90.7208 55.0142 90.7276 54.9667C90.79 54.497 90.8637 54.0695 90.9525 53.6609C91.0121 53.3681 91.0849 53.0711 91.1744 52.7546C91.2244 52.579 91.2792 52.4025 91.3375 52.2297C91.4816 51.7997 91.6473 51.3944 91.8296 51.0252C91.9685 50.7406 92.1236 50.4654 92.29 50.2078L92.3733 50.0795C92.4041 50.0331 92.4355 49.9879 92.4672 49.9428C92.53 49.8554 92.5867 49.7768 92.6482 49.6996C92.8214 49.4726 93.0053 49.2614 93.2088 49.0565C93.2414 49.0228 93.2734 48.9898 93.3071 48.9584C93.3114 48.9534 93.3162 48.9483 93.3209 48.9439C93.4078 48.8596 93.4974 48.7787 93.5884 48.698C95.2715 46.9115 97.7064 45.8793 100.26 45.875C100.265 45.875 100.271 45.875 100.276 45.875C103.115 45.875 105.722 47.0958 107.429 49.2262C108.592 50.6776 109.209 52.4066 109.213 54.2264C109.219 56.6677 108.087 58.9846 106.106 60.5833L106.097 60.5904C103.923 63.6775 99.647 66.1181 94.9326 66.962C94.7251 66.9994 94.5175 67.0176 94.3128 67.0176ZM100.276 46.1476C100.271 46.1476 100.266 46.1476 100.261 46.1476C97.7906 46.1518 95.4349 47.1503 93.7978 48.8872C93.7007 48.9739 93.6142 49.0519 93.5294 49.1342C93.5232 49.1411 93.5183 49.1462 93.5137 49.1506C93.4827 49.1796 93.454 49.2094 93.4253 49.239C93.2271 49.4385 93.051 49.6406 92.8834 49.8603C92.823 49.9362 92.7689 50.0114 92.7149 50.0865C92.6804 50.1355 92.6501 50.1789 92.6214 50.2222L92.5391 50.3491C92.3783 50.5976 92.2286 50.8635 92.094 51.1391C91.9167 51.4982 91.7556 51.8925 91.6152 52.3115C91.5582 52.4807 91.5045 52.6532 91.4556 52.8246C91.368 53.1347 91.2968 53.4256 91.238 53.7136C91.1503 54.117 91.0778 54.5378 91.0162 55.0016C91.0098 55.0471 91.0034 55.0928 90.9987 55.137C90.9467 55.5404 90.9041 55.938 90.8719 56.3213C90.8686 56.3545 90.8656 56.3877 90.8641 56.4193C90.8638 56.4239 90.8625 56.4368 90.8618 56.4413C90.5696 60.0129 91.04 62.8744 91.486 64.6458C91.5277 64.8108 91.5849 64.9705 91.6564 65.1205C91.6826 65.1801 91.7125 65.239 91.7519 65.3096C92.3536 66.3652 93.6106 66.922 94.8781 66.6945C99.5262 65.8625 103.736 63.4603 105.865 60.4252C105.873 60.4133 105.884 60.4028 105.895 60.3939C105.908 60.3837 105.914 60.3783 105.921 60.3734C107.832 58.8303 108.928 56.5887 108.922 54.227V54.2269C108.919 52.4664 108.322 50.7938 107.196 49.3898C105.545 47.3288 103.023 46.1476 100.276 46.1476Z" fill="#232323"/>
<path d="M90.8645 55.1074C90.804 55.5593 90.7535 56.0015 90.7157 56.4332C90.3884 60.0287 90.7787 62.9159 91.1934 64.781C91.2178 64.893 91.2492 65.0025 91.2868 65.1073C91.9221 65.7072 92.8623 66.0045 93.795 65.8152C97.3087 65.102 100.945 63.2602 103.269 60.5388C103.301 60.5431 103.333 60.5485 103.367 60.553C103.372 60.5538 103.378 60.5545 103.383 60.5553C104.188 60.6588 104.995 60.3503 105.524 59.7724C106.847 58.3258 107.677 56.4158 107.735 54.3232C107.443 52.5357 106.339 51.1621 104.839 50.9601C103.845 50.8264 102.863 51.2317 102.076 51.9972C100.85 50.77 99.104 49.8676 97.0603 49.5316C95.537 49.2799 94.0679 49.3959 92.7546 49.7878C92.1224 50.6317 91.6435 51.6681 91.3004 52.9112C91.1162 53.5825 90.9721 54.3137 90.8645 55.1074Z" fill="#232323"/>
<path d="M109.067 54.2308C109.074 56.7313 107.886 58.9709 106.011 60.4843C105.713 60.4415 105.366 60.3607 105.026 60.2738C104.724 60.196 104.429 60.112 104.179 60.0464C103.947 59.9853 103.755 59.9381 103.631 59.9212C103.599 59.9168 103.566 59.9107 103.535 59.906C103.455 59.9991 103.375 60.0907 103.292 60.1821C101.388 62.2815 98.6983 63.8284 95.9256 64.6995C95.9239 64.6995 95.9239 64.701 95.9224 64.701C95.3034 64.8963 94.6794 65.0564 94.0603 65.1831C93.1268 65.3723 92.1869 65.0748 91.5515 64.4753C91.514 64.3699 91.4831 64.2601 91.4587 64.1487C91.0448 62.2844 90.6539 59.3965 90.9813 55.8006C90.9993 55.5871 91.022 55.3703 91.0466 55.1507C91.071 54.928 91.0987 54.7021 91.1296 54.4749C91.1654 54.214 91.2046 53.9591 91.2485 53.7121C91.3365 53.2085 91.4424 52.7341 91.5646 52.2855C91.5646 52.2841 91.5661 52.2809 91.5661 52.2794C91.6689 51.9073 91.7845 51.5518 91.9132 51.2161C91.9278 51.1719 91.9441 51.1292 91.962 51.0865C92.239 50.3846 92.5729 49.7653 92.9688 49.2236C92.9851 49.2008 93.003 49.1779 93.0194 49.1551C93.1529 49.1153 93.2881 49.0788 93.425 49.0436C94.6322 48.7431 95.9566 48.673 97.325 48.8987C99.2637 49.2191 100.933 50.046 102.144 51.178C102.212 51.2391 102.277 51.3015 102.341 51.3655C102.673 51.0422 103.042 50.7828 103.431 50.6013C103.96 50.3526 104.531 50.2504 105.104 50.3282C105.606 50.3954 106.489 49.8018 107.313 49.3121C108.413 50.6837 109.064 52.3864 109.067 54.2308Z" fill="#232323"/>
<path d="M107.18 55.1232C106.857 56.9935 105.914 58.6595 104.577 59.8937C104.572 59.8984 104.565 59.9045 104.56 59.9091C104.155 60.0922 103.728 60.1897 103.295 60.1866C103.172 60.1866 103.052 60.179 102.93 60.1623C102.896 60.1577 102.865 60.1516 102.832 60.1485C101.074 62.2066 98.5654 63.7627 95.9246 64.7055C95.0758 65.0091 94.2125 65.2502 93.3572 65.424C92.717 65.5538 92.0734 65.4546 91.5261 65.1846C91.4365 65.1404 91.3501 65.093 91.267 65.0397C91.1172 64.9451 90.977 64.8368 90.85 64.7162C90.8125 64.6109 90.7816 64.5026 90.7572 64.3898C90.3417 62.5254 89.9507 59.6374 90.2782 56.0415C90.2994 55.8097 90.3238 55.5762 90.3515 55.3383C90.3613 55.2499 90.3711 55.1613 90.3825 55.0728C90.3955 54.9553 90.4118 54.8364 90.4281 54.7159C90.4656 54.4352 90.508 54.1636 90.5568 53.8981C90.5715 53.8096 90.5894 53.7227 90.6057 53.6358C90.6789 53.2467 90.7653 52.8759 90.863 52.5204C90.8679 52.5052 90.8712 52.49 90.876 52.4747C90.9005 52.3862 90.9267 52.2977 90.9526 52.2124C91.2883 51.1048 91.7378 50.1711 92.3178 49.3961C92.5312 49.332 92.7495 49.277 92.9711 49.2282C93.0852 49.2022 93.2008 49.1795 93.3181 49.158C94.3606 48.9704 95.4767 48.9521 96.6235 49.1398C98.6207 49.4692 100.333 50.3373 101.553 51.5243C101.584 51.5518 101.612 51.5791 101.639 51.6067L101.644 51.602C101.804 51.4463 101.972 51.306 102.146 51.1825C102.547 50.8972 102.982 50.6989 103.433 50.6058C103.751 50.5388 104.077 50.5249 104.402 50.5692C105.093 50.6623 105.699 51.0025 106.181 51.5182C106.383 51.7348 106.562 51.9804 106.717 52.2535C107.217 53.1277 107.348 54.1423 107.18 55.1232Z" fill="white"/>
<path d="M93.898 53.7684L93.7482 54.8195C93.6766 55.3246 93.1813 55.6801 92.642 55.6114L90.3694 55.3275L90.3516 55.3245C90.3613 55.2361 90.3712 55.1475 90.3825 55.0591C90.3956 54.9415 90.4119 54.8226 90.4281 54.7021C90.4656 54.4214 90.508 54.1498 90.5568 53.8843C90.5715 53.7958 90.5894 53.709 90.6057 53.622C90.6789 53.233 90.7654 52.8621 90.8631 52.5067C90.868 52.4915 90.8712 52.4763 90.8761 52.4609L93.0526 52.7326C93.5918 52.7995 93.9697 53.2633 93.898 53.7684Z" fill="white"/>
<path d="M92.7791 55.7648C92.7281 55.7648 92.6767 55.7615 92.6251 55.755L90.3527 55.4706C90.2732 55.4606 90.2172 55.3921 90.2279 55.3175C90.2385 55.243 90.3114 55.1906 90.3913 55.2005L92.6639 55.485C92.8847 55.5128 93.1056 55.4588 93.2836 55.3317C93.4622 55.2042 93.5768 55.019 93.6065 54.8103L93.7563 53.759C93.7859 53.5508 93.7274 53.3444 93.5912 53.1777C93.4553 53.011 93.258 52.9039 93.0358 52.8762L90.8633 52.6151C90.7836 52.6055 90.7272 52.5373 90.7375 52.4626C90.7478 52.3881 90.8207 52.3353 90.9003 52.3449L93.0735 52.6061C93.3735 52.6434 93.6393 52.7877 93.8225 53.0122C94.0056 53.2367 94.0844 53.5147 94.0446 53.795L93.8948 54.8463C93.8549 55.1272 93.7005 55.3765 93.46 55.5483C93.2616 55.69 93.0244 55.7648 92.7791 55.7648Z" fill="#232323"/>
<path d="M92.2857 54.2485C92.2793 54.2485 92.2728 54.2481 92.2661 54.2473L90.5362 54.029C90.4566 54.0189 90.4008 53.9503 90.4115 53.8758C90.4221 53.8013 90.4933 53.7495 90.5751 53.7589L92.3051 53.9773C92.3846 53.9873 92.4405 54.056 92.4298 54.1305C92.4199 54.1989 92.3575 54.2485 92.2857 54.2485Z" fill="#232323"/>
<path d="M92.7927 65.612C92.3316 65.612 91.8713 65.5065 91.4547 65.3009C91.3525 65.2504 91.263 65.2003 91.1812 65.1478C91.0231 65.0481 90.8753 64.9334 90.7429 64.8077C90.7272 64.7929 90.7154 64.7749 90.7085 64.7551C90.6693 64.6451 90.6364 64.5299 90.611 64.4127C90.2079 62.6038 89.7971 59.6796 90.1297 56.0258C90.1605 55.6916 90.1948 55.3735 90.2344 55.053C90.2471 54.9389 90.263 54.822 90.279 54.7035C90.3323 54.3095 90.3925 53.9434 90.459 53.6068C90.5306 53.2268 90.618 52.8481 90.7186 52.4823C90.7484 52.3769 90.7781 52.2722 90.8092 52.1707C91.1536 51.0344 91.6069 50.0998 92.195 49.3138C92.2134 49.2894 92.2396 49.2713 92.2699 49.2623C92.4754 49.2005 92.6927 49.1447 92.9342 49.0914C93.0495 49.0652 93.1673 49.042 93.2866 49.0201C94.3845 48.8226 95.5143 48.8164 96.645 49.0015C98.5909 49.3223 100.362 50.1768 101.637 51.4084C101.772 51.2841 101.912 51.1711 102.055 51.0697C102.48 50.7671 102.932 50.5648 103.398 50.4686C103.737 50.3971 104.081 50.3842 104.42 50.4301C105.122 50.5248 105.768 50.8686 106.287 51.4243C106.495 51.6473 106.682 51.903 106.843 52.1844C107.338 53.0517 107.503 54.0737 107.319 55.1401C107.002 56.9856 106.063 58.7068 104.675 59.9866L104.661 59.9998C104.65 60.0112 104.636 60.0207 104.62 60.0276C104.185 60.224 103.734 60.3221 103.29 60.3187C103.159 60.3187 103.032 60.3103 102.905 60.293L102.889 60.2906C101.218 62.222 98.765 63.8318 95.9731 64.8286C95.1216 65.1332 94.2507 65.377 93.3846 65.553C93.1894 65.5925 92.9909 65.612 92.7927 65.612ZM90.9738 64.6387C91.0867 64.7428 91.2112 64.8382 91.3448 64.9225C91.4183 64.9697 91.4984 65.0145 91.5904 65.0599C92.1258 65.324 92.741 65.4048 93.3228 65.2867C94.1745 65.1136 95.0312 64.8738 95.8693 64.574C98.6429 63.5837 101.074 61.9804 102.715 60.0592C102.746 60.0232 102.793 60.0033 102.843 60.0088C102.867 60.011 102.889 60.0145 102.913 60.0182L102.947 60.0233C103.066 60.0397 103.185 60.0462 103.31 60.0463C103.7 60.0463 104.09 59.9608 104.472 59.792C105.817 58.549 106.725 56.8832 107.032 55.0966C107.205 54.0897 107.051 53.1271 106.586 52.3128C106.436 52.0496 106.262 51.811 106.068 51.6037C105.595 51.0976 105.011 50.785 104.378 50.6998C104.075 50.6586 103.766 50.6702 103.461 50.7345C103.036 50.8223 102.622 51.0081 102.231 51.2867C102.063 51.4059 101.899 51.5422 101.746 51.6923C101.718 51.7191 101.678 51.7364 101.638 51.7364C101.638 51.7364 101.638 51.7364 101.637 51.7364C101.598 51.7363 101.557 51.7231 101.53 51.6959C101.504 51.6703 101.478 51.6447 101.45 51.6192C100.211 50.4149 98.4889 49.5822 96.5944 49.2698C95.4986 49.0905 94.4043 49.0964 93.3418 49.2875C93.2273 49.3085 93.1135 49.331 93.0015 49.3563C92.7851 49.4041 92.5896 49.4537 92.405 49.5077C91.8494 50.2607 91.4187 51.1567 91.0887 52.2453C91.058 52.3455 91.0289 52.4483 90.9999 52.551C90.9015 52.9091 90.8156 53.281 90.745 53.6552C90.6792 53.9879 90.62 54.3487 90.5686 54.7288C90.5516 54.8542 90.5359 54.9692 90.5233 55.0828C90.4838 55.4022 90.4498 55.7178 90.4193 56.0491C90.0896 59.6699 90.4964 62.5659 90.8957 64.3579C90.9168 64.4541 90.943 64.5483 90.9738 64.6387Z" fill="#232323"/>
<path d="M98.1115 55.3519C97.8324 57.9713 99.15 60.2471 101.068 60.4969C101.1 60.4998 101.132 60.5039 101.164 60.5069C101.712 60.5581 102.249 60.4395 102.744 60.1847C104.03 59.5231 105.038 57.9411 105.243 56.0182C105.315 55.3456 105.281 54.6962 105.16 54.0982C104.799 52.3254 103.664 51.0008 102.192 50.8633C101.217 50.7721 100.276 51.2191 99.541 52.0172C98.7907 52.8304 98.2547 54.0077 98.1115 55.3519Z" fill="white"/>
<path d="M101.42 60.6509C101.331 60.6509 101.241 60.6467 101.151 60.6383L101.055 60.6282C99.0337 60.365 97.6801 58.0398 97.9683 55.3341C98.11 54.0049 98.6299 52.7937 99.4324 51.9239C100.23 51.0572 101.215 50.6307 102.208 50.7234C103.704 50.8632 104.919 52.1762 105.304 54.0684C105.432 54.6995 105.461 55.3586 105.39 56.0276C105.188 57.9222 104.177 59.5992 102.815 60.2999C102.362 60.5332 101.894 60.6509 101.42 60.6509ZM98.2578 55.3611C97.9898 57.878 99.2603 60.1194 101.09 60.3578L101.18 60.3672C101.686 60.4147 102.189 60.3115 102.675 60.0611C103.956 59.4024 104.907 57.8085 105.1 56.0006C105.169 55.3576 105.141 54.7248 105.018 54.1194C104.658 52.3487 103.543 51.1221 102.179 50.9946C101.285 50.9106 100.387 51.3043 99.6526 52.1019C98.8888 52.9299 98.3935 54.0872 98.2578 55.3611Z" fill="#232323"/>
<path d="M103.374 55.864C103.572 54.0045 102.618 52.3929 101.243 52.2644C99.8674 52.1359 98.5921 53.5391 98.3939 55.3987C98.1958 57.2582 99.1499 58.8698 100.525 58.9983C101.9 59.1268 103.175 57.7235 103.374 55.864Z" fill="#232323"/>
<path d="M100.739 58.4254C100.688 58.4254 100.637 58.4231 100.586 58.4183C100.016 58.3651 99.5158 58.0204 99.1768 57.4478C98.8473 56.8914 98.7089 56.182 98.7868 55.4505C98.9498 53.922 100.02 52.7671 101.177 52.8741C102.331 52.982 103.138 54.3133 102.976 55.8419C102.898 56.5735 102.612 57.2432 102.172 57.7276C101.76 58.1815 101.256 58.4254 100.739 58.4254ZM99.0764 55.4775C99.0042 56.1545 99.1302 56.8073 99.4312 57.3158C99.7225 57.8079 100.143 58.1032 100.615 58.1473C101.087 58.1916 101.561 57.9797 101.95 57.5512C102.353 57.1085 102.614 56.4919 102.686 55.815C102.833 54.4359 102.143 53.2382 101.148 53.1452C100.151 53.0524 99.2231 54.0985 99.0764 55.4775Z" fill="white"/>
<path d="M113.077 100.477L111.458 100.461C108.559 100.431 106.234 98.2057 106.266 95.4907L106.509 74.6767C106.534 72.5757 108.373 70.8912 110.616 70.9143L115.543 70.9648C117.853 70.9886 119.677 72.8094 119.555 74.9699L118.377 95.8209C118.229 98.4524 115.891 100.506 113.077 100.477Z" fill="white"/>
<path d="M113.141 100.609C113.121 100.609 113.101 100.609 113.081 100.609L111.461 100.592C108.486 100.562 106.093 98.2706 106.125 95.4847L106.369 74.6707C106.394 72.498 108.304 70.7524 110.622 70.7736L115.55 70.8241C116.707 70.836 117.781 71.2779 118.572 72.0684C119.364 72.8589 119.767 73.8903 119.705 74.9726L118.527 95.8236C118.375 98.5176 116.015 100.609 113.141 100.609ZM113.084 100.336C115.828 100.358 118.092 98.3759 118.237 95.8091L119.415 74.9581C119.472 73.9506 119.097 72.9905 118.36 72.2547C117.623 71.5189 116.624 71.1075 115.547 71.0965L110.619 71.046C110.605 71.0459 110.59 71.0458 110.576 71.0458C108.436 71.0458 106.683 72.6647 106.66 74.6736L106.416 95.4876C106.385 98.1232 108.65 100.291 111.464 100.32L113.084 100.336Z" fill="#232323"/>
<path d="M111.802 100.596C111.729 100.596 111.666 100.545 111.657 100.476C111.648 100.401 111.705 100.333 111.785 100.325C114.222 100.06 116.158 98.1107 116.289 95.7898L117.467 74.9388C117.524 73.9312 117.15 72.971 116.413 72.2353C115.675 71.4995 114.676 71.0882 113.599 71.0772C113.519 71.0763 113.454 71.0147 113.455 70.9394C113.456 70.8641 113.524 70.8094 113.602 70.8047C114.759 70.8166 115.833 71.2584 116.625 72.0489C117.417 72.8394 117.819 73.8708 117.758 74.9532L116.58 95.8042C116.441 98.2562 114.394 100.316 111.818 100.595C111.813 100.596 111.807 100.596 111.802 100.596Z" fill="#232323"/>
<path d="M115.042 85.5541H116.787C119.088 85.5541 120.954 83.8069 120.954 81.6516V70.5041C120.954 68.3488 119.088 66.6016 116.787 66.6016H115.042C112.741 66.6016 110.875 68.3488 110.875 70.5041V81.6516C110.875 83.8069 112.741 85.5541 115.042 85.5541Z" fill="#232323"/>
<path d="M86.8986 103.977H110.902V96.8989H86.8986V103.977Z" fill="#232323"/>
<path d="M112.683 98.273H87.5505C85.6245 98.273 84.0309 96.87 83.912 95.0699L82.4785 73.3618C82.3 70.6589 84.5927 68.375 87.4845 68.375H112.749C115.64 68.375 117.933 70.6589 117.754 73.3618L116.321 95.0699C116.202 96.87 114.608 98.273 112.683 98.273Z" fill="white"/>
<path d="M112.68 98.4048H87.5477C85.5493 98.4048 83.8873 96.9417 83.764 95.0738L82.3305 73.3657C82.2417 72.0206 82.7357 70.739 83.7214 69.757C84.7071 68.7751 86.0426 68.2344 87.4816 68.2344H112.746C114.185 68.2344 115.52 68.7751 116.506 69.757C117.492 70.739 117.986 72.0206 117.897 73.3657L116.463 95.0738C116.34 96.9417 114.678 98.4048 112.68 98.4048ZM87.4816 68.5069C86.1237 68.5069 84.8635 69.0171 83.9334 69.9438C83.0031 70.8703 82.5371 72.0797 82.6209 73.3491L84.0544 95.0571C84.1683 96.7816 85.7026 98.1324 87.5477 98.1324H112.68C114.525 98.1324 116.059 96.7815 116.173 95.0571L117.606 73.3491C117.69 72.0797 117.224 70.8703 116.294 69.9438C115.364 69.0172 114.104 68.5069 112.746 68.5069H87.4816Z" fill="#232323"/>
<path d="M86.7734 112.939H111.338C112.443 112.939 113.338 112.101 113.338 111.066V104.81C113.338 103.776 112.443 102.938 111.338 102.938H86.7734C85.6689 102.938 84.7734 103.776 84.7734 104.81V111.066C84.7735 112.101 85.6689 112.939 86.7734 112.939Z" fill="white"/>
<path d="M111.339 113.071H86.7742C85.5913 113.071 84.6289 112.17 84.6289 111.062V104.806C84.6289 103.698 85.5913 102.797 86.7742 102.797H111.339C112.522 102.797 113.484 103.698 113.484 104.806V111.062C113.484 112.17 112.522 113.071 111.339 113.071ZM86.7742 103.069C85.7517 103.069 84.9198 103.848 84.9198 104.806V111.062C84.9198 112.02 85.7517 112.799 86.7742 112.799H111.339C112.361 112.799 113.193 112.02 113.193 111.062V104.806C113.193 103.848 112.361 103.069 111.339 103.069H86.7742Z" fill="#232323"/>
<path d="M61.7261 56.8526L49.0217 64.2266C48.0625 64.7833 47.5921 66.1175 47.9709 67.2065L55.1395 87.8143C55.5183 88.9033 56.6029 89.3348 57.5621 88.7781L70.2666 81.404C71.2257 80.8473 71.6962 79.5132 71.3173 78.4241L64.1487 57.8164C63.7699 56.7273 62.6852 56.2959 61.7261 56.8526Z" fill="white"/>
<path d="M56.7011 89.1536C56.5165 89.1536 56.3335 89.1236 56.1564 89.063C55.6293 88.8825 55.2093 88.4412 55.0046 87.8524L47.836 67.2446C47.4383 66.1013 47.9374 64.6937 48.9485 64.1068L61.6529 56.7327C62.1291 56.4561 62.6569 56.3943 63.1387 56.5595C63.6659 56.74 64.0857 57.1812 64.2905 57.7701L71.4591 78.3779C71.8569 79.5212 71.3578 80.9288 70.3465 81.5157L57.6421 88.8898C57.3407 89.0646 57.0188 89.1536 56.7011 89.1536ZM62.5949 56.7416C62.3301 56.7416 62.0604 56.8166 61.8061 56.9642L49.1017 64.3383C48.1977 64.863 47.7539 66.1289 48.1126 67.1602L55.2812 87.768C55.4582 88.2768 55.8136 88.6556 56.2564 88.8071C56.6523 88.9425 57.0899 88.8897 57.4888 88.6582L70.1933 81.2841C71.0974 80.7593 71.5412 79.4934 71.1823 78.4622L64.0137 57.8543C63.8369 57.3456 63.4814 56.9669 63.0387 56.8153C62.895 56.766 62.7457 56.7416 62.5949 56.7416Z" fill="#232323"/>
<path d="M62.9332 57.3213L50.2287 64.6954C49.2696 65.2521 48.7991 66.5863 49.1779 67.6753L56.3465 88.2831C56.7253 89.3721 57.81 89.8036 58.7691 89.2469L71.4736 81.8728C72.4327 81.3161 72.9032 79.9819 72.5244 78.8929L65.3558 58.2851C64.9769 57.1961 63.8923 56.7646 62.9332 57.3213Z" fill="#FED101"/>
<path d="M57.9004 89.6223C57.7158 89.6223 57.5327 89.5924 57.3557 89.5317C56.8285 89.3512 56.4086 88.9099 56.2038 88.3211L49.0353 67.7133C48.6375 66.57 49.1366 65.1624 50.1477 64.5754L62.8522 57.2014C63.3287 56.9247 63.8566 56.8633 64.3377 57.0281C64.865 57.2087 65.2848 57.6499 65.4898 58.2388L72.6584 78.8466C73.056 79.9899 72.557 81.3975 71.5458 81.9844L58.8413 89.3585C58.5399 89.5334 58.218 89.6223 57.9004 89.6223ZM63.7941 57.2104C63.5294 57.2104 63.2596 57.2854 63.0053 57.4329L50.3009 64.807C49.3968 65.3318 48.953 66.5977 49.3118 67.6289L56.4803 88.2367C56.6574 88.7456 57.0128 89.1243 57.4556 89.2759C57.8513 89.4113 58.289 89.3584 58.6879 89.1269L71.3926 81.7528C72.2964 81.2281 72.7403 79.9622 72.3816 78.9309L65.213 58.3231C65.036 57.8143 64.6805 57.4356 64.2378 57.284C64.0941 57.2348 63.9448 57.2104 63.7941 57.2104Z" fill="#232323"/>
<path d="M85.1906 86.2104H86.9352C89.2367 86.2104 91.1024 84.4632 91.1024 82.3079V71.1603C91.1024 69.005 89.2367 67.2578 86.9352 67.2578H85.1906C82.8891 67.2578 81.0234 69.005 81.0234 71.1603V82.3079C81.0234 84.4632 82.8891 86.2104 85.1906 86.2104Z" fill="#232323"/>
<path d="M60.8033 87.4174C59.5914 87.4174 58.4408 86.7467 57.9452 85.6338L55.7041 80.6011C55.0461 79.1235 55.7918 77.4262 57.3695 76.81C58.9477 76.1939 60.7598 76.8919 61.4178 78.3695L63.6589 83.4023C64.3169 84.8799 63.5712 86.5772 61.9935 87.1934C61.604 87.3454 61.2004 87.4174 60.8033 87.4174Z" fill="#232323"/>
<path d="M59.3009 83.4001L60.3182 82.6011C62.1398 81.1705 64.774 81.3034 66.2019 82.8979L77.1481 95.1213C78.2529 96.3551 78.006 98.2527 76.5965 99.3596L73.5007 101.791C72.0492 102.931 69.9424 102.783 68.8664 101.466L58.4827 88.7542C57.1722 87.15 57.5331 84.7885 59.3009 83.4001Z" fill="white"/>
<path d="M71.2799 102.69C71.1566 102.69 71.0331 102.684 70.9102 102.671C70.0352 102.581 69.2671 102.18 68.7476 101.544L58.3638 88.8326C57.0017 87.1652 57.3708 84.7311 59.2041 83.2913L60.2214 82.4924C61.1308 81.7782 62.263 81.4172 63.4122 81.4747C64.5641 81.5328 65.5932 82.0056 66.31 82.806L77.2562 95.0294C78.4108 96.3188 78.1553 98.3061 76.6865 99.4597L73.5909 101.891C72.9328 102.408 72.1075 102.69 71.2799 102.69ZM59.391 83.5001C57.6773 84.8461 57.3275 87.1157 58.5949 88.6672L68.9786 101.379C69.4495 101.955 70.1469 102.318 70.9421 102.4C71.8123 102.49 72.7084 102.228 73.4039 101.682L76.4996 99.2511C77.8455 98.194 78.0849 96.3788 77.0332 95.2046L66.087 82.9812C65.4228 82.2392 64.4671 81.8009 63.3965 81.7469C62.3251 81.6932 61.261 82.0316 60.4083 82.7012L59.391 83.5001Z" fill="#232323"/>
<path d="M72.504 101.726C72.3807 101.726 72.2573 101.72 72.1342 101.707C71.2593 101.617 70.4912 101.217 69.9717 100.581L59.5878 87.8689C58.3566 86.3617 58.5323 84.1258 59.9965 82.6679C60.0516 82.613 60.1437 82.6105 60.2021 82.662C60.2607 82.7135 60.2635 82.7998 60.2085 82.8546C58.8408 84.2163 58.6732 86.3009 59.8189 87.7034L70.2027 100.415C70.6736 100.992 71.3709 101.354 72.1661 101.437C73.0365 101.527 73.9325 101.265 74.628 100.719C74.6898 100.67 74.7814 100.678 74.833 100.735C74.8845 100.793 74.8764 100.879 74.8149 100.927C74.1569 101.444 73.3316 101.726 72.504 101.726Z" fill="#232323"/>
<path d="M76.4573 103.649C75.3847 103.649 74.2893 103.379 73.2516 102.839C71.2061 101.776 70.468 99.362 71.6031 97.4465C72.3194 96.2376 73.6102 95.5164 74.9793 95.4159C75.1237 94.8537 75.2435 94.1808 75.2886 93.602C75.4455 91.4162 77.4621 89.7664 79.7984 89.9156C82.1324 90.0626 83.8969 91.959 83.74 94.1447C83.5933 96.1889 82.8624 101.142 79.2537 102.982C78.3807 103.427 77.4283 103.649 76.4573 103.649Z" fill="#232323"/>
<path d="M47.8789 69.9654L50.1998 72.6905C50.5117 73.0567 50.9004 73.3592 51.3418 73.5792L55.7084 75.7562L56.5587 74.2588L52.5434 72.2592C52.0176 71.9974 51.5559 71.6359 51.1877 71.1976L49.2669 68.9115C48.9559 68.5414 48.3663 68.5165 48.021 68.8589L47.924 68.955C47.6424 69.2342 47.6231 69.6651 47.8789 69.9654Z" fill="#955B50"/>
<path d="M46.7496 71.319L49.0328 73.9998C49.3446 74.366 49.7333 74.6684 50.1748 74.8885L53.3039 76.4736L55.3917 75.568L51.266 73.5136C50.813 73.288 50.4152 72.9765 50.0979 72.5989L48.1497 70.2802C47.8124 69.8787 47.173 69.8517 46.7984 70.2231C46.493 70.526 46.4722 70.9933 46.7496 71.319Z" fill="#955B50"/>
<path d="M46.3114 72.396C46.0194 72.6856 45.9992 73.1323 46.2641 73.444L47.9012 75.3701C48.2131 75.7363 48.6018 76.0388 49.0432 76.2589L53.4098 78.4358L54.2601 76.9384L50.1344 74.8839C49.6814 74.6583 49.2837 74.3468 48.9664 73.9692L47.6579 72.4013C47.3358 72.0153 46.7224 71.9884 46.3631 72.3446L46.3114 72.396Z" fill="#955B50"/>
<path d="M57.0056 73.965L56.5619 74.0217C56.3105 74.0538 56.0547 74.0117 55.8301 73.9011L53.719 72.8626L50.1211 75.7688L57.6027 81.1682L61.2476 78.7142L59.6934 74.6297C59.4527 73.9972 59.1031 73.4059 58.6584 72.8794L56.1267 69.8818C55.7965 69.4908 55.1903 69.4245 54.7728 69.7338L54.704 69.7847C54.2864 70.094 54.2157 70.6617 54.5459 71.0527L57.0056 73.965Z" fill="#955B50"/>
<path d="M48.021 68.8589L47.924 68.9551C47.6424 69.2344 47.6232 69.6653 47.879 69.9656L48.1293 70.2595C47.7857 69.888 47.1709 69.8709 46.8062 70.2324C46.5008 70.5354 46.4799 71.0026 46.7573 71.3283L49.0405 74.0091C49.3524 74.3753 49.741 74.6778 50.1825 74.8979L50.818 75.2198L50.8078 75.228L50.1371 74.894C49.6841 74.6684 49.2863 74.3569 48.969 73.9793L47.6607 72.4115C47.3386 72.0254 46.725 71.9985 46.3658 72.3547L46.314 72.406C46.0219 72.6956 46.0017 73.1423 46.2666 73.4541L47.9038 75.3802C48.1718 75.6949 48.4967 75.962 48.8629 76.1707C48.6999 76.1042 48.5415 76.0273 48.3896 75.939L46.5883 74.8834C46.145 74.6237 45.5587 74.7942 45.3507 75.2436L45.3206 75.3087C45.1514 75.6742 45.2952 76.1005 45.6576 76.3087L47.899 77.5962C48.3255 77.8407 51.161 79.1244 51.161 79.1244L55.871 81.1895C56.8082 81.9381 58.2004 81.8938 59.0811 81.0873L60.7712 79.5396C61.5736 78.8047 61.7192 77.6448 61.1204 76.7558L59.6964 74.6411C59.4558 74.0086 59.1061 73.4174 58.6613 72.8908L56.1296 69.8932C55.7994 69.5022 55.1932 69.4359 54.7757 69.7451L54.707 69.796C54.2895 70.1053 54.2187 70.673 54.5489 71.064L57.0086 73.9763L56.5649 74.033C56.3709 74.0578 56.1747 74.0373 55.9917 73.9764L52.5433 72.2592C52.0176 71.9974 51.5559 71.6359 51.1877 71.1977L49.2669 68.9115C48.9559 68.5414 48.3663 68.5164 48.021 68.8589ZM48.3524 70.5213L50.1998 72.6905C50.337 72.8515 50.4897 72.9994 50.6545 73.1341C50.4528 72.9779 50.2685 72.8019 50.1058 72.6082L48.3524 70.5213Z" fill="white"/>
<path d="M53.2608 74.6701C53.2378 74.6701 53.2144 74.6649 53.1926 74.6541L51.269 73.6951C50.8073 73.4649 50.4078 73.154 50.0816 72.771L47.7608 70.0459C47.4617 69.6948 47.4845 69.1837 47.8138 68.8571L47.9107 68.7609C48.1044 68.5689 48.3784 68.4657 48.6589 68.4775C48.9407 68.4894 49.2024 68.6153 49.3767 68.8229L51.2975 71.1091C51.6555 71.535 52.0961 71.88 52.6073 72.1346L55.6622 73.6559C56.0361 73.842 56.4555 73.9121 56.875 73.8585L56.9639 73.8472C57.0432 73.837 57.1169 73.8892 57.1276 73.9638C57.1385 74.0384 57.0828 74.107 57.0031 74.1172L56.9143 74.1285C56.4339 74.1901 55.9536 74.1096 55.5255 73.8964L52.4705 72.3751C51.9235 72.1028 51.4519 71.7335 51.0689 71.2775L49.148 68.9913C49.0261 68.8461 48.8429 68.758 48.6458 68.7497C48.449 68.7417 48.2578 68.8137 48.1222 68.948L48.0253 69.0442C47.7949 69.2727 47.779 69.6304 47.9882 69.8761L50.3091 72.6012C50.6103 72.9549 50.9793 73.2421 51.4057 73.4546L53.3292 74.4136C53.4002 74.449 53.427 74.5315 53.3894 74.5979C53.3632 74.6439 53.3129 74.6701 53.2608 74.6701Z" fill="#232323"/>
<path d="M52.286 76.066C52.2632 76.066 52.24 76.0609 52.2184 76.0503L50.1103 75.0124C49.6479 74.7818 49.2485 74.4709 48.9223 74.088L46.6392 71.4072C46.3185 71.0307 46.343 70.4829 46.6961 70.1328C46.8973 69.9333 47.1797 69.8232 47.4737 69.8283C47.7668 69.8343 48.0446 69.9566 48.236 70.1637C48.2886 70.2206 48.2819 70.3066 48.2212 70.3558C48.1606 70.4051 48.0685 70.3988 48.016 70.3419C47.8784 70.193 47.6784 70.105 47.4673 70.1007C47.2528 70.096 47.0546 70.1741 46.9076 70.3199C46.6534 70.5719 46.6358 70.9663 46.8667 71.2373L49.1498 73.9181C49.4511 74.2717 49.82 74.5589 50.2464 74.7715L52.3539 75.809C52.425 75.8441 52.4523 75.9264 52.415 75.993C52.3888 76.0395 52.3383 76.066 52.286 76.066Z" fill="#232323"/>
<path d="M57.4163 81.88C56.8587 81.88 56.2997 81.7007 55.8394 81.3387L51.0947 79.2398C50.9775 79.1867 48.2467 77.9497 47.8189 77.7045L45.5779 76.4172C45.1562 76.175 44.9865 75.6719 45.183 75.2468L45.213 75.1819C45.3289 74.9311 45.5551 74.7407 45.8338 74.6597C46.1122 74.5783 46.414 74.6151 46.6612 74.7601L48.7809 75.9545C48.8497 75.9933 48.8719 76.077 48.8305 76.1414C48.7892 76.2059 48.6999 76.2268 48.6309 76.1879L46.5091 74.9923C46.3316 74.8882 46.1179 74.8621 45.9201 74.9198C45.7226 74.9774 45.5621 75.1123 45.4799 75.2902L45.45 75.355C45.3106 75.6565 45.431 76.0133 45.73 76.185L47.9709 77.4721C48.3864 77.7103 51.1918 78.9811 51.2201 78.9939L55.9809 81.1C55.9926 81.1052 56.0034 81.1117 56.0132 81.1196C56.8695 81.8033 58.1218 81.7634 58.9265 81.0267L60.7085 79.3949C61.4319 78.7324 61.5652 77.6699 61.0256 76.8683L59.5693 74.7059C59.5636 74.6974 59.5589 74.6884 59.5553 74.679C59.3194 74.0592 58.9789 73.4833 58.5432 72.9674L56.0115 69.9698C55.8759 69.8093 55.6816 69.7078 55.4644 69.6841C55.2469 69.6605 55.0332 69.7172 54.8618 69.8442L54.7932 69.8951C54.6216 70.0221 54.5132 70.2041 54.4879 70.4075C54.4625 70.6108 54.5232 70.8112 54.6588 70.9718L57.8233 74.7185C57.8732 74.7775 57.8625 74.8632 57.7994 74.9098C57.7364 74.9565 57.645 74.9466 57.5951 74.8874L54.4307 71.1407C54.2469 70.923 54.1645 70.6514 54.1989 70.3758C54.2333 70.1002 54.3801 69.8535 54.6126 69.6815L54.6813 69.6305C54.9138 69.4584 55.204 69.3811 55.4981 69.4134C55.7924 69.4456 56.0558 69.5832 56.2396 69.8008L58.7713 72.7984C59.2234 73.3337 59.5775 73.9307 59.8238 74.5732L61.2715 76.723C61.8839 77.6325 61.7326 78.838 60.9118 79.5895L59.1298 81.2214C58.6522 81.659 58.0351 81.8799 57.4163 81.88Z" fill="#232323"/>
<path d="M51.4367 77.5666C51.414 77.5666 51.3911 77.5617 51.3697 77.5512L48.9755 76.383C48.5127 76.1522 48.1133 75.8414 47.787 75.4584L46.1497 73.5321C45.8416 73.1697 45.8655 72.6424 46.2051 72.3058L46.2568 72.2544C46.4573 72.0557 46.7399 71.9498 47.0308 71.9619C47.3222 71.9747 47.5924 72.1054 47.7721 72.3207L47.8716 72.44C47.9211 72.4993 47.9099 72.5849 47.8466 72.6313C47.7834 72.6774 47.6919 72.6671 47.6424 72.6078L47.5428 72.4885C47.4155 72.3358 47.2238 72.2431 47.0172 72.234C46.8086 72.2251 46.6104 72.3006 46.4684 72.4414L46.4167 72.4927C46.1758 72.7316 46.1589 73.1055 46.3773 73.3625L48.0146 75.2886C48.3158 75.6422 48.6848 75.9294 49.1111 76.142L51.5042 77.3097C51.5754 77.3444 51.6031 77.4267 51.566 77.4934C51.5399 77.54 51.4892 77.5666 51.4367 77.5666Z" fill="#232323"/>
<path d="M50.944 73.1693C50.8985 73.1693 50.8524 73.1665 50.8062 73.1608C50.5279 73.1269 50.2777 72.9933 50.1017 72.7848C50.0518 72.7258 50.0625 72.6401 50.1256 72.5935C50.1885 72.5467 50.2801 72.5569 50.3299 72.6159C50.4587 72.7683 50.6412 72.866 50.8439 72.8907C51.0445 72.9149 51.2421 72.8648 51.3987 72.7489C51.5554 72.6329 51.653 72.4649 51.674 72.2759C51.6949 72.0856 51.6356 71.8967 51.5068 71.7442C51.4569 71.6852 51.4676 71.5995 51.5306 71.5529C51.5935 71.5061 51.6852 71.5161 51.7349 71.5752C51.9111 71.7837 51.9922 72.0425 51.9633 72.304C51.9344 72.5667 51.798 72.8007 51.5792 72.9626C51.3967 73.0979 51.175 73.1693 50.944 73.1693Z" fill="#232323"/>
<path d="M53.7627 74.7928C53.6772 74.7928 53.5918 74.7833 53.5091 74.7641C53.4877 74.7602 53.4615 74.7537 53.4376 74.7456C53.3731 74.728 53.3031 74.7002 53.2372 74.6655C53.1833 74.6405 53.1495 74.5855 53.1574 74.5265C53.1673 74.4518 53.2403 74.3985 53.3197 74.4082C53.3393 74.4104 53.3587 74.4168 53.3761 74.4262C53.4241 74.4518 53.4755 74.4722 53.5288 74.487C53.5482 74.4934 53.5602 74.4959 53.5728 74.4983C53.6967 74.527 53.8215 74.5275 53.9402 74.5012C54.1461 74.456 54.3154 74.338 54.4174 74.1687C54.5902 73.8812 54.5219 73.5224 54.2513 73.2963C54.207 73.2584 54.16 73.2264 54.1102 73.2002C54.0403 73.1632 54.0156 73.0801 54.055 73.0145C54.0946 72.9491 54.1833 72.926 54.2533 72.9628C54.3221 72.9992 54.387 73.0434 54.4463 73.094C54.8184 73.4049 54.9113 73.9023 54.6708 74.3025C54.5303 74.5355 54.2883 74.7045 54.0068 74.7663C53.9268 74.784 53.8447 74.7928 53.7627 74.7928Z" fill="#232323"/>
<path d="M49.6825 74.4037C49.6368 74.4037 49.5908 74.4009 49.5446 74.3952C49.2663 74.3613 49.0161 74.2277 48.84 74.0192C48.7901 73.9602 48.8008 73.8745 48.8639 73.8279C48.9269 73.7812 49.0183 73.7911 49.0681 73.8502C49.197 74.0027 49.3796 74.1004 49.5822 74.1251C49.7836 74.1495 49.9805 74.0992 50.137 73.9833C50.4615 73.7429 50.51 73.2923 50.2451 72.9786C50.1952 72.9196 50.2059 72.8339 50.2689 72.7873C50.3318 72.7405 50.4233 72.7505 50.4732 72.8096C50.8377 73.2412 50.7679 73.8635 50.3175 74.197C50.135 74.3322 49.9135 74.4037 49.6825 74.4037Z" fill="#232323"/>
<path d="M52.8101 76.2123C52.7442 76.2123 52.6775 76.2065 52.6109 76.1948C52.462 76.1677 52.3254 76.1149 52.2043 76.0377C52.1379 75.9953 52.1206 75.9107 52.1658 75.8484C52.2112 75.7863 52.3015 75.7702 52.368 75.8124C52.4563 75.8687 52.5565 75.9073 52.6657 75.9272C52.9645 75.9799 53.2642 75.8657 53.4296 75.6362C53.6334 75.3528 53.5851 74.9712 53.3146 74.7289C53.284 74.7006 53.2553 74.6783 53.2262 74.6595C53.2173 74.6548 53.209 74.6492 53.2013 74.6428C53.142 74.5999 53.1265 74.5208 53.168 74.4608C53.2114 74.3978 53.3008 74.3793 53.3684 74.4202C53.3723 74.4225 53.3767 74.4255 53.3813 74.4289C53.428 74.458 53.4725 74.4922 53.5171 74.5333C53.8888 74.8662 53.954 75.3947 53.6708 75.7885C53.4775 76.0568 53.1535 76.2123 52.8101 76.2123Z" fill="#232323"/>
<path d="M48.978 76.1811C48.7384 76.1812 48.5073 76.1059 48.3167 75.9643C48.2538 75.9174 48.2433 75.8317 48.2933 75.7728C48.3433 75.7138 48.4346 75.7041 48.4977 75.7509C48.6596 75.8714 48.8615 75.9254 49.0674 75.904C49.2726 75.8821 49.4563 75.7867 49.5845 75.6354C49.7128 75.4842 49.7704 75.2951 49.7466 75.1029C49.7228 74.9107 49.6205 74.7384 49.4584 74.6179C49.3955 74.5712 49.385 74.4854 49.4349 74.4265C49.4848 74.3675 49.5763 74.3578 49.6393 74.4046C49.8621 74.5703 50.0029 74.8071 50.0356 75.0716C50.0683 75.3361 49.989 75.5966 49.8123 75.805C49.6356 76.0133 49.3827 76.1446 49.1001 76.1748C49.0593 76.179 49.0185 76.1811 48.978 76.1811Z" fill="#232323"/>
<path d="M51.8748 77.6704C51.7001 77.6704 51.5267 77.6298 51.37 77.5515C51.2992 77.5161 51.2723 77.4337 51.3101 77.3673C51.3478 77.3008 51.4357 77.2755 51.5068 77.3111C51.6351 77.3752 51.7779 77.4044 51.9215 77.3966C52.1888 77.382 52.4207 77.245 52.5422 77.0299C52.684 76.7793 52.6457 76.4728 52.4445 76.2489C52.379 76.1745 52.2999 76.1144 52.2086 76.0693C52.1375 76.0342 52.1103 75.9518 52.1477 75.8852C52.1852 75.8186 52.2729 75.7932 52.3443 75.8282C52.4698 75.8902 52.5788 75.9731 52.6681 76.0744C52.945 76.3827 52.9969 76.8081 52.7994 77.1573C52.6298 77.4572 52.3081 77.6484 51.9388 77.6684C51.9174 77.6699 51.8961 77.6704 51.8748 77.6704Z" fill="#232323"/>
<path d="M51.2763 79.2339C51.2507 79.2339 51.2251 79.233 51.1993 79.2313C51.0242 79.2208 50.8514 79.1681 50.7007 79.079C50.6327 79.0388 50.6124 78.9547 50.6553 78.8911C50.6982 78.8275 50.7882 78.8086 50.8559 78.8486C50.9656 78.9135 51.0913 78.9518 51.2189 78.9595C51.5003 78.9778 51.7644 78.8552 51.9094 78.6383C52.0829 78.3785 52.0526 78.0438 51.834 77.8054C51.7824 77.7491 51.7206 77.6994 51.6502 77.6576C51.5823 77.6174 51.5621 77.5332 51.6052 77.4696C51.6481 77.4061 51.738 77.387 51.8059 77.4275C51.9007 77.4837 51.9845 77.5512 52.0548 77.6281C52.3567 77.9573 52.3974 78.4214 52.156 78.7829C51.9671 79.0653 51.6351 79.2339 51.2763 79.2339Z" fill="#232323"/>
<path d="M48.5043 77.9148C48.304 77.9148 48.1063 77.8618 47.9315 77.7591C47.8635 77.7192 47.8428 77.6351 47.8855 77.5714C47.9282 77.5077 48.0182 77.4885 48.086 77.5283C48.262 77.6315 48.4689 77.6663 48.6686 77.6259C48.867 77.5858 49.0346 77.4765 49.1407 77.3181C49.2467 77.1597 49.2786 76.9707 49.2306 76.7861C49.1822 76.6001 49.0587 76.4409 48.8827 76.3376C48.8147 76.2977 48.794 76.2136 48.8368 76.1498C48.8793 76.0861 48.9691 76.0667 49.0373 76.1068C49.2778 76.2479 49.4468 76.4663 49.5133 76.7216C49.5801 76.9783 49.5353 77.2415 49.3872 77.4628C49.2391 77.6841 49.0057 77.8366 48.73 77.8922C48.655 77.9074 48.5795 77.9148 48.5043 77.9148Z" fill="#232323"/>
<path d="M56.6281 73.1151C56.3127 73.1151 56.0076 72.9912 55.8048 72.7511C55.755 72.6921 55.7657 72.6064 55.8287 72.5598C55.8917 72.5131 55.9831 72.523 56.033 72.5822C56.2978 72.8957 56.8097 72.9315 57.1741 72.6617C57.5383 72.3919 57.6191 71.9172 57.3542 71.6035C57.3043 71.5445 57.315 71.4589 57.3781 71.4122C57.441 71.3655 57.5324 71.3755 57.5823 71.4346C57.9467 71.8661 57.8445 72.5124 57.3545 72.8754C57.1371 73.0363 56.8793 73.115 56.6281 73.1151Z" fill="#232323"/>
<path d="M58.358 75.1905C58.0462 75.1905 57.7427 75.0692 57.5391 74.834L57.6461 74.7411L57.7631 74.6602C58.0312 74.9699 58.5373 75.0055 58.8934 74.7419C59.0965 74.5915 59.2163 74.3731 59.2222 74.143C59.2281 73.9741 59.174 73.8178 59.0657 73.6895C59.0158 73.6305 59.0265 73.5448 59.0896 73.4982C59.1525 73.4514 59.244 73.4614 59.2939 73.5206C59.4453 73.6999 59.5212 73.9179 59.513 74.1507C59.5051 74.461 59.3449 74.7548 59.0738 74.9556C58.8608 75.1134 58.6067 75.1905 58.358 75.1905Z" fill="#232323"/>
<path d="M54.5404 74.2385C54.4147 74.4468 54.205 74.5849 53.9699 74.6365C53.8272 74.6024 53.6787 74.5942 53.5312 74.6127C53.5345 74.6203 53.5372 74.627 53.5406 74.6346C53.5799 74.7251 53.6329 74.8113 53.701 74.892C53.9594 75.1979 54.3626 75.3345 54.7469 75.2848C54.9399 75.2601 55.1294 75.1874 55.2932 75.0661C55.7846 74.7021 55.8687 74.0345 55.4801 73.5744C55.2015 73.2445 54.7549 73.1111 54.3446 73.1975C54.6581 73.4594 54.7497 73.8904 54.5404 74.2385Z" fill="#232323"/>
<path d="M53.5529 75.7158C53.3482 76 52.9862 76.1255 52.6406 76.0644C52.6494 76.0838 52.6582 76.1033 52.6685 76.1229C52.7038 76.192 52.7478 76.2587 52.8011 76.3218C53.0961 76.671 53.5776 76.8002 54.0074 76.6822C54.1443 76.6456 54.275 76.5835 54.3933 76.4958C54.7919 76.2006 54.9215 75.7053 54.7499 75.2833C54.7088 75.1855 54.6525 75.0916 54.5792 75.0047C54.4197 74.8158 54.205 74.691 53.973 74.635C53.8303 74.6009 53.6818 74.5927 53.5344 74.6112C53.5194 74.6136 53.5028 74.6158 53.487 74.6189C53.4642 74.6228 53.4403 74.6275 53.4181 74.6339C53.7341 74.9172 53.7993 75.3734 53.5529 75.7158Z" fill="#232323"/>
<path d="M52.6662 77.0902C52.5163 77.3555 52.2303 77.5125 51.9258 77.5291C51.949 77.584 51.9775 77.6377 52.0123 77.6898C52.0351 77.7277 52.0624 77.7637 52.0916 77.7982C52.3732 78.1316 52.8241 78.2646 53.2377 78.173C53.3957 78.1396 53.5484 78.0726 53.6837 77.9723C54.107 77.6588 54.2286 77.1176 54.0021 76.68C53.9669 76.6109 53.9228 76.5442 53.8696 76.4812C53.5746 76.1319 53.0931 76.0028 52.6633 76.1207C52.6251 76.1303 52.5883 76.1432 52.5513 76.1576C52.7822 76.4148 52.8404 76.7824 52.6662 77.0902Z" fill="#232323"/>
<path d="M52.0302 78.7043C51.8506 78.9728 51.5301 79.1108 51.207 79.0891C51.2473 79.1934 51.3053 79.293 51.3825 79.3844C51.7705 79.8437 52.4843 79.9217 52.9748 79.5584C53.4292 79.2218 53.5345 78.6249 53.2408 78.1751C53.2181 78.1373 53.1908 78.1012 53.1615 78.0666C52.8807 77.7342 52.4298 77.6011 52.0154 77.6918C51.9907 77.6972 51.966 77.7025 51.9418 77.7103C52.1944 77.9859 52.2415 78.3878 52.0302 78.7043Z" fill="#232323"/>
<path d="M57.6542 74.7504C57.5614 75.067 57.6251 75.4176 57.8588 75.6943C58.2467 76.1535 58.9595 76.2323 59.4509 75.8683C59.9414 75.505 60.0247 74.8366 59.6369 74.3773C59.5597 74.2859 59.4688 74.2092 59.3697 74.1484C59.3631 74.4085 59.23 74.67 58.9857 74.8509C58.5653 75.1623 57.9711 75.1166 57.6542 74.7504Z" fill="#232323"/>
<path d="M80.4383 98.8266L78.8319 98.6357C75.9555 98.294 73.9196 95.8333 74.2845 93.1396L77.0821 72.4899C77.3645 70.4056 79.3977 68.9303 81.6234 69.1947L86.5118 69.7755C88.8038 70.0478 90.3921 72.053 90.0055 74.1861L86.2748 94.7719C85.8041 97.3698 83.2298 99.1582 80.4383 98.8266Z" fill="white"/>
<path d="M81.1082 98.9981C80.88 98.9981 80.6497 98.9847 80.4173 98.9571L78.8109 98.7662C77.3812 98.5963 76.1077 97.9153 75.2251 96.8484C74.3424 95.7816 73.9561 94.4567 74.1375 93.1178L76.9352 72.4681C77.2273 70.3127 79.3372 68.7823 81.6391 69.0549L86.5276 69.6357C87.6756 69.7721 88.6878 70.3267 89.3773 71.1972C90.0668 72.0677 90.3401 73.1356 90.1464 74.2043L86.4157 94.79C85.9695 97.2523 83.7064 98.9981 81.1082 98.9981ZM80.4539 98.6867C83.1756 99.0102 85.6695 97.2787 86.1288 94.7444L89.8595 74.1586C90.0397 73.1639 89.7856 72.1698 89.1436 71.3594C88.5018 70.5491 87.5597 70.0329 86.4909 69.906L81.6024 69.3251C79.4585 69.0696 77.4957 70.496 77.2238 72.5024L74.4262 93.1521C74.0719 95.7668 76.0553 98.1641 78.8475 98.4958L80.4539 98.6867Z" fill="#232323"/>
<path d="M79.165 98.8083C79.0848 98.8083 79.0195 98.7474 79.0195 98.6721C79.0195 98.5968 79.0846 98.5359 79.165 98.5359C81.618 98.5356 83.781 96.8075 84.1962 94.5159L87.9269 73.9302C88.1073 72.9355 87.853 71.9414 87.2113 71.1312C86.5694 70.3208 85.6272 69.8046 84.5584 69.6776C84.4787 69.6681 84.4223 69.5999 84.4324 69.5253C84.4426 69.4507 84.5153 69.3982 84.595 69.4073C85.7433 69.5437 86.7554 70.0983 87.445 70.9689C88.1345 71.8394 88.4076 72.9072 88.2139 73.9758L84.4833 94.5616C84.0446 96.9823 81.7581 98.808 79.165 98.8083Z" fill="#232323"/>
<path d="M7.29011 92.4861H1.06844L0.855469 91.1016H7.07707L7.29011 92.4861Z" fill="white"/>
<path d="M24.3101 92.4861H9.72469L9.51172 91.1016H24.0971L24.3101 92.4861Z" fill="white"/>
<path d="M18.8697 82.7126H5.83016L5.61719 81.3281H18.6567L18.8697 82.7126Z" fill="white"/>
<path d="M29.3655 82.7126H21.0606L20.8477 81.3281H29.1526L29.3655 82.7126Z" fill="#4178EC"/>
<path d="M34.6901 102.08H8.86148L8.64844 100.695H34.4771L34.6901 102.08Z" fill="white"/>
<path d="M46.2249 102.08H37.92L37.707 100.695H46.0119L46.2249 102.08Z" fill="#4178EC"/>
<path d="M12.1495 87.994H0.509916L0.296875 86.6094H11.9365L12.1495 87.994Z" fill="#4178EC"/>
<path d="M40.685 87.9783H15.5997L15.3867 86.5938H40.472L40.685 87.9783Z" fill="white"/>
<path d="M56.3549 97.4548H50.6153L50.4023 96.0703H56.1419L56.3549 97.4548Z" fill="#4178EC"/>
<path d="M17.9208 97.4314H8.09579L7.88281 96.0469H17.7078L17.9208 97.4314Z" fill="white"/>
<path d="M48.9162 97.4548H21.1349L20.9219 96.0703H48.7032L48.9162 97.4548Z" fill="white"/>
<path d="M41.0839 76.694C41.5148 76.6932 41.8634 76.3655 41.8626 75.9621C41.8618 75.5587 41.5118 75.2322 41.081 75.233C40.6501 75.2338 40.3014 75.5614 40.3023 75.9649C40.3031 76.3683 40.653 76.6948 41.0839 76.694Z" fill="white"/>
<path d="M38.5216 76.6861C38.9525 76.6853 39.3011 76.3576 39.3002 75.9541C39.2993 75.5507 38.9493 75.2243 38.5185 75.2251C38.0876 75.2259 37.739 75.5536 37.7398 75.9571C37.7407 76.3605 38.0907 76.6869 38.5216 76.6861Z" fill="white"/>
<path d="M35.9511 76.6862C36.382 76.6854 36.7306 76.3577 36.7298 75.9543C36.729 75.5508 36.379 75.2244 35.9482 75.2252C35.5173 75.2259 35.1686 75.5536 35.1695 75.9571C35.1703 76.3605 35.5202 76.6869 35.9511 76.6862Z" fill="white"/>
<path d="M43.5624 77.6787H6.50486C6.4245 77.6787 6.35938 77.6177 6.35938 77.5425C6.35938 77.4672 6.4245 77.4062 6.50486 77.4062H43.5624C43.6428 77.4062 43.7079 77.4672 43.7079 77.5425C43.7078 77.6177 43.6427 77.6787 43.5624 77.6787Z" fill="white"/>
<path d="M55.0969 108.975H8.68587C8.61316 108.975 8.55154 108.925 8.54177 108.858L3.50915 74.2796C3.50348 74.2407 3.51601 74.2013 3.54366 74.1716C3.5713 74.1421 3.61128 74.125 3.65325 74.125H41.8161C41.8965 74.125 41.9616 74.186 41.9616 74.2612C41.9616 74.3365 41.8965 74.3975 41.8161 74.3975H3.81991L8.81287 108.703H54.9302L51.342 84.0489C51.3311 83.9744 51.3868 83.9057 51.4664 83.8955C51.5455 83.8851 51.6193 83.9375 51.6302 84.0121L55.241 108.821C55.2467 108.86 55.2342 108.899 55.2065 108.929C55.1788 108.958 55.1388 108.975 55.0969 108.975Z" fill="white"/>
<path d="M23.7852 69.1887V74.2188H26.5222V69.1887H23.7852Z" fill="white"/>
<path d="M26.5231 74.3494H23.7861C23.7057 74.3494 23.6406 74.2884 23.6406 74.2131V69.1831C23.6406 69.1079 23.7057 69.0469 23.7861 69.0469H26.5231C26.6034 69.0469 26.6686 69.1079 26.6686 69.1831V74.2131C26.6686 74.2884 26.6034 74.3494 26.5231 74.3494ZM23.9316 74.0769H26.3776V69.3194H23.9316V74.0769Z" fill="#232323"/>
<path d="M19.0625 69.1887V74.2188H21.7995V69.1887H19.0625Z" fill="white"/>
<path d="M21.8005 74.3494H19.0634C18.9832 74.3494 18.918 74.2884 18.918 74.2131V69.1831C18.918 69.1079 18.9831 69.0469 19.0634 69.0469H21.8005C21.8809 69.0469 21.946 69.1079 21.946 69.1831V74.2131C21.946 74.2884 21.8808 74.3494 21.8005 74.3494ZM19.2089 74.0769H21.6551V69.3194H19.2089V74.0769Z" fill="#232323"/>
<path d="M14.3398 69.1887V74.2188H17.0768V69.1887H14.3398Z" fill="white"/>
<path d="M17.0778 74.3494H14.3408C14.2604 74.3494 14.1953 74.2884 14.1953 74.2131V69.1831C14.1953 69.1079 14.2604 69.0469 14.3408 69.0469H17.0778C17.1582 69.0469 17.2233 69.1079 17.2233 69.1831V74.2131C17.2233 74.2884 17.1581 74.3494 17.0778 74.3494ZM14.4863 74.0769H16.9323V69.3194H14.4863V74.0769Z" fill="#232323"/>
<path d="M9.61328 69.1887V74.2188H12.3503V69.1887H9.61328Z" fill="white"/>
<path d="M12.3551 74.3494H9.61814C9.53784 74.3494 9.47266 74.2884 9.47266 74.2131V69.1831C9.47266 69.1079 9.53778 69.0469 9.61814 69.0469H12.3551C12.4355 69.0469 12.5006 69.1079 12.5006 69.1831V74.2131C12.5006 74.2884 12.4354 74.3494 12.3551 74.3494ZM9.76355 74.0769H12.2096V69.3194H9.76355V74.0769Z" fill="#232323"/>
<path d="M68.2254 41.8584H48.7392C48.6589 41.8584 48.5938 41.7974 48.5938 41.7222C48.5938 41.6469 48.6589 41.5859 48.7392 41.5859H68.2254C68.3058 41.5859 68.3709 41.6469 68.3709 41.7222C68.3709 41.7974 68.3058 41.8584 68.2254 41.8584Z" fill="#232323"/>
<path d="M67.0313 42.8795C67.6915 42.8795 68.2267 42.3783 68.2267 41.7601C68.2267 41.1418 67.6915 40.6406 67.0313 40.6406C66.3711 40.6406 65.8359 41.1418 65.8359 41.7601C65.8359 42.3783 66.3711 42.8795 67.0313 42.8795Z" fill="white"/>
<path d="M67.0284 43.0113C66.2889 43.0113 65.6875 42.448 65.6875 41.7556C65.6875 41.0632 66.2889 40.5 67.0284 40.5C67.7678 40.5 68.3692 41.0632 68.3692 41.7556C68.3692 42.448 67.7678 43.0113 67.0284 43.0113ZM67.0284 40.7725C66.4495 40.7725 65.9784 41.2136 65.9784 41.7557C65.9784 42.2979 66.4495 42.739 67.0284 42.739C67.6072 42.739 68.0783 42.2979 68.0783 41.7557C68.0783 41.2135 67.6072 40.7725 67.0284 40.7725Z" fill="#232323"/>
<path d="M20.3603 69.3112C20.28 69.3112 20.2148 69.2502 20.2148 69.175V46.2077C20.2148 46.1715 20.2302 46.1368 20.2575 46.1113L25.0388 41.6337C25.0661 41.6081 25.1031 41.5938 25.1417 41.5938H44.3579C44.4382 41.5938 44.5034 41.6547 44.5034 41.73C44.5034 41.8052 44.4382 41.8662 44.3579 41.8662H25.202L20.5059 46.2641V69.175C20.5058 69.2502 20.4407 69.3112 20.3603 69.3112Z" fill="#232323"/>
<path d="M11.0983 69.3052C11.0179 69.3052 10.9528 69.2442 10.9528 69.169V27.075L2.26135 18.9357C2.20455 18.8825 2.20455 18.7963 2.26135 18.743C2.31816 18.6898 2.4102 18.6898 2.46707 18.743L11.2011 26.9223C11.2283 26.9478 11.2437 26.9825 11.2437 27.0186V69.169C11.2438 69.2442 11.1787 69.3052 11.0983 69.3052Z" fill="#232323"/>
<path d="M2.67286 18.8957C2.97483 18.3459 2.74369 17.671 2.15658 17.3882C1.56947 17.1054 0.848736 17.3219 0.546765 17.8717C0.244795 18.4215 0.475942 19.0964 1.06305 19.3792C1.65015 19.662 2.37089 19.4455 2.67286 18.8957Z" fill="white"/>
<path d="M1.60642 19.6363C0.867074 19.6363 0.265625 19.073 0.265625 18.3806C0.265625 17.6882 0.867074 17.125 1.60642 17.125C2.34576 17.125 2.94721 17.6882 2.94721 18.3806C2.94721 19.073 2.34576 19.6363 1.60642 19.6363ZM1.60642 17.3975C1.02753 17.3975 0.556519 17.8386 0.556519 18.3806C0.556519 18.9228 1.02753 19.3639 1.60642 19.3639C2.1853 19.3639 2.65632 18.9228 2.65632 18.3806C2.65632 17.8385 2.1853 17.3975 1.60642 17.3975Z" fill="#232323"/>
<path d="M24.8447 33.6753C24.8075 33.6753 24.7703 33.662 24.7418 33.6354C24.685 33.5822 24.685 33.496 24.7418 33.4427L29.5516 28.9384C29.5789 28.9128 29.6159 28.8984 29.6545 28.8984H55.17C55.2504 28.8984 55.3155 28.9594 55.3155 29.0347C55.3155 29.1099 55.2504 29.1709 55.17 29.1709H29.7147L24.9475 33.6354C24.9191 33.6619 24.8819 33.6753 24.8447 33.6753Z" fill="#232323"/>
<path d="M15.6533 69.3061C15.5729 69.3061 15.5078 69.2451 15.5078 69.1698V42.1478C15.5078 42.1117 15.5231 42.077 15.5504 42.0515L21.1857 36.7743C21.2425 36.7211 21.3346 36.7211 21.3914 36.7743C21.4482 36.8275 21.4482 36.9137 21.3914 36.9669L15.7988 42.2043V69.1698C15.7988 69.2451 15.7336 69.3061 15.6533 69.3061Z" fill="#232323"/>
<path d="M22.5281 37.5264C22.878 37.0021 22.7078 36.3115 22.148 35.9838C21.5881 35.6561 20.8506 35.8155 20.5007 36.3398C20.1508 36.8641 20.321 37.5547 20.8809 37.8824C21.4407 38.21 22.1782 38.0507 22.5281 37.5264Z" fill="white"/>
<path d="M21.5127 38.1831C20.7733 38.1831 20.1719 37.6199 20.1719 36.9275C20.1719 36.2351 20.7733 35.6719 21.5127 35.6719C22.252 35.6719 22.8535 36.2351 22.8535 36.9275C22.8535 37.6199 22.252 38.1831 21.5127 38.1831ZM21.5127 35.9444C20.9338 35.9444 20.4628 36.3854 20.4628 36.9275C20.4628 37.4696 20.9338 37.9107 21.5127 37.9107C22.0916 37.9107 22.5626 37.4696 22.5626 36.9275C22.5626 36.3854 22.0916 35.9444 21.5127 35.9444Z" fill="#232323"/>
<path d="M32.2158 47.9378C32.1786 47.9378 32.1414 47.9245 32.1129 47.8979C32.0561 47.8447 32.0561 47.7585 32.1129 47.7052L35.4428 44.5868C35.47 44.5613 35.5071 44.5469 35.5457 44.5469H55.5493C55.6296 44.5469 55.6947 44.6079 55.6947 44.6831C55.6947 44.7584 55.6296 44.8194 55.5493 44.8194H35.6058L32.3186 47.8979C32.2902 47.9244 32.253 47.9378 32.2158 47.9378Z" fill="#232323"/>
<path d="M25.2158 69.3076C25.1355 69.3076 25.0703 69.2466 25.0703 69.1713V54.3598C25.0703 54.3236 25.0856 54.2889 25.1129 54.2634L29.0974 50.5321C29.1542 50.4789 29.2463 50.4789 29.3031 50.5321C29.3599 50.5853 29.3599 50.6715 29.3031 50.7247L25.3612 54.4162V69.1713C25.3612 69.2466 25.2961 69.3076 25.2158 69.3076Z" fill="#232323"/>
<path d="M30.4403 50.8111C30.5908 50.2091 30.1917 49.6068 29.5489 49.4658C28.9061 49.3249 28.2629 49.6986 28.1124 50.3006C27.9619 50.9026 28.361 51.5049 29.0038 51.6459C29.6466 51.7868 30.2898 51.4131 30.4403 50.8111Z" fill="white"/>
<path d="M29.2705 51.8081C28.5311 51.8081 27.9297 51.2449 27.9297 50.5525C27.9297 49.8601 28.5311 49.2969 29.2705 49.2969C30.0098 49.2969 30.6113 49.8601 30.6113 50.5525C30.6114 51.2449 30.0098 51.8081 29.2705 51.8081ZM29.2705 49.5694C28.6916 49.5694 28.2206 50.0104 28.2206 50.5525C28.2206 51.0946 28.6916 51.5357 29.2705 51.5357C29.8494 51.5357 30.3204 51.0946 30.3204 50.5525C30.3204 50.0104 29.8494 49.5694 29.2705 49.5694Z" fill="#232323"/>
<path d="M57.1212 44.8888C57.2233 44.2779 56.7774 43.7052 56.1251 43.6096C55.4728 43.5139 54.8613 43.9316 54.7591 44.5424C54.657 45.1533 55.103 45.726 55.7553 45.8216C56.4075 45.9173 57.0191 45.4996 57.1212 44.8888Z" fill="white"/>
<path d="M55.9424 45.9644C55.203 45.9644 54.6016 45.4011 54.6016 44.7088C54.6016 44.0164 55.203 43.4531 55.9424 43.4531C56.6817 43.4531 57.2831 44.0164 57.2831 44.7088C57.2831 45.4011 56.6817 45.9644 55.9424 45.9644ZM55.9424 43.7256C55.3635 43.7256 54.8925 44.1667 54.8925 44.7088C54.8925 45.251 55.3635 45.6921 55.9424 45.6921C56.5212 45.6921 56.9922 45.251 56.9922 44.7088C56.9922 44.1666 56.5212 43.7256 55.9424 43.7256Z" fill="#232323"/>
<path d="M60.0278 32.21H40.5986C40.5182 32.21 40.4531 32.149 40.4531 32.0737C40.4531 31.9985 40.5182 31.9375 40.5986 31.9375H60.0278C60.1082 31.9375 60.1733 31.9985 60.1733 32.0737C60.1732 32.149 60.1081 32.21 60.0278 32.21Z" fill="#232323"/>
<path d="M9.19461 37.2163H6.74704C6.66675 37.2163 6.60156 37.1554 6.60156 37.0801V28.2847C6.60156 28.2094 6.66668 28.1484 6.74704 28.1484H9.19461C9.27497 28.1484 9.34008 28.2094 9.34008 28.2847V37.0801C9.34008 37.1553 9.27497 37.2163 9.19461 37.2163ZM6.89252 36.9439H9.04913V28.4209H6.89252V36.9439Z" fill="white"/>
<path d="M29.2923 62.0866H27.1103C27.03 62.0866 26.9648 62.0256 26.9648 61.9503V55.7847C26.9648 55.7094 27.03 55.6484 27.1103 55.6484H29.2923C29.3727 55.6484 29.4378 55.7094 29.4378 55.7847V61.9503C29.4378 62.0256 29.3726 62.0866 29.2923 62.0866ZM27.2558 61.8142H29.1468V55.921H27.2558V61.8142Z" fill="white"/>
<path d="M32.8548 62.0866H30.6728C30.5925 62.0866 30.5273 62.0256 30.5273 61.9503V55.7847C30.5273 55.7094 30.5925 55.6484 30.6728 55.6484H32.8548C32.9352 55.6484 33.0003 55.7094 33.0003 55.7847V61.9503C33.0003 62.0256 32.9352 62.0866 32.8548 62.0866ZM30.8183 61.8142H32.7093V55.921H30.8183V61.8142Z" fill="white"/>
<path d="M36.4642 62.0866H34.2822C34.2018 62.0866 34.1367 62.0256 34.1367 61.9503V55.7847C34.1367 55.7094 34.2018 55.6484 34.2822 55.6484H36.4642C36.5446 55.6484 36.6097 55.7094 36.6097 55.7847V61.9503C36.6097 62.0256 36.5445 62.0866 36.4642 62.0866ZM34.4277 61.8142H36.3187V55.921H34.4277V61.8142Z" fill="white"/>
<path d="M32.7818 36.4031H31.2509C31.1706 36.4031 31.1055 36.3421 31.1055 36.2668V31.9409C31.1055 31.8657 31.1706 31.8047 31.2509 31.8047H32.7818C32.8622 31.8047 32.9273 31.8657 32.9273 31.9409V36.2668C32.9273 36.3421 32.8622 36.4031 32.7818 36.4031ZM31.3964 36.1306H32.6363V32.0772H31.3964V36.1306Z" fill="white"/>
<path d="M35.274 36.4031H33.7431C33.6628 36.4031 33.5977 36.3421 33.5977 36.2668V31.9409C33.5977 31.8657 33.6628 31.8047 33.7431 31.8047H35.274C35.3544 31.8047 35.4195 31.8657 35.4195 31.9409V36.2668C35.4195 36.3421 35.3544 36.4031 35.274 36.4031ZM33.8886 36.1306H35.1285V32.0772H33.8886V36.1306Z" fill="white"/>
<path d="M37.8092 36.4031H36.2783C36.1979 36.4031 36.1328 36.3421 36.1328 36.2668V31.9409C36.1328 31.8657 36.1979 31.8047 36.2783 31.8047H37.8092C37.8895 31.8047 37.9546 31.8657 37.9546 31.9409V36.2668C37.9546 36.3421 37.8895 36.4031 37.8092 36.4031ZM36.4238 36.1306H37.6637V32.0772H36.4238V36.1306Z" fill="white"/>
<path d="M16.7705 67.2847C16.6901 67.2847 16.625 67.2237 16.625 67.1485V42.6278C16.625 42.5917 16.6403 42.557 16.6676 42.5315L18.9445 40.3993C19.0013 40.3461 19.0934 40.3461 19.1502 40.3993C19.207 40.4525 19.207 40.5387 19.1502 40.5919L16.916 42.6843V67.1485C16.9159 67.2237 16.8508 67.2847 16.7705 67.2847Z" fill="white"/>
<path d="M24.2822 32.9543C24.245 32.9543 24.2078 32.941 24.1793 32.9144C24.1225 32.8612 24.1225 32.7749 24.1793 32.7217L29.454 27.7821C29.4813 27.7566 29.5183 27.7422 29.5569 27.7422H58.4919C58.5723 27.7422 58.6374 27.8032 58.6374 27.8784C58.6374 27.9537 58.5723 28.0147 58.4919 28.0147H29.6171L24.385 32.9144C24.3566 32.941 24.3194 32.9543 24.2822 32.9543Z" fill="white"/>
<path d="M120.849 22.3037H98.958C98.8776 22.3037 98.8125 22.2427 98.8125 22.1675C98.8125 22.0922 98.8776 22.0312 98.958 22.0312H120.849C120.929 22.0312 120.994 22.0922 120.994 22.1675C120.994 22.2427 120.929 22.3037 120.849 22.3037Z" fill="#232323"/>
<path d="M119.66 23.3248C120.32 23.3248 120.856 22.8236 120.856 22.2054C120.856 21.5871 120.32 21.0859 119.66 21.0859C119 21.0859 118.465 21.5871 118.465 22.2054C118.465 22.8236 119 23.3248 119.66 23.3248Z" fill="white"/>
<path d="M119.661 23.4566C118.922 23.4566 118.32 22.8933 118.32 22.2009C118.32 21.5086 118.922 20.9453 119.661 20.9453C120.4 20.9453 121.002 21.5086 121.002 22.2009C121.002 22.8933 120.4 23.4566 119.661 23.4566ZM119.661 21.2177C119.082 21.2177 118.611 21.6588 118.611 22.2009C118.611 22.743 119.082 23.1841 119.661 23.1841C120.24 23.1841 120.711 22.743 120.711 22.2009C120.711 21.6588 120.24 21.2177 119.661 21.2177Z" fill="#232323"/>
<path d="M111.525 19.9209H97.4463C97.3658 19.9209 97.3008 19.8599 97.3008 19.7847C97.3008 19.7094 97.3658 19.6484 97.4463 19.6484H111.525C111.605 19.6484 111.67 19.7094 111.67 19.7847C111.67 19.8599 111.605 19.9209 111.525 19.9209Z" fill="#232323"/>
<path d="M112.545 20.8501C113.175 20.6657 113.527 20.0379 113.33 19.4477C113.133 18.8576 112.463 18.5287 111.832 18.7131C111.202 18.8974 110.851 19.5253 111.048 20.1154C111.245 20.7055 111.915 21.0344 112.545 20.8501Z" fill="white"/>
<path d="M112.188 21.0425C111.449 21.0425 110.848 20.4793 110.848 19.7869C110.848 19.0945 111.449 18.5312 112.188 18.5312C112.928 18.5312 113.529 19.0945 113.529 19.7869C113.529 20.4793 112.928 21.0425 112.188 21.0425ZM112.188 18.8037C111.609 18.8037 111.139 19.2448 111.139 19.7869C111.139 20.329 111.609 20.7701 112.188 20.7701C112.767 20.7701 113.238 20.329 113.238 19.7869C113.238 19.2449 112.767 18.8037 112.188 18.8037Z" fill="#232323"/>
<path d="M105.146 10.4374H99.5674C99.4869 10.4374 99.4219 10.3764 99.4219 10.3011C99.4219 10.2259 99.4869 10.1649 99.5674 10.1649H105.086L114.663 1.19615C114.719 1.14295 114.811 1.14295 114.868 1.19615C114.925 1.24935 114.925 1.33554 114.868 1.3888L105.249 10.3974C105.221 10.423 105.184 10.4374 105.146 10.4374Z" fill="#232323"/>
<path d="M114.727 2.41077C115.387 2.41077 115.922 1.90958 115.922 1.29132C115.922 0.673069 115.387 0.171875 114.727 0.171875C114.066 0.171875 113.531 0.673069 113.531 1.29132C113.531 1.90958 114.066 2.41077 114.727 2.41077Z" fill="white"/>
<path d="M114.728 2.5425C113.988 2.5425 113.387 1.97925 113.387 1.28688C113.387 0.594496 113.988 0.03125 114.728 0.03125C115.467 0.03125 116.068 0.594496 116.068 1.28688C116.068 1.97919 115.467 2.5425 114.728 2.5425ZM114.728 0.303668C114.149 0.303668 113.678 0.744761 113.678 1.28688C113.678 1.82899 114.149 2.27002 114.728 2.27002C115.306 2.27002 115.778 1.82893 115.778 1.28688C115.778 0.744823 115.306 0.303668 114.728 0.303668Z" fill="#232323"/>
<path d="M110.368 34.7171C110.331 34.7171 110.293 34.7038 110.265 34.6772L105.128 29.8662H100.255C100.174 29.8662 100.109 29.8052 100.109 29.73C100.109 29.6547 100.174 29.5938 100.255 29.5938H105.188C105.227 29.5938 105.264 29.6081 105.291 29.6337L110.471 34.4845C110.528 34.5377 110.528 34.6239 110.471 34.6772C110.442 34.7038 110.405 34.7171 110.368 34.7171Z" fill="#232323"/>
<path d="M111.771 35.0905C111.934 34.4912 111.547 33.8821 110.907 33.7301C110.267 33.5781 109.616 33.9407 109.454 34.5399C109.292 35.1392 109.679 35.7482 110.319 35.9003C110.959 36.0523 111.609 35.6897 111.771 35.0905Z" fill="white"/>
<path d="M110.614 36.0738C109.875 36.0738 109.273 35.5105 109.273 34.8181C109.273 34.1257 109.875 33.5625 110.614 33.5625C111.354 33.5625 111.955 34.1257 111.955 34.8181C111.955 35.5105 111.354 36.0738 110.614 36.0738ZM110.614 33.835C110.035 33.835 109.564 34.2761 109.564 34.8182C109.564 35.3604 110.035 35.8015 110.614 35.8015C111.193 35.8015 111.664 35.3604 111.664 34.8182C111.664 34.276 111.193 33.835 110.614 33.835Z" fill="#232323"/>
<path d="M120.817 11.5694H97.1377C97.0572 11.5694 96.9922 11.5084 96.9922 11.4331C96.9922 11.3579 97.0572 11.2969 97.1377 11.2969H120.817C120.897 11.2969 120.962 11.3579 120.962 11.4331C120.962 11.5084 120.897 11.5694 120.817 11.5694Z" fill="#232323"/>
<path d="M72.561 26.6633H37.1388C37.0661 26.6633 37.0045 26.6129 36.9948 26.5454L33.1537 0.154651C33.148 0.115664 33.1605 0.0763066 33.1882 0.0466491C33.2158 0.0170534 33.2558 0 33.2978 0H68.72C68.7927 0 68.8542 0.0503567 68.8641 0.117828L72.7052 26.5086C72.7109 26.5476 72.6983 26.587 72.6706 26.6166C72.6431 26.6462 72.6031 26.6633 72.561 26.6633ZM37.2659 26.3908H72.3945L68.593 0.272416H33.4644L37.2659 26.3908Z" fill="#FED101"/>
<path d="M84.8603 30.6911H47.7021C47.6294 30.6911 47.5677 30.6407 47.558 30.5733L43.5287 2.88903C43.523 2.85004 43.5355 2.81068 43.5632 2.78102C43.5908 2.75143 43.6308 2.73438 43.6728 2.73438H80.831C80.9037 2.73438 80.9652 2.78473 80.9751 2.85214L85.0044 30.5364C85.0101 30.5753 84.9975 30.6147 84.9698 30.6444C84.9422 30.674 84.9023 30.6911 84.8603 30.6911ZM47.8291 30.4186H84.6937L80.704 3.00685H43.8394L47.8291 30.4186Z" fill="#FED101"/>
<path d="M58.8978 37.9297H102.35L97.3509 5.42969H54.1484L58.8978 37.9297Z" fill="white"/>
<path d="M103.764 39.241H61.0645C60.9918 39.241 60.9303 39.1906 60.9204 39.1231L56.2904 7.3109C56.2847 7.27191 56.2973 7.23256 56.3249 7.2029C56.3525 7.1733 56.3925 7.15625 56.4345 7.15625H99.1334C99.2061 7.15625 99.2677 7.20661 99.2776 7.27408L103.908 39.0863C103.913 39.1253 103.901 39.1647 103.873 39.1943C103.846 39.2239 103.806 39.241 103.764 39.241ZM61.1915 38.9685H103.597L99.0064 7.42873H56.6012L61.1915 38.9685Z" fill="#232323"/>
<path d="M84.822 21.4949H69.5536L69.4023 20.2735L84.6708 20.2734L84.822 21.4949Z" fill="white"/>
<path d="M69.4885 11.1199H59.0145L58.8633 9.89844H69.3373L69.4885 11.1199Z" fill="#FED101"/>
<path d="M99.0439 26.6824H80.3895L80.2383 25.461L98.8927 25.4609L99.0439 26.6824Z" fill="white"/>
<path d="M75.2208 26.6823L66.1278 26.6824L65.9766 25.4609H75.0696L75.2208 26.6823Z" fill="white"/>
<path d="M79.4801 26.6823H76.2215L76.0703 25.4609H79.3289L79.4801 26.6823Z" fill="#FED101"/>
<path d="M69.4112 34.4793H62.3543L62.2031 33.2578H69.26L69.4112 34.4793Z" fill="white"/>
<path d="M96.608 34.4793H82.1004L81.9492 33.2578H96.4567L96.608 34.4793Z" fill="white"/>
<path d="M80.9739 34.4792H70.7489L70.5977 33.2578H80.8226L80.9739 34.4792Z" fill="#FED101"/>
<path d="M100.268 34.4792L100.117 33.2578H97.5781L97.7294 34.4792H100.268Z" fill="#FED101"/>
<path d="M72.7477 24.0886H69.6981L69.5469 22.8672H72.5965L72.7477 24.0886Z" fill="#FED101"/>
<path d="M84.2028 24.0886L73.7254 24.0886L73.5742 22.8672H84.0516L84.2028 24.0886Z" fill="white"/>
<path d="M92.9744 24.0886H85.3075L85.1562 22.8672L92.8231 22.8672L92.9744 24.0886Z" fill="#FED101"/>
<path d="M85.8074 13.7136H65.3973L65.2461 12.4922L85.6561 12.4922L85.8074 13.7136Z" fill="white"/>
<path d="M97.785 13.7136L86.9168 13.7136L86.7656 12.4922H97.6337L97.785 13.7136Z" fill="white"/>
<path d="M64.3044 13.7136L59.4325 13.7136L59.2812 12.4922H64.1532L64.3044 13.7136Z" fill="#FED101"/>
<path d="M66.4659 16.3074H62.909L62.7578 15.0859H66.3147L66.4659 16.3074Z" fill="#FED101"/>
<path d="M96.9768 16.3152H90.7176L90.5664 15.0938H96.8255L96.9768 16.3152Z" fill="#FED101"/>
<path d="M89.6153 16.3152L67.5731 16.3153L67.4219 15.0938L89.464 15.0938L89.6153 16.3152Z" fill="white"/>
<path d="M72.8257 18.9011L65.0262 18.9011L64.875 17.6797H72.6744L72.8257 18.9011Z" fill="#FED101"/>
<path d="M77.4154 18.9011H73.9012L73.75 17.6797H77.2642L77.4154 18.9011Z" fill="#FED101"/>
<path d="M72.3585 31.8699H64.9989L64.8477 30.6484H72.2073L72.3585 31.8699Z" fill="#FED101"/>
<path d="M84.1675 31.8933L73.2879 31.8933L73.1367 30.6719H84.0163L84.1675 31.8933Z" fill="white"/>
<path d="M80.7837 29.2761H70.9715L70.8203 28.0547H80.6325L80.7837 29.2761Z" fill="#FED101"/>
<path d="M70.0444 29.2761H66.5301L66.3789 28.0547H69.8931L70.0444 29.2761Z" fill="#FED101"/>
<path d="M14.9775 34.13C14.8972 34.13 14.832 34.069 14.832 33.9937V23.5459C14.832 23.5097 14.8473 23.4751 14.8747 23.4496L26.1071 12.9305C26.1344 12.905 26.1714 12.8906 26.21 12.8906H55.5814C55.6618 12.8906 55.7269 12.9516 55.7269 13.0269C55.7269 13.1021 55.6618 13.1631 55.5814 13.1631H26.2703L15.123 23.6023V33.9938C15.123 34.069 15.0579 34.13 14.9775 34.13Z" fill="white"/>
<path d="M13.6924 36.4736C13.612 36.4736 13.5469 36.4126 13.5469 36.3373V19.9902C13.5469 19.9541 13.5622 19.9194 13.5895 19.8939L25.5051 8.73523C25.5323 8.70971 25.5693 8.69531 25.6079 8.69531H47.7694C47.8498 8.69531 47.9149 8.75629 47.9149 8.83155C47.9149 8.90681 47.8498 8.96779 47.7694 8.96779H25.6681L13.8378 20.0467V36.3373C13.8378 36.4126 13.7727 36.4736 13.6924 36.4736Z" fill="white"/>
<path d="M37.8057 4.32812H23.6393C22.3338 4.32812 21.405 5.31918 21.5647 6.54169L22.9037 16.791C23.0634 18.0135 24.2511 19.0046 25.5566 19.0046H39.723C41.0285 19.0046 41.9573 18.0135 41.7976 16.791L40.4586 6.54169C40.2989 5.31918 39.1111 4.32812 37.8057 4.32812Z" fill="white"/>
<path d="M39.7203 19.1285H25.5538C24.1795 19.1285 22.9246 18.0818 22.7565 16.7953L21.4175 6.54598C21.3348 5.91236 21.5225 5.3165 21.9463 4.86811C22.3659 4.42418 22.9662 4.17969 23.6365 4.17969H37.8029C39.1772 4.17969 40.4321 5.22641 40.6002 6.51287L41.9392 16.7622C42.0219 17.3958 41.8342 17.9917 41.4103 18.4401C40.9908 18.884 40.3905 19.1285 39.7203 19.1285ZM23.6365 4.45204C23.0507 4.45204 22.5278 4.66391 22.1641 5.04865C21.7965 5.43778 21.6338 5.95772 21.7064 6.5128L23.0453 16.7621C23.1962 17.9167 24.3215 18.8561 25.5539 18.8561H39.7203C40.3061 18.8561 40.829 18.6442 41.1926 18.2595C41.5604 17.8703 41.723 17.3503 41.6504 16.7952L40.3115 6.54592C40.1606 5.39132 39.0354 4.45204 37.803 4.45204H23.6365Z" fill="#232323"/>
<path d="M36.9222 5.38281H24.8053C23.6887 5.38281 22.8943 6.23046 23.0309 7.27613L24.1761 16.0426C24.3127 17.0883 25.3286 17.936 26.4452 17.936H38.5621C39.6787 17.936 40.4731 17.0883 40.3365 16.0426L39.1913 7.27613C39.0546 6.23052 38.0388 5.38281 36.9222 5.38281Z" fill="#4178EC"/>
<path d="M38.5593 18.0756H26.4424C25.2566 18.0756 24.1739 17.1726 24.0289 16.0626L22.8837 7.29612C22.8122 6.74844 22.9746 6.23327 23.3411 5.84544C23.7041 5.46143 24.2231 5.25 24.8025 5.25H36.9193C38.1051 5.25 39.1878 6.15301 39.3328 7.263L40.478 16.0294C40.5495 16.5771 40.3871 17.0923 40.0205 17.48C39.6577 17.8641 39.1387 18.0756 38.5593 18.0756ZM24.8025 5.52242C24.3075 5.52242 23.866 5.70129 23.559 6.02604C23.2485 6.35456 23.1112 6.79392 23.1725 7.263L24.3177 16.0294C24.4454 17.0075 25.3986 17.8031 26.4424 17.8031H38.5592C39.0541 17.8031 39.4957 17.6242 39.8027 17.2995C40.1132 16.9709 40.2505 16.5316 40.1892 16.0625L39.044 7.29606C38.9163 6.31804 37.9632 5.52242 36.9193 5.52242H24.8025Z" fill="#232323"/>
<path d="M31.8143 13.0713H28.9579L28.5703 14.6791H27.2383L29.1217 7.77344H30.2713L33.9641 14.6791H32.6271L31.8143 13.0713ZM29.1911 12.1037H31.3283L29.8854 9.23907L29.1911 12.1037Z" fill="white"/>
<path d="M36.1473 14.6791H34.8709L33.9688 7.77344H35.2451L36.1473 14.6791Z" fill="white"/>
</svg>
