<svg width="20" height="20" viewBox="0 0 20 20" fill="none" xmlns="http://www.w3.org/2000/svg">
<circle cx="10" cy="10" r="9.66667" stroke="black" stroke-width="0.666667"/>
<path d="M7.97159 7.31574C7.96988 7.13361 8.04057 6.95965 8.16812 6.83209C8.29567 6.70454 8.46964 6.63385 8.65177 6.63556L13.0229 6.6774C13.205 6.67917 13.3804 6.7532 13.5104 6.88322C13.6404 7.01324 13.7144 7.18859 13.7162 7.37072L13.758 11.7418C13.7566 11.9219 13.6846 12.0928 13.5573 12.2178C13.4301 12.3428 13.2579 12.4119 13.0778 12.4102C12.8977 12.4085 12.7241 12.3361 12.5944 12.2086C12.4648 12.0811 12.3894 11.9088 12.3845 11.7287L12.3172 9.05706L7.74741 13.6269C7.61983 13.7544 7.44582 13.8251 7.26365 13.8234C7.08149 13.8216 6.90609 13.7476 6.77605 13.6176C6.646 13.4875 6.57197 13.3121 6.57022 13.13C6.56848 12.9478 6.63917 12.7738 6.76675 12.6462L11.3366 8.0764L8.66492 8.00907C8.48279 8.0073 8.30743 7.93326 8.17741 7.80325C8.0474 7.67323 7.97336 7.49787 7.97159 7.31574Z" fill="black"/>
</svg>
