<svg width="18" height="18" viewBox="0 0 18 18" fill="none" xmlns="http://www.w3.org/2000/svg">
<g clip-path="url(#clip0_710_7983)">
<path d="M7.96226 13.3469L8.62046 11.8393C9.20629 10.4977 10.2606 9.4297 11.5758 8.84589L13.3876 8.04167C13.9636 7.786 13.9636 6.948 13.3876 6.69232L11.6324 5.9132C10.2834 5.31438 9.21011 4.20685 8.63434 2.81945L7.96759 1.21279C7.72016 0.616568 6.89636 0.61657 6.64894 1.21279L5.98217 2.81943C5.40639 4.20685 4.33311 5.31438 2.9841 5.9132L1.2289 6.69232C0.652867 6.948 0.652866 7.786 1.2289 8.04167L3.04069 8.84589C4.35588 9.4297 5.41025 10.4977 5.99603 11.8393L6.65427 13.3469C6.90729 13.9264 7.70921 13.9264 7.96226 13.3469ZM14.5525 17.0177L14.7376 16.5934C15.0676 15.8369 15.662 15.2346 16.4036 14.9051L16.9739 14.6517C17.2824 14.5147 17.2824 14.0664 16.9739 13.9294L16.4355 13.6901C15.6748 13.3522 15.0698 12.7276 14.7454 11.9454L14.5554 11.4869C14.4228 11.1674 13.9811 11.1674 13.8486 11.4869L13.6585 11.9454C13.3342 12.7276 12.7292 13.3522 11.9685 13.6901L11.43 13.9294C11.1216 14.0664 11.1216 14.5147 11.43 14.6517L12.0003 14.9051C12.742 15.2346 13.3363 15.8369 13.6663 16.5934L13.8515 17.0177C13.9869 17.3282 14.417 17.3282 14.5525 17.0177Z" fill="#48387C"/>
</g>
<defs>
<clipPath id="clip0_710_7983">
<rect width="18" height="18" fill="white"/>
</clipPath>
</defs>
</svg>
