<svg width="24" height="24" viewBox="0 0 24 24" fill="none" xmlns="http://www.w3.org/2000/svg">
<g clip-path="url(#clip0_7553_30156)">
<path d="M8.24423 7.33797L1.86423 8.26297L1.75123 8.28597C1.58017 8.33138 1.42423 8.42138 1.29932 8.54677C1.17442 8.67216 1.08503 8.82846 1.04029 8.9997C0.995552 9.17093 0.997058 9.35098 1.04466 9.52144C1.09226 9.69191 1.18425 9.84668 1.31123 9.96997L5.93323 14.469L4.84323 20.824L4.83023 20.934C4.81976 21.1109 4.8565 21.2874 4.93668 21.4455C5.01687 21.6035 5.13762 21.7374 5.28657 21.8335C5.43552 21.9295 5.60732 21.9843 5.78438 21.9921C5.96144 21.9999 6.1374 21.9605 6.29423 21.878L12.0002 18.878L17.6932 21.878L17.7932 21.924C17.9583 21.989 18.1377 22.0089 18.313 21.9817C18.4883 21.9545 18.6532 21.8812 18.7908 21.7692C18.9284 21.6573 19.0338 21.5107 19.0961 21.3446C19.1583 21.1785 19.1753 20.9988 19.1452 20.824L18.0542 14.469L22.6782 9.96897L22.7562 9.88397C22.8677 9.74674 22.9407 9.58242 22.968 9.40776C22.9952 9.23311 22.9757 9.05435 22.9113 8.8897C22.847 8.72505 22.7402 8.5804 22.6017 8.47048C22.4633 8.36056 22.2982 8.28931 22.1232 8.26397L15.7432 7.33797L12.8912 1.55797C12.8087 1.3905 12.681 1.24948 12.5224 1.15087C12.3639 1.05226 12.1809 1 11.9942 1C11.8075 1 11.6246 1.05226 11.466 1.15087C11.3075 1.24948 11.1798 1.3905 11.0972 1.55797L8.24423 7.33797Z" fill="#FFD700"/>
</g>
<defs>
<clipPath id="clip0_7553_30156">
<rect width="24" height="24" fill="white"/>
</clipPath>
</defs>
</svg>
