<svg width="16" height="16" viewBox="0 0 16 16" fill="none" xmlns="http://www.w3.org/2000/svg">
<path d="M4.5013 14.6665C4.0013 14.6665 3.57075 14.4971 3.20964 14.1582C2.84852 13.8193 2.66797 13.3999 2.66797 12.8999V3.59987C2.66797 3.17765 2.79852 2.79987 3.05964 2.46654C3.32075 2.1332 3.66241 1.92209 4.08464 1.8332L10.668 0.533203V11.1999L4.3513 12.4665C4.2513 12.4888 4.16797 12.5415 4.1013 12.6249C4.03464 12.7082 4.0013 12.7999 4.0013 12.8999C4.0013 13.0221 4.0513 13.1249 4.1513 13.2082C4.2513 13.2915 4.36797 13.3332 4.5013 13.3332H12.0013V2.66654H13.3346V14.6665H4.5013ZM6.0013 10.7832L9.33464 10.1332V2.16654L6.0013 2.81654V10.7832ZM4.66797 11.0499V3.0832L4.41797 3.1332C4.29575 3.15543 4.19575 3.2082 4.11797 3.29154C4.04019 3.37487 4.0013 3.47765 4.0013 3.59987V11.2165C4.05686 11.1943 4.11519 11.1749 4.1763 11.1582C4.23741 11.1415 4.29575 11.1276 4.3513 11.1165L4.66797 11.0499Z" fill="#6B7280"/>
</svg>
