<svg width="41" height="41" viewBox="0 0 41 41" fill="none" xmlns="http://www.w3.org/2000/svg">
<g clip-path="url(#clip0_3781_6783)">
<path d="M25.6333 32.8553C21.7489 34.0765 17.337 33.8608 13.4875 31.9924L5.68896 33.6517L7.846 27.1806C3.98988 21.4777 5.4799 14.1189 11.3304 9.96743C17.181 5.81762 25.5835 6.15777 30.9844 10.7639C33.7205 13.0985 35.257 16.1614 35.5341 19.3124" stroke="#13097D" stroke-width="3.31852" stroke-linecap="round" stroke-linejoin="round"/>
<path d="M32.2373 36.9707V36.9873" stroke="#13097D" stroke-width="3.31852" stroke-linecap="round" stroke-linejoin="round"/>
<path d="M32.2373 31.9921C32.9811 31.9897 33.7027 31.7379 34.2864 31.2769C34.8702 30.8159 35.2824 30.1724 35.4572 29.4494C35.6319 28.7263 35.559 27.9656 35.2502 27.2889C34.9414 26.6122 34.4145 26.0586 33.7539 25.7168C33.0938 25.3787 32.3387 25.2738 31.6114 25.4193C30.8842 25.5648 30.2276 25.9521 29.7484 26.5182" stroke="#13097D" stroke-width="3.31852" stroke-linecap="round" stroke-linejoin="round"/>
</g>
<defs>
<clipPath id="clip0_3781_6783">
<rect width="39.8222" height="39.8222" fill="white" transform="translate(0.71106 0.466797)"/>
</clipPath>
</defs>
</svg>
