<svg width="20" height="20" viewBox="0 0 20 20" fill="none" xmlns="http://www.w3.org/2000/svg">
<circle cx="10" cy="10" r="9.5" fill="white" stroke="black"/>
<path d="M10.144 15.096C9.552 15.096 8.976 15.004 8.416 14.82C7.864 14.636 7.412 14.388 7.06 14.076L7.612 13.128C7.892 13.392 8.256 13.608 8.704 13.776C9.152 13.944 9.632 14.028 10.144 14.028C10.768 14.028 11.252 13.896 11.596 13.632C11.948 13.36 12.124 12.996 12.124 12.54C12.124 12.1 11.956 11.748 11.62 11.484C11.292 11.212 10.768 11.076 10.048 11.076H9.376V10.236L11.872 7.164L12.04 7.644H7.444V6.6H12.988V7.416L10.504 10.476L9.88 10.104H10.276C11.292 10.104 12.052 10.332 12.556 10.788C13.068 11.244 13.324 11.824 13.324 12.528C13.324 13 13.208 13.432 12.976 13.824C12.744 14.216 12.392 14.528 11.92 14.76C11.456 14.984 10.864 15.096 10.144 15.096Z" fill="#232323"/>
</svg>
