<svg width="20" height="20" viewBox="0 0 20 20" fill="none" xmlns="http://www.w3.org/2000/svg">
<circle cx="10" cy="10" r="9.5" fill="white" stroke="black"/>
<path d="M7.444 15V14.184L10.864 10.884C11.168 10.596 11.392 10.344 11.536 10.128C11.688 9.904 11.788 9.7 11.836 9.516C11.892 9.324 11.92 9.14 11.92 8.964C11.92 8.532 11.768 8.192 11.464 7.944C11.16 7.696 10.716 7.572 10.132 7.572C9.684 7.572 9.28 7.648 8.92 7.8C8.56 7.944 8.248 8.172 7.984 8.484L7.168 7.776C7.488 7.368 7.916 7.056 8.452 6.84C8.996 6.616 9.592 6.504 10.24 6.504C10.824 6.504 11.332 6.6 11.764 6.792C12.196 6.976 12.528 7.244 12.76 7.596C13 7.948 13.12 8.364 13.12 8.844C13.12 9.116 13.084 9.384 13.012 9.648C12.94 9.912 12.804 10.192 12.604 10.488C12.404 10.784 12.116 11.116 11.74 11.484L8.692 14.424L8.404 13.956H13.48V15H7.444Z" fill="#232323"/>
</svg>
