<svg width="42" height="42" viewBox="0 0 42 42" fill="none" xmlns="http://www.w3.org/2000/svg">
<rect width="42" height="42" rx="20" fill="#FCF3F4"/>
<path d="M18.4135 26.18C20.318 26.18 21.8618 24.6361 21.8618 22.7317C21.8618 20.8273 20.318 19.2834 18.4135 19.2834C16.5091 19.2834 14.9653 20.8273 14.9653 22.7317C14.9653 24.6361 16.5091 26.18 18.4135 26.18Z" stroke="#DC3545" stroke-width="1.37931" stroke-linecap="round" stroke-linejoin="round"/>
<path d="M12.9609 29.6283C13.4503 28.5963 14.2224 27.7244 15.1876 27.1139C16.1528 26.5033 17.2715 26.1792 18.4135 26.1792C19.5556 26.1792 20.6743 26.5033 21.6395 27.1139C22.6047 27.7244 23.3768 28.5963 23.8661 29.6283H30.4825C30.7111 29.6283 30.9304 29.5375 31.0921 29.3758C31.2537 29.2141 31.3446 28.9948 31.3446 28.7662V13.249C31.3446 13.0203 31.2537 12.8011 31.0921 12.6394C30.9304 12.4777 30.7111 12.3869 30.4825 12.3869H11.517C11.2883 12.3869 11.0691 12.4777 10.9074 12.6394C10.7457 12.8011 10.6549 13.0203 10.6549 13.249V28.7662C10.6549 28.9948 10.7457 29.2141 10.9074 29.3758C11.0691 29.5375 11.2883 29.6283 11.517 29.6283H12.9609Z" stroke="#DC3545" stroke-width="1.37931" stroke-linecap="round" stroke-linejoin="round"/>
<path d="M26.1722 26.18H27.8963V15.8351H14.1032V17.5593" stroke="#DC3545" stroke-width="1.37931" stroke-linecap="round" stroke-linejoin="round"/>
</svg>
