<svg width="28" height="28" viewBox="0 0 28 28" fill="none" xmlns="http://www.w3.org/2000/svg">
<g clip-path="url(#clip0_6956_19318)">
<path d="M14 2.33594L14.1365 2.3441C14.3969 2.37482 14.6394 2.49236 14.8248 2.67778C15.0102 2.8632 15.1277 3.10568 15.1585 3.3661L15.1666 3.5026V8.16927L15.1725 8.34427C15.2142 8.89981 15.4533 9.42207 15.8466 9.81664C16.2399 10.2112 16.7614 10.452 17.3168 10.4956L17.5 10.5026H22.1666L22.3031 10.5108C22.5635 10.5415 22.806 10.659 22.9914 10.8445C23.1769 11.0299 23.2944 11.2724 23.3251 11.5328L23.3333 11.6693V22.1693C23.3333 23.062 22.9922 23.921 22.3798 24.5706C21.7673 25.2201 20.9298 25.6111 20.0386 25.6634L19.8333 25.6693H8.16663C7.27388 25.6693 6.41486 25.3282 5.76532 24.7158C5.11578 24.1033 4.72483 23.2658 4.67246 22.3746L4.66663 22.1693V5.83594C4.66658 4.94319 5.00767 4.08417 5.62012 3.43463C6.23258 2.7851 7.07008 2.39415 7.96129 2.34177L8.16663 2.33594H14ZM14 12.8359L13.895 12.8406L13.8273 12.8488L13.6896 12.8779L13.5671 12.9188L13.4353 12.9818L13.3058 13.0646C13.2595 13.099 13.2158 13.1369 13.1751 13.1778L10.2585 16.0944C10.0397 16.3132 9.91687 16.6099 9.91687 16.9193C9.91687 17.2286 10.0397 17.5253 10.2585 17.7441L10.3681 17.8409C10.5926 18.0151 10.8729 18.1013 11.1564 18.0835C11.44 18.0656 11.7072 17.945 11.9081 17.7441L12.8333 16.8189V21.0026C12.8333 21.312 12.9562 21.6088 13.175 21.8276C13.3938 22.0464 13.6905 22.1693 14 22.1693C14.3094 22.1693 14.6061 22.0464 14.8249 21.8276C15.0437 21.6088 15.1666 21.312 15.1666 21.0026V16.8201L16.0918 17.7441C16.3118 17.9566 16.6065 18.0742 16.9124 18.0716C17.2183 18.0689 17.5109 17.9462 17.7272 17.7299C17.9436 17.5136 18.0663 17.221 18.0689 16.9151C18.0716 16.6092 17.954 16.3145 17.7415 16.0944L14.8248 13.1778L14.7291 13.0926L14.6078 13.0063L14.4935 12.9456L14.3651 12.8943L14.2345 12.8593L14.0875 12.8394L14 12.8359Z" fill="#13097D"/>
<path d="M22.1667 8.16783H17.5001L17.4989 3.5L22.1667 8.16783Z" fill="#13097D"/>
</g>
<defs>
<clipPath id="clip0_6956_19318">
<rect width="28" height="28" fill="white"/>
</clipPath>
</defs>
</svg>
