<svg width="16" height="18" viewBox="0 0 16 18" fill="none" xmlns="http://www.w3.org/2000/svg">
<path d="M2.16667 17.3307C1.70833 17.3307 1.31597 17.1675 0.989583 16.8411C0.663194 16.5148 0.5 16.1224 0.5 15.6641V3.9974C0.5 3.53906 0.663194 3.1467 0.989583 2.82031C1.31597 2.49392 1.70833 2.33073 2.16667 2.33073H3V0.664062H4.66667V2.33073H11.3333V0.664062H13V2.33073H13.8333C14.2917 2.33073 14.684 2.49392 15.0104 2.82031C15.3368 3.1467 15.5 3.53906 15.5 3.9974V15.6641C15.5 16.1224 15.3368 16.5148 15.0104 16.8411C14.684 17.1675 14.2917 17.3307 13.8333 17.3307H2.16667ZM2.16667 15.6641H13.8333V7.33073H2.16667V15.6641ZM2.16667 5.66406H13.8333V3.9974H2.16667V5.66406ZM8 10.6641C7.76389 10.6641 7.56597 10.5842 7.40625 10.4245C7.24653 10.2648 7.16667 10.0668 7.16667 9.83073C7.16667 9.59462 7.24653 9.3967 7.40625 9.23698C7.56597 9.07726 7.76389 8.9974 8 8.9974C8.23611 8.9974 8.43403 9.07726 8.59375 9.23698C8.75347 9.3967 8.83333 9.59462 8.83333 9.83073C8.83333 10.0668 8.75347 10.2648 8.59375 10.4245C8.43403 10.5842 8.23611 10.6641 8 10.6641ZM4.66667 10.6641C4.43056 10.6641 4.23264 10.5842 4.07292 10.4245C3.91319 10.2648 3.83333 10.0668 3.83333 9.83073C3.83333 9.59462 3.91319 9.3967 4.07292 9.23698C4.23264 9.07726 4.43056 8.9974 4.66667 8.9974C4.90278 8.9974 5.10069 9.07726 5.26042 9.23698C5.42014 9.3967 5.5 9.59462 5.5 9.83073C5.5 10.0668 5.42014 10.2648 5.26042 10.4245C5.10069 10.5842 4.90278 10.6641 4.66667 10.6641ZM11.3333 10.6641C11.0972 10.6641 10.8993 10.5842 10.7396 10.4245C10.5799 10.2648 10.5 10.0668 10.5 9.83073C10.5 9.59462 10.5799 9.3967 10.7396 9.23698C10.8993 9.07726 11.0972 8.9974 11.3333 8.9974C11.5694 8.9974 11.7674 9.07726 11.9271 9.23698C12.0868 9.3967 12.1667 9.59462 12.1667 9.83073C12.1667 10.0668 12.0868 10.2648 11.9271 10.4245C11.7674 10.5842 11.5694 10.6641 11.3333 10.6641ZM8 13.9974C7.76389 13.9974 7.56597 13.9175 7.40625 13.7578C7.24653 13.5981 7.16667 13.4002 7.16667 13.1641C7.16667 12.928 7.24653 12.73 7.40625 12.5703C7.56597 12.4106 7.76389 12.3307 8 12.3307C8.23611 12.3307 8.43403 12.4106 8.59375 12.5703C8.75347 12.73 8.83333 12.928 8.83333 13.1641C8.83333 13.4002 8.75347 13.5981 8.59375 13.7578C8.43403 13.9175 8.23611 13.9974 8 13.9974ZM4.66667 13.9974C4.43056 13.9974 4.23264 13.9175 4.07292 13.7578C3.91319 13.5981 3.83333 13.4002 3.83333 13.1641C3.83333 12.928 3.91319 12.73 4.07292 12.5703C4.23264 12.4106 4.43056 12.3307 4.66667 12.3307C4.90278 12.3307 5.10069 12.4106 5.26042 12.5703C5.42014 12.73 5.5 12.928 5.5 13.1641C5.5 13.4002 5.42014 13.5981 5.26042 13.7578C5.10069 13.9175 4.90278 13.9974 4.66667 13.9974ZM11.3333 13.9974C11.0972 13.9974 10.8993 13.9175 10.7396 13.7578C10.5799 13.5981 10.5 13.4002 10.5 13.1641C10.5 12.928 10.5799 12.73 10.7396 12.5703C10.8993 12.4106 11.0972 12.3307 11.3333 12.3307C11.5694 12.3307 11.7674 12.4106 11.9271 12.5703C12.0868 12.73 12.1667 12.928 12.1667 13.1641C12.1667 13.4002 12.0868 13.5981 11.9271 13.7578C11.7674 13.9175 11.5694 13.9974 11.3333 13.9974Z" fill="#6C6969" fill-opacity="0.5"/>
</svg>
