<svg width="16" height="16" viewBox="0 0 16 16" fill="none" xmlns="http://www.w3.org/2000/svg">
<g clip-path="url(#clip0_1588_8105)">
<path d="M6.74553 0.228719C6.79847 0.25341 6.79847 0.25341 6.85249 0.2786C7.03881 0.36587 7.22364 0.455633 7.40739 0.548177C7.44252 0.565667 7.47766 0.583158 7.51385 0.601178C7.58122 0.634852 7.64832 0.669061 7.71512 0.703855C7.76087 0.726676 7.76087 0.726676 7.80754 0.749959C7.8474 0.770436 7.8474 0.770436 7.88807 0.791326C8.05741 0.836514 8.21972 0.722506 8.36943 0.649251C8.38955 0.639454 8.40968 0.629657 8.43041 0.619563C8.49449 0.588349 8.55849 0.55698 8.62248 0.525594C8.7687 0.454102 8.91506 0.382882 9.06159 0.312019C9.12505 0.281152 9.18828 0.249837 9.25152 0.218511C9.29252 0.198579 9.33353 0.178666 9.37455 0.158773C9.41063 0.141035 9.44671 0.123298 9.48388 0.105024C9.67864 0.029615 9.85809 0.0104441 10.0552 0.0862629C10.275 0.2099 10.4113 0.453644 10.5529 0.655805C10.739 0.92074 10.9382 1.17597 11.1354 1.43271C11.1869 1.5002 11.1869 1.5002 11.2262 1.56559C11.2766 1.63212 11.2766 1.63212 11.3593 1.64316C11.3906 1.64427 11.422 1.64537 11.4542 1.64651C11.5076 1.64886 11.5076 1.64886 11.562 1.65125C11.6198 1.65292 11.6198 1.65292 11.6786 1.65462C11.738 1.65714 11.738 1.65714 11.7986 1.65972C11.9039 1.66415 12.0092 1.66811 12.1146 1.67178C12.2625 1.67694 12.4104 1.6825 12.5583 1.68868C12.637 1.69195 12.7157 1.69482 12.7945 1.69724C13.038 1.70717 13.2088 1.72561 13.3998 1.88692C13.5065 2.01493 13.5372 2.13145 13.5497 2.29565C13.5525 2.32908 13.5554 2.3625 13.5583 2.39694C13.5629 2.45077 13.5629 2.45077 13.5675 2.5057C13.6032 3.3351 13.6032 3.3351 13.9491 4.04741C14.1338 4.19121 14.3524 4.26625 14.5737 4.33591C14.7554 4.39898 14.9125 4.49729 15.0756 4.59786C15.1177 4.62183 15.1177 4.62183 15.1606 4.64628C15.3588 4.76072 15.4879 4.86548 15.5776 5.08223C15.6306 5.35875 15.474 5.6747 15.3855 5.9327C15.3751 5.96321 15.3646 5.99371 15.3538 6.02514C15.3099 6.15294 15.2658 6.28069 15.2211 6.4082C15.1882 6.50215 15.156 6.5963 15.1238 6.69051C15.1135 6.71929 15.1033 6.74806 15.0927 6.77771C15.039 6.93026 15.039 6.93026 15.0501 7.08778C15.0643 7.11044 15.0785 7.1331 15.0932 7.15645C15.115 7.19465 15.115 7.19465 15.1374 7.23362C15.1543 7.26044 15.1712 7.28726 15.1886 7.3149C15.2172 7.36038 15.2172 7.36038 15.2464 7.40679C15.2667 7.4389 15.2871 7.47102 15.308 7.50411C15.3288 7.53719 15.3497 7.57027 15.3711 7.60436C15.4718 7.76427 15.5729 7.92386 15.6741 8.08346C15.6912 8.1104 15.7082 8.13734 15.7258 8.1651C15.7578 8.21549 15.7898 8.26584 15.8219 8.31614C15.8362 8.33869 15.8505 8.36124 15.8653 8.38448C15.8777 8.40393 15.8901 8.42337 15.9029 8.44341C15.9752 8.56394 16.0091 8.649 16.0112 8.79122C16.012 8.81946 16.0129 8.8477 16.0138 8.87679C15.9778 9.10751 15.8265 9.24527 15.6596 9.39278C15.6176 9.43088 15.5756 9.46905 15.5337 9.50728C15.5125 9.52667 15.4912 9.54606 15.4693 9.56603C15.3678 9.66044 15.2706 9.75891 15.1733 9.85763C15.042 9.99044 14.9098 10.1196 14.7666 10.2398C14.7507 10.2536 14.7347 10.2673 14.7182 10.2815C14.7018 10.2953 14.6854 10.3092 14.6686 10.3235C14.591 10.4143 14.6215 10.5321 14.6303 10.6447C14.632 10.6721 14.6338 10.6994 14.6355 10.7275C14.648 10.9169 14.6644 11.1059 14.6805 11.2949C14.7643 12.2919 14.7643 12.2919 14.6635 12.4943C14.382 12.8137 13.7411 12.8787 13.3501 12.9844C13.2533 13.0106 13.1566 13.0373 13.0599 13.0639C13.0301 13.0718 13.0003 13.0797 12.9696 13.0879C12.9283 13.0993 12.9283 13.0993 12.8861 13.111C12.8498 13.1208 12.8498 13.1208 12.8128 13.1308C12.7128 13.1713 12.6695 13.2235 12.6203 13.3183C12.6093 13.3448 12.5982 13.3712 12.5868 13.3984C12.5677 13.4435 12.5677 13.4435 12.5482 13.4895C12.5347 13.5219 12.5213 13.5543 12.5074 13.5877C12.4932 13.6211 12.4791 13.6545 12.4645 13.689C12.4193 13.7959 12.3744 13.9029 12.3295 14.01C12.2847 14.1167 12.2399 14.2234 12.1948 14.33C12.1668 14.3963 12.1389 14.4627 12.1112 14.5292C11.9291 14.9601 11.9291 14.9601 11.7572 15.0432C11.7381 15.0531 11.7189 15.063 11.6991 15.0732C11.4738 15.1358 11.2439 15.0737 11.0216 15.0256C10.9885 15.0187 10.9553 15.0117 10.9211 15.0046C10.8156 14.9825 10.7103 14.9601 10.6049 14.9377C10.4993 14.9153 10.3937 14.8929 10.2881 14.8708C10.2225 14.8571 10.157 14.8432 10.0915 14.8291C9.83673 14.7632 9.83673 14.7632 9.59108 14.8172C9.572 14.8337 9.55291 14.8502 9.53325 14.8673C9.50084 14.8947 9.50084 14.8947 9.46777 14.9227C9.44535 14.9425 9.42292 14.9623 9.39982 14.9826C9.35242 15.0231 9.30502 15.0635 9.25761 15.104C9.22331 15.1336 9.22331 15.1336 9.18832 15.1639C9.10701 15.234 9.02418 15.3018 8.94084 15.3693C8.85755 15.4372 8.77456 15.5053 8.69218 15.5743C8.21847 15.969 8.21847 15.969 7.93693 15.969C7.72774 15.9081 7.59048 15.8097 7.42717 15.6682C7.38034 15.6286 7.3335 15.589 7.28666 15.5494C7.26419 15.5302 7.24172 15.511 7.21856 15.4912C7.13732 15.4221 7.05487 15.3546 6.97209 15.2873C6.88766 15.2184 6.80328 15.1493 6.71904 15.0802C6.68846 15.0551 6.65789 15.03 6.62639 15.0041C6.59903 14.9816 6.57168 14.9592 6.5435 14.936C6.51865 14.9159 6.49379 14.8959 6.46818 14.8752C6.44929 14.8584 6.4304 14.8415 6.41093 14.8242C6.32525 14.7701 6.28339 14.7749 6.18384 14.7872C6.15346 14.7909 6.12307 14.7946 6.09176 14.7985C5.95131 14.8201 5.81271 14.8471 5.67387 14.8773C5.61347 14.89 5.55306 14.9027 5.49266 14.9154C5.39905 14.9354 5.30545 14.9554 5.21187 14.9755C5.12047 14.9951 5.02901 15.0143 4.93754 15.0335C4.90984 15.0396 4.88213 15.0456 4.85358 15.0519C4.62543 15.0997 4.39772 15.1395 4.18722 15.0171C3.98277 14.8604 3.88625 14.5534 3.79204 14.3216C3.773 14.2758 3.773 14.2758 3.75358 14.229C3.71355 14.1327 3.67384 14.0362 3.6342 13.9397C3.58161 13.8117 3.52871 13.6838 3.47563 13.556C3.45776 13.512 3.45776 13.512 3.43952 13.4672C3.42825 13.4401 3.41697 13.4129 3.40535 13.385C3.39558 13.3611 3.38581 13.3373 3.37574 13.3128C3.32528 13.2158 3.28006 13.1686 3.17773 13.128C3.14964 13.1202 3.12154 13.1123 3.0926 13.1043C3.06067 13.0952 3.02875 13.0861 2.99586 13.0768C2.96139 13.0673 2.92692 13.0578 2.8914 13.0481C2.85591 13.038 2.82042 13.028 2.78385 13.0176C2.67025 12.9855 2.55653 12.9537 2.44279 12.9221C2.3294 12.8904 2.21604 12.8586 2.10274 12.8266C2.03222 12.8066 1.96165 12.7869 1.89103 12.7674C1.45241 12.6438 1.45241 12.6438 1.34709 12.4983C1.27407 12.364 1.27117 12.2397 1.2736 12.0904C1.27382 12.0658 1.27403 12.0412 1.27425 12.0159C1.27848 11.7375 1.30234 11.4609 1.32756 11.1838C1.33433 11.1077 1.34104 11.0316 1.34762 10.9554C1.35167 10.9087 1.35584 10.8621 1.36014 10.8154C1.397 10.5439 1.397 10.5439 1.3217 10.297C1.28593 10.2651 1.28593 10.2651 1.24943 10.2326C1.22623 10.2113 1.20303 10.19 1.17912 10.168C1.13186 10.1273 1.08456 10.0866 1.03711 10.0461C0.874988 9.90631 0.723608 9.75833 0.573652 9.60567C0.396471 9.42372 0.396471 9.42372 0.206464 9.25557C0.0801769 9.15109 0.0173908 9.05137 -0.0169246 8.89388C-0.0407597 8.61402 0.102891 8.412 0.249433 8.1877C0.276111 8.14601 0.302762 8.1043 0.329389 8.06258C0.357402 8.01899 0.385438 7.97541 0.413495 7.93184C0.427612 7.90988 0.441729 7.88792 0.456273 7.86528C0.535679 7.74255 0.617226 7.62199 0.701825 7.50277C0.73723 7.45113 0.772631 7.3995 0.808027 7.34786C0.825358 7.32449 0.84269 7.30112 0.860547 7.27704C0.924302 7.18237 0.970264 7.10812 0.964933 6.99178C0.941002 6.89791 0.908405 6.80972 0.874433 6.71895C0.857948 6.67009 0.841674 6.62116 0.825559 6.57218C0.758702 6.36929 0.690021 6.16702 0.621061 5.96483C0.591338 5.87756 0.561851 5.7902 0.532392 5.70284C0.523277 5.67634 0.514163 5.64984 0.504772 5.62253C0.374958 5.23633 0.374958 5.23633 0.436933 5.04513C0.443378 5.02317 0.449823 5.00122 0.456464 4.9786C0.601444 4.73518 0.892675 4.61203 1.13225 4.47872C1.16802 4.4586 1.20379 4.43848 1.24064 4.41774C1.2588 4.40758 1.27695 4.39741 1.29566 4.38694C1.33328 4.36562 1.3707 4.34394 1.40791 4.32192C1.51897 4.25695 1.62845 4.20388 1.7484 4.15707C1.94658 4.07313 2.13273 3.99106 2.22791 3.78762C2.30703 3.52932 2.33066 3.26215 2.35685 2.99434C2.37103 2.87432 2.38597 2.75441 2.40121 2.63451C2.41039 2.56027 2.41882 2.48594 2.42637 2.41153C2.44888 2.20546 2.48331 2.05232 2.59318 1.8752C2.74428 1.75495 2.85746 1.71519 3.04788 1.71523C3.22609 1.71443 3.40411 1.71164 3.58227 1.70724C3.68987 1.70472 3.79732 1.70311 3.90495 1.70362C4.41836 1.72543 4.41836 1.72543 4.85959 1.51271C4.95179 1.40303 5.02336 1.28494 5.08983 1.1583C5.13552 1.07333 5.19177 0.99914 5.25102 0.923177C5.28502 0.876607 5.319 0.830017 5.35295 0.783406C5.84467 0.11429 5.84467 0.11429 6.0756 0.0373127C6.3282 0.0188304 6.52224 0.122257 6.74553 0.228719ZM9.98255 5.31924C9.93538 5.3895 9.88903 5.46023 9.84294 5.53121C9.82561 5.55766 9.80828 5.58412 9.79042 5.61137C9.75314 5.66827 9.71592 5.7252 9.67874 5.78216C9.57797 5.93646 9.47677 6.09048 9.37553 6.24447C9.3547 6.27616 9.33386 6.30785 9.3124 6.34051C9.09923 6.6643 8.88266 6.98575 8.66545 7.30684C8.59097 7.41703 8.51652 7.52722 8.44206 7.63741C8.41461 7.67803 8.41461 7.67803 8.38661 7.71946C8.19386 8.0048 8.00158 8.29044 7.81007 8.57661C7.77378 8.63081 7.73743 8.68497 7.70102 8.73909C7.65106 8.81338 7.60129 8.88779 7.55156 8.96224C7.53666 8.98431 7.52177 9.00637 7.50643 9.02911C7.43134 9.13085 7.43134 9.13085 7.40568 9.2502C7.20771 9.08434 7.02516 8.90436 6.8437 8.72087C6.7928 8.66942 6.74179 8.61809 6.69074 8.56678C6.54581 8.4211 6.40107 8.27523 6.25645 8.12922C6.16755 8.03948 6.07849 7.9499 5.98934 7.8604C5.95554 7.82641 5.9218 7.79236 5.88813 7.75824C5.84117 7.71069 5.79403 7.66333 5.74684 7.61601C5.72011 7.58905 5.69339 7.56209 5.66585 7.53432C5.56703 7.44543 5.49947 7.41136 5.36857 7.39083C5.09715 7.42642 4.90358 7.6468 4.72795 7.842C4.69867 7.87375 4.69867 7.87375 4.66881 7.90615C4.6118 7.96828 4.55549 8.03096 4.49943 8.09395C4.48132 8.11414 4.46321 8.13433 4.44455 8.15513C4.41921 8.18388 4.41921 8.18388 4.39335 8.21322C4.37838 8.23016 4.3634 8.2471 4.34797 8.26455C4.26452 8.37605 4.26937 8.49172 4.28068 8.6252C4.36811 8.77516 4.47735 8.89759 4.59611 9.02266C4.61601 9.04375 4.6359 9.06483 4.6564 9.08655C4.99767 9.44517 5.35151 9.79183 5.70256 10.1408C5.83083 10.2684 5.95905 10.3959 6.08714 10.5237C6.13766 10.574 6.18829 10.6242 6.23892 10.6744C6.38958 10.8244 6.53723 10.9753 6.6751 11.1372C6.90835 11.4105 7.14846 11.657 7.51433 11.7161C7.68791 11.7223 7.82297 11.6669 7.95646 11.5588C8.12951 11.3493 8.28922 11.1346 8.43718 10.9067C8.4545 10.8802 8.47183 10.8538 8.48969 10.8266C8.52695 10.7697 8.56418 10.7127 8.60135 10.6558C8.70225 10.5013 8.80358 10.347 8.90495 10.1928C8.93623 10.1452 8.93623 10.1452 8.96814 10.0967C9.17908 9.77629 9.39367 9.45841 9.60881 9.14083C9.94321 8.64703 10.273 8.1504 10.6005 7.65198C10.8127 7.32905 11.0252 7.00653 11.2436 6.6877C11.2615 6.66146 11.2794 6.63522 11.2979 6.60818C11.3707 6.50191 11.4441 6.39618 11.5191 6.29146C11.6847 6.05773 11.6847 6.05773 11.7182 5.78145C11.6461 5.47075 11.3219 5.31655 11.0737 5.14864C11.0451 5.12932 11.0451 5.12932 11.016 5.1096C10.5407 4.79511 10.3133 4.84485 9.98255 5.31924Z" fill="#3AAF3C"/>
</g>
<defs>
<clipPath id="clip0_1588_8105">
<rect width="16" height="16" fill="white"/>
</clipPath>
</defs>
</svg>
