<svg width="28" height="28" viewBox="0 0 28 28" fill="none" xmlns="http://www.w3.org/2000/svg">
<path d="M24.5529 9.21282V24.5407C24.5529 25.968 23.3959 27.125 21.9686 27.125H6.03143C4.60414 27.125 3.44711 25.968 3.44711 24.5407V3.45931C3.44706 2.03202 4.60408 0.875 6.03143 0.875H16.7058L24.5529 9.21282Z" fill="#1CA626"/>
<path d="M24.5529 9.21282H18.4286C17.4771 9.21282 16.7058 8.44145 16.7058 7.48995V0.875L24.5529 9.21282Z" fill="#62DD68"/>
<path d="M16.7057 0.875V7.48995C16.7057 8.44145 17.4771 9.21282 18.4286 9.21282H24.5528" fill="#62DD68"/>
<path d="M8.35444 15.4453L9.50359 19.024L10.6477 15.4453H12.2797V20.5887H11.0364V19.3874L11.1558 16.9293L9.91243 20.5887H9.09305L7.84629 16.9259L7.96572 19.3875V20.5888H6.72574V15.4454H8.35444V15.4453Z" fill="white"/>
<path d="M14.3071 18.844V20.5887H13.0671V15.4453H15.1198C15.5135 15.4453 15.8618 15.5177 16.1646 15.6624C16.4675 15.8071 16.7013 16.0123 16.8679 16.2798C17.0328 16.5474 17.1169 16.8502 17.1169 17.1901C17.1169 17.6914 16.9369 18.0936 16.5768 18.3931C16.2185 18.6942 15.7254 18.844 15.0979 18.844H14.3071ZM14.3071 17.8866H15.1198C15.3604 17.8866 15.5438 17.826 15.6699 17.7066C15.7961 17.5855 15.8584 17.4155 15.8584 17.1968C15.8584 16.9562 15.7928 16.7644 15.6632 16.6214C15.5337 16.4784 15.357 16.4043 15.1332 16.4026H14.3071V17.8866Z" fill="white"/>
<path d="M20.8487 18.5782H21.372V19.4968H20.8487V20.5888H19.6575V19.4968H17.6688L17.5982 18.77L19.6576 15.4554V15.4453H20.8488L20.8487 18.5782ZM18.7322 18.5782H19.6575V16.9966L19.5835 17.1161L18.7322 18.5782Z" fill="white"/>
</svg>
