<svg width="24" height="24" viewBox="0 0 24 24" fill="none" xmlns="http://www.w3.org/2000/svg">
<g clip-path="url(#clip0_4750_2938)">
<path d="M3.2415 6.37507C3.27758 6.37514 3.31367 6.3752 3.35084 6.37527C3.46546 6.37553 3.58007 6.37612 3.69468 6.37672C3.77266 6.37695 3.85063 6.37717 3.9286 6.37736C4.11919 6.37788 4.30977 6.37868 4.50035 6.37965C4.54337 6.58263 4.56214 6.78216 4.57359 6.98902C4.57561 7.02087 4.57764 7.05271 4.57972 7.08552C4.59773 7.39704 4.596 7.70833 4.5941 8.02027C4.54964 8.02096 4.50518 8.02164 4.45938 8.02235C4.29408 8.02521 4.12881 8.02869 3.96353 8.03258C3.89206 8.03413 3.82059 8.03545 3.74911 8.03651C3.64623 8.03809 3.5434 8.04054 3.44053 8.04316C3.37867 8.04439 3.31681 8.04562 3.25308 8.04688C3.08858 8.06785 3.0204 8.08948 2.9066 8.20777C2.86104 8.37248 2.83565 8.51689 2.9066 8.67652C3.06111 8.72803 3.17487 8.72941 3.33761 8.72964C3.4294 8.72994 3.4294 8.72994 3.52305 8.73024C3.59136 8.73023 3.65968 8.73021 3.728 8.73018C3.80026 8.73033 3.87252 8.7305 3.94478 8.73069C4.14388 8.73114 4.34299 8.73131 4.54209 8.73143C4.75664 8.73161 4.97118 8.73206 5.18572 8.73249C5.55772 8.73319 5.92972 8.73373 6.30173 8.73417C6.84015 8.73482 7.37857 8.73581 7.91699 8.73691C8.79122 8.73869 9.66546 8.74033 10.5397 8.74181C10.592 8.7419 10.6444 8.74199 10.6983 8.74208C11.4408 8.74334 12.1832 8.74446 12.9257 8.74552C12.9779 8.7456 13.0302 8.74567 13.084 8.74575C13.1362 8.74582 13.1883 8.7459 13.2421 8.74598C14.1126 8.74723 14.983 8.74884 15.8535 8.75075C16.3904 8.75191 16.9273 8.75277 17.4642 8.75324C17.8323 8.75359 18.2005 8.75427 18.5686 8.75521C18.781 8.75575 18.9933 8.75613 19.2057 8.7561C19.4003 8.75608 19.5949 8.75649 19.7895 8.75724C19.8597 8.75743 19.9299 8.75747 20 8.75733C20.8501 8.75588 21.537 8.89618 22.1667 9.50526C22.7417 10.1354 22.8439 10.8249 22.8376 11.6491C22.8375 11.7178 22.8373 11.7864 22.8372 11.8551C22.8369 12.0344 22.836 12.2136 22.8349 12.3929C22.8339 12.5764 22.8335 12.7599 22.833 12.9434C22.832 13.3024 22.8305 13.6613 22.8285 14.0203C22.7914 14.0205 22.7544 14.0208 22.7163 14.0211C22.3653 14.0238 22.0144 14.0272 21.6634 14.0313C21.483 14.0334 21.3026 14.0353 21.1223 14.0365C20.9478 14.0377 20.7733 14.0396 20.5989 14.042C20.5327 14.0428 20.4666 14.0433 20.4004 14.0436C19.7213 14.0469 19.1164 14.1567 18.6044 14.6275C18.4475 14.7977 18.3378 14.9857 18.2347 15.1922C18.2107 15.2396 18.2107 15.2396 18.1862 15.2879C18.0142 15.7016 18.0278 16.2664 18.1673 16.6892C18.3889 17.1979 18.7022 17.5515 19.2099 17.7835C19.6773 17.9647 20.1353 17.9662 20.6312 17.9726C20.6948 17.9736 20.7584 17.9746 20.8219 17.9756C20.9881 17.9781 21.1542 17.9805 21.3203 17.9827C21.4904 17.9851 21.6604 17.9877 21.8304 17.9903C22.1631 17.9953 22.4958 18.0001 22.8285 18.0047C22.8317 18.3983 22.8342 18.792 22.8358 19.1856C22.8365 19.3685 22.8375 19.5513 22.8391 19.7342C22.8406 19.9111 22.8415 20.0879 22.8418 20.2648C22.8421 20.3319 22.8426 20.3989 22.8433 20.466C22.8519 21.2476 22.6918 21.9674 22.1376 22.5501C21.6997 22.9433 21.1466 23.2132 20.5549 23.2141C20.5242 23.2142 20.4936 23.2143 20.462 23.2144C20.3587 23.2147 20.2555 23.2147 20.1523 23.2147C20.0777 23.2148 20.0031 23.215 19.9285 23.2152C19.7232 23.2157 19.5179 23.2158 19.3125 23.216C19.0912 23.2161 18.8699 23.2166 18.6486 23.217C18.1139 23.2179 17.5792 23.2184 17.0445 23.2188C16.7927 23.219 16.5409 23.2193 16.2891 23.2195C15.452 23.2203 14.6149 23.221 13.7777 23.2213C13.5605 23.2214 13.3432 23.2215 13.126 23.2216C13.045 23.2216 13.045 23.2216 12.9623 23.2217C12.0878 23.2221 11.2132 23.2233 10.3387 23.2248C9.44071 23.2263 8.54277 23.2272 7.64482 23.2273C7.14068 23.2274 6.63655 23.2278 6.13241 23.229C5.70302 23.2301 5.27363 23.2304 4.84423 23.23C4.62524 23.2298 4.40626 23.2298 4.18727 23.2308C3.98652 23.2316 3.7858 23.2315 3.58506 23.2308C3.51269 23.2307 3.44033 23.2309 3.36796 23.2315C2.61061 23.2369 2.00447 23.0398 1.44175 22.5193C0.962385 22.0104 0.77495 21.4264 0.779366 20.7415C0.779147 20.6886 0.778927 20.6357 0.778701 20.5812C0.778143 20.405 0.778584 20.2287 0.779027 20.0525C0.778914 19.9257 0.778591 19.799 0.77828 19.6722C0.777657 19.3642 0.777789 19.0563 0.778198 18.7483C0.778516 18.4979 0.778558 18.2475 0.778405 17.9971C0.778384 17.9614 0.778362 17.9257 0.77834 17.8889C0.778295 17.8163 0.77825 17.7438 0.778203 17.6712C0.777803 16.9917 0.778263 16.3122 0.779019 15.6327C0.779647 15.0503 0.779538 14.4679 0.77889 13.8855C0.778136 13.2084 0.777841 12.5312 0.778273 11.8541C0.778318 11.7818 0.778362 11.7095 0.778405 11.6372C0.778427 11.6017 0.778449 11.5661 0.778471 11.5295C0.778592 11.2795 0.778388 11.0296 0.778057 10.7796C0.777661 10.4748 0.777771 10.17 0.778518 9.86513C0.778886 9.70976 0.778958 9.55439 0.778567 9.39901C0.778182 9.23026 0.778666 9.06153 0.779366 8.89277C0.779053 8.84412 0.778739 8.79546 0.778416 8.74534C0.783662 8.09144 1.02701 7.5248 1.47618 7.0511C1.97096 6.59396 2.57408 6.37041 3.2415 6.37507Z" fill="#13097D"/>
<path d="M14.3908 3.09375C14.9466 3.21964 15.497 3.36124 16.0463 3.51312C16.1745 3.54852 16.3027 3.58358 16.431 3.61862C16.5126 3.64109 16.5943 3.66358 16.676 3.6861C16.7142 3.69654 16.7525 3.70699 16.7919 3.71776C17.0573 3.79149 17.0573 3.79149 17.1096 3.84375C17.1212 3.93446 17.1318 4.02531 17.1418 4.11621C17.2191 4.64458 17.4648 5.10631 17.8947 5.42871C17.9611 5.47852 18.0275 5.52832 18.0939 5.57812C17.9756 6.09215 17.85 6.60366 17.7146 7.11346C17.686 7.22126 17.6578 7.32913 17.6295 7.43701C17.6113 7.50586 17.5931 7.57471 17.5748 7.64355C17.5664 7.67567 17.558 7.70779 17.5494 7.74089C17.4899 7.96338 17.4899 7.96338 17.4377 8.01562C17.3624 8.02012 17.2868 8.02134 17.2114 8.02126C17.1624 8.02133 17.1134 8.02139 17.063 8.02146C17.0088 8.02129 16.9546 8.02112 16.8988 8.02095C16.8421 8.02095 16.7854 8.02096 16.727 8.02097C16.5711 8.02094 16.4151 8.0207 16.2592 8.02038C16.0964 8.02009 15.9337 8.02006 15.7709 8.02C15.4624 8.01986 15.154 8.01947 14.8455 8.019C14.4944 8.01848 14.1434 8.01822 13.7923 8.01798C13.0699 8.01749 12.3476 8.01667 11.6252 8.01562C11.6525 7.76482 11.6946 7.52529 11.759 7.28112C11.7677 7.24738 11.7764 7.21365 11.7853 7.17889C11.8139 7.06868 11.8428 6.95859 11.8718 6.84851C11.8818 6.8107 11.8917 6.77289 11.902 6.73394C11.9546 6.53437 12.0075 6.33489 12.0607 6.13548C12.1155 5.92955 12.169 5.7233 12.2222 5.51695C12.2634 5.35806 12.3057 5.19946 12.3483 5.04092C12.3685 4.96496 12.3883 4.8889 12.4076 4.81272C12.4348 4.70648 12.4633 4.60074 12.4923 4.49499C12.5 4.46348 12.5077 4.43197 12.5156 4.39951C12.5405 4.31231 12.5405 4.31231 12.6096 4.17188C12.7491 4.10668 12.7491 4.10668 12.8908 4.07812C12.935 4.06822 12.9793 4.05831 13.0248 4.0481C13.0696 4.03867 13.1143 4.02924 13.1603 4.01953C13.7147 3.88095 14.0775 3.56378 14.3908 3.09375Z" fill="#FA660F"/>
<path d="M11.8593 0.796875C12.2085 0.824897 12.5303 0.902131 12.8676 0.994995C12.9571 1.0192 13.0466 1.0434 13.136 1.0676C13.2324 1.09373 13.3287 1.12001 13.4251 1.14634C13.6292 1.20214 13.8335 1.25752 14.0378 1.31282C14.1094 1.33221 14.181 1.35159 14.2526 1.37098C14.2888 1.38078 14.325 1.39058 14.3623 1.40067C14.475 1.43119 14.5876 1.46176 14.7003 1.49233C15.297 1.65418 15.8942 1.81416 16.4916 1.97351C16.5824 1.99773 16.6732 2.02195 16.7639 2.04617C17.1209 2.1414 17.4778 2.2366 17.8348 2.3317C19.5817 2.79713 19.5817 2.79713 20.4374 3.04688C20.3033 3.63428 20.1537 4.21662 19.9974 4.79846C19.9736 4.88737 19.9498 4.97627 19.926 5.06518C19.8766 5.24963 19.8272 5.43406 19.7777 5.61848C19.7142 5.85492 19.6509 6.09141 19.5876 6.32791C19.5387 6.51064 19.4897 6.69336 19.4408 6.87608C19.4174 6.96336 19.394 7.05064 19.3706 7.13792C19.3382 7.25917 19.3056 7.3804 19.2731 7.50163C19.2634 7.53756 19.2538 7.5735 19.2439 7.61053C19.2073 7.74686 19.1695 7.88165 19.1249 8.01562C18.831 8.01562 18.5371 8.01562 18.2343 8.01562C18.2881 7.71408 18.3597 7.42007 18.4397 7.12463C18.45 7.08642 18.4603 7.04821 18.4709 7.00883C18.5142 6.84887 18.5576 6.68895 18.6016 6.5292C18.634 6.41138 18.6658 6.29342 18.6975 6.17542C18.7075 6.13986 18.7174 6.1043 18.7277 6.06767C18.7963 5.80986 18.8486 5.54318 18.7603 5.28351C18.6158 5.06208 18.4511 4.91792 18.2383 4.76202C17.9951 4.57671 17.8802 4.36114 17.8362 4.06219C17.8303 4.00654 17.8243 3.95089 17.8182 3.89355C17.7727 3.55478 17.7727 3.55478 17.578 3.28125C17.2656 3.10196 16.9437 3.01152 16.5967 2.91998C16.539 2.90453 16.4812 2.88908 16.4217 2.87316C16.2999 2.84076 16.1782 2.80855 16.0563 2.77662C15.9012 2.73591 15.7463 2.69414 15.5915 2.65209C15.4424 2.6118 15.293 2.5726 15.1436 2.53326C15.0885 2.51823 15.0334 2.5032 14.9767 2.48771C14.6143 2.39424 14.3148 2.34293 13.9628 2.50488C13.8357 2.61813 13.7646 2.71522 13.6727 2.85645C13.5092 3.09789 13.3569 3.2361 13.078 3.32812C12.9094 3.35712 12.7409 3.37795 12.571 3.39789C12.3177 3.4386 12.2038 3.52637 12.0473 3.73156C11.9382 3.91554 11.886 4.08539 11.8335 4.29112C11.823 4.33033 11.8126 4.36954 11.8018 4.40994C11.7675 4.53871 11.734 4.66766 11.7005 4.79663C11.6768 4.8864 11.653 4.97615 11.6291 5.0659C11.5667 5.30155 11.5048 5.53736 11.4431 5.77321C11.3558 6.10629 11.2677 6.43916 11.1797 6.77205C11.1328 6.94926 11.0862 7.12652 11.0398 7.30384C11.0186 7.38444 10.9974 7.46504 10.9762 7.54564C10.9666 7.58256 10.957 7.61947 10.947 7.65751C10.8802 7.91128 10.8802 7.91128 10.828 8.01562C10.5341 8.01562 10.2402 8.01562 9.93738 8.01562C10.0631 7.47098 10.1985 6.93039 10.3441 6.39075C10.365 6.31265 10.386 6.23456 10.4069 6.15646C10.4625 5.94957 10.5182 5.74272 10.5739 5.53588C10.62 5.36452 10.6661 5.19312 10.7122 5.02173C11.091 3.61247 11.4733 2.20418 11.8593 0.796875Z" fill="#13097D"/>
<path d="M10.7344 2.06312C10.7075 2.35342 10.6575 2.63545 10.5469 2.90687C10.4353 2.96265 10.3579 2.96365 10.2333 2.96975C10.1647 2.97328 10.1647 2.97328 10.0948 2.97689C10.0452 2.97928 9.99557 2.98168 9.94446 2.98414C9.83966 2.98973 9.73486 2.99535 9.63007 3.00099C9.46468 3.00967 9.29929 3.01818 9.13387 3.02626C8.97435 3.03414 8.81488 3.04278 8.6554 3.05152C8.60636 3.05373 8.55732 3.05593 8.5068 3.0582C8.16694 3.07756 7.88983 3.12547 7.60547 3.32582C7.47317 3.5059 7.42263 3.68473 7.35754 3.89692C7.25051 4.21758 7.05439 4.41841 6.75128 4.57057C6.70349 4.59196 6.65569 4.61335 6.60645 4.63539C6.37148 4.74969 6.24921 4.82527 6.14063 5.06312C6.09326 5.21235 6.09085 5.34128 6.09778 5.49726C6.09981 5.54545 6.10184 5.59364 6.10392 5.64329C6.10637 5.6945 6.10881 5.74571 6.11133 5.79847C6.11477 5.87755 6.11477 5.87755 6.11828 5.95823C6.13148 6.25384 6.14778 6.5491 6.16699 6.84437C6.19167 7.23566 6.1908 7.62416 6.1875 8.01625C5.90906 8.01625 5.63063 8.01625 5.34375 8.01625C5.30085 7.33129 5.25806 6.64634 5.2154 5.96137C5.1956 5.64331 5.17575 5.32525 5.15582 5.00719C5.13658 4.70023 5.11744 4.39326 5.09837 4.08628C5.09108 3.96919 5.08376 3.85211 5.07639 3.73502C5.06608 3.57097 5.0559 3.40692 5.04575 3.24286C5.04268 3.19451 5.03961 3.14616 5.03645 3.09634C5.022 2.86076 5.01224 2.62727 5.01563 2.39125C5.69896 2.3483 6.3823 2.30551 7.06565 2.2629C7.38297 2.24311 7.70029 2.22327 8.01761 2.20331C8.32396 2.18404 8.63033 2.16491 8.9367 2.14587C9.05345 2.13859 9.17019 2.13126 9.28694 2.12389C9.45074 2.11355 9.61455 2.10338 9.77837 2.09324C9.82638 2.09017 9.8744 2.08711 9.92386 2.08394C10.1947 2.06739 10.4631 2.06024 10.7344 2.06312Z" fill="#13097D"/>
<path d="M10.3122 3.70422C10.2296 4.16311 10.1053 4.60985 9.9837 5.05957C9.9607 5.14507 9.93772 5.23058 9.91474 5.31609C9.85461 5.53975 9.79431 5.76337 9.73396 5.98697C9.66139 6.25602 9.58905 6.52512 9.51666 6.79422C9.40701 7.20176 9.29708 7.60923 9.18719 8.01672C8.46016 8.01672 7.73313 8.01672 6.98407 8.01672C6.92498 7.89853 6.92591 7.80787 6.91896 7.67566C6.91615 7.62405 6.91334 7.57244 6.91044 7.51927C6.90761 7.46336 6.90478 7.40745 6.90186 7.34985C6.8988 7.29276 6.89575 7.23567 6.8926 7.17684C6.88285 6.99392 6.8734 6.81099 6.86395 6.62805C6.85741 6.50427 6.85085 6.38049 6.84427 6.25671C6.82815 5.95277 6.81227 5.64881 6.79657 5.34484C6.83842 5.32296 6.88027 5.30107 6.92338 5.27853C6.97883 5.24919 7.03428 5.21984 7.08972 5.19049C7.14414 5.16183 7.19855 5.13318 7.25462 5.10366C7.73466 4.82786 7.9801 4.35386 8.15594 3.84484C8.24576 3.75503 8.40626 3.78011 8.526 3.77288C8.55894 3.77087 8.59187 3.76885 8.6258 3.76678C8.69598 3.76254 8.76616 3.75841 8.83635 3.75438C8.94181 3.74829 9.04725 3.7418 9.15268 3.73526C9.53971 3.71192 9.92431 3.69917 10.3122 3.70422Z" fill="#FA660F"/>
<path d="M20.164 14.7598C20.197 14.7598 20.23 14.7598 20.2639 14.7598C20.3722 14.7598 20.4805 14.7602 20.5888 14.7605C20.6641 14.7606 20.7395 14.7607 20.8148 14.7607C21.0126 14.7609 21.2104 14.7614 21.4082 14.7619C21.6458 14.7625 21.8834 14.7627 22.121 14.7629C22.4816 14.7634 22.8421 14.7643 23.2026 14.7651C23.2026 15.5695 23.2026 16.3739 23.2026 17.2026C22.3422 17.2101 22.3422 17.2101 21.9735 17.2118C21.7226 17.2129 21.4718 17.2142 21.2209 17.2168C21.0184 17.2188 20.816 17.2199 20.6136 17.2204C20.5366 17.2207 20.4597 17.2214 20.3827 17.2224C19.9165 17.2283 19.5186 17.228 19.1452 16.9144C19.1016 16.8627 19.1016 16.8627 19.0571 16.81C19.0272 16.7758 18.9973 16.7416 18.9665 16.7064C18.7514 16.3876 18.7616 16.0266 18.7964 15.6557C18.8393 15.5134 18.899 15.402 18.9839 15.2807C19.023 15.2184 19.023 15.2184 19.063 15.1548C19.3797 14.838 19.7286 14.759 20.164 14.7598ZM19.687 15.7495C19.6145 15.8944 19.6264 16.0117 19.6401 16.1714C19.7099 16.281 19.7099 16.281 19.8276 16.3589C19.9942 16.3904 19.9942 16.3904 20.1763 16.3852C20.2371 16.3863 20.298 16.3873 20.3606 16.3883C20.5688 16.3523 20.6367 16.289 20.7651 16.1245C20.8081 15.9839 20.8081 15.9839 20.7651 15.8432C20.6337 15.6753 20.5595 15.6197 20.3482 15.5894C20.0833 15.5823 19.9067 15.5897 19.687 15.7495Z" fill="#FA660F"/>
<path d="M20.2968 6.375C21.0251 6.375 21.5821 6.55891 22.113 7.06329C22.5898 7.55331 22.8317 8.13376 22.8339 8.81543C22.8324 8.90821 22.8306 9.00099 22.8281 9.09375C22.6766 9.02726 22.5789 8.94595 22.4619 8.83008C21.7121 8.15738 20.8662 8.07069 19.8749 8.01562C20.0142 7.47422 20.1534 6.93281 20.2968 6.375Z" fill="#13097D"/>
</g>
<defs>
<clipPath id="clip0_4750_2938">
<rect width="24" height="24" fill="white"/>
</clipPath>
</defs>
</svg>
