<svg width="32" height="32" viewBox="0 0 32 32" fill="none" xmlns="http://www.w3.org/2000/svg">
<g clip-path="url(#clip0_8261_296)">
<path d="M20 13.3315L26.0707 10.2969C26.2739 10.1953 26.4997 10.1474 26.7267 10.1576C26.9536 10.1678 27.1742 10.2359 27.3675 10.3553C27.5608 10.4747 27.7203 10.6415 27.831 10.8399C27.9417 11.0383 27.9999 11.2617 28 11.4889V20.5075C27.9999 20.7347 27.9417 20.9581 27.831 21.1565C27.7203 21.3549 27.5608 21.5217 27.3675 21.6411C27.1742 21.7605 26.9536 21.8286 26.7267 21.8388C26.4997 21.849 26.2739 21.8011 26.0707 21.6995L20 18.6649V13.3315Z" stroke="#2F43F2" stroke-width="2.66667" stroke-linecap="round" stroke-linejoin="round"/>
<path d="M4 10.6667C4 9.95942 4.28095 9.28115 4.78105 8.78105C5.28115 8.28095 5.95942 8 6.66667 8H17.3333C18.0406 8 18.7189 8.28095 19.219 8.78105C19.719 9.28115 20 9.95942 20 10.6667V21.3333C20 22.0406 19.719 22.7189 19.219 23.219C18.7189 23.719 18.0406 24 17.3333 24H6.66667C5.95942 24 5.28115 23.719 4.78105 23.219C4.28095 22.7189 4 22.0406 4 21.3333V10.6667Z" stroke="#2F43F2" stroke-width="2.66667" stroke-linecap="round" stroke-linejoin="round"/>
</g>
<defs>
<clipPath id="clip0_8261_296">
<rect width="32" height="32" fill="white"/>
</clipPath>
</defs>
</svg>
