<svg width="32" height="32" viewBox="0 0 32 32" fill="none" xmlns="http://www.w3.org/2000/svg">
<g clip-path="url(#clip0_8261_1066)">
<path d="M18.667 4V9.33333C18.667 9.68695 18.8075 10.0261 19.0575 10.2761C19.3076 10.5262 19.6467 10.6667 20.0003 10.6667H25.3337" stroke="#2F43F2" stroke-width="2.66667" stroke-linecap="round" stroke-linejoin="round"/>
<path d="M22.667 28H9.33366C8.62641 28 7.94814 27.719 7.44804 27.219C6.94794 26.7189 6.66699 26.0406 6.66699 25.3333V6.66667C6.66699 5.95942 6.94794 5.28115 7.44804 4.78105C7.94814 4.28095 8.62641 4 9.33366 4H18.667L25.3337 10.6667V25.3333C25.3337 26.0406 25.0527 26.7189 24.5526 27.219C24.0525 27.719 23.3742 28 22.667 28Z" stroke="#2F43F2" stroke-width="2.66667" stroke-linecap="round" stroke-linejoin="round"/>
<path d="M12 20.0026L14.6667 22.6693L20 17.3359" stroke="#2F43F2" stroke-width="2.66667" stroke-linecap="round" stroke-linejoin="round"/>
</g>
<defs>
<clipPath id="clip0_8261_1066">
<rect width="32" height="32" fill="white"/>
</clipPath>
</defs>
</svg>
