<svg width="32" height="32" viewBox="0 0 32 32" fill="none" xmlns="http://www.w3.org/2000/svg">
<g clip-path="url(#clip0_8261_483)">
<path d="M14.667 15.9974C14.667 16.351 14.8075 16.6902 15.0575 16.9402C15.3076 17.1903 15.6467 17.3307 16.0003 17.3307C16.3539 17.3307 16.6931 17.1903 16.9431 16.9402C17.1932 16.6902 17.3337 16.351 17.3337 15.9974C17.3337 15.6438 17.1932 15.3046 16.9431 15.0546C16.6931 14.8045 16.3539 14.6641 16.0003 14.6641C15.6467 14.6641 15.3076 14.8045 15.0575 15.0546C14.8075 15.3046 14.667 15.6438 14.667 15.9974Z" stroke="#2F43F2" stroke-width="2.66667" stroke-linecap="round" stroke-linejoin="round"/>
<path d="M9.33301 16.0026C9.33301 17.7707 10.0354 19.4664 11.2856 20.7166C12.5359 21.9669 14.2316 22.6693 15.9997 22.6693C17.7678 22.6693 19.4635 21.9669 20.7137 20.7166C21.964 19.4664 22.6663 17.7707 22.6663 16.0026C22.6663 14.2345 21.964 12.5388 20.7137 11.2886C19.4635 10.0383 17.7678 9.33594 15.9997 9.33594C14.2316 9.33594 12.5359 10.0383 11.2856 11.2886C10.0354 12.5388 9.33301 14.2345 9.33301 16.0026Z" stroke="#2F43F2" stroke-width="2.66667" stroke-linecap="round" stroke-linejoin="round"/>
<path d="M4 16C4 17.5759 4.31039 19.1363 4.91345 20.5922C5.5165 22.0481 6.40042 23.371 7.51472 24.4853C8.62902 25.5996 9.95189 26.4835 11.4078 27.0866C12.8637 27.6896 14.4241 28 16 28C17.5759 28 19.1363 27.6896 20.5922 27.0866C22.0481 26.4835 23.371 25.5996 24.4853 24.4853C25.5996 23.371 26.4835 22.0481 27.0866 20.5922C27.6896 19.1363 28 17.5759 28 16C28 14.4241 27.6896 12.8637 27.0866 11.4078C26.4835 9.95189 25.5996 8.62902 24.4853 7.51472C23.371 6.40042 22.0481 5.5165 20.5922 4.91345C19.1363 4.31039 17.5759 4 16 4C14.4241 4 12.8637 4.31039 11.4078 4.91345C9.95189 5.5165 8.62902 6.40042 7.51472 7.51472C6.40042 8.62902 5.5165 9.95189 4.91345 11.4078C4.31039 12.8637 4 14.4241 4 16Z" stroke="#2F43F2" stroke-width="2.66667" stroke-linecap="round" stroke-linejoin="round"/>
</g>
<defs>
<clipPath id="clip0_8261_483">
<rect width="32" height="32" fill="white"/>
</clipPath>
</defs>
</svg>
