<svg width="32" height="32" viewBox="0 0 32 32" fill="none" xmlns="http://www.w3.org/2000/svg">
<g clip-path="url(#clip0_8261_1055)">
<path d="M6.66699 9.33333C6.66699 10.7478 7.2289 12.1044 8.22909 13.1046C9.22928 14.1048 10.5858 14.6667 12.0003 14.6667C13.4148 14.6667 14.7714 14.1048 15.7716 13.1046C16.7718 12.1044 17.3337 10.7478 17.3337 9.33333C17.3337 7.91885 16.7718 6.56229 15.7716 5.5621C14.7714 4.5619 13.4148 4 12.0003 4C10.5858 4 9.22928 4.5619 8.22909 5.5621C7.2289 6.56229 6.66699 7.91885 6.66699 9.33333Z" stroke="#2F43F2" stroke-width="2.66667" stroke-linecap="round" stroke-linejoin="round"/>
<path d="M4 28V25.3333C4 23.9188 4.5619 22.5623 5.5621 21.5621C6.56229 20.5619 7.91885 20 9.33333 20H14.6667C16.0812 20 17.4377 20.5619 18.4379 21.5621C19.4381 22.5623 20 23.9188 20 25.3333V28" stroke="#2F43F2" stroke-width="2.66667" stroke-linecap="round" stroke-linejoin="round"/>
<path d="M21.333 4.17969C22.4802 4.47342 23.4971 5.14062 24.2232 6.0761C24.9493 7.01158 25.3435 8.16213 25.3435 9.34635C25.3435 10.5306 24.9493 11.6811 24.2232 12.6166C23.4971 13.5521 22.4802 14.2193 21.333 14.513" stroke="#2F43F2" stroke-width="2.66667" stroke-linecap="round" stroke-linejoin="round"/>
<path d="M28 27.9953V25.3286C27.9932 24.1515 27.5972 23.0097 26.8737 22.0812C26.1502 21.1527 25.1398 20.4896 24 20.1953" stroke="#2F43F2" stroke-width="2.66667" stroke-linecap="round" stroke-linejoin="round"/>
</g>
<defs>
<clipPath id="clip0_8261_1055">
<rect width="32" height="32" fill="white"/>
</clipPath>
</defs>
</svg>
