<svg width="24" height="24" viewBox="0 0 24 24" fill="none" xmlns="http://www.w3.org/2000/svg">
<g clip-path="url(#clip0_8198_3361)">
<path d="M14.0234 21.5984H6.89844C4.41714 21.5984 2.39844 19.5797 2.39844 17.0984V6.89844C2.39844 4.41714 4.41714 2.39844 6.89844 2.39844H17.0984C19.5797 2.39844 21.5984 4.41714 21.5984 6.89844V14.0797C21.5984 14.4939 21.2627 14.8297 20.8484 14.8297C20.4342 14.8297 20.0984 14.4939 20.0984 14.0797V6.89844C20.0984 5.24424 18.7526 3.89844 17.0984 3.89844H6.89844C5.24424 3.89844 3.89844 5.24424 3.89844 6.89844V17.0984C3.89844 18.7526 5.24424 20.0984 6.89844 20.0984H14.0234C14.4377 20.0984 14.7734 20.4342 14.7734 20.8484C14.7734 21.2627 14.4377 21.5984 14.0234 21.5984ZM17.8484 7.12344C17.8484 6.70921 17.5127 6.37344 17.0984 6.37344H10.2359C9.82171 6.37344 9.48594 6.70921 9.48594 7.12344C9.48594 7.53766 9.82171 7.87344 10.2359 7.87344H17.0984C17.5127 7.87344 17.8484 7.53766 17.8484 7.12344ZM17.8484 10.1234C17.8484 9.70921 17.5127 9.37344 17.0984 9.37344H6.89844C6.48421 9.37344 6.14844 9.70921 6.14844 10.1234C6.14844 10.5377 6.48421 10.8734 6.89844 10.8734H17.0984C17.5127 10.8734 17.8484 10.5377 17.8484 10.1234ZM10.3484 13.1234C10.3484 12.7092 10.0127 12.3734 9.59844 12.3734H6.89844C6.48421 12.3734 6.14844 12.7092 6.14844 13.1234C6.14844 13.5377 6.48421 13.8734 6.89844 13.8734H9.59844C10.0127 13.8734 10.3484 13.5377 10.3484 13.1234ZM6.14844 7.04844C6.14844 7.5662 6.56817 7.98594 7.08594 7.98594C7.6037 7.98594 8.02344 7.5662 8.02344 7.04844C8.02344 6.53067 7.6037 6.11094 7.08594 6.11094C6.56817 6.11094 6.14844 6.53067 6.14844 7.04844ZM20.7966 20.7966C21.864 19.7293 21.864 17.9926 20.7966 16.9252L18.1676 14.2962C17.4077 13.5363 16.449 13.0233 15.3953 12.8127L13.2704 12.388C13.0247 12.3387 12.7704 12.4158 12.5931 12.5931C12.4158 12.7704 12.3389 13.0246 12.388 13.2705L12.8127 15.3954C13.0233 16.4491 13.5363 17.4077 14.2961 18.1676L16.9252 20.7966C17.4423 21.3137 18.1297 21.5984 18.8609 21.5984C19.5921 21.5984 20.2796 21.3137 20.7966 20.7966ZM15.1013 14.2836C15.8637 14.436 16.5572 14.807 17.1069 15.3568L19.736 17.9858C20.2185 18.4683 20.2185 19.2534 19.736 19.736C19.5023 19.9697 19.1915 20.0984 18.8609 20.0984C18.5304 20.0984 18.2196 19.9697 17.9859 19.736L15.3568 17.1069C14.8071 16.5572 14.436 15.8637 14.2836 15.1014L14.0794 14.0794L15.1013 14.2836Z" fill="#2F43F2"/>
</g>
<defs>
<clipPath id="clip0_8198_3361">
<rect width="19.2" height="19.2" fill="white" transform="translate(2.39844 2.39844)"/>
</clipPath>
</defs>
</svg>
