<svg width="16" height="17" viewBox="0 0 16 17" fill="none" xmlns="http://www.w3.org/2000/svg">
<path fill-rule="evenodd" clip-rule="evenodd" d="M8.00006 9.91181L11.5354 13.4471C11.723 13.6347 11.9774 13.7401 12.2427 13.7401C12.508 13.7401 12.7625 13.6347 12.9501 13.4471C13.1377 13.2595 13.243 13.0051 13.243 12.7398C13.243 12.4745 13.1377 12.2201 12.9501 12.0325L9.41339 8.49714L12.9494 4.96181C13.0422 4.86892 13.1159 4.75866 13.1661 4.63731C13.2163 4.51596 13.2422 4.38591 13.2421 4.25457C13.2421 4.12324 13.2162 3.9932 13.1659 3.87188C13.1156 3.75055 13.0419 3.64032 12.9491 3.54748C12.8562 3.45463 12.7459 3.38099 12.6246 3.33076C12.5032 3.28053 12.3732 3.25469 12.2418 3.25473C12.1105 3.25476 11.9805 3.28066 11.8591 3.33094C11.7378 3.38123 11.6276 3.45492 11.5347 3.54781L8.00006 7.08314L4.46473 3.54781C4.37253 3.45226 4.26222 3.37602 4.14024 3.32356C4.01826 3.27109 3.88705 3.24345 3.75427 3.24223C3.6215 3.24101 3.48981 3.26625 3.36689 3.31648C3.24397 3.3667 3.13228 3.4409 3.03834 3.53475C2.94441 3.6286 2.8701 3.74021 2.81976 3.86308C2.76942 3.98596 2.74406 4.11762 2.74515 4.2504C2.74624 4.38318 2.77377 4.51441 2.82612 4.63644C2.87847 4.75847 2.9546 4.86885 3.05006 4.96114L6.58673 8.49714L3.05073 12.0331C2.95526 12.1254 2.87913 12.2358 2.82678 12.3578C2.77443 12.4799 2.74691 12.6111 2.74582 12.7439C2.74473 12.8767 2.77009 13.0083 2.82043 13.1312C2.87077 13.2541 2.94507 13.3657 3.03901 13.4595C3.13295 13.5534 3.24463 13.6276 3.36755 13.6778C3.49047 13.728 3.62216 13.7533 3.75494 13.7521C3.88772 13.7508 4.01893 13.7232 4.14091 13.6707C4.26288 13.6183 4.37319 13.542 4.46539 13.4465L8.00006 9.91181Z" fill="#FF0000"/>
</svg>
